STARTFONT 2.1
COMMENT
COMMENT Converted from OpenType font "JetBrainsMonoNerdFont-Regular.ttf" by "otf2bdf 3.0".
COMMENT
FONT -FreeType-JetBrainsMono NF-Medium-R-Normal--4-40-72-72-P-32-ISO10646-1
SIZE 4 72 72
FONTBOUNDINGBOX 8 7 -3 -2
STARTPROPERTIES 19
FOUNDRY "FreeType"
FAMILY_NAME "JetBrainsMono NF"
WEIGHT_NAME "Medium"
SLANT "R"
SETWIDTH_NAME "Normal"
ADD_STYLE_NAME ""
PIXEL_SIZE 4
POINT_SIZE 40
RESOLUTION_X 72
RESOLUTION_Y 72
SPACING "P"
AVERAGE_WIDTH 32
CHARSET_REGISTRY "ISO10646"
CHARSET_ENCODING "1"
FONT_ASCENT 4
FONT_DESCENT 1
COPYRIGHT "Copyright 2020 The JetBrains Mono Project Authors (https://github.com/JetBrains/JetBrainsMono)"
_OTF_FONTFILE "JetBrainsMonoNerdFont-Regular.ttf"
_OTF_PSNAME "JetBrainsMonoNF-Regular"
ENDPROPERTIES
CHARS 3562
STARTCHAR 000D
ENCODING 13
SWIDTH 500 0
DWIDTH 2 0
BBX 0 0 0 0
BITMAP
ENDCHAR
STARTCHAR 0020
ENCODING 32
SWIDTH 500 0
DWIDTH 2 0
BBX 0 0 0 0
BITMAP
ENDCHAR
STARTCHAR 0021
ENCODING 33
SWIDTH 500 0
DWIDTH 2 0
BBX 1 3 1 0
BITMAP
80
80
80
ENDCHAR
STARTCHAR 0022
ENCODING 34
SWIDTH 500 0
DWIDTH 2 0
BBX 1 1 1 2
BITMAP
80
ENDCHAR
STARTCHAR 0023
ENCODING 35
SWIDTH 500 0
DWIDTH 2 0
BBX 2 3 0 0
BITMAP
C0
C0
C0
ENDCHAR
STARTCHAR 0024
ENCODING 36
SWIDTH 500 0
DWIDTH 2 0
BBX 2 4 0 0
BITMAP
40
C0
40
C0
ENDCHAR
STARTCHAR 0025
ENCODING 37
SWIDTH 500 0
DWIDTH 2 0
BBX 2 3 0 0
BITMAP
C0
40
C0
ENDCHAR
STARTCHAR 0026
ENCODING 38
SWIDTH 500 0
DWIDTH 2 0
BBX 2 3 0 0
BITMAP
C0
80
C0
ENDCHAR
STARTCHAR 0027
ENCODING 39
SWIDTH 500 0
DWIDTH 2 0
BBX 1 1 1 2
BITMAP
80
ENDCHAR
STARTCHAR 0028
ENCODING 40
SWIDTH 500 0
DWIDTH 2 0
BBX 1 3 1 0
BITMAP
80
80
80
ENDCHAR
STARTCHAR 0029
ENCODING 41
SWIDTH 500 0
DWIDTH 2 0
BBX 2 3 0 0
BITMAP
C0
40
C0
ENDCHAR
STARTCHAR 002A
ENCODING 42
SWIDTH 500 0
DWIDTH 2 0
BBX 2 2 0 0
BITMAP
C0
C0
ENDCHAR
STARTCHAR 002B
ENCODING 43
SWIDTH 500 0
DWIDTH 2 0
BBX 2 2 0 0
BITMAP
C0
40
ENDCHAR
STARTCHAR 002C
ENCODING 44
SWIDTH 500 0
DWIDTH 2 0
BBX 1 1 1 -1
BITMAP
80
ENDCHAR
STARTCHAR 002D
ENCODING 45
SWIDTH 500 0
DWIDTH 2 0
BBX 1 1 1 1
BITMAP
80
ENDCHAR
STARTCHAR 002E
ENCODING 46
SWIDTH 500 0
DWIDTH 2 0
BBX 1 1 1 0
BITMAP
80
ENDCHAR
STARTCHAR 002F
ENCODING 47
SWIDTH 500 0
DWIDTH 2 0
BBX 2 4 0 0
BITMAP
40
40
40
80
ENDCHAR
STARTCHAR 0030
ENCODING 48
SWIDTH 500 0
DWIDTH 2 0
BBX 2 3 0 0
BITMAP
C0
C0
C0
ENDCHAR
STARTCHAR 0031
ENCODING 49
SWIDTH 500 0
DWIDTH 2 0
BBX 2 3 0 0
BITMAP
C0
40
C0
ENDCHAR
STARTCHAR 0032
ENCODING 50
SWIDTH 500 0
DWIDTH 2 0
BBX 2 3 0 0
BITMAP
C0
40
C0
ENDCHAR
STARTCHAR 0033
ENCODING 51
SWIDTH 500 0
DWIDTH 2 0
BBX 2 3 0 0
BITMAP
C0
40
C0
ENDCHAR
STARTCHAR 0034
ENCODING 52
SWIDTH 500 0
DWIDTH 2 0
BBX 2 3 0 0
BITMAP
40
C0
C0
ENDCHAR
STARTCHAR 0035
ENCODING 53
SWIDTH 500 0
DWIDTH 2 0
BBX 2 3 0 0
BITMAP
C0
C0
C0
ENDCHAR
STARTCHAR 0036
ENCODING 54
SWIDTH 500 0
DWIDTH 2 0
BBX 2 3 0 0
BITMAP
40
C0
C0
ENDCHAR
STARTCHAR 0037
ENCODING 55
SWIDTH 500 0
DWIDTH 2 0
BBX 2 3 0 0
BITMAP
C0
40
40
ENDCHAR
STARTCHAR 0038
ENCODING 56
SWIDTH 500 0
DWIDTH 2 0
BBX 2 3 0 0
BITMAP
C0
40
C0
ENDCHAR
STARTCHAR 0039
ENCODING 57
SWIDTH 500 0
DWIDTH 2 0
BBX 2 3 0 0
BITMAP
C0
40
40
ENDCHAR
STARTCHAR 003A
ENCODING 58
SWIDTH 500 0
DWIDTH 2 0
BBX 1 2 1 0
BITMAP
80
80
ENDCHAR
STARTCHAR 003B
ENCODING 59
SWIDTH 500 0
DWIDTH 2 0
BBX 1 3 1 -1
BITMAP
80
00
80
ENDCHAR
STARTCHAR 003C
ENCODING 60
SWIDTH 500 0
DWIDTH 2 0
BBX 2 2 0 0
BITMAP
C0
40
ENDCHAR
STARTCHAR 003D
ENCODING 61
SWIDTH 500 0
DWIDTH 2 0
BBX 2 2 0 0
BITMAP
C0
C0
ENDCHAR
STARTCHAR 003E
ENCODING 62
SWIDTH 500 0
DWIDTH 2 0
BBX 2 2 0 0
BITMAP
C0
80
ENDCHAR
STARTCHAR 003F
ENCODING 63
SWIDTH 500 0
DWIDTH 2 0
BBX 1 2 1 0
BITMAP
80
80
ENDCHAR
STARTCHAR 0040
ENCODING 64
SWIDTH 500 0
DWIDTH 2 0
BBX 2 4 0 -1
BITMAP
C0
C0
C0
C0
ENDCHAR
STARTCHAR 0041
ENCODING 65
SWIDTH 500 0
DWIDTH 2 0
BBX 2 3 0 0
BITMAP
40
40
C0
ENDCHAR
STARTCHAR 0042
ENCODING 66
SWIDTH 500 0
DWIDTH 2 0
BBX 2 3 0 0
BITMAP
C0
C0
C0
ENDCHAR
STARTCHAR 0043
ENCODING 67
SWIDTH 500 0
DWIDTH 2 0
BBX 2 3 0 0
BITMAP
C0
80
C0
ENDCHAR
STARTCHAR 0044
ENCODING 68
SWIDTH 500 0
DWIDTH 2 0
BBX 2 3 0 0
BITMAP
C0
C0
C0
ENDCHAR
STARTCHAR 0045
ENCODING 69
SWIDTH 500 0
DWIDTH 2 0
BBX 2 3 0 0
BITMAP
C0
C0
C0
ENDCHAR
STARTCHAR 0046
ENCODING 70
SWIDTH 500 0
DWIDTH 2 0
BBX 2 3 0 0
BITMAP
C0
C0
80
ENDCHAR
STARTCHAR 0047
ENCODING 71
SWIDTH 500 0
DWIDTH 2 0
BBX 2 3 0 0
BITMAP
C0
C0
C0
ENDCHAR
STARTCHAR 0048
ENCODING 72
SWIDTH 500 0
DWIDTH 2 0
BBX 2 3 0 0
BITMAP
C0
C0
C0
ENDCHAR
STARTCHAR 0049
ENCODING 73
SWIDTH 500 0
DWIDTH 2 0
BBX 2 3 0 0
BITMAP
C0
40
C0
ENDCHAR
STARTCHAR 004A
ENCODING 74
SWIDTH 500 0
DWIDTH 2 0
BBX 2 3 0 0
BITMAP
40
40
C0
ENDCHAR
STARTCHAR 004B
ENCODING 75
SWIDTH 500 0
DWIDTH 2 0
BBX 2 3 0 0
BITMAP
C0
80
C0
ENDCHAR
STARTCHAR 004C
ENCODING 76
SWIDTH 500 0
DWIDTH 2 0
BBX 1 3 1 0
BITMAP
80
80
80
ENDCHAR
STARTCHAR 004D
ENCODING 77
SWIDTH 500 0
DWIDTH 2 0
BBX 2 3 0 0
BITMAP
C0
C0
C0
ENDCHAR
STARTCHAR 004E
ENCODING 78
SWIDTH 500 0
DWIDTH 2 0
BBX 2 3 0 0
BITMAP
C0
C0
C0
ENDCHAR
STARTCHAR 004F
ENCODING 79
SWIDTH 500 0
DWIDTH 2 0
BBX 2 3 0 0
BITMAP
C0
C0
C0
ENDCHAR
STARTCHAR 0050
ENCODING 80
SWIDTH 500 0
DWIDTH 2 0
BBX 2 3 0 0
BITMAP
C0
C0
80
ENDCHAR
STARTCHAR 0051
ENCODING 81
SWIDTH 500 0
DWIDTH 2 0
BBX 2 4 0 -1
BITMAP
C0
C0
C0
40
ENDCHAR
STARTCHAR 0052
ENCODING 82
SWIDTH 500 0
DWIDTH 2 0
BBX 2 3 0 0
BITMAP
C0
C0
C0
ENDCHAR
STARTCHAR 0053
ENCODING 83
SWIDTH 500 0
DWIDTH 2 0
BBX 2 3 0 0
BITMAP
C0
40
C0
ENDCHAR
STARTCHAR 0054
ENCODING 84
SWIDTH 500 0
DWIDTH 2 0
BBX 2 3 0 0
BITMAP
C0
40
40
ENDCHAR
STARTCHAR 0055
ENCODING 85
SWIDTH 500 0
DWIDTH 2 0
BBX 2 3 0 0
BITMAP
C0
C0
C0
ENDCHAR
STARTCHAR 0056
ENCODING 86
SWIDTH 500 0
DWIDTH 2 0
BBX 2 3 0 0
BITMAP
C0
40
40
ENDCHAR
STARTCHAR 0057
ENCODING 87
SWIDTH 500 0
DWIDTH 2 0
BBX 2 3 0 0
BITMAP
C0
C0
C0
ENDCHAR
STARTCHAR 0058
ENCODING 88
SWIDTH 500 0
DWIDTH 2 0
BBX 2 3 0 0
BITMAP
C0
40
C0
ENDCHAR
STARTCHAR 0059
ENCODING 89
SWIDTH 500 0
DWIDTH 2 0
BBX 2 3 0 0
BITMAP
C0
40
40
ENDCHAR
STARTCHAR 005A
ENCODING 90
SWIDTH 500 0
DWIDTH 2 0
BBX 2 3 0 0
BITMAP
C0
40
C0
ENDCHAR
STARTCHAR 005B
ENCODING 91
SWIDTH 500 0
DWIDTH 2 0
BBX 1 4 1 -1
BITMAP
80
80
80
80
ENDCHAR
STARTCHAR 005C
ENCODING 92
SWIDTH 500 0
DWIDTH 2 0
BBX 2 4 0 0
BITMAP
80
80
40
40
ENDCHAR
STARTCHAR 005D
ENCODING 93
SWIDTH 500 0
DWIDTH 2 0
BBX 1 4 1 -1
BITMAP
80
80
80
80
ENDCHAR
STARTCHAR 005E
ENCODING 94
SWIDTH 500 0
DWIDTH 2 0
BBX 2 2 0 1
BITMAP
40
C0
ENDCHAR
STARTCHAR 005F
ENCODING 95
SWIDTH 500 0
DWIDTH 2 0
BBX 2 1 0 -1
BITMAP
C0
ENDCHAR
STARTCHAR 0060
ENCODING 96
SWIDTH 500 0
DWIDTH 2 0
BBX 1 1 1 2
BITMAP
80
ENDCHAR
STARTCHAR 0061
ENCODING 97
SWIDTH 500 0
DWIDTH 2 0
BBX 2 2 0 0
BITMAP
C0
C0
ENDCHAR
STARTCHAR 0062
ENCODING 98
SWIDTH 500 0
DWIDTH 2 0
BBX 2 3 0 0
BITMAP
80
C0
C0
ENDCHAR
STARTCHAR 0063
ENCODING 99
SWIDTH 500 0
DWIDTH 2 0
BBX 2 2 0 0
BITMAP
C0
C0
ENDCHAR
STARTCHAR 0064
ENCODING 100
SWIDTH 500 0
DWIDTH 2 0
BBX 2 3 0 0
BITMAP
40
C0
C0
ENDCHAR
STARTCHAR 0065
ENCODING 101
SWIDTH 500 0
DWIDTH 2 0
BBX 2 2 0 0
BITMAP
C0
C0
ENDCHAR
STARTCHAR 0066
ENCODING 102
SWIDTH 500 0
DWIDTH 2 0
BBX 2 3 0 0
BITMAP
40
C0
40
ENDCHAR
STARTCHAR 0067
ENCODING 103
SWIDTH 500 0
DWIDTH 2 0
BBX 2 3 0 -1
BITMAP
C0
C0
40
ENDCHAR
STARTCHAR 0068
ENCODING 104
SWIDTH 500 0
DWIDTH 2 0
BBX 2 3 0 0
BITMAP
80
C0
C0
ENDCHAR
STARTCHAR 0069
ENCODING 105
SWIDTH 500 0
DWIDTH 2 0
BBX 2 3 0 0
BITMAP
40
C0
C0
ENDCHAR
STARTCHAR 006A
ENCODING 106
SWIDTH 500 0
DWIDTH 2 0
BBX 2 4 0 -1
BITMAP
40
C0
40
C0
ENDCHAR
STARTCHAR 006B
ENCODING 107
SWIDTH 500 0
DWIDTH 2 0
BBX 2 3 0 0
BITMAP
80
C0
C0
ENDCHAR
STARTCHAR 006C
ENCODING 108
SWIDTH 500 0
DWIDTH 2 0
BBX 2 3 0 0
BITMAP
C0
40
40
ENDCHAR
STARTCHAR 006D
ENCODING 109
SWIDTH 500 0
DWIDTH 2 0
BBX 2 2 0 0
BITMAP
C0
C0
ENDCHAR
STARTCHAR 006E
ENCODING 110
SWIDTH 500 0
DWIDTH 2 0
BBX 2 2 0 0
BITMAP
C0
C0
ENDCHAR
STARTCHAR 006F
ENCODING 111
SWIDTH 500 0
DWIDTH 2 0
BBX 2 2 0 0
BITMAP
C0
C0
ENDCHAR
STARTCHAR 0070
ENCODING 112
SWIDTH 500 0
DWIDTH 2 0
BBX 2 3 0 -1
BITMAP
C0
C0
80
ENDCHAR
STARTCHAR 0071
ENCODING 113
SWIDTH 500 0
DWIDTH 2 0
BBX 2 3 0 -1
BITMAP
C0
C0
40
ENDCHAR
STARTCHAR 0072
ENCODING 114
SWIDTH 500 0
DWIDTH 2 0
BBX 2 2 0 0
BITMAP
C0
80
ENDCHAR
STARTCHAR 0073
ENCODING 115
SWIDTH 500 0
DWIDTH 2 0
BBX 2 2 0 0
BITMAP
C0
C0
ENDCHAR
STARTCHAR 0074
ENCODING 116
SWIDTH 500 0
DWIDTH 2 0
BBX 2 3 0 0
BITMAP
80
C0
C0
ENDCHAR
STARTCHAR 0075
ENCODING 117
SWIDTH 500 0
DWIDTH 2 0
BBX 2 2 0 0
BITMAP
C0
C0
ENDCHAR
STARTCHAR 0076
ENCODING 118
SWIDTH 500 0
DWIDTH 2 0
BBX 2 2 0 0
BITMAP
C0
40
ENDCHAR
STARTCHAR 0077
ENCODING 119
SWIDTH 500 0
DWIDTH 2 0
BBX 2 2 0 0
BITMAP
C0
C0
ENDCHAR
STARTCHAR 0078
ENCODING 120
SWIDTH 500 0
DWIDTH 2 0
BBX 2 2 0 0
BITMAP
C0
C0
ENDCHAR
STARTCHAR 0079
ENCODING 121
SWIDTH 500 0
DWIDTH 2 0
BBX 2 3 0 -1
BITMAP
C0
40
40
ENDCHAR
STARTCHAR 007A
ENCODING 122
SWIDTH 500 0
DWIDTH 2 0
BBX 2 2 0 0
BITMAP
C0
C0
ENDCHAR
STARTCHAR 007B
ENCODING 123
SWIDTH 500 0
DWIDTH 2 0
BBX 2 4 0 -1
BITMAP
40
80
40
40
ENDCHAR
STARTCHAR 007C
ENCODING 124
SWIDTH 500 0
DWIDTH 2 0
BBX 1 4 1 0
BITMAP
80
80
80
80
ENDCHAR
STARTCHAR 007D
ENCODING 125
SWIDTH 500 0
DWIDTH 2 0
BBX 2 4 0 -1
BITMAP
80
40
40
80
ENDCHAR
STARTCHAR 007E
ENCODING 126
SWIDTH 500 0
DWIDTH 2 0
BBX 2 1 0 1
BITMAP
C0
ENDCHAR
STARTCHAR 00A0
ENCODING 160
SWIDTH 500 0
DWIDTH 2 0
BBX 0 0 0 0
BITMAP
ENDCHAR
STARTCHAR 00A1
ENCODING 161
SWIDTH 500 0
DWIDTH 2 0
BBX 1 3 1 -1
BITMAP
80
80
80
ENDCHAR
STARTCHAR 00A2
ENCODING 162
SWIDTH 500 0
DWIDTH 2 0
BBX 2 3 0 0
BITMAP
40
80
40
ENDCHAR
STARTCHAR 00A3
ENCODING 163
SWIDTH 500 0
DWIDTH 2 0
BBX 2 3 0 0
BITMAP
C0
C0
C0
ENDCHAR
STARTCHAR 00A4
ENCODING 164
SWIDTH 500 0
DWIDTH 2 0
BBX 2 2 0 0
BITMAP
C0
C0
ENDCHAR
STARTCHAR 00A5
ENCODING 165
SWIDTH 500 0
DWIDTH 2 0
BBX 2 3 0 0
BITMAP
C0
C0
C0
ENDCHAR
STARTCHAR 00A6
ENCODING 166
SWIDTH 500 0
DWIDTH 2 0
BBX 1 3 1 0
BITMAP
80
00
80
ENDCHAR
STARTCHAR 00A7
ENCODING 167
SWIDTH 500 0
DWIDTH 2 0
BBX 2 4 0 -1
BITMAP
C0
C0
40
C0
ENDCHAR
STARTCHAR 00A8
ENCODING 168
SWIDTH 500 0
DWIDTH 2 0
BBX 2 1 0 2
BITMAP
C0
ENDCHAR
STARTCHAR 00A9
ENCODING 169
SWIDTH 500 0
DWIDTH 2 0
BBX 2 3 0 0
BITMAP
40
C0
40
ENDCHAR
STARTCHAR 00AA
ENCODING 170
SWIDTH 500 0
DWIDTH 2 0
BBX 1 2 1 1
BITMAP
80
80
ENDCHAR
STARTCHAR 00AB
ENCODING 171
SWIDTH 500 0
DWIDTH 2 0
BBX 2 2 0 0
BITMAP
C0
C0
ENDCHAR
STARTCHAR 00AC
ENCODING 172
SWIDTH 500 0
DWIDTH 2 0
BBX 2 1 0 1
BITMAP
C0
ENDCHAR
STARTCHAR 00AD
ENCODING 173
SWIDTH 500 0
DWIDTH 2 0
BBX 1 1 1 1
BITMAP
80
ENDCHAR
STARTCHAR 00AE
ENCODING 174
SWIDTH 500 0
DWIDTH 2 0
BBX 2 3 0 0
BITMAP
C0
C0
40
ENDCHAR
STARTCHAR 00AF
ENCODING 175
SWIDTH 500 0
DWIDTH 2 0
BBX 1 1 1 2
BITMAP
80
ENDCHAR
STARTCHAR 00B0
ENCODING 176
SWIDTH 500 0
DWIDTH 2 0
BBX 1 2 1 1
BITMAP
80
80
ENDCHAR
STARTCHAR 00B1
ENCODING 177
SWIDTH 500 0
DWIDTH 2 0
BBX 2 2 0 0
BITMAP
C0
C0
ENDCHAR
STARTCHAR 00B2
ENCODING 178
SWIDTH 500 0
DWIDTH 2 0
BBX 1 1 1 2
BITMAP
80
ENDCHAR
STARTCHAR 00B3
ENCODING 179
SWIDTH 500 0
DWIDTH 2 0
BBX 1 1 1 2
BITMAP
80
ENDCHAR
STARTCHAR 00B4
ENCODING 180
SWIDTH 500 0
DWIDTH 2 0
BBX 1 1 1 2
BITMAP
80
ENDCHAR
STARTCHAR 00B5
ENCODING 181
SWIDTH 500 0
DWIDTH 2 0
BBX 2 3 0 -1
BITMAP
C0
C0
80
ENDCHAR
STARTCHAR 00B6
ENCODING 182
SWIDTH 500 0
DWIDTH 2 0
BBX 2 4 0 -1
BITMAP
C0
40
40
40
ENDCHAR
STARTCHAR 00B7
ENCODING 183
SWIDTH 500 0
DWIDTH 2 0
BBX 1 1 1 1
BITMAP
80
ENDCHAR
STARTCHAR 00B8
ENCODING 184
SWIDTH 500 0
DWIDTH 2 0
BBX 1 2 1 -1
BITMAP
80
80
ENDCHAR
STARTCHAR 00B9
ENCODING 185
SWIDTH 500 0
DWIDTH 2 0
BBX 1 1 1 2
BITMAP
80
ENDCHAR
STARTCHAR 00BA
ENCODING 186
SWIDTH 500 0
DWIDTH 2 0
BBX 1 2 1 1
BITMAP
80
80
ENDCHAR
STARTCHAR 00BB
ENCODING 187
SWIDTH 500 0
DWIDTH 2 0
BBX 2 2 0 0
BITMAP
C0
C0
ENDCHAR
STARTCHAR 00BC
ENCODING 188
SWIDTH 500 0
DWIDTH 2 0
BBX 2 3 0 0
BITMAP
C0
80
C0
ENDCHAR
STARTCHAR 00BD
ENCODING 189
SWIDTH 500 0
DWIDTH 2 0
BBX 2 3 0 0
BITMAP
C0
40
C0
ENDCHAR
STARTCHAR 00BE
ENCODING 190
SWIDTH 500 0
DWIDTH 2 0
BBX 2 3 0 0
BITMAP
C0
80
C0
ENDCHAR
STARTCHAR 00BF
ENCODING 191
SWIDTH 500 0
DWIDTH 2 0
BBX 2 3 0 -1
BITMAP
40
40
C0
ENDCHAR
STARTCHAR 00C0
ENCODING 192
SWIDTH 500 0
DWIDTH 2 0
BBX 2 4 0 0
BITMAP
80
40
40
C0
ENDCHAR
STARTCHAR 00C1
ENCODING 193
SWIDTH 500 0
DWIDTH 2 0
BBX 2 4 0 0
BITMAP
40
40
40
C0
ENDCHAR
STARTCHAR 00C2
ENCODING 194
SWIDTH 500 0
DWIDTH 2 0
BBX 2 4 0 0
BITMAP
40
C0
40
C0
ENDCHAR
STARTCHAR 00C3
ENCODING 195
SWIDTH 500 0
DWIDTH 2 0
BBX 2 4 0 0
BITMAP
40
40
40
C0
ENDCHAR
STARTCHAR 00C4
ENCODING 196
SWIDTH 500 0
DWIDTH 2 0
BBX 2 4 0 0
BITMAP
C0
40
40
C0
ENDCHAR
STARTCHAR 00C5
ENCODING 197
SWIDTH 500 0
DWIDTH 2 0
BBX 2 4 0 0
BITMAP
40
40
40
C0
ENDCHAR
STARTCHAR 00C6
ENCODING 198
SWIDTH 500 0
DWIDTH 2 0
BBX 2 3 0 0
BITMAP
40
C0
C0
ENDCHAR
STARTCHAR 00C7
ENCODING 199
SWIDTH 500 0
DWIDTH 2 0
BBX 2 4 0 -1
BITMAP
C0
80
C0
40
ENDCHAR
STARTCHAR 00C8
ENCODING 200
SWIDTH 500 0
DWIDTH 2 0
BBX 2 4 0 0
BITMAP
80
C0
C0
C0
ENDCHAR
STARTCHAR 00C9
ENCODING 201
SWIDTH 500 0
DWIDTH 2 0
BBX 2 4 0 0
BITMAP
40
80
C0
C0
ENDCHAR
STARTCHAR 00CA
ENCODING 202
SWIDTH 500 0
DWIDTH 2 0
BBX 2 4 0 0
BITMAP
40
80
C0
C0
ENDCHAR
STARTCHAR 00CB
ENCODING 203
SWIDTH 500 0
DWIDTH 2 0
BBX 2 4 0 0
BITMAP
40
80
C0
C0
ENDCHAR
STARTCHAR 00CC
ENCODING 204
SWIDTH 500 0
DWIDTH 2 0
BBX 2 4 0 0
BITMAP
80
40
40
C0
ENDCHAR
STARTCHAR 00CD
ENCODING 205
SWIDTH 500 0
DWIDTH 2 0
BBX 2 4 0 0
BITMAP
40
C0
40
C0
ENDCHAR
STARTCHAR 00CE
ENCODING 206
SWIDTH 500 0
DWIDTH 2 0
BBX 2 4 0 0
BITMAP
40
C0
40
C0
ENDCHAR
STARTCHAR 00CF
ENCODING 207
SWIDTH 500 0
DWIDTH 2 0
BBX 2 4 0 0
BITMAP
C0
40
40
C0
ENDCHAR
STARTCHAR 00D0
ENCODING 208
SWIDTH 500 0
DWIDTH 2 0
BBX 2 3 0 0
BITMAP
C0
C0
C0
ENDCHAR
STARTCHAR 00D1
ENCODING 209
SWIDTH 500 0
DWIDTH 2 0
BBX 2 4 0 0
BITMAP
40
C0
C0
C0
ENDCHAR
STARTCHAR 00D2
ENCODING 210
SWIDTH 500 0
DWIDTH 2 0
BBX 2 4 0 0
BITMAP
80
C0
C0
C0
ENDCHAR
STARTCHAR 00D3
ENCODING 211
SWIDTH 500 0
DWIDTH 2 0
BBX 2 4 0 0
BITMAP
40
C0
C0
C0
ENDCHAR
STARTCHAR 00D4
ENCODING 212
SWIDTH 500 0
DWIDTH 2 0
BBX 2 4 0 0
BITMAP
40
C0
C0
C0
ENDCHAR
STARTCHAR 00D5
ENCODING 213
SWIDTH 500 0
DWIDTH 2 0
BBX 2 4 0 0
BITMAP
40
C0
C0
C0
ENDCHAR
STARTCHAR 00D6
ENCODING 214
SWIDTH 500 0
DWIDTH 2 0
BBX 2 4 0 0
BITMAP
C0
C0
C0
C0
ENDCHAR
STARTCHAR 00D7
ENCODING 215
SWIDTH 500 0
DWIDTH 2 0
BBX 2 1 0 1
BITMAP
C0
ENDCHAR
STARTCHAR 00D8
ENCODING 216
SWIDTH 500 0
DWIDTH 2 0
BBX 2 3 0 0
BITMAP
C0
C0
C0
ENDCHAR
STARTCHAR 00D9
ENCODING 217
SWIDTH 500 0
DWIDTH 2 0
BBX 2 4 0 0
BITMAP
80
C0
C0
C0
ENDCHAR
STARTCHAR 00DA
ENCODING 218
SWIDTH 500 0
DWIDTH 2 0
BBX 2 4 0 0
BITMAP
40
C0
C0
C0
ENDCHAR
STARTCHAR 00DB
ENCODING 219
SWIDTH 500 0
DWIDTH 2 0
BBX 2 4 0 0
BITMAP
40
C0
C0
C0
ENDCHAR
STARTCHAR 00DC
ENCODING 220
SWIDTH 500 0
DWIDTH 2 0
BBX 2 4 0 0
BITMAP
C0
C0
C0
C0
ENDCHAR
STARTCHAR 00DD
ENCODING 221
SWIDTH 500 0
DWIDTH 2 0
BBX 2 4 0 0
BITMAP
40
C0
40
40
ENDCHAR
STARTCHAR 00DE
ENCODING 222
SWIDTH 500 0
DWIDTH 2 0
BBX 2 3 0 0
BITMAP
80
C0
C0
ENDCHAR
STARTCHAR 00DF
ENCODING 223
SWIDTH 500 0
DWIDTH 2 0
BBX 2 3 0 0
BITMAP
C0
C0
C0
ENDCHAR
STARTCHAR 00E0
ENCODING 224
SWIDTH 500 0
DWIDTH 2 0
BBX 2 3 0 0
BITMAP
80
40
C0
ENDCHAR
STARTCHAR 00E1
ENCODING 225
SWIDTH 500 0
DWIDTH 2 0
BBX 2 3 0 0
BITMAP
40
C0
C0
ENDCHAR
STARTCHAR 00E2
ENCODING 226
SWIDTH 500 0
DWIDTH 2 0
BBX 2 3 0 0
BITMAP
40
C0
C0
ENDCHAR
STARTCHAR 00E3
ENCODING 227
SWIDTH 500 0
DWIDTH 2 0
BBX 2 3 0 0
BITMAP
40
C0
C0
ENDCHAR
STARTCHAR 00E4
ENCODING 228
SWIDTH 500 0
DWIDTH 2 0
BBX 2 3 0 0
BITMAP
40
C0
C0
ENDCHAR
STARTCHAR 00E5
ENCODING 229
SWIDTH 500 0
DWIDTH 2 0
BBX 2 4 0 0
BITMAP
40
40
C0
C0
ENDCHAR
STARTCHAR 00E6
ENCODING 230
SWIDTH 500 0
DWIDTH 2 0
BBX 2 2 0 0
BITMAP
C0
C0
ENDCHAR
STARTCHAR 00E7
ENCODING 231
SWIDTH 500 0
DWIDTH 2 0
BBX 2 3 0 -1
BITMAP
C0
C0
40
ENDCHAR
STARTCHAR 00E8
ENCODING 232
SWIDTH 500 0
DWIDTH 2 0
BBX 2 3 0 0
BITMAP
80
C0
C0
ENDCHAR
STARTCHAR 00E9
ENCODING 233
SWIDTH 500 0
DWIDTH 2 0
BBX 2 3 0 0
BITMAP
40
C0
C0
ENDCHAR
STARTCHAR 00EA
ENCODING 234
SWIDTH 500 0
DWIDTH 2 0
BBX 2 3 0 0
BITMAP
40
C0
C0
ENDCHAR
STARTCHAR 00EB
ENCODING 235
SWIDTH 500 0
DWIDTH 2 0
BBX 2 3 0 0
BITMAP
C0
C0
C0
ENDCHAR
STARTCHAR 00EC
ENCODING 236
SWIDTH 500 0
DWIDTH 2 0
BBX 2 3 0 0
BITMAP
80
40
C0
ENDCHAR
STARTCHAR 00ED
ENCODING 237
SWIDTH 500 0
DWIDTH 2 0
BBX 2 3 0 0
BITMAP
40
C0
C0
ENDCHAR
STARTCHAR 00EE
ENCODING 238
SWIDTH 500 0
DWIDTH 2 0
BBX 2 3 0 0
BITMAP
40
C0
C0
ENDCHAR
STARTCHAR 00EF
ENCODING 239
SWIDTH 500 0
DWIDTH 2 0
BBX 2 3 0 0
BITMAP
40
C0
C0
ENDCHAR
STARTCHAR 00F0
ENCODING 240
SWIDTH 500 0
DWIDTH 2 0
BBX 2 3 0 0
BITMAP
C0
40
C0
ENDCHAR
STARTCHAR 00F1
ENCODING 241
SWIDTH 500 0
DWIDTH 2 0
BBX 2 3 0 0
BITMAP
40
C0
C0
ENDCHAR
STARTCHAR 00F2
ENCODING 242
SWIDTH 500 0
DWIDTH 2 0
BBX 2 3 0 0
BITMAP
80
C0
C0
ENDCHAR
STARTCHAR 00F3
ENCODING 243
SWIDTH 500 0
DWIDTH 2 0
BBX 2 3 0 0
BITMAP
40
C0
C0
ENDCHAR
STARTCHAR 00F4
ENCODING 244
SWIDTH 500 0
DWIDTH 2 0
BBX 2 3 0 0
BITMAP
40
C0
C0
ENDCHAR
STARTCHAR 00F5
ENCODING 245
SWIDTH 500 0
DWIDTH 2 0
BBX 2 3 0 0
BITMAP
40
C0
C0
ENDCHAR
STARTCHAR 00F6
ENCODING 246
SWIDTH 500 0
DWIDTH 2 0
BBX 2 3 0 0
BITMAP
C0
C0
C0
ENDCHAR
STARTCHAR 00F7
ENCODING 247
SWIDTH 500 0
DWIDTH 2 0
BBX 2 2 0 0
BITMAP
C0
40
ENDCHAR
STARTCHAR 00F8
ENCODING 248
SWIDTH 500 0
DWIDTH 2 0
BBX 2 2 0 0
BITMAP
C0
C0
ENDCHAR
STARTCHAR 00F9
ENCODING 249
SWIDTH 500 0
DWIDTH 2 0
BBX 2 3 0 0
BITMAP
80
C0
C0
ENDCHAR
STARTCHAR 00FA
ENCODING 250
SWIDTH 500 0
DWIDTH 2 0
BBX 2 3 0 0
BITMAP
40
C0
C0
ENDCHAR
STARTCHAR 00FB
ENCODING 251
SWIDTH 500 0
DWIDTH 2 0
BBX 2 3 0 0
BITMAP
40
C0
C0
ENDCHAR
STARTCHAR 00FC
ENCODING 252
SWIDTH 500 0
DWIDTH 2 0
BBX 2 3 0 0
BITMAP
C0
C0
C0
ENDCHAR
STARTCHAR 00FD
ENCODING 253
SWIDTH 500 0
DWIDTH 2 0
BBX 2 4 0 -1
BITMAP
40
C0
40
40
ENDCHAR
STARTCHAR 00FE
ENCODING 254
SWIDTH 500 0
DWIDTH 2 0
BBX 2 4 0 -1
BITMAP
80
C0
C0
80
ENDCHAR
STARTCHAR 00FF
ENCODING 255
SWIDTH 500 0
DWIDTH 2 0
BBX 2 4 0 -1
BITMAP
C0
C0
40
40
ENDCHAR
STARTCHAR 0100
ENCODING 256
SWIDTH 500 0
DWIDTH 2 0
BBX 2 4 0 0
BITMAP
40
40
40
C0
ENDCHAR
STARTCHAR 0101
ENCODING 257
SWIDTH 500 0
DWIDTH 2 0
BBX 2 3 0 0
BITMAP
40
C0
C0
ENDCHAR
STARTCHAR 0102
ENCODING 258
SWIDTH 500 0
DWIDTH 2 0
BBX 2 3 0 0
BITMAP
40
40
C0
ENDCHAR
STARTCHAR 0103
ENCODING 259
SWIDTH 500 0
DWIDTH 2 0
BBX 2 3 0 0
BITMAP
40
C0
C0
ENDCHAR
STARTCHAR 0104
ENCODING 260
SWIDTH 500 0
DWIDTH 2 0
BBX 2 4 0 -1
BITMAP
40
40
C0
40
ENDCHAR
STARTCHAR 0105
ENCODING 261
SWIDTH 500 0
DWIDTH 2 0
BBX 2 3 0 -1
BITMAP
C0
C0
40
ENDCHAR
STARTCHAR 0106
ENCODING 262
SWIDTH 500 0
DWIDTH 2 0
BBX 2 4 0 0
BITMAP
40
C0
80
C0
ENDCHAR
STARTCHAR 0107
ENCODING 263
SWIDTH 500 0
DWIDTH 2 0
BBX 2 3 0 0
BITMAP
40
C0
C0
ENDCHAR
STARTCHAR 0108
ENCODING 264
SWIDTH 500 0
DWIDTH 2 0
BBX 2 4 0 0
BITMAP
40
C0
80
C0
ENDCHAR
STARTCHAR 0109
ENCODING 265
SWIDTH 500 0
DWIDTH 2 0
BBX 2 3 0 0
BITMAP
40
C0
C0
ENDCHAR
STARTCHAR 010A
ENCODING 266
SWIDTH 500 0
DWIDTH 2 0
BBX 2 4 0 0
BITMAP
40
C0
80
C0
ENDCHAR
STARTCHAR 010B
ENCODING 267
SWIDTH 500 0
DWIDTH 2 0
BBX 2 3 0 0
BITMAP
40
C0
C0
ENDCHAR
STARTCHAR 010C
ENCODING 268
SWIDTH 500 0
DWIDTH 2 0
BBX 2 4 0 0
BITMAP
C0
C0
80
C0
ENDCHAR
STARTCHAR 010D
ENCODING 269
SWIDTH 500 0
DWIDTH 2 0
BBX 2 3 0 0
BITMAP
C0
C0
C0
ENDCHAR
STARTCHAR 010E
ENCODING 270
SWIDTH 500 0
DWIDTH 2 0
BBX 2 4 0 0
BITMAP
C0
C0
C0
C0
ENDCHAR
STARTCHAR 010F
ENCODING 271
SWIDTH 500 0
DWIDTH 2 0
BBX 2 3 0 0
BITMAP
40
C0
C0
ENDCHAR
STARTCHAR 0110
ENCODING 272
SWIDTH 500 0
DWIDTH 2 0
BBX 2 3 0 0
BITMAP
C0
C0
C0
ENDCHAR
STARTCHAR 0111
ENCODING 273
SWIDTH 500 0
DWIDTH 2 0
BBX 2 3 0 0
BITMAP
40
40
C0
ENDCHAR
STARTCHAR 0112
ENCODING 274
SWIDTH 500 0
DWIDTH 2 0
BBX 2 4 0 0
BITMAP
40
80
C0
C0
ENDCHAR
STARTCHAR 0113
ENCODING 275
SWIDTH 500 0
DWIDTH 2 0
BBX 2 3 0 0
BITMAP
40
C0
C0
ENDCHAR
STARTCHAR 0114
ENCODING 276
SWIDTH 500 0
DWIDTH 2 0
BBX 2 3 0 0
BITMAP
C0
C0
C0
ENDCHAR
STARTCHAR 0115
ENCODING 277
SWIDTH 500 0
DWIDTH 2 0
BBX 2 3 0 0
BITMAP
40
C0
C0
ENDCHAR
STARTCHAR 0116
ENCODING 278
SWIDTH 500 0
DWIDTH 2 0
BBX 2 4 0 0
BITMAP
40
80
C0
C0
ENDCHAR
STARTCHAR 0117
ENCODING 279
SWIDTH 500 0
DWIDTH 2 0
BBX 2 3 0 0
BITMAP
40
C0
C0
ENDCHAR
STARTCHAR 0118
ENCODING 280
SWIDTH 500 0
DWIDTH 2 0
BBX 2 4 0 -1
BITMAP
C0
C0
80
40
ENDCHAR
STARTCHAR 0119
ENCODING 281
SWIDTH 500 0
DWIDTH 2 0
BBX 2 3 0 -1
BITMAP
C0
80
40
ENDCHAR
STARTCHAR 011A
ENCODING 282
SWIDTH 500 0
DWIDTH 2 0
BBX 2 4 0 0
BITMAP
C0
80
C0
C0
ENDCHAR
STARTCHAR 011B
ENCODING 283
SWIDTH 500 0
DWIDTH 2 0
BBX 2 3 0 0
BITMAP
C0
C0
C0
ENDCHAR
STARTCHAR 011C
ENCODING 284
SWIDTH 500 0
DWIDTH 2 0
BBX 2 4 0 0
BITMAP
40
C0
C0
C0
ENDCHAR
STARTCHAR 011D
ENCODING 285
SWIDTH 500 0
DWIDTH 2 0
BBX 2 4 0 -1
BITMAP
40
C0
C0
40
ENDCHAR
STARTCHAR 011E
ENCODING 286
SWIDTH 500 0
DWIDTH 2 0
BBX 2 3 0 0
BITMAP
C0
C0
C0
ENDCHAR
STARTCHAR 011F
ENCODING 287
SWIDTH 500 0
DWIDTH 2 0
BBX 2 4 0 -1
BITMAP
40
C0
C0
40
ENDCHAR
STARTCHAR 0120
ENCODING 288
SWIDTH 500 0
DWIDTH 2 0
BBX 2 4 0 0
BITMAP
40
C0
C0
C0
ENDCHAR
STARTCHAR 0121
ENCODING 289
SWIDTH 500 0
DWIDTH 2 0
BBX 2 4 0 -1
BITMAP
40
C0
C0
40
ENDCHAR
STARTCHAR 0122
ENCODING 290
SWIDTH 500 0
DWIDTH 2 0
BBX 2 4 0 -1
BITMAP
C0
C0
C0
40
ENDCHAR
STARTCHAR 0123
ENCODING 291
SWIDTH 500 0
DWIDTH 2 0
BBX 2 4 0 -1
BITMAP
40
C0
C0
40
ENDCHAR
STARTCHAR 0124
ENCODING 292
SWIDTH 500 0
DWIDTH 2 0
BBX 2 4 0 0
BITMAP
40
C0
C0
C0
ENDCHAR
STARTCHAR 0125
ENCODING 293
SWIDTH 500 0
DWIDTH 2 0
BBX 2 4 0 0
BITMAP
80
80
C0
C0
ENDCHAR
STARTCHAR 0126
ENCODING 294
SWIDTH 500 0
DWIDTH 2 0
BBX 2 3 0 0
BITMAP
C0
C0
C0
ENDCHAR
STARTCHAR 0127
ENCODING 295
SWIDTH 500 0
DWIDTH 2 0
BBX 2 3 0 0
BITMAP
80
C0
C0
ENDCHAR
STARTCHAR 0128
ENCODING 296
SWIDTH 500 0
DWIDTH 2 0
BBX 2 4 0 0
BITMAP
40
C0
40
C0
ENDCHAR
STARTCHAR 0129
ENCODING 297
SWIDTH 500 0
DWIDTH 2 0
BBX 2 3 0 0
BITMAP
40
C0
C0
ENDCHAR
STARTCHAR 012A
ENCODING 298
SWIDTH 500 0
DWIDTH 2 0
BBX 2 4 0 0
BITMAP
40
C0
40
C0
ENDCHAR
STARTCHAR 012B
ENCODING 299
SWIDTH 500 0
DWIDTH 2 0
BBX 2 3 0 0
BITMAP
40
C0
C0
ENDCHAR
STARTCHAR 012C
ENCODING 300
SWIDTH 500 0
DWIDTH 2 0
BBX 2 3 0 0
BITMAP
C0
40
C0
ENDCHAR
STARTCHAR 012D
ENCODING 301
SWIDTH 500 0
DWIDTH 2 0
BBX 2 3 0 0
BITMAP
40
C0
C0
ENDCHAR
STARTCHAR 012E
ENCODING 302
SWIDTH 500 0
DWIDTH 2 0
BBX 2 4 0 -1
BITMAP
C0
40
40
C0
ENDCHAR
STARTCHAR 012F
ENCODING 303
SWIDTH 500 0
DWIDTH 2 0
BBX 2 4 0 -1
BITMAP
40
C0
40
C0
ENDCHAR
STARTCHAR 0130
ENCODING 304
SWIDTH 500 0
DWIDTH 2 0
BBX 2 4 0 0
BITMAP
40
C0
40
C0
ENDCHAR
STARTCHAR 0131
ENCODING 305
SWIDTH 500 0
DWIDTH 2 0
BBX 2 2 0 0
BITMAP
C0
C0
ENDCHAR
STARTCHAR 0134
ENCODING 308
SWIDTH 500 0
DWIDTH 2 0
BBX 3 4 0 0
BITMAP
60
40
40
C0
ENDCHAR
STARTCHAR 0135
ENCODING 309
SWIDTH 500 0
DWIDTH 2 0
BBX 2 4 0 -1
BITMAP
40
C0
40
C0
ENDCHAR
STARTCHAR 0136
ENCODING 310
SWIDTH 500 0
DWIDTH 2 0
BBX 2 4 0 -1
BITMAP
C0
80
C0
40
ENDCHAR
STARTCHAR 0137
ENCODING 311
SWIDTH 500 0
DWIDTH 2 0
BBX 2 4 0 -1
BITMAP
80
C0
C0
40
ENDCHAR
STARTCHAR 0138
ENCODING 312
SWIDTH 500 0
DWIDTH 2 0
BBX 2 2 0 0
BITMAP
C0
C0
ENDCHAR
STARTCHAR 0139
ENCODING 313
SWIDTH 500 0
DWIDTH 2 0
BBX 2 4 0 0
BITMAP
40
80
80
C0
ENDCHAR
STARTCHAR 013A
ENCODING 314
SWIDTH 500 0
DWIDTH 2 0
BBX 2 4 0 0
BITMAP
40
C0
40
40
ENDCHAR
STARTCHAR 013B
ENCODING 315
SWIDTH 500 0
DWIDTH 2 0
BBX 1 4 1 -1
BITMAP
80
80
80
80
ENDCHAR
STARTCHAR 013C
ENCODING 316
SWIDTH 500 0
DWIDTH 2 0
BBX 2 4 0 -1
BITMAP
C0
40
40
40
ENDCHAR
STARTCHAR 013D
ENCODING 317
SWIDTH 500 0
DWIDTH 2 0
BBX 1 3 1 0
BITMAP
80
80
80
ENDCHAR
STARTCHAR 013E
ENCODING 318
SWIDTH 500 0
DWIDTH 2 0
BBX 2 3 0 0
BITMAP
C0
40
40
ENDCHAR
STARTCHAR 013F
ENCODING 319
SWIDTH 500 0
DWIDTH 2 0
BBX 1 3 1 0
BITMAP
80
80
80
ENDCHAR
STARTCHAR 0140
ENCODING 320
SWIDTH 500 0
DWIDTH 2 0
BBX 3 3 0 0
BITMAP
80
A0
C0
ENDCHAR
STARTCHAR 0141
ENCODING 321
SWIDTH 500 0
DWIDTH 2 0
BBX 2 3 0 0
BITMAP
C0
80
C0
ENDCHAR
STARTCHAR 0142
ENCODING 322
SWIDTH 500 0
DWIDTH 2 0
BBX 2 3 0 0
BITMAP
C0
80
40
ENDCHAR
STARTCHAR 0143
ENCODING 323
SWIDTH 500 0
DWIDTH 2 0
BBX 2 4 0 0
BITMAP
40
C0
C0
C0
ENDCHAR
STARTCHAR 0144
ENCODING 324
SWIDTH 500 0
DWIDTH 2 0
BBX 2 3 0 0
BITMAP
40
C0
C0
ENDCHAR
STARTCHAR 0145
ENCODING 325
SWIDTH 500 0
DWIDTH 2 0
BBX 2 4 0 -1
BITMAP
C0
C0
C0
40
ENDCHAR
STARTCHAR 0146
ENCODING 326
SWIDTH 500 0
DWIDTH 2 0
BBX 2 3 0 -1
BITMAP
C0
C0
40
ENDCHAR
STARTCHAR 0147
ENCODING 327
SWIDTH 500 0
DWIDTH 2 0
BBX 2 4 0 0
BITMAP
C0
C0
C0
C0
ENDCHAR
STARTCHAR 0148
ENCODING 328
SWIDTH 500 0
DWIDTH 2 0
BBX 2 3 0 0
BITMAP
C0
C0
C0
ENDCHAR
STARTCHAR 0149
ENCODING 329
SWIDTH 500 0
DWIDTH 2 0
BBX 2 4 0 0
BITMAP
80
00
C0
C0
ENDCHAR
STARTCHAR 014A
ENCODING 330
SWIDTH 500 0
DWIDTH 2 0
BBX 2 4 0 -1
BITMAP
C0
C0
C0
40
ENDCHAR
STARTCHAR 014B
ENCODING 331
SWIDTH 500 0
DWIDTH 2 0
BBX 2 3 0 -1
BITMAP
C0
C0
40
ENDCHAR
STARTCHAR 014C
ENCODING 332
SWIDTH 500 0
DWIDTH 2 0
BBX 2 4 0 0
BITMAP
40
C0
C0
C0
ENDCHAR
STARTCHAR 014D
ENCODING 333
SWIDTH 500 0
DWIDTH 2 0
BBX 2 3 0 0
BITMAP
40
C0
C0
ENDCHAR
STARTCHAR 014E
ENCODING 334
SWIDTH 500 0
DWIDTH 2 0
BBX 2 3 0 0
BITMAP
C0
C0
C0
ENDCHAR
STARTCHAR 014F
ENCODING 335
SWIDTH 500 0
DWIDTH 2 0
BBX 2 3 0 0
BITMAP
40
C0
C0
ENDCHAR
STARTCHAR 0150
ENCODING 336
SWIDTH 500 0
DWIDTH 2 0
BBX 2 4 0 0
BITMAP
C0
C0
C0
C0
ENDCHAR
STARTCHAR 0151
ENCODING 337
SWIDTH 500 0
DWIDTH 2 0
BBX 2 3 0 0
BITMAP
C0
C0
C0
ENDCHAR
STARTCHAR 0152
ENCODING 338
SWIDTH 500 0
DWIDTH 2 0
BBX 2 3 0 0
BITMAP
C0
C0
C0
ENDCHAR
STARTCHAR 0153
ENCODING 339
SWIDTH 500 0
DWIDTH 2 0
BBX 2 2 0 0
BITMAP
C0
C0
ENDCHAR
STARTCHAR 0154
ENCODING 340
SWIDTH 500 0
DWIDTH 2 0
BBX 2 4 0 0
BITMAP
40
C0
C0
C0
ENDCHAR
STARTCHAR 0155
ENCODING 341
SWIDTH 500 0
DWIDTH 2 0
BBX 2 3 0 0
BITMAP
40
C0
80
ENDCHAR
STARTCHAR 0156
ENCODING 342
SWIDTH 500 0
DWIDTH 2 0
BBX 2 4 0 -1
BITMAP
C0
C0
C0
40
ENDCHAR
STARTCHAR 0157
ENCODING 343
SWIDTH 500 0
DWIDTH 2 0
BBX 2 3 0 -1
BITMAP
C0
80
80
ENDCHAR
STARTCHAR 0158
ENCODING 344
SWIDTH 500 0
DWIDTH 2 0
BBX 2 4 0 0
BITMAP
C0
C0
C0
C0
ENDCHAR
STARTCHAR 0159
ENCODING 345
SWIDTH 500 0
DWIDTH 2 0
BBX 2 3 0 0
BITMAP
C0
C0
80
ENDCHAR
STARTCHAR 015A
ENCODING 346
SWIDTH 500 0
DWIDTH 2 0
BBX 2 4 0 0
BITMAP
40
C0
40
C0
ENDCHAR
STARTCHAR 015B
ENCODING 347
SWIDTH 500 0
DWIDTH 2 0
BBX 2 3 0 0
BITMAP
40
C0
C0
ENDCHAR
STARTCHAR 015C
ENCODING 348
SWIDTH 500 0
DWIDTH 2 0
BBX 2 4 0 0
BITMAP
40
C0
40
C0
ENDCHAR
STARTCHAR 015D
ENCODING 349
SWIDTH 500 0
DWIDTH 2 0
BBX 2 3 0 0
BITMAP
40
C0
C0
ENDCHAR
STARTCHAR 015E
ENCODING 350
SWIDTH 500 0
DWIDTH 2 0
BBX 2 4 0 -1
BITMAP
C0
40
C0
40
ENDCHAR
STARTCHAR 015F
ENCODING 351
SWIDTH 500 0
DWIDTH 2 0
BBX 2 3 0 -1
BITMAP
C0
C0
40
ENDCHAR
STARTCHAR 0160
ENCODING 352
SWIDTH 500 0
DWIDTH 2 0
BBX 2 4 0 0
BITMAP
C0
C0
40
C0
ENDCHAR
STARTCHAR 0161
ENCODING 353
SWIDTH 500 0
DWIDTH 2 0
BBX 2 3 0 0
BITMAP
C0
C0
C0
ENDCHAR
STARTCHAR 0162
ENCODING 354
SWIDTH 500 0
DWIDTH 2 0
BBX 2 4 0 -1
BITMAP
C0
40
40
40
ENDCHAR
STARTCHAR 0163
ENCODING 355
SWIDTH 500 0
DWIDTH 2 0
BBX 2 4 0 -1
BITMAP
80
C0
80
40
ENDCHAR
STARTCHAR 0164
ENCODING 356
SWIDTH 500 0
DWIDTH 2 0
BBX 2 4 0 0
BITMAP
C0
40
40
40
ENDCHAR
STARTCHAR 0165
ENCODING 357
SWIDTH 500 0
DWIDTH 2 0
BBX 2 3 0 0
BITMAP
40
80
C0
ENDCHAR
STARTCHAR 0166
ENCODING 358
SWIDTH 500 0
DWIDTH 2 0
BBX 2 3 0 0
BITMAP
C0
C0
40
ENDCHAR
STARTCHAR 0167
ENCODING 359
SWIDTH 500 0
DWIDTH 2 0
BBX 2 3 0 0
BITMAP
80
C0
C0
ENDCHAR
STARTCHAR 0168
ENCODING 360
SWIDTH 500 0
DWIDTH 2 0
BBX 2 4 0 0
BITMAP
40
C0
C0
C0
ENDCHAR
STARTCHAR 0169
ENCODING 361
SWIDTH 500 0
DWIDTH 2 0
BBX 2 3 0 0
BITMAP
40
C0
C0
ENDCHAR
STARTCHAR 016A
ENCODING 362
SWIDTH 500 0
DWIDTH 2 0
BBX 2 4 0 0
BITMAP
40
C0
C0
C0
ENDCHAR
STARTCHAR 016B
ENCODING 363
SWIDTH 500 0
DWIDTH 2 0
BBX 2 3 0 0
BITMAP
40
C0
C0
ENDCHAR
STARTCHAR 016C
ENCODING 364
SWIDTH 500 0
DWIDTH 2 0
BBX 2 3 0 0
BITMAP
C0
C0
C0
ENDCHAR
STARTCHAR 016D
ENCODING 365
SWIDTH 500 0
DWIDTH 2 0
BBX 2 3 0 0
BITMAP
40
C0
C0
ENDCHAR
STARTCHAR 016E
ENCODING 366
SWIDTH 500 0
DWIDTH 2 0
BBX 2 4 0 0
BITMAP
40
C0
C0
C0
ENDCHAR
STARTCHAR 016F
ENCODING 367
SWIDTH 500 0
DWIDTH 2 0
BBX 2 4 0 0
BITMAP
40
40
C0
C0
ENDCHAR
STARTCHAR 0170
ENCODING 368
SWIDTH 500 0
DWIDTH 2 0
BBX 2 4 0 0
BITMAP
C0
C0
C0
C0
ENDCHAR
STARTCHAR 0171
ENCODING 369
SWIDTH 500 0
DWIDTH 2 0
BBX 2 3 0 0
BITMAP
C0
C0
C0
ENDCHAR
STARTCHAR 0172
ENCODING 370
SWIDTH 500 0
DWIDTH 2 0
BBX 2 4 0 -1
BITMAP
C0
C0
C0
40
ENDCHAR
STARTCHAR 0173
ENCODING 371
SWIDTH 500 0
DWIDTH 2 0
BBX 2 3 0 -1
BITMAP
C0
C0
40
ENDCHAR
STARTCHAR 0174
ENCODING 372
SWIDTH 500 0
DWIDTH 2 0
BBX 2 4 0 0
BITMAP
40
C0
C0
C0
ENDCHAR
STARTCHAR 0175
ENCODING 373
SWIDTH 500 0
DWIDTH 2 0
BBX 2 3 0 0
BITMAP
40
C0
C0
ENDCHAR
STARTCHAR 0176
ENCODING 374
SWIDTH 500 0
DWIDTH 2 0
BBX 2 4 0 0
BITMAP
40
C0
40
40
ENDCHAR
STARTCHAR 0177
ENCODING 375
SWIDTH 500 0
DWIDTH 2 0
BBX 2 4 0 -1
BITMAP
40
C0
40
40
ENDCHAR
STARTCHAR 0178
ENCODING 376
SWIDTH 500 0
DWIDTH 2 0
BBX 2 4 0 0
BITMAP
C0
C0
40
40
ENDCHAR
STARTCHAR 0179
ENCODING 377
SWIDTH 500 0
DWIDTH 2 0
BBX 2 4 0 0
BITMAP
40
C0
40
C0
ENDCHAR
STARTCHAR 017A
ENCODING 378
SWIDTH 500 0
DWIDTH 2 0
BBX 2 3 0 0
BITMAP
40
C0
C0
ENDCHAR
STARTCHAR 017B
ENCODING 379
SWIDTH 500 0
DWIDTH 2 0
BBX 2 4 0 0
BITMAP
40
C0
40
C0
ENDCHAR
STARTCHAR 017C
ENCODING 380
SWIDTH 500 0
DWIDTH 2 0
BBX 2 3 0 0
BITMAP
40
C0
C0
ENDCHAR
STARTCHAR 017D
ENCODING 381
SWIDTH 500 0
DWIDTH 2 0
BBX 2 4 0 0
BITMAP
C0
40
40
C0
ENDCHAR
STARTCHAR 017E
ENCODING 382
SWIDTH 500 0
DWIDTH 2 0
BBX 2 3 0 0
BITMAP
C0
40
C0
ENDCHAR
STARTCHAR 017F
ENCODING 383
SWIDTH 500 0
DWIDTH 2 0
BBX 1 3 1 0
BITMAP
80
80
80
ENDCHAR
STARTCHAR 018F
ENCODING 399
SWIDTH 500 0
DWIDTH 2 0
BBX 2 3 0 0
BITMAP
C0
C0
C0
ENDCHAR
STARTCHAR 0190
ENCODING 400
SWIDTH 500 0
DWIDTH 2 0
BBX 2 3 0 0
BITMAP
C0
40
C0
ENDCHAR
STARTCHAR 0192
ENCODING 402
SWIDTH 500 0
DWIDTH 2 0
BBX 2 4 0 -1
BITMAP
40
40
C0
C0
ENDCHAR
STARTCHAR 019B
ENCODING 411
SWIDTH 500 0
DWIDTH 2 0
BBX 2 3 0 0
BITMAP
C0
40
C0
ENDCHAR
STARTCHAR 01A0
ENCODING 416
SWIDTH 500 0
DWIDTH 2 0
BBX 2 3 0 0
BITMAP
C0
C0
C0
ENDCHAR
STARTCHAR 01A1
ENCODING 417
SWIDTH 500 0
DWIDTH 2 0
BBX 2 3 0 0
BITMAP
40
C0
C0
ENDCHAR
STARTCHAR 01AF
ENCODING 431
SWIDTH 500 0
DWIDTH 2 0
BBX 2 3 0 0
BITMAP
C0
C0
C0
ENDCHAR
STARTCHAR 01B0
ENCODING 432
SWIDTH 500 0
DWIDTH 2 0
BBX 2 2 0 0
BITMAP
C0
C0
ENDCHAR
STARTCHAR 01CD
ENCODING 461
SWIDTH 500 0
DWIDTH 2 0
BBX 2 4 0 0
BITMAP
C0
40
40
C0
ENDCHAR
STARTCHAR 01CE
ENCODING 462
SWIDTH 500 0
DWIDTH 2 0
BBX 2 3 0 0
BITMAP
C0
40
C0
ENDCHAR
STARTCHAR 01D0
ENCODING 464
SWIDTH 500 0
DWIDTH 2 0
BBX 2 3 0 0
BITMAP
C0
40
C0
ENDCHAR
STARTCHAR 01D2
ENCODING 466
SWIDTH 500 0
DWIDTH 2 0
BBX 2 3 0 0
BITMAP
C0
C0
C0
ENDCHAR
STARTCHAR 01D4
ENCODING 468
SWIDTH 500 0
DWIDTH 2 0
BBX 2 3 0 0
BITMAP
C0
C0
C0
ENDCHAR
STARTCHAR 01D6
ENCODING 470
SWIDTH 500 0
DWIDTH 2 0
BBX 2 4 0 0
BITMAP
40
C0
C0
C0
ENDCHAR
STARTCHAR 01D8
ENCODING 472
SWIDTH 500 0
DWIDTH 2 0
BBX 2 4 0 0
BITMAP
40
C0
C0
C0
ENDCHAR
STARTCHAR 01DA
ENCODING 474
SWIDTH 500 0
DWIDTH 2 0
BBX 2 4 0 0
BITMAP
C0
C0
C0
C0
ENDCHAR
STARTCHAR 01DC
ENCODING 476
SWIDTH 500 0
DWIDTH 2 0
BBX 2 4 0 0
BITMAP
80
C0
C0
C0
ENDCHAR
STARTCHAR 01E6
ENCODING 486
SWIDTH 500 0
DWIDTH 2 0
BBX 2 4 0 0
BITMAP
C0
C0
C0
C0
ENDCHAR
STARTCHAR 01E7
ENCODING 487
SWIDTH 500 0
DWIDTH 2 0
BBX 2 4 0 -1
BITMAP
C0
C0
C0
40
ENDCHAR
STARTCHAR 01EA
ENCODING 490
SWIDTH 500 0
DWIDTH 2 0
BBX 2 4 0 -1
BITMAP
C0
C0
C0
40
ENDCHAR
STARTCHAR 01EB
ENCODING 491
SWIDTH 500 0
DWIDTH 2 0
BBX 2 3 0 -1
BITMAP
C0
C0
40
ENDCHAR
STARTCHAR 01F4
ENCODING 500
SWIDTH 500 0
DWIDTH 2 0
BBX 2 4 0 0
BITMAP
40
C0
C0
C0
ENDCHAR
STARTCHAR 01F5
ENCODING 501
SWIDTH 500 0
DWIDTH 2 0
BBX 2 4 0 -1
BITMAP
40
C0
C0
40
ENDCHAR
STARTCHAR 01FC
ENCODING 508
SWIDTH 500 0
DWIDTH 2 0
BBX 2 4 0 0
BITMAP
40
40
C0
C0
ENDCHAR
STARTCHAR 01FD
ENCODING 509
SWIDTH 500 0
DWIDTH 2 0
BBX 2 3 0 0
BITMAP
40
C0
C0
ENDCHAR
STARTCHAR 01FE
ENCODING 510
SWIDTH 500 0
DWIDTH 2 0
BBX 2 4 0 0
BITMAP
40
C0
C0
C0
ENDCHAR
STARTCHAR 01FF
ENCODING 511
SWIDTH 500 0
DWIDTH 2 0
BBX 2 3 0 0
BITMAP
40
C0
C0
ENDCHAR
STARTCHAR 0218
ENCODING 536
SWIDTH 500 0
DWIDTH 2 0
BBX 2 4 0 -1
BITMAP
C0
40
C0
40
ENDCHAR
STARTCHAR 0219
ENCODING 537
SWIDTH 500 0
DWIDTH 2 0
BBX 2 3 0 -1
BITMAP
C0
C0
40
ENDCHAR
STARTCHAR 021A
ENCODING 538
SWIDTH 500 0
DWIDTH 2 0
BBX 2 4 0 -1
BITMAP
C0
40
40
40
ENDCHAR
STARTCHAR 021B
ENCODING 539
SWIDTH 500 0
DWIDTH 2 0
BBX 2 4 0 -1
BITMAP
80
C0
80
40
ENDCHAR
STARTCHAR 0232
ENCODING 562
SWIDTH 500 0
DWIDTH 2 0
BBX 2 4 0 0
BITMAP
40
C0
40
40
ENDCHAR
STARTCHAR 0233
ENCODING 563
SWIDTH 500 0
DWIDTH 2 0
BBX 2 4 0 -1
BITMAP
40
C0
40
40
ENDCHAR
STARTCHAR 0237
ENCODING 567
SWIDTH 500 0
DWIDTH 2 0
BBX 2 3 0 -1
BITMAP
C0
40
C0
ENDCHAR
STARTCHAR 0259
ENCODING 601
SWIDTH 500 0
DWIDTH 2 0
BBX 2 2 0 0
BITMAP
C0
C0
ENDCHAR
STARTCHAR 02B9
ENCODING 697
SWIDTH 500 0
DWIDTH 2 0
BBX 1 1 1 1
BITMAP
80
ENDCHAR
STARTCHAR 02BA
ENCODING 698
SWIDTH 500 0
DWIDTH 2 0
BBX 2 1 0 1
BITMAP
C0
ENDCHAR
STARTCHAR 02BC
ENCODING 700
SWIDTH 500 0
DWIDTH 2 0
BBX 1 1 1 2
BITMAP
80
ENDCHAR
STARTCHAR 02C6
ENCODING 710
SWIDTH 500 0
DWIDTH 2 0
BBX 2 1 0 2
BITMAP
C0
ENDCHAR
STARTCHAR 02C7
ENCODING 711
SWIDTH 500 0
DWIDTH 2 0
BBX 2 1 0 2
BITMAP
C0
ENDCHAR
STARTCHAR 02C9
ENCODING 713
SWIDTH 500 0
DWIDTH 2 0
BBX 1 1 1 2
BITMAP
80
ENDCHAR
STARTCHAR 02D8
ENCODING 728
SWIDTH 500 0
DWIDTH 2 0
BBX 1 1 1 2
BITMAP
80
ENDCHAR
STARTCHAR 02D9
ENCODING 729
SWIDTH 500 0
DWIDTH 2 0
BBX 1 1 1 2
BITMAP
80
ENDCHAR
STARTCHAR 02DA
ENCODING 730
SWIDTH 500 0
DWIDTH 2 0
BBX 1 2 1 2
BITMAP
80
80
ENDCHAR
STARTCHAR 02DB
ENCODING 731
SWIDTH 500 0
DWIDTH 2 0
BBX 1 1 1 -1
BITMAP
80
ENDCHAR
STARTCHAR 02DC
ENCODING 732
SWIDTH 500 0
DWIDTH 2 0
BBX 1 1 1 2
BITMAP
80
ENDCHAR
STARTCHAR 02DD
ENCODING 733
SWIDTH 500 0
DWIDTH 2 0
BBX 1 1 1 2
BITMAP
80
ENDCHAR
STARTCHAR 02F3
ENCODING 755
SWIDTH 500 0
DWIDTH 2 0
BBX 1 2 1 -1
BITMAP
80
80
ENDCHAR
STARTCHAR 02F7
ENCODING 759
SWIDTH 500 0
DWIDTH 2 0
BBX 1 1 1 -1
BITMAP
80
ENDCHAR
STARTCHAR 0300
ENCODING 768
SWIDTH 0 0
DWIDTH 0 0
BBX 1 1 -2 2
BITMAP
80
ENDCHAR
STARTCHAR 0301
ENCODING 769
SWIDTH 0 0
DWIDTH 0 0
BBX 1 1 -2 2
BITMAP
80
ENDCHAR
STARTCHAR 0302
ENCODING 770
SWIDTH 0 0
DWIDTH 0 0
BBX 2 1 -2 2
BITMAP
C0
ENDCHAR
STARTCHAR 0303
ENCODING 771
SWIDTH 0 0
DWIDTH 0 0
BBX 1 1 -2 2
BITMAP
80
ENDCHAR
STARTCHAR 0304
ENCODING 772
SWIDTH 0 0
DWIDTH 0 0
BBX 1 1 -2 2
BITMAP
80
ENDCHAR
STARTCHAR 0306
ENCODING 774
SWIDTH 0 0
DWIDTH 0 0
BBX 1 1 -2 2
BITMAP
80
ENDCHAR
STARTCHAR 0307
ENCODING 775
SWIDTH 0 0
DWIDTH 0 0
BBX 1 1 -2 2
BITMAP
80
ENDCHAR
STARTCHAR 0308
ENCODING 776
SWIDTH 0 0
DWIDTH 0 0
BBX 2 1 -2 2
BITMAP
C0
ENDCHAR
STARTCHAR 0309
ENCODING 777
SWIDTH 0 0
DWIDTH 0 0
BBX 1 1 -2 2
BITMAP
80
ENDCHAR
STARTCHAR 030A
ENCODING 778
SWIDTH 0 0
DWIDTH 0 0
BBX 1 2 -2 2
BITMAP
80
80
ENDCHAR
STARTCHAR 030B
ENCODING 779
SWIDTH 0 0
DWIDTH 0 0
BBX 2 1 -2 2
BITMAP
C0
ENDCHAR
STARTCHAR 030C
ENCODING 780
SWIDTH 0 0
DWIDTH 0 0
BBX 2 1 -2 2
BITMAP
C0
ENDCHAR
STARTCHAR 030F
ENCODING 783
SWIDTH 0 0
DWIDTH 0 0
BBX 1 1 -2 2
BITMAP
80
ENDCHAR
STARTCHAR 0312
ENCODING 786
SWIDTH 0 0
DWIDTH 0 0
BBX 1 1 -2 2
BITMAP
80
ENDCHAR
STARTCHAR 031B
ENCODING 795
SWIDTH 0 0
DWIDTH 0 0
BBX 1 1 -1 1
BITMAP
80
ENDCHAR
STARTCHAR 0323
ENCODING 803
SWIDTH 0 0
DWIDTH 0 0
BBX 1 1 -2 -1
BITMAP
80
ENDCHAR
STARTCHAR 0325
ENCODING 805
SWIDTH 0 0
DWIDTH 0 0
BBX 1 2 -2 -1
BITMAP
80
80
ENDCHAR
STARTCHAR 0326
ENCODING 806
SWIDTH 0 0
DWIDTH 0 0
BBX 1 1 -2 -1
BITMAP
80
ENDCHAR
STARTCHAR 0327
ENCODING 807
SWIDTH 0 0
DWIDTH 0 0
BBX 1 2 -2 -1
BITMAP
80
80
ENDCHAR
STARTCHAR 0328
ENCODING 808
SWIDTH 0 0
DWIDTH 0 0
BBX 1 1 -2 -1
BITMAP
80
ENDCHAR
STARTCHAR 0336
ENCODING 822
SWIDTH 0 0
DWIDTH 0 0
BBX 3 1 -3 1
BITMAP
E0
ENDCHAR
STARTCHAR 0337
ENCODING 823
SWIDTH 0 0
DWIDTH 0 0
BBX 2 2 -2 0
BITMAP
40
80
ENDCHAR
STARTCHAR 0338
ENCODING 824
SWIDTH 0 0
DWIDTH 0 0
BBX 2 3 -2 0
BITMAP
40
80
80
ENDCHAR
STARTCHAR 0374
ENCODING 884
SWIDTH 500 0
DWIDTH 2 0
BBX 1 1 1 2
BITMAP
80
ENDCHAR
STARTCHAR 0375
ENCODING 885
SWIDTH 500 0
DWIDTH 2 0
BBX 1 1 1 -1
BITMAP
80
ENDCHAR
STARTCHAR 037E
ENCODING 894
SWIDTH 500 0
DWIDTH 2 0
BBX 1 3 1 -1
BITMAP
80
00
80
ENDCHAR
STARTCHAR 0384
ENCODING 900
SWIDTH 500 0
DWIDTH 2 0
BBX 1 1 1 2
BITMAP
80
ENDCHAR
STARTCHAR 0385
ENCODING 901
SWIDTH 500 0
DWIDTH 2 0
BBX 2 1 0 2
BITMAP
C0
ENDCHAR
STARTCHAR 0386
ENCODING 902
SWIDTH 500 0
DWIDTH 2 0
BBX 2 3 0 0
BITMAP
C0
40
C0
ENDCHAR
STARTCHAR 0387
ENCODING 903
SWIDTH 500 0
DWIDTH 2 0
BBX 1 1 1 1
BITMAP
80
ENDCHAR
STARTCHAR 0388
ENCODING 904
SWIDTH 500 0
DWIDTH 2 0
BBX 2 3 0 0
BITMAP
C0
C0
C0
ENDCHAR
STARTCHAR 0389
ENCODING 905
SWIDTH 500 0
DWIDTH 2 0
BBX 2 3 0 0
BITMAP
C0
C0
C0
ENDCHAR
STARTCHAR 038A
ENCODING 906
SWIDTH 500 0
DWIDTH 2 0
BBX 2 3 0 0
BITMAP
C0
40
C0
ENDCHAR
STARTCHAR 038C
ENCODING 908
SWIDTH 500 0
DWIDTH 2 0
BBX 2 3 0 0
BITMAP
C0
C0
C0
ENDCHAR
STARTCHAR 038E
ENCODING 910
SWIDTH 500 0
DWIDTH 2 0
BBX 3 3 -1 0
BITMAP
E0
20
20
ENDCHAR
STARTCHAR 038F
ENCODING 911
SWIDTH 500 0
DWIDTH 2 0
BBX 2 3 0 0
BITMAP
C0
C0
C0
ENDCHAR
STARTCHAR 0390
ENCODING 912
SWIDTH 500 0
DWIDTH 2 0
BBX 2 3 0 0
BITMAP
C0
C0
40
ENDCHAR
STARTCHAR 0391
ENCODING 913
SWIDTH 500 0
DWIDTH 2 0
BBX 2 3 0 0
BITMAP
40
40
C0
ENDCHAR
STARTCHAR 0392
ENCODING 914
SWIDTH 500 0
DWIDTH 2 0
BBX 2 3 0 0
BITMAP
C0
C0
C0
ENDCHAR
STARTCHAR 0393
ENCODING 915
SWIDTH 500 0
DWIDTH 2 0
BBX 1 3 1 0
BITMAP
80
80
80
ENDCHAR
STARTCHAR 0394
ENCODING 916
SWIDTH 500 0
DWIDTH 2 0
BBX 2 3 0 0
BITMAP
40
40
C0
ENDCHAR
STARTCHAR 0395
ENCODING 917
SWIDTH 500 0
DWIDTH 2 0
BBX 2 3 0 0
BITMAP
C0
C0
C0
ENDCHAR
STARTCHAR 0396
ENCODING 918
SWIDTH 500 0
DWIDTH 2 0
BBX 2 3 0 0
BITMAP
C0
40
C0
ENDCHAR
STARTCHAR 0397
ENCODING 919
SWIDTH 500 0
DWIDTH 2 0
BBX 2 3 0 0
BITMAP
C0
C0
C0
ENDCHAR
STARTCHAR 0398
ENCODING 920
SWIDTH 500 0
DWIDTH 2 0
BBX 2 3 0 0
BITMAP
C0
C0
C0
ENDCHAR
STARTCHAR 0399
ENCODING 921
SWIDTH 500 0
DWIDTH 2 0
BBX 2 3 0 0
BITMAP
C0
40
C0
ENDCHAR
STARTCHAR 039A
ENCODING 922
SWIDTH 500 0
DWIDTH 2 0
BBX 2 3 0 0
BITMAP
C0
80
C0
ENDCHAR
STARTCHAR 039B
ENCODING 923
SWIDTH 500 0
DWIDTH 2 0
BBX 2 3 0 0
BITMAP
40
40
C0
ENDCHAR
STARTCHAR 039C
ENCODING 924
SWIDTH 500 0
DWIDTH 2 0
BBX 2 3 0 0
BITMAP
C0
C0
C0
ENDCHAR
STARTCHAR 039D
ENCODING 925
SWIDTH 500 0
DWIDTH 2 0
BBX 2 3 0 0
BITMAP
C0
C0
C0
ENDCHAR
STARTCHAR 039E
ENCODING 926
SWIDTH 500 0
DWIDTH 2 0
BBX 2 3 0 0
BITMAP
C0
C0
C0
ENDCHAR
STARTCHAR 039F
ENCODING 927
SWIDTH 500 0
DWIDTH 2 0
BBX 2 3 0 0
BITMAP
C0
C0
C0
ENDCHAR
STARTCHAR 03A0
ENCODING 928
SWIDTH 500 0
DWIDTH 2 0
BBX 2 3 0 0
BITMAP
C0
C0
C0
ENDCHAR
STARTCHAR 03A1
ENCODING 929
SWIDTH 500 0
DWIDTH 2 0
BBX 2 3 0 0
BITMAP
C0
C0
80
ENDCHAR
STARTCHAR 03A3
ENCODING 931
SWIDTH 500 0
DWIDTH 2 0
BBX 2 3 0 0
BITMAP
C0
40
C0
ENDCHAR
STARTCHAR 03A4
ENCODING 932
SWIDTH 500 0
DWIDTH 2 0
BBX 2 3 0 0
BITMAP
C0
40
40
ENDCHAR
STARTCHAR 03A5
ENCODING 933
SWIDTH 500 0
DWIDTH 2 0
BBX 2 3 0 0
BITMAP
C0
40
40
ENDCHAR
STARTCHAR 03A6
ENCODING 934
SWIDTH 500 0
DWIDTH 2 0
BBX 2 3 0 0
BITMAP
40
C0
40
ENDCHAR
STARTCHAR 03A7
ENCODING 935
SWIDTH 500 0
DWIDTH 2 0
BBX 2 3 0 0
BITMAP
C0
40
C0
ENDCHAR
STARTCHAR 03A8
ENCODING 936
SWIDTH 500 0
DWIDTH 2 0
BBX 2 3 0 0
BITMAP
C0
C0
40
ENDCHAR
STARTCHAR 03A9
ENCODING 937
SWIDTH 500 0
DWIDTH 2 0
BBX 2 3 0 0
BITMAP
C0
C0
C0
ENDCHAR
STARTCHAR 03AA
ENCODING 938
SWIDTH 500 0
DWIDTH 2 0
BBX 2 4 0 0
BITMAP
C0
40
40
C0
ENDCHAR
STARTCHAR 03AB
ENCODING 939
SWIDTH 500 0
DWIDTH 2 0
BBX 2 4 0 0
BITMAP
C0
C0
40
40
ENDCHAR
STARTCHAR 03AC
ENCODING 940
SWIDTH 500 0
DWIDTH 2 0
BBX 2 3 0 0
BITMAP
40
C0
C0
ENDCHAR
STARTCHAR 03AD
ENCODING 941
SWIDTH 500 0
DWIDTH 2 0
BBX 2 3 0 0
BITMAP
40
C0
C0
ENDCHAR
STARTCHAR 03AE
ENCODING 942
SWIDTH 500 0
DWIDTH 2 0
BBX 2 3 0 0
BITMAP
40
C0
C0
ENDCHAR
STARTCHAR 03AF
ENCODING 943
SWIDTH 500 0
DWIDTH 2 0
BBX 2 3 0 0
BITMAP
40
C0
40
ENDCHAR
STARTCHAR 03B0
ENCODING 944
SWIDTH 500 0
DWIDTH 2 0
BBX 2 3 0 0
BITMAP
C0
C0
C0
ENDCHAR
STARTCHAR 03B1
ENCODING 945
SWIDTH 500 0
DWIDTH 2 0
BBX 2 2 0 0
BITMAP
C0
C0
ENDCHAR
STARTCHAR 03B2
ENCODING 946
SWIDTH 500 0
DWIDTH 2 0
BBX 2 4 0 -1
BITMAP
C0
C0
C0
80
ENDCHAR
STARTCHAR 03B3
ENCODING 947
SWIDTH 500 0
DWIDTH 2 0
BBX 2 3 0 -1
BITMAP
C0
40
40
ENDCHAR
STARTCHAR 03B4
ENCODING 948
SWIDTH 500 0
DWIDTH 2 0
BBX 2 3 0 0
BITMAP
C0
40
C0
ENDCHAR
STARTCHAR 03B5
ENCODING 949
SWIDTH 500 0
DWIDTH 2 0
BBX 2 2 0 0
BITMAP
C0
C0
ENDCHAR
STARTCHAR 03B6
ENCODING 950
SWIDTH 500 0
DWIDTH 2 0
BBX 2 3 0 0
BITMAP
C0
80
40
ENDCHAR
STARTCHAR 03B7
ENCODING 951
SWIDTH 500 0
DWIDTH 2 0
BBX 2 2 0 0
BITMAP
C0
C0
ENDCHAR
STARTCHAR 03B8
ENCODING 952
SWIDTH 500 0
DWIDTH 2 0
BBX 2 3 0 0
BITMAP
C0
C0
C0
ENDCHAR
STARTCHAR 03B9
ENCODING 953
SWIDTH 500 0
DWIDTH 2 0
BBX 2 2 0 0
BITMAP
C0
40
ENDCHAR
STARTCHAR 03BA
ENCODING 954
SWIDTH 500 0
DWIDTH 2 0
BBX 2 2 0 0
BITMAP
C0
C0
ENDCHAR
STARTCHAR 03BB
ENCODING 955
SWIDTH 500 0
DWIDTH 2 0
BBX 2 3 0 0
BITMAP
40
40
C0
ENDCHAR
STARTCHAR 03BC
ENCODING 956
SWIDTH 500 0
DWIDTH 2 0
BBX 2 3 0 -1
BITMAP
C0
C0
80
ENDCHAR
STARTCHAR 03BD
ENCODING 957
SWIDTH 500 0
DWIDTH 2 0
BBX 2 2 0 0
BITMAP
C0
40
ENDCHAR
STARTCHAR 03BE
ENCODING 958
SWIDTH 500 0
DWIDTH 2 0
BBX 2 4 0 -1
BITMAP
C0
40
80
40
ENDCHAR
STARTCHAR 03BF
ENCODING 959
SWIDTH 500 0
DWIDTH 2 0
BBX 2 2 0 0
BITMAP
C0
C0
ENDCHAR
STARTCHAR 03C0
ENCODING 960
SWIDTH 500 0
DWIDTH 2 0
BBX 2 2 0 0
BITMAP
C0
C0
ENDCHAR
STARTCHAR 03C1
ENCODING 961
SWIDTH 500 0
DWIDTH 2 0
BBX 2 3 0 -1
BITMAP
C0
C0
80
ENDCHAR
STARTCHAR 03C2
ENCODING 962
SWIDTH 500 0
DWIDTH 2 0
BBX 2 3 0 -1
BITMAP
C0
80
40
ENDCHAR
STARTCHAR 03C3
ENCODING 963
SWIDTH 500 0
DWIDTH 2 0
BBX 2 2 0 0
BITMAP
C0
C0
ENDCHAR
STARTCHAR 03C4
ENCODING 964
SWIDTH 500 0
DWIDTH 2 0
BBX 2 2 0 0
BITMAP
C0
40
ENDCHAR
STARTCHAR 03C5
ENCODING 965
SWIDTH 500 0
DWIDTH 2 0
BBX 2 2 0 0
BITMAP
C0
C0
ENDCHAR
STARTCHAR 03C6
ENCODING 966
SWIDTH 500 0
DWIDTH 2 0
BBX 2 3 0 -1
BITMAP
C0
C0
40
ENDCHAR
STARTCHAR 03C7
ENCODING 967
SWIDTH 500 0
DWIDTH 2 0
BBX 2 2 0 0
BITMAP
C0
C0
ENDCHAR
STARTCHAR 03C8
ENCODING 968
SWIDTH 500 0
DWIDTH 2 0
BBX 2 3 0 -1
BITMAP
C0
C0
40
ENDCHAR
STARTCHAR 03C9
ENCODING 969
SWIDTH 500 0
DWIDTH 2 0
BBX 2 2 0 0
BITMAP
C0
C0
ENDCHAR
STARTCHAR 03CA
ENCODING 970
SWIDTH 500 0
DWIDTH 2 0
BBX 2 3 0 0
BITMAP
C0
40
40
ENDCHAR
STARTCHAR 03CB
ENCODING 971
SWIDTH 500 0
DWIDTH 2 0
BBX 2 3 0 0
BITMAP
C0
C0
C0
ENDCHAR
STARTCHAR 03CC
ENCODING 972
SWIDTH 500 0
DWIDTH 2 0
BBX 2 3 0 0
BITMAP
40
C0
C0
ENDCHAR
STARTCHAR 03CD
ENCODING 973
SWIDTH 500 0
DWIDTH 2 0
BBX 2 3 0 0
BITMAP
40
C0
C0
ENDCHAR
STARTCHAR 03CE
ENCODING 974
SWIDTH 500 0
DWIDTH 2 0
BBX 2 3 0 0
BITMAP
40
C0
C0
ENDCHAR
STARTCHAR 03CF
ENCODING 975
SWIDTH 500 0
DWIDTH 2 0
BBX 2 4 0 -1
BITMAP
C0
C0
80
40
ENDCHAR
STARTCHAR 03D5
ENCODING 981
SWIDTH 500 0
DWIDTH 2 0
BBX 2 4 0 -1
BITMAP
40
C0
C0
40
ENDCHAR
STARTCHAR 03D6
ENCODING 982
SWIDTH 500 0
DWIDTH 2 0
BBX 2 2 0 0
BITMAP
C0
C0
ENDCHAR
STARTCHAR 03D7
ENCODING 983
SWIDTH 500 0
DWIDTH 2 0
BBX 2 3 0 -1
BITMAP
C0
C0
40
ENDCHAR
STARTCHAR 0401
ENCODING 1025
SWIDTH 500 0
DWIDTH 2 0
BBX 2 4 0 0
BITMAP
40
80
C0
C0
ENDCHAR
STARTCHAR 0402
ENCODING 1026
SWIDTH 500 0
DWIDTH 2 0
BBX 2 4 0 -1
BITMAP
80
C0
C0
40
ENDCHAR
STARTCHAR 0403
ENCODING 1027
SWIDTH 500 0
DWIDTH 2 0
BBX 1 4 1 0
BITMAP
80
80
80
80
ENDCHAR
STARTCHAR 0404
ENCODING 1028
SWIDTH 500 0
DWIDTH 2 0
BBX 2 3 0 0
BITMAP
C0
C0
C0
ENDCHAR
STARTCHAR 0405
ENCODING 1029
SWIDTH 500 0
DWIDTH 2 0
BBX 2 3 0 0
BITMAP
C0
40
C0
ENDCHAR
STARTCHAR 0406
ENCODING 1030
SWIDTH 500 0
DWIDTH 2 0
BBX 2 3 0 0
BITMAP
C0
40
C0
ENDCHAR
STARTCHAR 0407
ENCODING 1031
SWIDTH 500 0
DWIDTH 2 0
BBX 2 4 0 0
BITMAP
C0
40
40
C0
ENDCHAR
STARTCHAR 0408
ENCODING 1032
SWIDTH 500 0
DWIDTH 2 0
BBX 2 3 0 0
BITMAP
40
40
C0
ENDCHAR
STARTCHAR 0409
ENCODING 1033
SWIDTH 500 0
DWIDTH 2 0
BBX 2 3 0 0
BITMAP
80
C0
C0
ENDCHAR
STARTCHAR 040A
ENCODING 1034
SWIDTH 500 0
DWIDTH 2 0
BBX 2 3 0 0
BITMAP
80
C0
C0
ENDCHAR
STARTCHAR 040B
ENCODING 1035
SWIDTH 500 0
DWIDTH 2 0
BBX 2 3 0 0
BITMAP
80
C0
C0
ENDCHAR
STARTCHAR 040C
ENCODING 1036
SWIDTH 500 0
DWIDTH 2 0
BBX 2 4 0 0
BITMAP
40
C0
80
C0
ENDCHAR
STARTCHAR 040E
ENCODING 1038
SWIDTH 500 0
DWIDTH 2 0
BBX 2 3 0 0
BITMAP
C0
40
40
ENDCHAR
STARTCHAR 040F
ENCODING 1039
SWIDTH 500 0
DWIDTH 2 0
BBX 2 3 0 0
BITMAP
C0
C0
C0
ENDCHAR
STARTCHAR 0410
ENCODING 1040
SWIDTH 500 0
DWIDTH 2 0
BBX 2 3 0 0
BITMAP
40
40
C0
ENDCHAR
STARTCHAR 0411
ENCODING 1041
SWIDTH 500 0
DWIDTH 2 0
BBX 2 3 0 0
BITMAP
C0
C0
C0
ENDCHAR
STARTCHAR 0412
ENCODING 1042
SWIDTH 500 0
DWIDTH 2 0
BBX 2 3 0 0
BITMAP
C0
C0
C0
ENDCHAR
STARTCHAR 0413
ENCODING 1043
SWIDTH 500 0
DWIDTH 2 0
BBX 1 3 1 0
BITMAP
80
80
80
ENDCHAR
STARTCHAR 0414
ENCODING 1044
SWIDTH 500 0
DWIDTH 2 0
BBX 2 4 0 -1
BITMAP
C0
C0
C0
C0
ENDCHAR
STARTCHAR 0415
ENCODING 1045
SWIDTH 500 0
DWIDTH 2 0
BBX 2 3 0 0
BITMAP
C0
C0
C0
ENDCHAR
STARTCHAR 0416
ENCODING 1046
SWIDTH 500 0
DWIDTH 2 0
BBX 2 3 0 0
BITMAP
C0
40
C0
ENDCHAR
STARTCHAR 0417
ENCODING 1047
SWIDTH 500 0
DWIDTH 2 0
BBX 2 3 0 0
BITMAP
C0
40
C0
ENDCHAR
STARTCHAR 0418
ENCODING 1048
SWIDTH 500 0
DWIDTH 2 0
BBX 2 3 0 0
BITMAP
C0
C0
C0
ENDCHAR
STARTCHAR 0419
ENCODING 1049
SWIDTH 500 0
DWIDTH 2 0
BBX 2 3 0 0
BITMAP
C0
C0
C0
ENDCHAR
STARTCHAR 041A
ENCODING 1050
SWIDTH 500 0
DWIDTH 2 0
BBX 2 3 0 0
BITMAP
C0
80
C0
ENDCHAR
STARTCHAR 041B
ENCODING 1051
SWIDTH 500 0
DWIDTH 2 0
BBX 2 3 0 0
BITMAP
C0
C0
C0
ENDCHAR
STARTCHAR 041C
ENCODING 1052
SWIDTH 500 0
DWIDTH 2 0
BBX 2 3 0 0
BITMAP
C0
C0
C0
ENDCHAR
STARTCHAR 041D
ENCODING 1053
SWIDTH 500 0
DWIDTH 2 0
BBX 2 3 0 0
BITMAP
C0
C0
C0
ENDCHAR
STARTCHAR 041E
ENCODING 1054
SWIDTH 500 0
DWIDTH 2 0
BBX 2 3 0 0
BITMAP
C0
C0
C0
ENDCHAR
STARTCHAR 041F
ENCODING 1055
SWIDTH 500 0
DWIDTH 2 0
BBX 2 3 0 0
BITMAP
C0
C0
C0
ENDCHAR
STARTCHAR 0420
ENCODING 1056
SWIDTH 500 0
DWIDTH 2 0
BBX 2 3 0 0
BITMAP
C0
C0
80
ENDCHAR
STARTCHAR 0421
ENCODING 1057
SWIDTH 500 0
DWIDTH 2 0
BBX 2 3 0 0
BITMAP
C0
80
C0
ENDCHAR
STARTCHAR 0422
ENCODING 1058
SWIDTH 500 0
DWIDTH 2 0
BBX 2 3 0 0
BITMAP
C0
40
40
ENDCHAR
STARTCHAR 0423
ENCODING 1059
SWIDTH 500 0
DWIDTH 2 0
BBX 2 3 0 0
BITMAP
C0
40
40
ENDCHAR
STARTCHAR 0424
ENCODING 1060
SWIDTH 500 0
DWIDTH 2 0
BBX 2 3 0 0
BITMAP
40
C0
40
ENDCHAR
STARTCHAR 0425
ENCODING 1061
SWIDTH 500 0
DWIDTH 2 0
BBX 2 3 0 0
BITMAP
C0
40
C0
ENDCHAR
STARTCHAR 0426
ENCODING 1062
SWIDTH 500 0
DWIDTH 2 0
BBX 2 4 0 -1
BITMAP
C0
C0
C0
40
ENDCHAR
STARTCHAR 0427
ENCODING 1063
SWIDTH 500 0
DWIDTH 2 0
BBX 2 3 0 0
BITMAP
C0
40
40
ENDCHAR
STARTCHAR 0428
ENCODING 1064
SWIDTH 500 0
DWIDTH 2 0
BBX 2 3 0 0
BITMAP
C0
C0
C0
ENDCHAR
STARTCHAR 0429
ENCODING 1065
SWIDTH 500 0
DWIDTH 2 0
BBX 2 4 0 -1
BITMAP
C0
C0
C0
40
ENDCHAR
STARTCHAR 042A
ENCODING 1066
SWIDTH 500 0
DWIDTH 2 0
BBX 2 3 0 0
BITMAP
80
40
C0
ENDCHAR
STARTCHAR 042B
ENCODING 1067
SWIDTH 500 0
DWIDTH 2 0
BBX 2 3 0 0
BITMAP
C0
C0
C0
ENDCHAR
STARTCHAR 042C
ENCODING 1068
SWIDTH 500 0
DWIDTH 2 0
BBX 2 3 0 0
BITMAP
80
C0
C0
ENDCHAR
STARTCHAR 042D
ENCODING 1069
SWIDTH 500 0
DWIDTH 2 0
BBX 2 3 0 0
BITMAP
C0
40
C0
ENDCHAR
STARTCHAR 042E
ENCODING 1070
SWIDTH 500 0
DWIDTH 2 0
BBX 2 3 0 0
BITMAP
C0
C0
C0
ENDCHAR
STARTCHAR 042F
ENCODING 1071
SWIDTH 500 0
DWIDTH 2 0
BBX 2 3 0 0
BITMAP
C0
40
C0
ENDCHAR
STARTCHAR 0430
ENCODING 1072
SWIDTH 500 0
DWIDTH 2 0
BBX 2 2 0 0
BITMAP
C0
C0
ENDCHAR
STARTCHAR 0431
ENCODING 1073
SWIDTH 500 0
DWIDTH 2 0
BBX 2 2 0 0
BITMAP
C0
C0
ENDCHAR
STARTCHAR 0432
ENCODING 1074
SWIDTH 500 0
DWIDTH 2 0
BBX 2 2 0 0
BITMAP
C0
C0
ENDCHAR
STARTCHAR 0433
ENCODING 1075
SWIDTH 500 0
DWIDTH 2 0
BBX 1 2 1 0
BITMAP
80
80
ENDCHAR
STARTCHAR 0434
ENCODING 1076
SWIDTH 500 0
DWIDTH 2 0
BBX 2 3 0 -1
BITMAP
C0
C0
C0
ENDCHAR
STARTCHAR 0435
ENCODING 1077
SWIDTH 500 0
DWIDTH 2 0
BBX 2 2 0 0
BITMAP
C0
C0
ENDCHAR
STARTCHAR 0436
ENCODING 1078
SWIDTH 500 0
DWIDTH 2 0
BBX 2 2 0 0
BITMAP
C0
C0
ENDCHAR
STARTCHAR 0437
ENCODING 1079
SWIDTH 500 0
DWIDTH 2 0
BBX 2 2 0 0
BITMAP
C0
C0
ENDCHAR
STARTCHAR 0438
ENCODING 1080
SWIDTH 500 0
DWIDTH 2 0
BBX 2 2 0 0
BITMAP
C0
C0
ENDCHAR
STARTCHAR 0439
ENCODING 1081
SWIDTH 500 0
DWIDTH 2 0
BBX 2 3 0 0
BITMAP
40
C0
C0
ENDCHAR
STARTCHAR 043A
ENCODING 1082
SWIDTH 500 0
DWIDTH 2 0
BBX 2 2 0 0
BITMAP
C0
C0
ENDCHAR
STARTCHAR 043B
ENCODING 1083
SWIDTH 500 0
DWIDTH 2 0
BBX 2 2 0 0
BITMAP
C0
C0
ENDCHAR
STARTCHAR 043C
ENCODING 1084
SWIDTH 500 0
DWIDTH 2 0
BBX 2 2 0 0
BITMAP
C0
C0
ENDCHAR
STARTCHAR 043D
ENCODING 1085
SWIDTH 500 0
DWIDTH 2 0
BBX 2 2 0 0
BITMAP
C0
C0
ENDCHAR
STARTCHAR 043E
ENCODING 1086
SWIDTH 500 0
DWIDTH 2 0
BBX 2 2 0 0
BITMAP
C0
C0
ENDCHAR
STARTCHAR 043F
ENCODING 1087
SWIDTH 500 0
DWIDTH 2 0
BBX 2 2 0 0
BITMAP
C0
C0
ENDCHAR
STARTCHAR 0440
ENCODING 1088
SWIDTH 500 0
DWIDTH 2 0
BBX 2 3 0 -1
BITMAP
C0
C0
80
ENDCHAR
STARTCHAR 0441
ENCODING 1089
SWIDTH 500 0
DWIDTH 2 0
BBX 2 2 0 0
BITMAP
C0
C0
ENDCHAR
STARTCHAR 0442
ENCODING 1090
SWIDTH 500 0
DWIDTH 2 0
BBX 2 2 0 0
BITMAP
C0
40
ENDCHAR
STARTCHAR 0443
ENCODING 1091
SWIDTH 500 0
DWIDTH 2 0
BBX 2 3 0 -1
BITMAP
C0
40
40
ENDCHAR
STARTCHAR 0444
ENCODING 1092
SWIDTH 500 0
DWIDTH 2 0
BBX 2 4 0 -1
BITMAP
40
C0
C0
40
ENDCHAR
STARTCHAR 0445
ENCODING 1093
SWIDTH 500 0
DWIDTH 2 0
BBX 2 2 0 0
BITMAP
C0
C0
ENDCHAR
STARTCHAR 0446
ENCODING 1094
SWIDTH 500 0
DWIDTH 2 0
BBX 2 3 0 -1
BITMAP
C0
C0
40
ENDCHAR
STARTCHAR 0447
ENCODING 1095
SWIDTH 500 0
DWIDTH 2 0
BBX 2 2 0 0
BITMAP
C0
40
ENDCHAR
STARTCHAR 0448
ENCODING 1096
SWIDTH 500 0
DWIDTH 2 0
BBX 2 2 0 0
BITMAP
C0
C0
ENDCHAR
STARTCHAR 0449
ENCODING 1097
SWIDTH 500 0
DWIDTH 2 0
BBX 2 3 0 -1
BITMAP
C0
C0
40
ENDCHAR
STARTCHAR 044A
ENCODING 1098
SWIDTH 500 0
DWIDTH 2 0
BBX 2 2 0 0
BITMAP
C0
C0
ENDCHAR
STARTCHAR 044B
ENCODING 1099
SWIDTH 500 0
DWIDTH 2 0
BBX 2 2 0 0
BITMAP
C0
C0
ENDCHAR
STARTCHAR 044C
ENCODING 1100
SWIDTH 500 0
DWIDTH 2 0
BBX 2 2 0 0
BITMAP
C0
C0
ENDCHAR
STARTCHAR 044D
ENCODING 1101
SWIDTH 500 0
DWIDTH 2 0
BBX 2 2 0 0
BITMAP
C0
C0
ENDCHAR
STARTCHAR 044E
ENCODING 1102
SWIDTH 500 0
DWIDTH 2 0
BBX 2 2 0 0
BITMAP
C0
C0
ENDCHAR
STARTCHAR 044F
ENCODING 1103
SWIDTH 500 0
DWIDTH 2 0
BBX 2 2 0 0
BITMAP
C0
C0
ENDCHAR
STARTCHAR 0451
ENCODING 1105
SWIDTH 500 0
DWIDTH 2 0
BBX 2 3 0 0
BITMAP
C0
C0
C0
ENDCHAR
STARTCHAR 0452
ENCODING 1106
SWIDTH 500 0
DWIDTH 2 0
BBX 2 4 0 -1
BITMAP
80
C0
C0
40
ENDCHAR
STARTCHAR 0453
ENCODING 1107
SWIDTH 500 0
DWIDTH 2 0
BBX 1 3 1 0
BITMAP
80
80
80
ENDCHAR
STARTCHAR 0454
ENCODING 1108
SWIDTH 500 0
DWIDTH 2 0
BBX 2 2 0 0
BITMAP
C0
C0
ENDCHAR
STARTCHAR 0455
ENCODING 1109
SWIDTH 500 0
DWIDTH 2 0
BBX 2 2 0 0
BITMAP
C0
C0
ENDCHAR
STARTCHAR 0456
ENCODING 1110
SWIDTH 500 0
DWIDTH 2 0
BBX 2 3 0 0
BITMAP
40
C0
C0
ENDCHAR
STARTCHAR 0457
ENCODING 1111
SWIDTH 500 0
DWIDTH 2 0
BBX 2 3 0 0
BITMAP
40
C0
C0
ENDCHAR
STARTCHAR 0458
ENCODING 1112
SWIDTH 500 0
DWIDTH 2 0
BBX 2 4 0 -1
BITMAP
40
C0
40
C0
ENDCHAR
STARTCHAR 0459
ENCODING 1113
SWIDTH 500 0
DWIDTH 2 0
BBX 2 2 0 0
BITMAP
C0
C0
ENDCHAR
STARTCHAR 045A
ENCODING 1114
SWIDTH 500 0
DWIDTH 2 0
BBX 2 2 0 0
BITMAP
C0
C0
ENDCHAR
STARTCHAR 045B
ENCODING 1115
SWIDTH 500 0
DWIDTH 2 0
BBX 2 3 0 0
BITMAP
80
C0
C0
ENDCHAR
STARTCHAR 045C
ENCODING 1116
SWIDTH 500 0
DWIDTH 2 0
BBX 2 3 0 0
BITMAP
40
C0
C0
ENDCHAR
STARTCHAR 045E
ENCODING 1118
SWIDTH 500 0
DWIDTH 2 0
BBX 2 4 0 -1
BITMAP
40
C0
40
40
ENDCHAR
STARTCHAR 045F
ENCODING 1119
SWIDTH 500 0
DWIDTH 2 0
BBX 2 2 0 0
BITMAP
C0
C0
ENDCHAR
STARTCHAR 0490
ENCODING 1168
SWIDTH 500 0
DWIDTH 2 0
BBX 1 3 1 0
BITMAP
80
80
80
ENDCHAR
STARTCHAR 0491
ENCODING 1169
SWIDTH 500 0
DWIDTH 2 0
BBX 1 2 1 0
BITMAP
80
80
ENDCHAR
STARTCHAR 0492
ENCODING 1170
SWIDTH 500 0
DWIDTH 2 0
BBX 2 3 0 0
BITMAP
C0
C0
80
ENDCHAR
STARTCHAR 0493
ENCODING 1171
SWIDTH 500 0
DWIDTH 2 0
BBX 2 2 0 0
BITMAP
C0
C0
ENDCHAR
STARTCHAR 049A
ENCODING 1178
SWIDTH 500 0
DWIDTH 2 0
BBX 2 4 0 -1
BITMAP
C0
80
C0
40
ENDCHAR
STARTCHAR 049B
ENCODING 1179
SWIDTH 500 0
DWIDTH 2 0
BBX 2 3 0 -1
BITMAP
C0
C0
40
ENDCHAR
STARTCHAR 04A2
ENCODING 1186
SWIDTH 500 0
DWIDTH 2 0
BBX 2 4 0 -1
BITMAP
C0
C0
C0
40
ENDCHAR
STARTCHAR 04A3
ENCODING 1187
SWIDTH 500 0
DWIDTH 2 0
BBX 2 3 0 -1
BITMAP
C0
C0
40
ENDCHAR
STARTCHAR 04AE
ENCODING 1198
SWIDTH 500 0
DWIDTH 2 0
BBX 2 3 0 0
BITMAP
C0
40
40
ENDCHAR
STARTCHAR 04AF
ENCODING 1199
SWIDTH 500 0
DWIDTH 2 0
BBX 2 3 0 -1
BITMAP
C0
40
40
ENDCHAR
STARTCHAR 04B0
ENCODING 1200
SWIDTH 500 0
DWIDTH 2 0
BBX 2 3 0 0
BITMAP
C0
40
C0
ENDCHAR
STARTCHAR 04B1
ENCODING 1201
SWIDTH 500 0
DWIDTH 2 0
BBX 2 3 0 -1
BITMAP
C0
40
C0
ENDCHAR
STARTCHAR 04B6
ENCODING 1206
SWIDTH 500 0
DWIDTH 2 0
BBX 2 4 0 -1
BITMAP
C0
40
40
40
ENDCHAR
STARTCHAR 04B7
ENCODING 1207
SWIDTH 500 0
DWIDTH 2 0
BBX 2 3 0 -1
BITMAP
C0
40
40
ENDCHAR
STARTCHAR 04BA
ENCODING 1210
SWIDTH 500 0
DWIDTH 2 0
BBX 2 3 0 0
BITMAP
80
C0
C0
ENDCHAR
STARTCHAR 04BB
ENCODING 1211
SWIDTH 500 0
DWIDTH 2 0
BBX 2 2 0 0
BITMAP
C0
C0
ENDCHAR
STARTCHAR 04D8
ENCODING 1240
SWIDTH 500 0
DWIDTH 2 0
BBX 2 3 0 0
BITMAP
C0
C0
C0
ENDCHAR
STARTCHAR 04D9
ENCODING 1241
SWIDTH 500 0
DWIDTH 2 0
BBX 2 2 0 0
BITMAP
C0
C0
ENDCHAR
STARTCHAR 04DC
ENCODING 1244
SWIDTH 500 0
DWIDTH 2 0
BBX 2 4 0 0
BITMAP
C0
C0
40
C0
ENDCHAR
STARTCHAR 04DD
ENCODING 1245
SWIDTH 500 0
DWIDTH 2 0
BBX 2 3 0 0
BITMAP
C0
40
C0
ENDCHAR
STARTCHAR 04DE
ENCODING 1246
SWIDTH 500 0
DWIDTH 2 0
BBX 2 4 0 0
BITMAP
C0
C0
40
C0
ENDCHAR
STARTCHAR 04DF
ENCODING 1247
SWIDTH 500 0
DWIDTH 2 0
BBX 2 3 0 0
BITMAP
C0
40
C0
ENDCHAR
STARTCHAR 04E4
ENCODING 1252
SWIDTH 500 0
DWIDTH 2 0
BBX 2 4 0 0
BITMAP
C0
C0
C0
C0
ENDCHAR
STARTCHAR 04E5
ENCODING 1253
SWIDTH 500 0
DWIDTH 2 0
BBX 2 3 0 0
BITMAP
C0
C0
C0
ENDCHAR
STARTCHAR 04E6
ENCODING 1254
SWIDTH 500 0
DWIDTH 2 0
BBX 2 4 0 0
BITMAP
C0
C0
C0
C0
ENDCHAR
STARTCHAR 04E7
ENCODING 1255
SWIDTH 500 0
DWIDTH 2 0
BBX 2 3 0 0
BITMAP
C0
C0
C0
ENDCHAR
STARTCHAR 04E8
ENCODING 1256
SWIDTH 500 0
DWIDTH 2 0
BBX 2 3 0 0
BITMAP
C0
C0
C0
ENDCHAR
STARTCHAR 04E9
ENCODING 1257
SWIDTH 500 0
DWIDTH 2 0
BBX 2 2 0 0
BITMAP
C0
C0
ENDCHAR
STARTCHAR 04F4
ENCODING 1268
SWIDTH 500 0
DWIDTH 2 0
BBX 2 4 0 0
BITMAP
C0
C0
40
40
ENDCHAR
STARTCHAR 04F5
ENCODING 1269
SWIDTH 500 0
DWIDTH 2 0
BBX 2 3 0 0
BITMAP
C0
C0
40
ENDCHAR
STARTCHAR 0AEA
ENCODING 2794
SWIDTH 500 0
DWIDTH 2 0
BBX 2 3 0 0
BITMAP
C0
C0
40
ENDCHAR
STARTCHAR 1E80
ENCODING 7808
SWIDTH 500 0
DWIDTH 2 0
BBX 2 4 0 0
BITMAP
80
C0
C0
C0
ENDCHAR
STARTCHAR 1E81
ENCODING 7809
SWIDTH 500 0
DWIDTH 2 0
BBX 2 3 0 0
BITMAP
80
C0
C0
ENDCHAR
STARTCHAR 1E82
ENCODING 7810
SWIDTH 500 0
DWIDTH 2 0
BBX 2 4 0 0
BITMAP
40
C0
C0
C0
ENDCHAR
STARTCHAR 1E83
ENCODING 7811
SWIDTH 500 0
DWIDTH 2 0
BBX 2 3 0 0
BITMAP
40
C0
C0
ENDCHAR
STARTCHAR 1E84
ENCODING 7812
SWIDTH 500 0
DWIDTH 2 0
BBX 2 4 0 0
BITMAP
C0
C0
C0
C0
ENDCHAR
STARTCHAR 1E85
ENCODING 7813
SWIDTH 500 0
DWIDTH 2 0
BBX 2 3 0 0
BITMAP
C0
C0
C0
ENDCHAR
STARTCHAR 1E9E
ENCODING 7838
SWIDTH 500 0
DWIDTH 2 0
BBX 2 3 0 0
BITMAP
C0
C0
C0
ENDCHAR
STARTCHAR 1EA0
ENCODING 7840
SWIDTH 500 0
DWIDTH 2 0
BBX 2 4 0 -1
BITMAP
40
40
C0
40
ENDCHAR
STARTCHAR 1EA1
ENCODING 7841
SWIDTH 500 0
DWIDTH 2 0
BBX 2 3 0 -1
BITMAP
C0
C0
40
ENDCHAR
STARTCHAR 1EA2
ENCODING 7842
SWIDTH 500 0
DWIDTH 2 0
BBX 2 4 0 0
BITMAP
40
40
40
C0
ENDCHAR
STARTCHAR 1EA3
ENCODING 7843
SWIDTH 500 0
DWIDTH 2 0
BBX 2 3 0 0
BITMAP
40
C0
C0
ENDCHAR
STARTCHAR 1EA4
ENCODING 7844
SWIDTH 500 0
DWIDTH 2 0
BBX 2 4 0 0
BITMAP
40
C0
40
C0
ENDCHAR
STARTCHAR 1EA5
ENCODING 7845
SWIDTH 500 0
DWIDTH 2 0
BBX 3 3 0 0
BITMAP
60
C0
C0
ENDCHAR
STARTCHAR 1EA6
ENCODING 7846
SWIDTH 500 0
DWIDTH 2 0
BBX 2 4 0 0
BITMAP
C0
40
40
C0
ENDCHAR
STARTCHAR 1EA7
ENCODING 7847
SWIDTH 500 0
DWIDTH 2 0
BBX 2 3 0 0
BITMAP
40
C0
C0
ENDCHAR
STARTCHAR 1EA8
ENCODING 7848
SWIDTH 500 0
DWIDTH 2 0
BBX 2 4 0 0
BITMAP
40
C0
40
C0
ENDCHAR
STARTCHAR 1EA9
ENCODING 7849
SWIDTH 500 0
DWIDTH 2 0
BBX 2 4 0 0
BITMAP
40
40
C0
C0
ENDCHAR
STARTCHAR 1EAA
ENCODING 7850
SWIDTH 500 0
DWIDTH 2 0
BBX 2 4 0 0
BITMAP
40
C0
40
C0
ENDCHAR
STARTCHAR 1EAB
ENCODING 7851
SWIDTH 500 0
DWIDTH 2 0
BBX 2 4 0 0
BITMAP
40
80
C0
C0
ENDCHAR
STARTCHAR 1EAC
ENCODING 7852
SWIDTH 500 0
DWIDTH 2 0
BBX 2 5 0 -1
BITMAP
40
C0
40
C0
40
ENDCHAR
STARTCHAR 1EAD
ENCODING 7853
SWIDTH 500 0
DWIDTH 2 0
BBX 2 4 0 -1
BITMAP
40
C0
C0
40
ENDCHAR
STARTCHAR 1EAE
ENCODING 7854
SWIDTH 500 0
DWIDTH 2 0
BBX 2 3 0 0
BITMAP
40
40
C0
ENDCHAR
STARTCHAR 1EAF
ENCODING 7855
SWIDTH 500 0
DWIDTH 2 0
BBX 2 3 0 0
BITMAP
40
C0
C0
ENDCHAR
STARTCHAR 1EB0
ENCODING 7856
SWIDTH 500 0
DWIDTH 2 0
BBX 2 3 0 0
BITMAP
40
40
C0
ENDCHAR
STARTCHAR 1EB1
ENCODING 7857
SWIDTH 500 0
DWIDTH 2 0
BBX 2 3 0 0
BITMAP
40
C0
C0
ENDCHAR
STARTCHAR 1EB2
ENCODING 7858
SWIDTH 500 0
DWIDTH 2 0
BBX 2 4 0 0
BITMAP
40
40
40
C0
ENDCHAR
STARTCHAR 1EB3
ENCODING 7859
SWIDTH 500 0
DWIDTH 2 0
BBX 2 4 0 0
BITMAP
40
40
C0
C0
ENDCHAR
STARTCHAR 1EB4
ENCODING 7860
SWIDTH 500 0
DWIDTH 2 0
BBX 2 4 0 0
BITMAP
80
40
40
C0
ENDCHAR
STARTCHAR 1EB5
ENCODING 7861
SWIDTH 500 0
DWIDTH 2 0
BBX 2 4 0 0
BITMAP
40
40
C0
C0
ENDCHAR
STARTCHAR 1EB6
ENCODING 7862
SWIDTH 500 0
DWIDTH 2 0
BBX 2 4 0 -1
BITMAP
40
40
C0
40
ENDCHAR
STARTCHAR 1EB7
ENCODING 7863
SWIDTH 500 0
DWIDTH 2 0
BBX 2 4 0 -1
BITMAP
40
C0
C0
40
ENDCHAR
STARTCHAR 1EB8
ENCODING 7864
SWIDTH 500 0
DWIDTH 2 0
BBX 2 4 0 -1
BITMAP
C0
C0
80
40
ENDCHAR
STARTCHAR 1EB9
ENCODING 7865
SWIDTH 500 0
DWIDTH 2 0
BBX 2 3 0 -1
BITMAP
C0
C0
40
ENDCHAR
STARTCHAR 1EBA
ENCODING 7866
SWIDTH 500 0
DWIDTH 2 0
BBX 2 4 0 0
BITMAP
40
80
C0
C0
ENDCHAR
STARTCHAR 1EBB
ENCODING 7867
SWIDTH 500 0
DWIDTH 2 0
BBX 2 3 0 0
BITMAP
40
C0
C0
ENDCHAR
STARTCHAR 1EBC
ENCODING 7868
SWIDTH 500 0
DWIDTH 2 0
BBX 2 4 0 0
BITMAP
40
80
C0
C0
ENDCHAR
STARTCHAR 1EBD
ENCODING 7869
SWIDTH 500 0
DWIDTH 2 0
BBX 2 3 0 0
BITMAP
40
C0
C0
ENDCHAR
STARTCHAR 1EBE
ENCODING 7870
SWIDTH 500 0
DWIDTH 2 0
BBX 3 4 0 0
BITMAP
60
80
C0
C0
ENDCHAR
STARTCHAR 1EBF
ENCODING 7871
SWIDTH 500 0
DWIDTH 2 0
BBX 3 3 0 0
BITMAP
60
C0
C0
ENDCHAR
STARTCHAR 1EC0
ENCODING 7872
SWIDTH 500 0
DWIDTH 2 0
BBX 2 4 0 0
BITMAP
40
80
C0
C0
ENDCHAR
STARTCHAR 1EC1
ENCODING 7873
SWIDTH 500 0
DWIDTH 2 0
BBX 2 3 0 0
BITMAP
40
C0
C0
ENDCHAR
STARTCHAR 1EC2
ENCODING 7874
SWIDTH 500 0
DWIDTH 2 0
BBX 2 4 0 0
BITMAP
40
80
C0
C0
ENDCHAR
STARTCHAR 1EC3
ENCODING 7875
SWIDTH 500 0
DWIDTH 2 0
BBX 2 4 0 0
BITMAP
40
40
C0
C0
ENDCHAR
STARTCHAR 1EC4
ENCODING 7876
SWIDTH 500 0
DWIDTH 2 0
BBX 2 4 0 0
BITMAP
40
80
C0
C0
ENDCHAR
STARTCHAR 1EC5
ENCODING 7877
SWIDTH 500 0
DWIDTH 2 0
BBX 2 4 0 0
BITMAP
40
80
C0
C0
ENDCHAR
STARTCHAR 1EC6
ENCODING 7878
SWIDTH 500 0
DWIDTH 2 0
BBX 2 5 0 -1
BITMAP
40
80
C0
80
40
ENDCHAR
STARTCHAR 1EC7
ENCODING 7879
SWIDTH 500 0
DWIDTH 2 0
BBX 2 4 0 -1
BITMAP
40
C0
C0
40
ENDCHAR
STARTCHAR 1EC8
ENCODING 7880
SWIDTH 500 0
DWIDTH 2 0
BBX 2 4 0 0
BITMAP
40
C0
40
C0
ENDCHAR
STARTCHAR 1EC9
ENCODING 7881
SWIDTH 500 0
DWIDTH 2 0
BBX 2 3 0 0
BITMAP
40
C0
C0
ENDCHAR
STARTCHAR 1ECA
ENCODING 7882
SWIDTH 500 0
DWIDTH 2 0
BBX 2 4 0 -1
BITMAP
C0
40
C0
40
ENDCHAR
STARTCHAR 1ECB
ENCODING 7883
SWIDTH 500 0
DWIDTH 2 0
BBX 2 4 0 -1
BITMAP
40
C0
C0
40
ENDCHAR
STARTCHAR 1ECC
ENCODING 7884
SWIDTH 500 0
DWIDTH 2 0
BBX 2 4 0 -1
BITMAP
C0
C0
C0
40
ENDCHAR
STARTCHAR 1ECD
ENCODING 7885
SWIDTH 500 0
DWIDTH 2 0
BBX 2 3 0 -1
BITMAP
C0
C0
40
ENDCHAR
STARTCHAR 1ECE
ENCODING 7886
SWIDTH 500 0
DWIDTH 2 0
BBX 2 4 0 0
BITMAP
40
C0
C0
C0
ENDCHAR
STARTCHAR 1ECF
ENCODING 7887
SWIDTH 500 0
DWIDTH 2 0
BBX 2 3 0 0
BITMAP
40
C0
C0
ENDCHAR
STARTCHAR 1ED0
ENCODING 7888
SWIDTH 500 0
DWIDTH 2 0
BBX 2 4 0 0
BITMAP
40
C0
C0
C0
ENDCHAR
STARTCHAR 1ED1
ENCODING 7889
SWIDTH 500 0
DWIDTH 2 0
BBX 3 3 0 0
BITMAP
60
C0
C0
ENDCHAR
STARTCHAR 1ED2
ENCODING 7890
SWIDTH 500 0
DWIDTH 2 0
BBX 2 4 0 0
BITMAP
40
C0
C0
C0
ENDCHAR
STARTCHAR 1ED3
ENCODING 7891
SWIDTH 500 0
DWIDTH 2 0
BBX 2 3 0 0
BITMAP
40
C0
C0
ENDCHAR
STARTCHAR 1ED4
ENCODING 7892
SWIDTH 500 0
DWIDTH 2 0
BBX 2 4 0 0
BITMAP
40
C0
C0
C0
ENDCHAR
STARTCHAR 1ED5
ENCODING 7893
SWIDTH 500 0
DWIDTH 2 0
BBX 2 4 0 0
BITMAP
40
40
C0
C0
ENDCHAR
STARTCHAR 1ED6
ENCODING 7894
SWIDTH 500 0
DWIDTH 2 0
BBX 2 4 0 0
BITMAP
40
C0
C0
C0
ENDCHAR
STARTCHAR 1ED7
ENCODING 7895
SWIDTH 500 0
DWIDTH 2 0
BBX 2 4 0 0
BITMAP
40
80
C0
C0
ENDCHAR
STARTCHAR 1ED8
ENCODING 7896
SWIDTH 500 0
DWIDTH 2 0
BBX 2 5 0 -1
BITMAP
40
C0
C0
C0
40
ENDCHAR
STARTCHAR 1ED9
ENCODING 7897
SWIDTH 500 0
DWIDTH 2 0
BBX 2 4 0 -1
BITMAP
40
C0
C0
40
ENDCHAR
STARTCHAR 1EDA
ENCODING 7898
SWIDTH 500 0
DWIDTH 2 0
BBX 2 4 0 0
BITMAP
40
C0
C0
C0
ENDCHAR
STARTCHAR 1EDB
ENCODING 7899
SWIDTH 500 0
DWIDTH 2 0
BBX 2 3 0 0
BITMAP
40
C0
C0
ENDCHAR
STARTCHAR 1EDC
ENCODING 7900
SWIDTH 500 0
DWIDTH 2 0
BBX 2 4 0 0
BITMAP
80
C0
C0
C0
ENDCHAR
STARTCHAR 1EDD
ENCODING 7901
SWIDTH 500 0
DWIDTH 2 0
BBX 2 3 0 0
BITMAP
C0
C0
C0
ENDCHAR
STARTCHAR 1EDE
ENCODING 7902
SWIDTH 500 0
DWIDTH 2 0
BBX 2 4 0 0
BITMAP
40
C0
C0
C0
ENDCHAR
STARTCHAR 1EDF
ENCODING 7903
SWIDTH 500 0
DWIDTH 2 0
BBX 2 3 0 0
BITMAP
40
C0
C0
ENDCHAR
STARTCHAR 1EE0
ENCODING 7904
SWIDTH 500 0
DWIDTH 2 0
BBX 2 4 0 0
BITMAP
40
C0
C0
C0
ENDCHAR
STARTCHAR 1EE1
ENCODING 7905
SWIDTH 500 0
DWIDTH 2 0
BBX 2 3 0 0
BITMAP
40
C0
C0
ENDCHAR
STARTCHAR 1EE2
ENCODING 7906
SWIDTH 500 0
DWIDTH 2 0
BBX 2 4 0 -1
BITMAP
C0
C0
C0
40
ENDCHAR
STARTCHAR 1EE3
ENCODING 7907
SWIDTH 500 0
DWIDTH 2 0
BBX 2 4 0 -1
BITMAP
40
C0
C0
40
ENDCHAR
STARTCHAR 1EE4
ENCODING 7908
SWIDTH 500 0
DWIDTH 2 0
BBX 2 4 0 -1
BITMAP
C0
C0
C0
40
ENDCHAR
STARTCHAR 1EE5
ENCODING 7909
SWIDTH 500 0
DWIDTH 2 0
BBX 2 3 0 -1
BITMAP
C0
C0
40
ENDCHAR
STARTCHAR 1EE6
ENCODING 7910
SWIDTH 500 0
DWIDTH 2 0
BBX 2 4 0 0
BITMAP
40
C0
C0
C0
ENDCHAR
STARTCHAR 1EE7
ENCODING 7911
SWIDTH 500 0
DWIDTH 2 0
BBX 2 3 0 0
BITMAP
40
C0
C0
ENDCHAR
STARTCHAR 1EE8
ENCODING 7912
SWIDTH 500 0
DWIDTH 2 0
BBX 2 4 0 0
BITMAP
40
C0
C0
C0
ENDCHAR
STARTCHAR 1EE9
ENCODING 7913
SWIDTH 500 0
DWIDTH 2 0
BBX 2 3 0 0
BITMAP
40
C0
C0
ENDCHAR
STARTCHAR 1EEA
ENCODING 7914
SWIDTH 500 0
DWIDTH 2 0
BBX 2 4 0 0
BITMAP
80
C0
C0
C0
ENDCHAR
STARTCHAR 1EEB
ENCODING 7915
SWIDTH 500 0
DWIDTH 2 0
BBX 2 3 0 0
BITMAP
80
C0
C0
ENDCHAR
STARTCHAR 1EEC
ENCODING 7916
SWIDTH 500 0
DWIDTH 2 0
BBX 2 4 0 0
BITMAP
40
C0
C0
C0
ENDCHAR
STARTCHAR 1EED
ENCODING 7917
SWIDTH 500 0
DWIDTH 2 0
BBX 2 3 0 0
BITMAP
40
C0
C0
ENDCHAR
STARTCHAR 1EEE
ENCODING 7918
SWIDTH 500 0
DWIDTH 2 0
BBX 2 4 0 0
BITMAP
40
C0
C0
C0
ENDCHAR
STARTCHAR 1EEF
ENCODING 7919
SWIDTH 500 0
DWIDTH 2 0
BBX 2 3 0 0
BITMAP
40
C0
C0
ENDCHAR
STARTCHAR 1EF0
ENCODING 7920
SWIDTH 500 0
DWIDTH 2 0
BBX 2 4 0 -1
BITMAP
C0
C0
C0
40
ENDCHAR
STARTCHAR 1EF1
ENCODING 7921
SWIDTH 500 0
DWIDTH 2 0
BBX 2 3 0 -1
BITMAP
C0
C0
40
ENDCHAR
STARTCHAR 1EF2
ENCODING 7922
SWIDTH 500 0
DWIDTH 2 0
BBX 2 4 0 0
BITMAP
80
C0
40
40
ENDCHAR
STARTCHAR 1EF3
ENCODING 7923
SWIDTH 500 0
DWIDTH 2 0
BBX 2 4 0 -1
BITMAP
80
C0
40
40
ENDCHAR
STARTCHAR 1EF4
ENCODING 7924
SWIDTH 500 0
DWIDTH 2 0
BBX 2 4 0 -1
BITMAP
C0
40
40
40
ENDCHAR
STARTCHAR 1EF5
ENCODING 7925
SWIDTH 500 0
DWIDTH 2 0
BBX 2 3 0 -1
BITMAP
C0
40
40
ENDCHAR
STARTCHAR 1EF6
ENCODING 7926
SWIDTH 500 0
DWIDTH 2 0
BBX 2 4 0 0
BITMAP
40
C0
40
40
ENDCHAR
STARTCHAR 1EF7
ENCODING 7927
SWIDTH 500 0
DWIDTH 2 0
BBX 2 4 0 -1
BITMAP
40
C0
40
40
ENDCHAR
STARTCHAR 1EF8
ENCODING 7928
SWIDTH 500 0
DWIDTH 2 0
BBX 2 4 0 0
BITMAP
40
C0
40
40
ENDCHAR
STARTCHAR 1EF9
ENCODING 7929
SWIDTH 500 0
DWIDTH 2 0
BBX 2 4 0 -1
BITMAP
40
C0
40
40
ENDCHAR
STARTCHAR 2001
ENCODING 8193
SWIDTH 500 0
DWIDTH 2 0
BBX 0 0 0 0
BITMAP
ENDCHAR
STARTCHAR 200B
ENCODING 8203
SWIDTH 500 0
DWIDTH 2 0
BBX 0 0 0 0
BITMAP
ENDCHAR
STARTCHAR 2010
ENCODING 8208
SWIDTH 500 0
DWIDTH 2 0
BBX 1 1 1 1
BITMAP
80
ENDCHAR
STARTCHAR 2013
ENCODING 8211
SWIDTH 500 0
DWIDTH 2 0
BBX 2 1 0 1
BITMAP
C0
ENDCHAR
STARTCHAR 2014
ENCODING 8212
SWIDTH 500 0
DWIDTH 2 0
BBX 2 1 0 1
BITMAP
C0
ENDCHAR
STARTCHAR 2016
ENCODING 8214
SWIDTH 500 0
DWIDTH 2 0
BBX 2 4 0 0
BITMAP
C0
C0
C0
C0
ENDCHAR
STARTCHAR 2018
ENCODING 8216
SWIDTH 500 0
DWIDTH 2 0
BBX 1 1 1 2
BITMAP
80
ENDCHAR
STARTCHAR 2019
ENCODING 8217
SWIDTH 500 0
DWIDTH 2 0
BBX 1 1 1 1
BITMAP
80
ENDCHAR
STARTCHAR 201A
ENCODING 8218
SWIDTH 500 0
DWIDTH 2 0
BBX 1 1 1 -1
BITMAP
80
ENDCHAR
STARTCHAR 201B
ENCODING 8219
SWIDTH 500 0
DWIDTH 2 0
BBX 1 1 1 2
BITMAP
80
ENDCHAR
STARTCHAR 201C
ENCODING 8220
SWIDTH 500 0
DWIDTH 2 0
BBX 2 1 0 2
BITMAP
C0
ENDCHAR
STARTCHAR 201D
ENCODING 8221
SWIDTH 500 0
DWIDTH 2 0
BBX 2 1 0 1
BITMAP
C0
ENDCHAR
STARTCHAR 201E
ENCODING 8222
SWIDTH 500 0
DWIDTH 2 0
BBX 2 1 0 -1
BITMAP
C0
ENDCHAR
STARTCHAR 201F
ENCODING 8223
SWIDTH 500 0
DWIDTH 2 0
BBX 2 1 0 2
BITMAP
C0
ENDCHAR
STARTCHAR 2020
ENCODING 8224
SWIDTH 500 0
DWIDTH 2 0
BBX 2 3 0 0
BITMAP
C0
40
40
ENDCHAR
STARTCHAR 2021
ENCODING 8225
SWIDTH 500 0
DWIDTH 2 0
BBX 2 4 0 -1
BITMAP
40
C0
C0
40
ENDCHAR
STARTCHAR 2022
ENCODING 8226
SWIDTH 500 0
DWIDTH 2 0
BBX 1 1 1 1
BITMAP
80
ENDCHAR
STARTCHAR 2024
ENCODING 8228
SWIDTH 500 0
DWIDTH 2 0
BBX 1 1 1 0
BITMAP
80
ENDCHAR
STARTCHAR 2026
ENCODING 8230
SWIDTH 500 0
DWIDTH 2 0
BBX 2 1 0 0
BITMAP
C0
ENDCHAR
STARTCHAR 2030
ENCODING 8240
SWIDTH 500 0
DWIDTH 2 0
BBX 3 3 0 0
BITMAP
C0
80
E0
ENDCHAR
STARTCHAR 2032
ENCODING 8242
SWIDTH 500 0
DWIDTH 2 0
BBX 1 1 1 1
BITMAP
80
ENDCHAR
STARTCHAR 2033
ENCODING 8243
SWIDTH 500 0
DWIDTH 2 0
BBX 2 1 0 1
BITMAP
C0
ENDCHAR
STARTCHAR 2034
ENCODING 8244
SWIDTH 500 0
DWIDTH 2 0
BBX 2 1 0 1
BITMAP
C0
ENDCHAR
STARTCHAR 2039
ENCODING 8249
SWIDTH 500 0
DWIDTH 2 0
BBX 1 2 1 0
BITMAP
80
80
ENDCHAR
STARTCHAR 203A
ENCODING 8250
SWIDTH 500 0
DWIDTH 2 0
BBX 1 2 1 0
BITMAP
80
80
ENDCHAR
STARTCHAR 203C
ENCODING 8252
SWIDTH 500 0
DWIDTH 2 0
BBX 2 3 0 0
BITMAP
C0
C0
C0
ENDCHAR
STARTCHAR 203D
ENCODING 8253
SWIDTH 500 0
DWIDTH 2 0
BBX 1 2 1 0
BITMAP
80
80
ENDCHAR
STARTCHAR 203E
ENCODING 8254
SWIDTH 500 0
DWIDTH 2 0
BBX 2 1 0 2
BITMAP
C0
ENDCHAR
STARTCHAR 203F
ENCODING 8255
SWIDTH 500 0
DWIDTH 2 0
BBX 2 1 0 -1
BITMAP
C0
ENDCHAR
STARTCHAR 2044
ENCODING 8260
SWIDTH 500 0
DWIDTH 2 0
BBX 2 3 0 0
BITMAP
40
40
80
ENDCHAR
STARTCHAR 2045
ENCODING 8261
SWIDTH 500 0
DWIDTH 2 0
BBX 1 4 1 -1
BITMAP
80
80
80
80
ENDCHAR
STARTCHAR 2046
ENCODING 8262
SWIDTH 500 0
DWIDTH 2 0
BBX 1 4 1 -1
BITMAP
80
80
80
80
ENDCHAR
STARTCHAR 2070
ENCODING 8304
SWIDTH 500 0
DWIDTH 2 0
BBX 1 1 1 2
BITMAP
80
ENDCHAR
STARTCHAR 2074
ENCODING 8308
SWIDTH 500 0
DWIDTH 2 0
BBX 1 1 1 2
BITMAP
80
ENDCHAR
STARTCHAR 2075
ENCODING 8309
SWIDTH 500 0
DWIDTH 2 0
BBX 1 2 1 2
BITMAP
80
80
ENDCHAR
STARTCHAR 2076
ENCODING 8310
SWIDTH 500 0
DWIDTH 2 0
BBX 1 2 1 2
BITMAP
80
80
ENDCHAR
STARTCHAR 2077
ENCODING 8311
SWIDTH 500 0
DWIDTH 2 0
BBX 1 1 1 2
BITMAP
80
ENDCHAR
STARTCHAR 2078
ENCODING 8312
SWIDTH 500 0
DWIDTH 2 0
BBX 1 1 1 2
BITMAP
80
ENDCHAR
STARTCHAR 2079
ENCODING 8313
SWIDTH 500 0
DWIDTH 2 0
BBX 1 1 1 2
BITMAP
80
ENDCHAR
STARTCHAR 207A
ENCODING 8314
SWIDTH 500 0
DWIDTH 2 0
BBX 1 1 1 1
BITMAP
80
ENDCHAR
STARTCHAR 207C
ENCODING 8316
SWIDTH 500 0
DWIDTH 2 0
BBX 1 2 1 1
BITMAP
80
80
ENDCHAR
STARTCHAR 2080
ENCODING 8320
SWIDTH 500 0
DWIDTH 2 0
BBX 1 1 1 0
BITMAP
80
ENDCHAR
STARTCHAR 2081
ENCODING 8321
SWIDTH 500 0
DWIDTH 2 0
BBX 1 1 1 0
BITMAP
80
ENDCHAR
STARTCHAR 2082
ENCODING 8322
SWIDTH 500 0
DWIDTH 2 0
BBX 1 1 1 0
BITMAP
80
ENDCHAR
STARTCHAR 2083
ENCODING 8323
SWIDTH 500 0
DWIDTH 2 0
BBX 1 1 1 0
BITMAP
80
ENDCHAR
STARTCHAR 2084
ENCODING 8324
SWIDTH 500 0
DWIDTH 2 0
BBX 1 1 1 0
BITMAP
80
ENDCHAR
STARTCHAR 2085
ENCODING 8325
SWIDTH 500 0
DWIDTH 2 0
BBX 1 2 1 0
BITMAP
80
80
ENDCHAR
STARTCHAR 2086
ENCODING 8326
SWIDTH 500 0
DWIDTH 2 0
BBX 1 2 1 0
BITMAP
80
80
ENDCHAR
STARTCHAR 2087
ENCODING 8327
SWIDTH 500 0
DWIDTH 2 0
BBX 1 1 1 0
BITMAP
80
ENDCHAR
STARTCHAR 2088
ENCODING 8328
SWIDTH 500 0
DWIDTH 2 0
BBX 1 1 1 0
BITMAP
80
ENDCHAR
STARTCHAR 2089
ENCODING 8329
SWIDTH 500 0
DWIDTH 2 0
BBX 1 1 1 0
BITMAP
80
ENDCHAR
STARTCHAR 20AB
ENCODING 8363
SWIDTH 500 0
DWIDTH 2 0
BBX 2 3 0 0
BITMAP
40
C0
C0
ENDCHAR
STARTCHAR 20AC
ENCODING 8364
SWIDTH 500 0
DWIDTH 2 0
BBX 2 3 0 0
BITMAP
C0
80
C0
ENDCHAR
STARTCHAR 20AE
ENCODING 8366
SWIDTH 500 0
DWIDTH 2 0
BBX 2 3 0 0
BITMAP
C0
80
40
ENDCHAR
STARTCHAR 20B4
ENCODING 8372
SWIDTH 500 0
DWIDTH 2 0
BBX 2 3 0 0
BITMAP
C0
C0
C0
ENDCHAR
STARTCHAR 20BD
ENCODING 8381
SWIDTH 500 0
DWIDTH 2 0
BBX 2 3 0 0
BITMAP
C0
C0
C0
ENDCHAR
STARTCHAR 20BF
ENCODING 8383
SWIDTH 500 0
DWIDTH 2 0
BBX 2 3 0 0
BITMAP
C0
C0
C0
ENDCHAR
STARTCHAR 2102
ENCODING 8450
SWIDTH 500 0
DWIDTH 2 0
BBX 2 4 0 0
BITMAP
40
80
80
40
ENDCHAR
STARTCHAR 210D
ENCODING 8461
SWIDTH 500 0
DWIDTH 2 0
BBX 2 4 0 0
BITMAP
C0
C0
C0
C0
ENDCHAR
STARTCHAR 2113
ENCODING 8467
SWIDTH 500 0
DWIDTH 2 0
BBX 2 4 0 0
BITMAP
40
C0
80
40
ENDCHAR
STARTCHAR 2115
ENCODING 8469
SWIDTH 500 0
DWIDTH 2 0
BBX 2 4 0 0
BITMAP
C0
C0
C0
C0
ENDCHAR
STARTCHAR 2116
ENCODING 8470
SWIDTH 500 0
DWIDTH 2 0
BBX 2 3 0 0
BITMAP
C0
C0
80
ENDCHAR
STARTCHAR 2119
ENCODING 8473
SWIDTH 500 0
DWIDTH 2 0
BBX 2 4 0 0
BITMAP
C0
C0
C0
80
ENDCHAR
STARTCHAR 211A
ENCODING 8474
SWIDTH 500 0
DWIDTH 2 0
BBX 2 4 0 0
BITMAP
40
C0
C0
40
ENDCHAR
STARTCHAR 211D
ENCODING 8477
SWIDTH 500 0
DWIDTH 2 0
BBX 2 4 0 0
BITMAP
C0
C0
C0
C0
ENDCHAR
STARTCHAR 2122
ENCODING 8482
SWIDTH 500 0
DWIDTH 2 0
BBX 2 2 0 1
BITMAP
C0
C0
ENDCHAR
STARTCHAR 2124
ENCODING 8484
SWIDTH 500 0
DWIDTH 2 0
BBX 2 4 0 0
BITMAP
C0
40
80
C0
ENDCHAR
STARTCHAR 212E
ENCODING 8494
SWIDTH 500 0
DWIDTH 2 0
BBX 2 4 0 0
BITMAP
40
C0
C0
40
ENDCHAR
STARTCHAR 2140
ENCODING 8512
SWIDTH 500 0
DWIDTH 2 0
BBX 2 4 0 -1
BITMAP
C0
80
C0
C0
ENDCHAR
STARTCHAR 218A
ENCODING 8586
SWIDTH 500 0
DWIDTH 2 0
BBX 2 3 0 0
BITMAP
C0
80
C0
ENDCHAR
STARTCHAR 218B
ENCODING 8587
SWIDTH 500 0
DWIDTH 2 0
BBX 2 3 0 0
BITMAP
C0
80
C0
ENDCHAR
STARTCHAR 2190
ENCODING 8592
SWIDTH 500 0
DWIDTH 2 0
BBX 2 2 0 0
BITMAP
C0
80
ENDCHAR
STARTCHAR 2191
ENCODING 8593
SWIDTH 500 0
DWIDTH 2 0
BBX 2 3 0 0
BITMAP
C0
40
40
ENDCHAR
STARTCHAR 2192
ENCODING 8594
SWIDTH 500 0
DWIDTH 2 0
BBX 2 3 0 0
BITMAP
40
C0
40
ENDCHAR
STARTCHAR 2193
ENCODING 8595
SWIDTH 500 0
DWIDTH 2 0
BBX 2 3 0 0
BITMAP
40
40
C0
ENDCHAR
STARTCHAR 2194
ENCODING 8596
SWIDTH 500 0
DWIDTH 2 0
BBX 3 2 0 0
BITMAP
E0
E0
ENDCHAR
STARTCHAR 2195
ENCODING 8597
SWIDTH 500 0
DWIDTH 2 0
BBX 2 5 0 -1
BITMAP
40
C0
40
C0
40
ENDCHAR
STARTCHAR 2196
ENCODING 8598
SWIDTH 500 0
DWIDTH 2 0
BBX 2 3 0 0
BITMAP
C0
80
C0
ENDCHAR
STARTCHAR 2197
ENCODING 8599
SWIDTH 500 0
DWIDTH 2 0
BBX 2 3 0 0
BITMAP
C0
40
C0
ENDCHAR
STARTCHAR 2198
ENCODING 8600
SWIDTH 500 0
DWIDTH 2 0
BBX 2 2 0 0
BITMAP
C0
C0
ENDCHAR
STARTCHAR 2199
ENCODING 8601
SWIDTH 500 0
DWIDTH 2 0
BBX 2 2 0 0
BITMAP
C0
C0
ENDCHAR
STARTCHAR 219D
ENCODING 8605
SWIDTH 500 0
DWIDTH 2 0
BBX 2 2 0 0
BITMAP
40
C0
ENDCHAR
STARTCHAR 219E
ENCODING 8606
SWIDTH 500 0
DWIDTH 2 0
BBX 2 1 0 1
BITMAP
C0
ENDCHAR
STARTCHAR 21A0
ENCODING 8608
SWIDTH 500 0
DWIDTH 2 0
BBX 2 1 0 1
BITMAP
C0
ENDCHAR
STARTCHAR 21A2
ENCODING 8610
SWIDTH 500 0
DWIDTH 2 0
BBX 2 1 0 1
BITMAP
C0
ENDCHAR
STARTCHAR 21A3
ENCODING 8611
SWIDTH 500 0
DWIDTH 2 0
BBX 2 1 0 1
BITMAP
C0
ENDCHAR
STARTCHAR 21A5
ENCODING 8613
SWIDTH 500 0
DWIDTH 2 0
BBX 2 2 0 0
BITMAP
C0
C0
ENDCHAR
STARTCHAR 21A6
ENCODING 8614
SWIDTH 500 0
DWIDTH 2 0
BBX 2 1 0 1
BITMAP
C0
ENDCHAR
STARTCHAR 21A7
ENCODING 8615
SWIDTH 500 0
DWIDTH 2 0
BBX 2 3 0 0
BITMAP
C0
40
C0
ENDCHAR
STARTCHAR 21A9
ENCODING 8617
SWIDTH 500 0
DWIDTH 2 0
BBX 2 3 0 1
BITMAP
40
C0
C0
ENDCHAR
STARTCHAR 21AA
ENCODING 8618
SWIDTH 500 0
DWIDTH 2 0
BBX 2 3 0 1
BITMAP
80
C0
40
ENDCHAR
STARTCHAR 21AD
ENCODING 8621
SWIDTH 500 0
DWIDTH 2 0
BBX 2 1 0 1
BITMAP
C0
ENDCHAR
STARTCHAR 21BE
ENCODING 8638
SWIDTH 500 0
DWIDTH 2 0
BBX 1 4 1 -1
BITMAP
80
80
80
80
ENDCHAR
STARTCHAR 21C9
ENCODING 8649
SWIDTH 500 0
DWIDTH 2 0
BBX 2 2 0 0
BITMAP
C0
C0
ENDCHAR
STARTCHAR 21D0
ENCODING 8656
SWIDTH 500 0
DWIDTH 2 0
BBX 2 2 0 0
BITMAP
C0
C0
ENDCHAR
STARTCHAR 21D1
ENCODING 8657
SWIDTH 500 0
DWIDTH 2 0
BBX 2 4 0 -1
BITMAP
C0
40
40
40
ENDCHAR
STARTCHAR 21D2
ENCODING 8658
SWIDTH 500 0
DWIDTH 2 0
BBX 2 2 0 0
BITMAP
C0
C0
ENDCHAR
STARTCHAR 21D3
ENCODING 8659
SWIDTH 500 0
DWIDTH 2 0
BBX 2 4 0 -1
BITMAP
40
40
40
C0
ENDCHAR
STARTCHAR 21D4
ENCODING 8660
SWIDTH 500 0
DWIDTH 2 0
BBX 3 2 0 0
BITMAP
C0
E0
ENDCHAR
STARTCHAR 21DB
ENCODING 8667
SWIDTH 500 0
DWIDTH 2 0
BBX 2 2 0 0
BITMAP
C0
C0
ENDCHAR
STARTCHAR 21DE
ENCODING 8670
SWIDTH 500 0
DWIDTH 2 0
BBX 2 3 0 -1
BITMAP
40
C0
40
ENDCHAR
STARTCHAR 21DF
ENCODING 8671
SWIDTH 500 0
DWIDTH 2 0
BBX 2 3 0 -1
BITMAP
C0
C0
40
ENDCHAR
STARTCHAR 21E5
ENCODING 8677
SWIDTH 500 0
DWIDTH 2 0
BBX 2 1 0 1
BITMAP
C0
ENDCHAR
STARTCHAR 21E7
ENCODING 8679
SWIDTH 500 0
DWIDTH 2 0
BBX 2 4 0 0
BITMAP
80
C0
C0
40
ENDCHAR
STARTCHAR 21E8
ENCODING 8680
SWIDTH 500 0
DWIDTH 2 0
BBX 2 3 0 0
BITMAP
40
C0
40
ENDCHAR
STARTCHAR 21EA
ENCODING 8682
SWIDTH 500 0
DWIDTH 2 0
BBX 2 4 0 0
BITMAP
40
C0
40
40
ENDCHAR
STARTCHAR 2200
ENCODING 8704
SWIDTH 500 0
DWIDTH 2 0
BBX 2 3 0 -1
BITMAP
C0
40
40
ENDCHAR
STARTCHAR 2201
ENCODING 8705
SWIDTH 500 0
DWIDTH 2 0
BBX 1 3 1 0
BITMAP
80
80
80
ENDCHAR
STARTCHAR 2202
ENCODING 8706
SWIDTH 500 0
DWIDTH 2 0
BBX 2 3 0 0
BITMAP
40
C0
40
ENDCHAR
STARTCHAR 2203
ENCODING 8707
SWIDTH 500 0
DWIDTH 2 0
BBX 2 4 0 0
BITMAP
C0
40
C0
C0
ENDCHAR
STARTCHAR 2204
ENCODING 8708
SWIDTH 500 0
DWIDTH 2 0
BBX 2 4 0 0
BITMAP
40
C0
C0
C0
ENDCHAR
STARTCHAR 2205
ENCODING 8709
SWIDTH 500 0
DWIDTH 2 0
BBX 2 3 0 0
BITMAP
40
C0
C0
ENDCHAR
STARTCHAR 2206
ENCODING 8710
SWIDTH 500 0
DWIDTH 2 0
BBX 2 3 0 0
BITMAP
40
40
C0
ENDCHAR
STARTCHAR 2207
ENCODING 8711
SWIDTH 500 0
DWIDTH 2 0
BBX 2 3 0 0
BITMAP
C0
C0
40
ENDCHAR
STARTCHAR 2208
ENCODING 8712
SWIDTH 500 0
DWIDTH 2 0
BBX 2 3 0 0
BITMAP
40
C0
40
ENDCHAR
STARTCHAR 2209
ENCODING 8713
SWIDTH 500 0
DWIDTH 2 0
BBX 2 3 0 0
BITMAP
40
C0
C0
ENDCHAR
STARTCHAR 220A
ENCODING 8714
SWIDTH 500 0
DWIDTH 2 0
BBX 1 2 1 0
BITMAP
80
80
ENDCHAR
STARTCHAR 220B
ENCODING 8715
SWIDTH 500 0
DWIDTH 2 0
BBX 2 3 0 0
BITMAP
C0
C0
C0
ENDCHAR
STARTCHAR 220C
ENCODING 8716
SWIDTH 500 0
DWIDTH 2 0
BBX 2 3 0 0
BITMAP
C0
C0
C0
ENDCHAR
STARTCHAR 220E
ENCODING 8718
SWIDTH 500 0
DWIDTH 2 0
BBX 2 2 0 0
BITMAP
C0
C0
ENDCHAR
STARTCHAR 220F
ENCODING 8719
SWIDTH 500 0
DWIDTH 2 0
BBX 2 4 0 -1
BITMAP
C0
C0
C0
C0
ENDCHAR
STARTCHAR 2210
ENCODING 8720
SWIDTH 500 0
DWIDTH 2 0
BBX 2 4 0 -1
BITMAP
C0
C0
C0
C0
ENDCHAR
STARTCHAR 2211
ENCODING 8721
SWIDTH 500 0
DWIDTH 2 0
BBX 2 4 0 -1
BITMAP
C0
40
40
C0
ENDCHAR
STARTCHAR 2212
ENCODING 8722
SWIDTH 500 0
DWIDTH 2 0
BBX 1 1 1 1
BITMAP
80
ENDCHAR
STARTCHAR 2213
ENCODING 8723
SWIDTH 500 0
DWIDTH 2 0
BBX 2 3 0 -1
BITMAP
C0
C0
40
ENDCHAR
STARTCHAR 2215
ENCODING 8725
SWIDTH 500 0
DWIDTH 2 0
BBX 2 3 0 0
BITMAP
40
40
80
ENDCHAR
STARTCHAR 2218
ENCODING 8728
SWIDTH 500 0
DWIDTH 2 0
BBX 1 1 1 0
BITMAP
80
ENDCHAR
STARTCHAR 2219
ENCODING 8729
SWIDTH 500 0
DWIDTH 2 0
BBX 1 1 1 1
BITMAP
80
ENDCHAR
STARTCHAR 221A
ENCODING 8730
SWIDTH 500 0
DWIDTH 2 0
BBX 2 3 0 0
BITMAP
C0
40
40
ENDCHAR
STARTCHAR 221E
ENCODING 8734
SWIDTH 500 0
DWIDTH 2 0
BBX 2 2 0 0
BITMAP
C0
C0
ENDCHAR
STARTCHAR 2223
ENCODING 8739
SWIDTH 500 0
DWIDTH 2 0
BBX 1 3 1 0
BITMAP
80
80
80
ENDCHAR
STARTCHAR 2224
ENCODING 8740
SWIDTH 500 0
DWIDTH 2 0
BBX 2 3 0 0
BITMAP
40
40
80
ENDCHAR
STARTCHAR 2225
ENCODING 8741
SWIDTH 500 0
DWIDTH 2 0
BBX 1 3 1 0
BITMAP
80
80
80
ENDCHAR
STARTCHAR 2227
ENCODING 8743
SWIDTH 500 0
DWIDTH 2 0
BBX 2 2 0 0
BITMAP
40
C0
ENDCHAR
STARTCHAR 2228
ENCODING 8744
SWIDTH 500 0
DWIDTH 2 0
BBX 2 2 0 0
BITMAP
C0
40
ENDCHAR
STARTCHAR 2229
ENCODING 8745
SWIDTH 500 0
DWIDTH 2 0
BBX 2 3 0 0
BITMAP
C0
C0
C0
ENDCHAR
STARTCHAR 222A
ENCODING 8746
SWIDTH 500 0
DWIDTH 2 0
BBX 2 3 0 0
BITMAP
C0
C0
40
ENDCHAR
STARTCHAR 222B
ENCODING 8747
SWIDTH 500 0
DWIDTH 2 0
BBX 2 4 0 -1
BITMAP
40
40
40
80
ENDCHAR
STARTCHAR 2234
ENCODING 8756
SWIDTH 500 0
DWIDTH 2 0
BBX 2 3 0 0
BITMAP
40
00
C0
ENDCHAR
STARTCHAR 2235
ENCODING 8757
SWIDTH 500 0
DWIDTH 2 0
BBX 2 3 0 0
BITMAP
C0
00
40
ENDCHAR
STARTCHAR 2236
ENCODING 8758
SWIDTH 500 0
DWIDTH 2 0
BBX 1 2 1 0
BITMAP
80
80
ENDCHAR
STARTCHAR 2237
ENCODING 8759
SWIDTH 500 0
DWIDTH 2 0
BBX 2 2 0 0
BITMAP
C0
C0
ENDCHAR
STARTCHAR 2238
ENCODING 8760
SWIDTH 500 0
DWIDTH 2 0
BBX 1 2 1 0
BITMAP
80
80
ENDCHAR
STARTCHAR 2239
ENCODING 8761
SWIDTH 500 0
DWIDTH 2 0
BBX 2 2 0 0
BITMAP
80
40
ENDCHAR
STARTCHAR 223C
ENCODING 8764
SWIDTH 500 0
DWIDTH 2 0
BBX 2 1 0 1
BITMAP
C0
ENDCHAR
STARTCHAR 223E
ENCODING 8766
SWIDTH 500 0
DWIDTH 2 0
BBX 2 2 0 0
BITMAP
C0
C0
ENDCHAR
STARTCHAR 2243
ENCODING 8771
SWIDTH 500 0
DWIDTH 2 0
BBX 2 2 0 0
BITMAP
C0
C0
ENDCHAR
STARTCHAR 2245
ENCODING 8773
SWIDTH 500 0
DWIDTH 2 0
BBX 2 3 0 0
BITMAP
C0
C0
C0
ENDCHAR
STARTCHAR 2247
ENCODING 8775
SWIDTH 500 0
DWIDTH 2 0
BBX 2 3 0 0
BITMAP
C0
C0
C0
ENDCHAR
STARTCHAR 2248
ENCODING 8776
SWIDTH 500 0
DWIDTH 2 0
BBX 2 2 0 0
BITMAP
C0
C0
ENDCHAR
STARTCHAR 2249
ENCODING 8777
SWIDTH 500 0
DWIDTH 2 0
BBX 2 3 0 0
BITMAP
C0
80
C0
ENDCHAR
STARTCHAR 224B
ENCODING 8779
SWIDTH 500 0
DWIDTH 2 0
BBX 2 3 0 0
BITMAP
C0
C0
C0
ENDCHAR
STARTCHAR 224D
ENCODING 8781
SWIDTH 500 0
DWIDTH 2 0
BBX 2 2 0 0
BITMAP
C0
C0
ENDCHAR
STARTCHAR 2254
ENCODING 8788
SWIDTH 500 0
DWIDTH 2 0
BBX 2 2 0 0
BITMAP
C0
C0
ENDCHAR
STARTCHAR 2257
ENCODING 8791
SWIDTH 500 0
DWIDTH 2 0
BBX 2 3 0 0
BITMAP
40
C0
C0
ENDCHAR
STARTCHAR 225F
ENCODING 8799
SWIDTH 500 0
DWIDTH 2 0
BBX 2 4 0 0
BITMAP
40
40
C0
C0
ENDCHAR
STARTCHAR 2260
ENCODING 8800
SWIDTH 500 0
DWIDTH 2 0
BBX 2 4 0 -1
BITMAP
40
C0
C0
80
ENDCHAR
STARTCHAR 2261
ENCODING 8801
SWIDTH 500 0
DWIDTH 2 0
BBX 2 3 0 0
BITMAP
C0
C0
C0
ENDCHAR
STARTCHAR 2262
ENCODING 8802
SWIDTH 500 0
DWIDTH 2 0
BBX 2 3 0 0
BITMAP
C0
C0
C0
ENDCHAR
STARTCHAR 2263
ENCODING 8803
SWIDTH 500 0
DWIDTH 2 0
BBX 2 3 0 0
BITMAP
C0
C0
C0
ENDCHAR
STARTCHAR 2264
ENCODING 8804
SWIDTH 500 0
DWIDTH 2 0
BBX 2 3 0 0
BITMAP
C0
40
C0
ENDCHAR
STARTCHAR 2265
ENCODING 8805
SWIDTH 500 0
DWIDTH 2 0
BBX 2 3 0 0
BITMAP
C0
80
C0
ENDCHAR
STARTCHAR 226A
ENCODING 8810
SWIDTH 500 0
DWIDTH 2 0
BBX 2 2 0 0
BITMAP
C0
40
ENDCHAR
STARTCHAR 226B
ENCODING 8811
SWIDTH 500 0
DWIDTH 2 0
BBX 2 2 0 0
BITMAP
C0
80
ENDCHAR
STARTCHAR 226C
ENCODING 8812
SWIDTH 500 0
DWIDTH 2 0
BBX 1 2 1 0
BITMAP
80
80
ENDCHAR
STARTCHAR 226D
ENCODING 8813
SWIDTH 500 0
DWIDTH 2 0
BBX 2 3 0 -1
BITMAP
C0
C0
80
ENDCHAR
STARTCHAR 226E
ENCODING 8814
SWIDTH 500 0
DWIDTH 2 0
BBX 2 3 0 0
BITMAP
40
80
C0
ENDCHAR
STARTCHAR 226F
ENCODING 8815
SWIDTH 500 0
DWIDTH 2 0
BBX 2 3 0 0
BITMAP
C0
40
80
ENDCHAR
STARTCHAR 2270
ENCODING 8816
SWIDTH 500 0
DWIDTH 2 0
BBX 2 3 0 0
BITMAP
C0
40
C0
ENDCHAR
STARTCHAR 2271
ENCODING 8817
SWIDTH 500 0
DWIDTH 2 0
BBX 2 3 0 0
BITMAP
C0
80
C0
ENDCHAR
STARTCHAR 2272
ENCODING 8818
SWIDTH 500 0
DWIDTH 2 0
BBX 2 3 0 0
BITMAP
40
C0
C0
ENDCHAR
STARTCHAR 2273
ENCODING 8819
SWIDTH 500 0
DWIDTH 2 0
BBX 2 3 0 0
BITMAP
80
40
C0
ENDCHAR
STARTCHAR 227A
ENCODING 8826
SWIDTH 500 0
DWIDTH 2 0
BBX 2 3 0 0
BITMAP
40
80
40
ENDCHAR
STARTCHAR 227B
ENCODING 8827
SWIDTH 500 0
DWIDTH 2 0
BBX 2 3 0 0
BITMAP
80
40
80
ENDCHAR
STARTCHAR 227C
ENCODING 8828
SWIDTH 500 0
DWIDTH 2 0
BBX 2 3 0 0
BITMAP
C0
40
C0
ENDCHAR
STARTCHAR 2282
ENCODING 8834
SWIDTH 500 0
DWIDTH 2 0
BBX 2 3 0 0
BITMAP
40
80
40
ENDCHAR
STARTCHAR 2283
ENCODING 8835
SWIDTH 500 0
DWIDTH 2 0
BBX 2 3 0 0
BITMAP
C0
40
C0
ENDCHAR
STARTCHAR 2284
ENCODING 8836
SWIDTH 500 0
DWIDTH 2 0
BBX 2 3 0 0
BITMAP
40
80
C0
ENDCHAR
STARTCHAR 2285
ENCODING 8837
SWIDTH 500 0
DWIDTH 2 0
BBX 2 3 0 0
BITMAP
C0
40
C0
ENDCHAR
STARTCHAR 2286
ENCODING 8838
SWIDTH 500 0
DWIDTH 2 0
BBX 2 3 0 0
BITMAP
C0
C0
C0
ENDCHAR
STARTCHAR 2287
ENCODING 8839
SWIDTH 500 0
DWIDTH 2 0
BBX 2 3 0 0
BITMAP
C0
C0
C0
ENDCHAR
STARTCHAR 2288
ENCODING 8840
SWIDTH 500 0
DWIDTH 2 0
BBX 2 3 0 0
BITMAP
C0
C0
C0
ENDCHAR
STARTCHAR 2289
ENCODING 8841
SWIDTH 500 0
DWIDTH 2 0
BBX 2 4 0 0
BITMAP
40
C0
C0
C0
ENDCHAR
STARTCHAR 228E
ENCODING 8846
SWIDTH 500 0
DWIDTH 2 0
BBX 2 3 0 0
BITMAP
C0
C0
40
ENDCHAR
STARTCHAR 228F
ENCODING 8847
SWIDTH 500 0
DWIDTH 2 0
BBX 2 3 0 0
BITMAP
C0
80
C0
ENDCHAR
STARTCHAR 2290
ENCODING 8848
SWIDTH 500 0
DWIDTH 2 0
BBX 2 2 0 0
BITMAP
C0
C0
ENDCHAR
STARTCHAR 2291
ENCODING 8849
SWIDTH 500 0
DWIDTH 2 0
BBX 2 3 0 0
BITMAP
C0
C0
C0
ENDCHAR
STARTCHAR 2292
ENCODING 8850
SWIDTH 500 0
DWIDTH 2 0
BBX 2 3 0 0
BITMAP
C0
C0
C0
ENDCHAR
STARTCHAR 2293
ENCODING 8851
SWIDTH 500 0
DWIDTH 2 0
BBX 2 3 0 -1
BITMAP
C0
C0
C0
ENDCHAR
STARTCHAR 2294
ENCODING 8852
SWIDTH 500 0
DWIDTH 2 0
BBX 2 2 0 0
BITMAP
C0
C0
ENDCHAR
STARTCHAR 2295
ENCODING 8853
SWIDTH 500 0
DWIDTH 2 0
BBX 2 2 0 0
BITMAP
C0
C0
ENDCHAR
STARTCHAR 2296
ENCODING 8854
SWIDTH 500 0
DWIDTH 2 0
BBX 2 3 0 0
BITMAP
C0
C0
C0
ENDCHAR
STARTCHAR 2297
ENCODING 8855
SWIDTH 500 0
DWIDTH 2 0
BBX 2 3 0 0
BITMAP
40
C0
40
ENDCHAR
STARTCHAR 2298
ENCODING 8856
SWIDTH 500 0
DWIDTH 2 0
BBX 2 3 0 0
BITMAP
40
C0
40
ENDCHAR
STARTCHAR 2299
ENCODING 8857
SWIDTH 500 0
DWIDTH 2 0
BBX 2 3 0 0
BITMAP
C0
C0
C0
ENDCHAR
STARTCHAR 229B
ENCODING 8859
SWIDTH 500 0
DWIDTH 2 0
BBX 2 3 0 0
BITMAP
C0
C0
40
ENDCHAR
STARTCHAR 229C
ENCODING 8860
SWIDTH 500 0
DWIDTH 2 0
BBX 2 3 0 0
BITMAP
C0
C0
40
ENDCHAR
STARTCHAR 229D
ENCODING 8861
SWIDTH 500 0
DWIDTH 2 0
BBX 2 3 0 0
BITMAP
40
C0
40
ENDCHAR
STARTCHAR 229E
ENCODING 8862
SWIDTH 500 0
DWIDTH 2 0
BBX 2 3 0 0
BITMAP
C0
C0
C0
ENDCHAR
STARTCHAR 229F
ENCODING 8863
SWIDTH 500 0
DWIDTH 2 0
BBX 2 3 0 0
BITMAP
C0
C0
C0
ENDCHAR
STARTCHAR 22A0
ENCODING 8864
SWIDTH 500 0
DWIDTH 2 0
BBX 2 3 0 0
BITMAP
C0
C0
C0
ENDCHAR
STARTCHAR 22A1
ENCODING 8865
SWIDTH 500 0
DWIDTH 2 0
BBX 2 3 0 0
BITMAP
C0
C0
C0
ENDCHAR
STARTCHAR 22A2
ENCODING 8866
SWIDTH 500 0
DWIDTH 2 0
BBX 2 3 0 0
BITMAP
80
C0
80
ENDCHAR
STARTCHAR 22A3
ENCODING 8867
SWIDTH 500 0
DWIDTH 2 0
BBX 2 3 0 0
BITMAP
40
C0
40
ENDCHAR
STARTCHAR 22A4
ENCODING 8868
SWIDTH 500 0
DWIDTH 2 0
BBX 2 3 0 0
BITMAP
C0
40
40
ENDCHAR
STARTCHAR 22A5
ENCODING 8869
SWIDTH 500 0
DWIDTH 2 0
BBX 2 3 0 0
BITMAP
40
40
C0
ENDCHAR
STARTCHAR 22B4
ENCODING 8884
SWIDTH 500 0
DWIDTH 2 0
BBX 2 3 0 0
BITMAP
C0
40
C0
ENDCHAR
STARTCHAR 22B8
ENCODING 8888
SWIDTH 500 0
DWIDTH 2 0
BBX 2 1 0 1
BITMAP
C0
ENDCHAR
STARTCHAR 22BB
ENCODING 8891
SWIDTH 500 0
DWIDTH 2 0
BBX 2 3 0 0
BITMAP
C0
40
C0
ENDCHAR
STARTCHAR 22BC
ENCODING 8892
SWIDTH 500 0
DWIDTH 2 0
BBX 2 3 0 0
BITMAP
C0
40
C0
ENDCHAR
STARTCHAR 22BD
ENCODING 8893
SWIDTH 500 0
DWIDTH 2 0
BBX 2 3 0 0
BITMAP
C0
C0
40
ENDCHAR
STARTCHAR 22C2
ENCODING 8898
SWIDTH 500 0
DWIDTH 2 0
BBX 2 3 0 0
BITMAP
C0
C0
C0
ENDCHAR
STARTCHAR 22C3
ENCODING 8899
SWIDTH 500 0
DWIDTH 2 0
BBX 2 3 0 0
BITMAP
C0
C0
40
ENDCHAR
STARTCHAR 22C4
ENCODING 8900
SWIDTH 500 0
DWIDTH 2 0
BBX 1 1 1 1
BITMAP
80
ENDCHAR
STARTCHAR 22C6
ENCODING 8902
SWIDTH 500 0
DWIDTH 2 0
BBX 1 1 1 0
BITMAP
80
ENDCHAR
STARTCHAR 22C8
ENCODING 8904
SWIDTH 500 0
DWIDTH 2 0
BBX 2 3 0 0
BITMAP
C0
C0
C0
ENDCHAR
STARTCHAR 22C9
ENCODING 8905
SWIDTH 500 0
DWIDTH 2 0
BBX 2 3 0 0
BITMAP
C0
80
C0
ENDCHAR
STARTCHAR 22CA
ENCODING 8906
SWIDTH 500 0
DWIDTH 2 0
BBX 2 3 0 0
BITMAP
C0
40
C0
ENDCHAR
STARTCHAR 22CE
ENCODING 8910
SWIDTH 500 0
DWIDTH 2 0
BBX 2 2 0 0
BITMAP
C0
40
ENDCHAR
STARTCHAR 22D0
ENCODING 8912
SWIDTH 500 0
DWIDTH 2 0
BBX 2 3 0 0
BITMAP
C0
C0
C0
ENDCHAR
STARTCHAR 22E2
ENCODING 8930
SWIDTH 500 0
DWIDTH 2 0
BBX 2 3 0 0
BITMAP
C0
C0
C0
ENDCHAR
STARTCHAR 22EE
ENCODING 8942
SWIDTH 500 0
DWIDTH 2 0
BBX 1 3 1 0
BITMAP
80
80
80
ENDCHAR
STARTCHAR 22EF
ENCODING 8943
SWIDTH 500 0
DWIDTH 2 0
BBX 2 1 0 1
BITMAP
C0
ENDCHAR
STARTCHAR 22F0
ENCODING 8944
SWIDTH 500 0
DWIDTH 2 0
BBX 2 3 0 0
BITMAP
40
40
80
ENDCHAR
STARTCHAR 22F1
ENCODING 8945
SWIDTH 500 0
DWIDTH 2 0
BBX 2 3 0 0
BITMAP
80
40
40
ENDCHAR
STARTCHAR 2302
ENCODING 8962
SWIDTH 500 0
DWIDTH 2 0
BBX 2 3 0 0
BITMAP
40
C0
C0
ENDCHAR
STARTCHAR 2303
ENCODING 8963
SWIDTH 500 0
DWIDTH 2 0
BBX 2 1 0 2
BITMAP
C0
ENDCHAR
STARTCHAR 2304
ENCODING 8964
SWIDTH 500 0
DWIDTH 2 0
BBX 2 1 0 0
BITMAP
C0
ENDCHAR
STARTCHAR 2305
ENCODING 8965
SWIDTH 500 0
DWIDTH 2 0
BBX 2 3 0 0
BITMAP
C0
40
C0
ENDCHAR
STARTCHAR 2308
ENCODING 8968
SWIDTH 500 0
DWIDTH 2 0
BBX 1 4 1 0
BITMAP
80
80
80
80
ENDCHAR
STARTCHAR 2309
ENCODING 8969
SWIDTH 500 0
DWIDTH 2 0
BBX 1 4 1 0
BITMAP
80
80
80
80
ENDCHAR
STARTCHAR 230A
ENCODING 8970
SWIDTH 500 0
DWIDTH 2 0
BBX 1 4 1 -1
BITMAP
80
80
80
80
ENDCHAR
STARTCHAR 230B
ENCODING 8971
SWIDTH 500 0
DWIDTH 2 0
BBX 1 4 1 -1
BITMAP
80
80
80
80
ENDCHAR
STARTCHAR 2318
ENCODING 8984
SWIDTH 500 0
DWIDTH 2 0
BBX 2 3 0 0
BITMAP
C0
C0
C0
ENDCHAR
STARTCHAR 231C
ENCODING 8988
SWIDTH 500 0
DWIDTH 2 0
BBX 1 2 1 2
BITMAP
80
80
ENDCHAR
STARTCHAR 231D
ENCODING 8989
SWIDTH 500 0
DWIDTH 2 0
BBX 2 2 0 2
BITMAP
C0
40
ENDCHAR
STARTCHAR 231E
ENCODING 8990
SWIDTH 500 0
DWIDTH 2 0
BBX 1 1 1 -1
BITMAP
80
ENDCHAR
STARTCHAR 231F
ENCODING 8991
SWIDTH 500 0
DWIDTH 2 0
BBX 2 1 0 -1
BITMAP
C0
ENDCHAR
STARTCHAR 2324
ENCODING 8996
SWIDTH 500 0
DWIDTH 2 0
BBX 2 2 0 1
BITMAP
C0
C0
ENDCHAR
STARTCHAR 2325
ENCODING 8997
SWIDTH 500 0
DWIDTH 2 0
BBX 2 3 0 0
BITMAP
C0
40
40
ENDCHAR
STARTCHAR 2326
ENCODING 8998
SWIDTH 500 0
DWIDTH 2 0
BBX 3 3 0 0
BITMAP
C0
A0
E0
ENDCHAR
STARTCHAR 2328
ENCODING 9000
SWIDTH 500 0
DWIDTH 2 0
BBX 3 3 0 0
BITMAP
E0
E0
E0
ENDCHAR
STARTCHAR 232B
ENCODING 9003
SWIDTH 500 0
DWIDTH 2 0
BBX 4 3 -1 0
BITMAP
20
D0
70
ENDCHAR
STARTCHAR 2336
ENCODING 9014
SWIDTH 500 0
DWIDTH 2 0
BBX 2 4 0 0
BITMAP
C0
40
40
C0
ENDCHAR
STARTCHAR 2337
ENCODING 9015
SWIDTH 500 0
DWIDTH 2 0
BBX 1 5 1 -1
BITMAP
80
80
80
80
80
ENDCHAR
STARTCHAR 2338
ENCODING 9016
SWIDTH 500 0
DWIDTH 2 0
BBX 2 4 0 -1
BITMAP
C0
C0
C0
C0
ENDCHAR
STARTCHAR 2339
ENCODING 9017
SWIDTH 500 0
DWIDTH 2 0
BBX 2 5 0 -1
BITMAP
C0
C0
C0
C0
C0
ENDCHAR
STARTCHAR 233A
ENCODING 9018
SWIDTH 500 0
DWIDTH 2 0
BBX 2 5 0 -1
BITMAP
C0
C0
C0
C0
C0
ENDCHAR
STARTCHAR 233B
ENCODING 9019
SWIDTH 500 0
DWIDTH 2 0
BBX 2 5 0 -1
BITMAP
C0
C0
C0
C0
C0
ENDCHAR
STARTCHAR 233C
ENCODING 9020
SWIDTH 500 0
DWIDTH 2 0
BBX 2 5 0 -1
BITMAP
C0
C0
C0
C0
C0
ENDCHAR
STARTCHAR 233D
ENCODING 9021
SWIDTH 500 0
DWIDTH 2 0
BBX 2 4 0 0
BITMAP
40
C0
C0
40
ENDCHAR
STARTCHAR 233E
ENCODING 9022
SWIDTH 500 0
DWIDTH 2 0
BBX 2 3 0 0
BITMAP
C0
C0
C0
ENDCHAR
STARTCHAR 233F
ENCODING 9023
SWIDTH 500 0
DWIDTH 2 0
BBX 2 3 0 0
BITMAP
40
C0
80
ENDCHAR
STARTCHAR 2340
ENCODING 9024
SWIDTH 500 0
DWIDTH 2 0
BBX 2 4 0 -1
BITMAP
80
C0
40
40
ENDCHAR
STARTCHAR 2341
ENCODING 9025
SWIDTH 500 0
DWIDTH 2 0
BBX 2 5 0 -1
BITMAP
C0
C0
C0
C0
C0
ENDCHAR
STARTCHAR 2342
ENCODING 9026
SWIDTH 500 0
DWIDTH 2 0
BBX 2 5 0 -1
BITMAP
C0
C0
C0
C0
C0
ENDCHAR
STARTCHAR 2343
ENCODING 9027
SWIDTH 500 0
DWIDTH 2 0
BBX 2 4 0 -1
BITMAP
C0
C0
C0
C0
ENDCHAR
STARTCHAR 2344
ENCODING 9028
SWIDTH 500 0
DWIDTH 2 0
BBX 2 4 0 -1
BITMAP
C0
C0
C0
C0
ENDCHAR
STARTCHAR 2345
ENCODING 9029
SWIDTH 500 0
DWIDTH 2 0
BBX 2 3 0 -1
BITMAP
C0
80
40
ENDCHAR
STARTCHAR 2346
ENCODING 9030
SWIDTH 500 0
DWIDTH 2 0
BBX 2 3 0 0
BITMAP
40
C0
40
ENDCHAR
STARTCHAR 2347
ENCODING 9031
SWIDTH 500 0
DWIDTH 2 0
BBX 2 5 0 -1
BITMAP
C0
C0
C0
C0
C0
ENDCHAR
STARTCHAR 2348
ENCODING 9032
SWIDTH 500 0
DWIDTH 2 0
BBX 2 5 0 -1
BITMAP
C0
C0
C0
C0
C0
ENDCHAR
STARTCHAR 2349
ENCODING 9033
SWIDTH 500 0
DWIDTH 2 0
BBX 2 4 0 0
BITMAP
80
40
C0
40
ENDCHAR
STARTCHAR 234A
ENCODING 9034
SWIDTH 500 0
DWIDTH 2 0
BBX 2 3 0 -1
BITMAP
40
C0
C0
ENDCHAR
STARTCHAR 234B
ENCODING 9035
SWIDTH 500 0
DWIDTH 2 0
BBX 2 4 0 0
BITMAP
40
40
C0
C0
ENDCHAR
STARTCHAR 234C
ENCODING 9036
SWIDTH 500 0
DWIDTH 2 0
BBX 2 5 0 -1
BITMAP
C0
C0
C0
C0
C0
ENDCHAR
STARTCHAR 234D
ENCODING 9037
SWIDTH 500 0
DWIDTH 2 0
BBX 2 4 0 -1
BITMAP
C0
C0
C0
C0
ENDCHAR
STARTCHAR 234E
ENCODING 9038
SWIDTH 500 0
DWIDTH 2 0
BBX 2 2 0 0
BITMAP
40
C0
ENDCHAR
STARTCHAR 234F
ENCODING 9039
SWIDTH 500 0
DWIDTH 2 0
BBX 2 3 0 0
BITMAP
40
C0
40
ENDCHAR
STARTCHAR 2350
ENCODING 9040
SWIDTH 500 0
DWIDTH 2 0
BBX 2 5 0 -1
BITMAP
C0
C0
C0
C0
C0
ENDCHAR
STARTCHAR 2351
ENCODING 9041
SWIDTH 500 0
DWIDTH 2 0
BBX 2 3 0 0
BITMAP
C0
40
40
ENDCHAR
STARTCHAR 2352
ENCODING 9042
SWIDTH 500 0
DWIDTH 2 0
BBX 2 4 0 -1
BITMAP
C0
C0
40
40
ENDCHAR
STARTCHAR 2353
ENCODING 9043
SWIDTH 500 0
DWIDTH 2 0
BBX 2 4 0 -1
BITMAP
C0
C0
C0
C0
ENDCHAR
STARTCHAR 2354
ENCODING 9044
SWIDTH 500 0
DWIDTH 2 0
BBX 2 4 0 -1
BITMAP
C0
C0
C0
C0
ENDCHAR
STARTCHAR 2355
ENCODING 9045
SWIDTH 500 0
DWIDTH 2 0
BBX 2 3 0 -1
BITMAP
C0
40
40
ENDCHAR
STARTCHAR 2356
ENCODING 9046
SWIDTH 500 0
DWIDTH 2 0
BBX 2 3 0 0
BITMAP
40
C0
40
ENDCHAR
STARTCHAR 2357
ENCODING 9047
SWIDTH 500 0
DWIDTH 2 0
BBX 2 5 0 -1
BITMAP
C0
C0
C0
C0
C0
ENDCHAR
STARTCHAR 2358
ENCODING 9048
SWIDTH 500 0
DWIDTH 2 0
BBX 1 4 1 -1
BITMAP
80
00
00
80
ENDCHAR
STARTCHAR 2359
ENCODING 9049
SWIDTH 500 0
DWIDTH 2 0
BBX 2 4 0 -1
BITMAP
40
C0
C0
C0
ENDCHAR
STARTCHAR 235A
ENCODING 9050
SWIDTH 500 0
DWIDTH 2 0
BBX 2 4 0 -1
BITMAP
40
C0
40
C0
ENDCHAR
STARTCHAR 235B
ENCODING 9051
SWIDTH 500 0
DWIDTH 2 0
BBX 1 3 1 -1
BITMAP
80
80
80
ENDCHAR
STARTCHAR 235C
ENCODING 9052
SWIDTH 500 0
DWIDTH 2 0
BBX 2 4 0 -1
BITMAP
40
C0
40
C0
ENDCHAR
STARTCHAR 235D
ENCODING 9053
SWIDTH 500 0
DWIDTH 2 0
BBX 2 3 0 0
BITMAP
C0
C0
C0
ENDCHAR
STARTCHAR 235E
ENCODING 9054
SWIDTH 500 0
DWIDTH 2 0
BBX 2 4 0 -1
BITMAP
C0
C0
C0
C0
ENDCHAR
STARTCHAR 235F
ENCODING 9055
SWIDTH 500 0
DWIDTH 2 0
BBX 2 3 0 0
BITMAP
40
C0
40
ENDCHAR
STARTCHAR 2360
ENCODING 9056
SWIDTH 500 0
DWIDTH 2 0
BBX 2 5 0 -1
BITMAP
C0
C0
C0
C0
C0
ENDCHAR
STARTCHAR 2361
ENCODING 9057
SWIDTH 500 0
DWIDTH 2 0
BBX 2 4 0 0
BITMAP
C0
C0
40
40
ENDCHAR
STARTCHAR 2362
ENCODING 9058
SWIDTH 500 0
DWIDTH 2 0
BBX 2 4 0 0
BITMAP
C0
C0
C0
40
ENDCHAR
STARTCHAR 2363
ENCODING 9059
SWIDTH 500 0
DWIDTH 2 0
BBX 2 2 0 1
BITMAP
C0
40
ENDCHAR
STARTCHAR 2364
ENCODING 9060
SWIDTH 500 0
DWIDTH 2 0
BBX 2 2 0 0
BITMAP
C0
40
ENDCHAR
STARTCHAR 2365
ENCODING 9061
SWIDTH 500 0
DWIDTH 2 0
BBX 2 4 0 0
BITMAP
C0
40
C0
40
ENDCHAR
STARTCHAR 2366
ENCODING 9062
SWIDTH 500 0
DWIDTH 2 0
BBX 2 4 0 0
BITMAP
40
C0
C0
40
ENDCHAR
STARTCHAR 2367
ENCODING 9063
SWIDTH 500 0
DWIDTH 2 0
BBX 2 4 0 -1
BITMAP
40
C0
C0
40
ENDCHAR
STARTCHAR 2368
ENCODING 9064
SWIDTH 500 0
DWIDTH 2 0
BBX 2 2 0 1
BITMAP
C0
C0
ENDCHAR
STARTCHAR 2369
ENCODING 9065
SWIDTH 500 0
DWIDTH 2 0
BBX 2 3 0 0
BITMAP
C0
40
80
ENDCHAR
STARTCHAR 236A
ENCODING 9066
SWIDTH 500 0
DWIDTH 2 0
BBX 1 2 1 1
BITMAP
80
80
ENDCHAR
STARTCHAR 236B
ENCODING 9067
SWIDTH 500 0
DWIDTH 2 0
BBX 2 4 0 0
BITMAP
40
C0
C0
40
ENDCHAR
STARTCHAR 236C
ENCODING 9068
SWIDTH 500 0
DWIDTH 2 0
BBX 2 4 0 0
BITMAP
40
C0
C0
40
ENDCHAR
STARTCHAR 236D
ENCODING 9069
SWIDTH 500 0
DWIDTH 2 0
BBX 2 4 0 0
BITMAP
40
40
C0
40
ENDCHAR
STARTCHAR 236E
ENCODING 9070
SWIDTH 500 0
DWIDTH 2 0
BBX 1 4 1 -1
BITMAP
80
00
80
80
ENDCHAR
STARTCHAR 236F
ENCODING 9071
SWIDTH 500 0
DWIDTH 2 0
BBX 2 4 0 -1
BITMAP
C0
C0
C0
C0
ENDCHAR
STARTCHAR 2370
ENCODING 9072
SWIDTH 500 0
DWIDTH 2 0
BBX 2 5 0 -1
BITMAP
C0
C0
C0
C0
C0
ENDCHAR
STARTCHAR 2371
ENCODING 9073
SWIDTH 500 0
DWIDTH 2 0
BBX 2 3 0 0
BITMAP
40
C0
40
ENDCHAR
STARTCHAR 2372
ENCODING 9074
SWIDTH 500 0
DWIDTH 2 0
BBX 2 3 0 0
BITMAP
40
40
C0
ENDCHAR
STARTCHAR 2373
ENCODING 9075
SWIDTH 500 0
DWIDTH 2 0
BBX 2 2 0 0
BITMAP
C0
40
ENDCHAR
STARTCHAR 2374
ENCODING 9076
SWIDTH 500 0
DWIDTH 2 0
BBX 2 3 0 0
BITMAP
40
C0
C0
ENDCHAR
STARTCHAR 2375
ENCODING 9077
SWIDTH 500 0
DWIDTH 2 0
BBX 2 3 0 0
BITMAP
C0
C0
C0
ENDCHAR
STARTCHAR 2376
ENCODING 9078
SWIDTH 500 0
DWIDTH 2 0
BBX 2 4 0 -1
BITMAP
C0
C0
C0
C0
ENDCHAR
STARTCHAR 2377
ENCODING 9079
SWIDTH 500 0
DWIDTH 2 0
BBX 2 4 0 -1
BITMAP
C0
40
C0
C0
ENDCHAR
STARTCHAR 2378
ENCODING 9080
SWIDTH 500 0
DWIDTH 2 0
BBX 2 4 0 -1
BITMAP
80
40
40
C0
ENDCHAR
STARTCHAR 2379
ENCODING 9081
SWIDTH 500 0
DWIDTH 2 0
BBX 2 3 0 -1
BITMAP
C0
C0
C0
ENDCHAR
STARTCHAR 237A
ENCODING 9082
SWIDTH 500 0
DWIDTH 2 0
BBX 2 3 0 0
BITMAP
C0
C0
C0
ENDCHAR
STARTCHAR 2389
ENCODING 9097
SWIDTH 500 0
DWIDTH 2 0
BBX 2 3 0 0
BITMAP
C0
C0
C0
ENDCHAR
STARTCHAR 238A
ENCODING 9098
SWIDTH 500 0
DWIDTH 2 0
BBX 2 2 0 0
BITMAP
C0
C0
ENDCHAR
STARTCHAR 238B
ENCODING 9099
SWIDTH 500 0
DWIDTH 2 0
BBX 2 3 0 0
BITMAP
C0
C0
40
ENDCHAR
STARTCHAR 2395
ENCODING 9109
SWIDTH 500 0
DWIDTH 2 0
BBX 2 5 0 -1
BITMAP
C0
C0
C0
C0
C0
ENDCHAR
STARTCHAR 239B
ENCODING 9115
SWIDTH 500 0
DWIDTH 2 0
BBX 1 5 1 -1
BITMAP
80
80
80
80
80
ENDCHAR
STARTCHAR 239C
ENCODING 9116
SWIDTH 500 0
DWIDTH 2 0
BBX 1 6 1 -1
BITMAP
80
80
80
80
80
80
ENDCHAR
STARTCHAR 239D
ENCODING 9117
SWIDTH 500 0
DWIDTH 2 0
BBX 1 5 1 -1
BITMAP
80
80
80
80
80
ENDCHAR
STARTCHAR 239E
ENCODING 9118
SWIDTH 500 0
DWIDTH 2 0
BBX 1 5 0 -1
BITMAP
80
80
80
80
80
ENDCHAR
STARTCHAR 239F
ENCODING 9119
SWIDTH 500 0
DWIDTH 2 0
BBX 1 6 1 -1
BITMAP
80
80
80
80
80
80
ENDCHAR
STARTCHAR 23A0
ENCODING 9120
SWIDTH 500 0
DWIDTH 2 0
BBX 1 5 0 -1
BITMAP
80
80
80
80
80
ENDCHAR
STARTCHAR 23A1
ENCODING 9121
SWIDTH 500 0
DWIDTH 2 0
BBX 1 5 1 -1
BITMAP
80
80
80
80
80
ENDCHAR
STARTCHAR 23A2
ENCODING 9122
SWIDTH 500 0
DWIDTH 2 0
BBX 1 6 1 -1
BITMAP
80
80
80
80
80
80
ENDCHAR
STARTCHAR 23A3
ENCODING 9123
SWIDTH 500 0
DWIDTH 2 0
BBX 1 5 1 -1
BITMAP
80
80
80
80
80
ENDCHAR
STARTCHAR 23A4
ENCODING 9124
SWIDTH 500 0
DWIDTH 2 0
BBX 1 5 0 -1
BITMAP
80
80
80
80
80
ENDCHAR
STARTCHAR 23A5
ENCODING 9125
SWIDTH 500 0
DWIDTH 2 0
BBX 1 6 1 -1
BITMAP
80
80
80
80
80
80
ENDCHAR
STARTCHAR 23A6
ENCODING 9126
SWIDTH 500 0
DWIDTH 2 0
BBX 1 5 0 -1
BITMAP
80
80
80
80
80
ENDCHAR
STARTCHAR 23A7
ENCODING 9127
SWIDTH 500 0
DWIDTH 2 0
BBX 1 5 1 -1
BITMAP
80
80
80
80
80
ENDCHAR
STARTCHAR 23A8
ENCODING 9128
SWIDTH 500 0
DWIDTH 2 0
BBX 1 5 0 -1
BITMAP
80
80
80
80
80
ENDCHAR
STARTCHAR 23A9
ENCODING 9129
SWIDTH 500 0
DWIDTH 2 0
BBX 1 5 1 -1
BITMAP
80
80
80
80
80
ENDCHAR
STARTCHAR 23AA
ENCODING 9130
SWIDTH 500 0
DWIDTH 2 0
BBX 1 6 1 -1
BITMAP
80
80
80
80
80
80
ENDCHAR
STARTCHAR 23AB
ENCODING 9131
SWIDTH 500 0
DWIDTH 2 0
BBX 1 5 0 -1
BITMAP
80
80
80
80
80
ENDCHAR
STARTCHAR 23AC
ENCODING 9132
SWIDTH 500 0
DWIDTH 2 0
BBX 1 6 1 -2
BITMAP
80
80
80
80
80
80
ENDCHAR
STARTCHAR 23AD
ENCODING 9133
SWIDTH 500 0
DWIDTH 2 0
BBX 1 5 0 -1
BITMAP
80
80
80
80
80
ENDCHAR
STARTCHAR 23CE
ENCODING 9166
SWIDTH 500 0
DWIDTH 2 0
BBX 2 4 0 -1
BITMAP
40
40
C0
40
ENDCHAR
STARTCHAR 23FB
ENCODING 9211
SWIDTH 500 0
DWIDTH 2 0
BBX 3 3 0 0
BITMAP
40
E0
E0
ENDCHAR
STARTCHAR 23FC
ENCODING 9212
SWIDTH 500 0
DWIDTH 2 0
BBX 4 3 0 0
BITMAP
E0
D0
F0
ENDCHAR
STARTCHAR 23FD
ENCODING 9213
SWIDTH 500 0
DWIDTH 2 0
BBX 1 3 1 0
BITMAP
80
80
80
ENDCHAR
STARTCHAR 23FE
ENCODING 9214
SWIDTH 500 0
DWIDTH 2 0
BBX 3 3 0 0
BITMAP
80
80
E0
ENDCHAR
STARTCHAR 2400
ENCODING 9216
SWIDTH 500 0
DWIDTH 2 0
BBX 2 3 0 0
BITMAP
80
40
40
ENDCHAR
STARTCHAR 2401
ENCODING 9217
SWIDTH 500 0
DWIDTH 2 0
BBX 2 3 0 0
BITMAP
80
80
40
ENDCHAR
STARTCHAR 2402
ENCODING 9218
SWIDTH 500 0
DWIDTH 2 0
BBX 2 3 0 0
BITMAP
80
80
40
ENDCHAR
STARTCHAR 2403
ENCODING 9219
SWIDTH 500 0
DWIDTH 2 0
BBX 2 3 0 0
BITMAP
80
80
40
ENDCHAR
STARTCHAR 2404
ENCODING 9220
SWIDTH 500 0
DWIDTH 2 0
BBX 2 4 0 0
BITMAP
80
80
40
40
ENDCHAR
STARTCHAR 2405
ENCODING 9221
SWIDTH 500 0
DWIDTH 2 0
BBX 2 4 0 0
BITMAP
80
80
40
40
ENDCHAR
STARTCHAR 2406
ENCODING 9222
SWIDTH 500 0
DWIDTH 2 0
BBX 2 3 0 0
BITMAP
80
80
40
ENDCHAR
STARTCHAR 2407
ENCODING 9223
SWIDTH 500 0
DWIDTH 2 0
BBX 2 4 0 0
BITMAP
80
80
40
40
ENDCHAR
STARTCHAR 2408
ENCODING 9224
SWIDTH 500 0
DWIDTH 2 0
BBX 2 4 0 0
BITMAP
80
80
40
40
ENDCHAR
STARTCHAR 2409
ENCODING 9225
SWIDTH 500 0
DWIDTH 2 0
BBX 2 3 0 0
BITMAP
80
40
40
ENDCHAR
STARTCHAR 240A
ENCODING 9226
SWIDTH 500 0
DWIDTH 2 0
BBX 2 3 0 0
BITMAP
80
40
40
ENDCHAR
STARTCHAR 240B
ENCODING 9227
SWIDTH 500 0
DWIDTH 2 0
BBX 2 3 0 0
BITMAP
C0
40
40
ENDCHAR
STARTCHAR 240C
ENCODING 9228
SWIDTH 500 0
DWIDTH 2 0
BBX 2 3 0 0
BITMAP
80
40
40
ENDCHAR
STARTCHAR 240D
ENCODING 9229
SWIDTH 500 0
DWIDTH 2 0
BBX 2 3 0 0
BITMAP
80
40
40
ENDCHAR
STARTCHAR 240E
ENCODING 9230
SWIDTH 500 0
DWIDTH 2 0
BBX 2 4 0 0
BITMAP
80
80
40
40
ENDCHAR
STARTCHAR 240F
ENCODING 9231
SWIDTH 500 0
DWIDTH 2 0
BBX 2 4 0 0
BITMAP
80
80
40
40
ENDCHAR
STARTCHAR 2410
ENCODING 9232
SWIDTH 500 0
DWIDTH 2 0
BBX 2 4 0 0
BITMAP
80
80
40
40
ENDCHAR
STARTCHAR 2411
ENCODING 9233
SWIDTH 500 0
DWIDTH 2 0
BBX 2 4 0 0
BITMAP
80
80
40
40
ENDCHAR
STARTCHAR 2412
ENCODING 9234
SWIDTH 500 0
DWIDTH 2 0
BBX 2 4 0 0
BITMAP
80
80
40
40
ENDCHAR
STARTCHAR 2413
ENCODING 9235
SWIDTH 500 0
DWIDTH 2 0
BBX 2 4 0 0
BITMAP
80
80
40
40
ENDCHAR
STARTCHAR 2414
ENCODING 9236
SWIDTH 500 0
DWIDTH 2 0
BBX 2 3 0 0
BITMAP
80
80
40
ENDCHAR
STARTCHAR 2415
ENCODING 9237
SWIDTH 500 0
DWIDTH 2 0
BBX 2 3 0 0
BITMAP
80
80
40
ENDCHAR
STARTCHAR 2416
ENCODING 9238
SWIDTH 500 0
DWIDTH 2 0
BBX 2 3 0 0
BITMAP
80
80
40
ENDCHAR
STARTCHAR 2417
ENCODING 9239
SWIDTH 500 0
DWIDTH 2 0
BBX 2 4 0 0
BITMAP
80
80
40
40
ENDCHAR
STARTCHAR 2418
ENCODING 9240
SWIDTH 500 0
DWIDTH 2 0
BBX 2 3 0 0
BITMAP
80
80
40
ENDCHAR
STARTCHAR 2419
ENCODING 9241
SWIDTH 500 0
DWIDTH 2 0
BBX 2 3 0 0
BITMAP
80
80
40
ENDCHAR
STARTCHAR 241A
ENCODING 9242
SWIDTH 500 0
DWIDTH 2 0
BBX 2 4 0 0
BITMAP
80
80
40
40
ENDCHAR
STARTCHAR 241B
ENCODING 9243
SWIDTH 500 0
DWIDTH 2 0
BBX 2 4 0 0
BITMAP
80
80
40
40
ENDCHAR
STARTCHAR 241C
ENCODING 9244
SWIDTH 500 0
DWIDTH 2 0
BBX 2 4 0 0
BITMAP
80
80
40
40
ENDCHAR
STARTCHAR 241D
ENCODING 9245
SWIDTH 500 0
DWIDTH 2 0
BBX 2 4 0 0
BITMAP
80
C0
40
40
ENDCHAR
STARTCHAR 241E
ENCODING 9246
SWIDTH 500 0
DWIDTH 2 0
BBX 2 4 0 0
BITMAP
80
80
40
40
ENDCHAR
STARTCHAR 241F
ENCODING 9247
SWIDTH 500 0
DWIDTH 2 0
BBX 2 3 0 0
BITMAP
80
40
40
ENDCHAR
STARTCHAR 2420
ENCODING 9248
SWIDTH 500 0
DWIDTH 2 0
BBX 2 3 0 0
BITMAP
80
40
40
ENDCHAR
STARTCHAR 2421
ENCODING 9249
SWIDTH 500 0
DWIDTH 2 0
BBX 2 4 0 0
BITMAP
80
80
40
40
ENDCHAR
STARTCHAR 2423
ENCODING 9251
SWIDTH 500 0
DWIDTH 2 0
BBX 2 1 0 -1
BITMAP
C0
ENDCHAR
STARTCHAR 2424
ENCODING 9252
SWIDTH 500 0
DWIDTH 2 0
BBX 2 3 0 0
BITMAP
80
40
40
ENDCHAR
STARTCHAR 2500
ENCODING 9472
SWIDTH 500 0
DWIDTH 2 0
BBX 2 1 0 1
BITMAP
C0
ENDCHAR
STARTCHAR 2501
ENCODING 9473
SWIDTH 500 0
DWIDTH 2 0
BBX 2 1 0 1
BITMAP
C0
ENDCHAR
STARTCHAR 2502
ENCODING 9474
SWIDTH 500 0
DWIDTH 2 0
BBX 1 6 1 -2
BITMAP
80
80
80
80
80
80
ENDCHAR
STARTCHAR 2503
ENCODING 9475
SWIDTH 500 0
DWIDTH 2 0
BBX 1 6 1 -2
BITMAP
80
80
80
80
80
80
ENDCHAR
STARTCHAR 2504
ENCODING 9476
SWIDTH 500 0
DWIDTH 2 0
BBX 2 1 0 1
BITMAP
C0
ENDCHAR
STARTCHAR 2505
ENCODING 9477
SWIDTH 500 0
DWIDTH 2 0
BBX 2 1 0 1
BITMAP
C0
ENDCHAR
STARTCHAR 2506
ENCODING 9478
SWIDTH 500 0
DWIDTH 2 0
BBX 1 5 1 -1
BITMAP
80
80
80
80
80
ENDCHAR
STARTCHAR 2507
ENCODING 9479
SWIDTH 500 0
DWIDTH 2 0
BBX 1 5 1 -1
BITMAP
80
80
80
80
80
ENDCHAR
STARTCHAR 2508
ENCODING 9480
SWIDTH 500 0
DWIDTH 2 0
BBX 2 1 0 1
BITMAP
C0
ENDCHAR
STARTCHAR 2509
ENCODING 9481
SWIDTH 500 0
DWIDTH 2 0
BBX 2 1 0 1
BITMAP
C0
ENDCHAR
STARTCHAR 250A
ENCODING 9482
SWIDTH 500 0
DWIDTH 2 0
BBX 1 5 1 -1
BITMAP
80
00
80
80
80
ENDCHAR
STARTCHAR 250B
ENCODING 9483
SWIDTH 500 0
DWIDTH 2 0
BBX 1 5 1 -1
BITMAP
80
00
80
80
80
ENDCHAR
STARTCHAR 250C
ENCODING 9484
SWIDTH 500 0
DWIDTH 2 0
BBX 1 4 1 -2
BITMAP
80
80
80
80
ENDCHAR
STARTCHAR 250D
ENCODING 9485
SWIDTH 500 0
DWIDTH 2 0
BBX 1 3 1 -1
BITMAP
80
80
80
ENDCHAR
STARTCHAR 250E
ENCODING 9486
SWIDTH 500 0
DWIDTH 2 0
BBX 1 4 1 -2
BITMAP
80
80
80
80
ENDCHAR
STARTCHAR 250F
ENCODING 9487
SWIDTH 500 0
DWIDTH 2 0
BBX 1 3 1 -1
BITMAP
80
80
80
ENDCHAR
STARTCHAR 2510
ENCODING 9488
SWIDTH 500 0
DWIDTH 2 0
BBX 1 4 0 -2
BITMAP
80
80
80
80
ENDCHAR
STARTCHAR 2511
ENCODING 9489
SWIDTH 500 0
DWIDTH 2 0
BBX 1 3 0 -1
BITMAP
80
80
80
ENDCHAR
STARTCHAR 2512
ENCODING 9490
SWIDTH 500 0
DWIDTH 2 0
BBX 2 4 0 -2
BITMAP
C0
40
40
40
ENDCHAR
STARTCHAR 2513
ENCODING 9491
SWIDTH 500 0
DWIDTH 2 0
BBX 2 3 0 -1
BITMAP
C0
40
40
ENDCHAR
STARTCHAR 2514
ENCODING 9492
SWIDTH 500 0
DWIDTH 2 0
BBX 1 3 1 1
BITMAP
80
80
80
ENDCHAR
STARTCHAR 2515
ENCODING 9493
SWIDTH 500 0
DWIDTH 2 0
BBX 1 3 1 1
BITMAP
80
80
80
ENDCHAR
STARTCHAR 2516
ENCODING 9494
SWIDTH 500 0
DWIDTH 2 0
BBX 1 3 1 1
BITMAP
80
80
80
ENDCHAR
STARTCHAR 2517
ENCODING 9495
SWIDTH 500 0
DWIDTH 2 0
BBX 1 3 1 1
BITMAP
80
80
80
ENDCHAR
STARTCHAR 2518
ENCODING 9496
SWIDTH 500 0
DWIDTH 2 0
BBX 1 3 0 1
BITMAP
80
80
80
ENDCHAR
STARTCHAR 2519
ENCODING 9497
SWIDTH 500 0
DWIDTH 2 0
BBX 1 3 0 1
BITMAP
80
80
80
ENDCHAR
STARTCHAR 251A
ENCODING 9498
SWIDTH 500 0
DWIDTH 2 0
BBX 2 3 0 1
BITMAP
40
40
C0
ENDCHAR
STARTCHAR 251B
ENCODING 9499
SWIDTH 500 0
DWIDTH 2 0
BBX 2 3 0 1
BITMAP
40
40
C0
ENDCHAR
STARTCHAR 251C
ENCODING 9500
SWIDTH 500 0
DWIDTH 2 0
BBX 1 6 1 -2
BITMAP
80
80
80
80
80
80
ENDCHAR
STARTCHAR 251D
ENCODING 9501
SWIDTH 500 0
DWIDTH 2 0
BBX 1 6 1 -1
BITMAP
80
80
80
80
80
80
ENDCHAR
STARTCHAR 251E
ENCODING 9502
SWIDTH 500 0
DWIDTH 2 0
BBX 1 6 1 -2
BITMAP
80
80
80
80
80
80
ENDCHAR
STARTCHAR 251F
ENCODING 9503
SWIDTH 500 0
DWIDTH 2 0
BBX 1 6 1 -2
BITMAP
80
80
80
80
80
80
ENDCHAR
STARTCHAR 2520
ENCODING 9504
SWIDTH 500 0
DWIDTH 2 0
BBX 1 6 1 -2
BITMAP
80
80
80
80
80
80
ENDCHAR
STARTCHAR 2521
ENCODING 9505
SWIDTH 500 0
DWIDTH 2 0
BBX 1 6 1 -1
BITMAP
80
80
80
80
80
80
ENDCHAR
STARTCHAR 2522
ENCODING 9506
SWIDTH 500 0
DWIDTH 2 0
BBX 1 6 1 -1
BITMAP
80
80
80
80
80
80
ENDCHAR
STARTCHAR 2523
ENCODING 9507
SWIDTH 500 0
DWIDTH 2 0
BBX 1 6 1 -1
BITMAP
80
80
80
80
80
80
ENDCHAR
STARTCHAR 2524
ENCODING 9508
SWIDTH 500 0
DWIDTH 2 0
BBX 1 6 0 -2
BITMAP
80
80
80
80
80
80
ENDCHAR
STARTCHAR 2525
ENCODING 9509
SWIDTH 500 0
DWIDTH 2 0
BBX 1 6 0 -1
BITMAP
80
80
80
80
80
80
ENDCHAR
STARTCHAR 2526
ENCODING 9510
SWIDTH 500 0
DWIDTH 2 0
BBX 2 6 0 -2
BITMAP
40
40
C0
40
40
40
ENDCHAR
STARTCHAR 2527
ENCODING 9511
SWIDTH 500 0
DWIDTH 2 0
BBX 2 6 0 -2
BITMAP
40
40
C0
40
40
40
ENDCHAR
STARTCHAR 2528
ENCODING 9512
SWIDTH 500 0
DWIDTH 2 0
BBX 2 6 0 -2
BITMAP
40
40
C0
40
40
40
ENDCHAR
STARTCHAR 2529
ENCODING 9513
SWIDTH 500 0
DWIDTH 2 0
BBX 2 6 0 -1
BITMAP
40
40
40
C0
40
40
ENDCHAR
STARTCHAR 252A
ENCODING 9514
SWIDTH 500 0
DWIDTH 2 0
BBX 2 6 0 -1
BITMAP
40
40
40
C0
40
40
ENDCHAR
STARTCHAR 252B
ENCODING 9515
SWIDTH 500 0
DWIDTH 2 0
BBX 2 6 0 -1
BITMAP
40
40
40
C0
40
40
ENDCHAR
STARTCHAR 252C
ENCODING 9516
SWIDTH 500 0
DWIDTH 2 0
BBX 2 4 0 -2
BITMAP
C0
40
40
40
ENDCHAR
STARTCHAR 252D
ENCODING 9517
SWIDTH 500 0
DWIDTH 2 0
BBX 2 3 0 -1
BITMAP
C0
40
40
ENDCHAR
STARTCHAR 252E
ENCODING 9518
SWIDTH 500 0
DWIDTH 2 0
BBX 2 3 0 -1
BITMAP
C0
40
40
ENDCHAR
STARTCHAR 252F
ENCODING 9519
SWIDTH 500 0
DWIDTH 2 0
BBX 2 3 0 -1
BITMAP
C0
40
40
ENDCHAR
STARTCHAR 2530
ENCODING 9520
SWIDTH 500 0
DWIDTH 2 0
BBX 2 4 0 -2
BITMAP
C0
40
40
40
ENDCHAR
STARTCHAR 2531
ENCODING 9521
SWIDTH 500 0
DWIDTH 2 0
BBX 2 3 0 -1
BITMAP
C0
40
40
ENDCHAR
STARTCHAR 2532
ENCODING 9522
SWIDTH 500 0
DWIDTH 2 0
BBX 2 3 0 -1
BITMAP
C0
40
40
ENDCHAR
STARTCHAR 2533
ENCODING 9523
SWIDTH 500 0
DWIDTH 2 0
BBX 2 3 0 -1
BITMAP
C0
40
40
ENDCHAR
STARTCHAR 2534
ENCODING 9524
SWIDTH 500 0
DWIDTH 2 0
BBX 2 3 0 1
BITMAP
40
40
C0
ENDCHAR
STARTCHAR 2535
ENCODING 9525
SWIDTH 500 0
DWIDTH 2 0
BBX 2 3 0 1
BITMAP
40
40
C0
ENDCHAR
STARTCHAR 2536
ENCODING 9526
SWIDTH 500 0
DWIDTH 2 0
BBX 2 3 0 1
BITMAP
40
40
C0
ENDCHAR
STARTCHAR 2537
ENCODING 9527
SWIDTH 500 0
DWIDTH 2 0
BBX 2 3 0 1
BITMAP
40
40
C0
ENDCHAR
STARTCHAR 2538
ENCODING 9528
SWIDTH 500 0
DWIDTH 2 0
BBX 2 3 0 1
BITMAP
40
40
C0
ENDCHAR
STARTCHAR 2539
ENCODING 9529
SWIDTH 500 0
DWIDTH 2 0
BBX 2 3 0 1
BITMAP
40
40
C0
ENDCHAR
STARTCHAR 253A
ENCODING 9530
SWIDTH 500 0
DWIDTH 2 0
BBX 2 3 0 1
BITMAP
40
40
C0
ENDCHAR
STARTCHAR 253B
ENCODING 9531
SWIDTH 500 0
DWIDTH 2 0
BBX 2 3 0 1
BITMAP
40
40
C0
ENDCHAR
STARTCHAR 253C
ENCODING 9532
SWIDTH 500 0
DWIDTH 2 0
BBX 2 6 0 -2
BITMAP
40
40
C0
40
40
40
ENDCHAR
STARTCHAR 253D
ENCODING 9533
SWIDTH 500 0
DWIDTH 2 0
BBX 2 6 0 -1
BITMAP
40
40
40
C0
40
40
ENDCHAR
STARTCHAR 253E
ENCODING 9534
SWIDTH 500 0
DWIDTH 2 0
BBX 2 6 0 -1
BITMAP
40
40
40
C0
40
40
ENDCHAR
STARTCHAR 253F
ENCODING 9535
SWIDTH 500 0
DWIDTH 2 0
BBX 2 6 0 -1
BITMAP
40
40
40
C0
40
40
ENDCHAR
STARTCHAR 2540
ENCODING 9536
SWIDTH 500 0
DWIDTH 2 0
BBX 2 6 0 -2
BITMAP
40
40
C0
40
40
40
ENDCHAR
STARTCHAR 2541
ENCODING 9537
SWIDTH 500 0
DWIDTH 2 0
BBX 2 6 0 -2
BITMAP
40
40
C0
40
40
40
ENDCHAR
STARTCHAR 2542
ENCODING 9538
SWIDTH 500 0
DWIDTH 2 0
BBX 2 6 0 -2
BITMAP
40
40
C0
40
40
40
ENDCHAR
STARTCHAR 2543
ENCODING 9539
SWIDTH 500 0
DWIDTH 2 0
BBX 2 6 0 -1
BITMAP
40
40
40
C0
40
40
ENDCHAR
STARTCHAR 2544
ENCODING 9540
SWIDTH 500 0
DWIDTH 2 0
BBX 2 6 0 -1
BITMAP
40
40
40
C0
40
40
ENDCHAR
STARTCHAR 2545
ENCODING 9541
SWIDTH 500 0
DWIDTH 2 0
BBX 2 6 0 -1
BITMAP
40
40
40
C0
40
40
ENDCHAR
STARTCHAR 2546
ENCODING 9542
SWIDTH 500 0
DWIDTH 2 0
BBX 2 6 0 -1
BITMAP
40
40
40
C0
40
40
ENDCHAR
STARTCHAR 2547
ENCODING 9543
SWIDTH 500 0
DWIDTH 2 0
BBX 2 6 0 -1
BITMAP
40
40
40
C0
40
40
ENDCHAR
STARTCHAR 2548
ENCODING 9544
SWIDTH 500 0
DWIDTH 2 0
BBX 2 6 0 -1
BITMAP
40
40
40
C0
40
40
ENDCHAR
STARTCHAR 2549
ENCODING 9545
SWIDTH 500 0
DWIDTH 2 0
BBX 2 6 0 -1
BITMAP
40
40
40
C0
40
40
ENDCHAR
STARTCHAR 254A
ENCODING 9546
SWIDTH 500 0
DWIDTH 2 0
BBX 2 6 0 -1
BITMAP
40
40
40
C0
40
40
ENDCHAR
STARTCHAR 254B
ENCODING 9547
SWIDTH 500 0
DWIDTH 2 0
BBX 2 6 0 -1
BITMAP
40
40
40
C0
40
40
ENDCHAR
STARTCHAR 254C
ENCODING 9548
SWIDTH 500 0
DWIDTH 2 0
BBX 2 1 0 1
BITMAP
C0
ENDCHAR
STARTCHAR 254D
ENCODING 9549
SWIDTH 500 0
DWIDTH 2 0
BBX 2 1 0 1
BITMAP
C0
ENDCHAR
STARTCHAR 254E
ENCODING 9550
SWIDTH 500 0
DWIDTH 2 0
BBX 1 4 1 -1
BITMAP
80
80
80
80
ENDCHAR
STARTCHAR 254F
ENCODING 9551
SWIDTH 500 0
DWIDTH 2 0
BBX 1 4 1 -1
BITMAP
80
80
80
80
ENDCHAR
STARTCHAR 2550
ENCODING 9552
SWIDTH 500 0
DWIDTH 2 0
BBX 2 2 0 1
BITMAP
C0
C0
ENDCHAR
STARTCHAR 2551
ENCODING 9553
SWIDTH 500 0
DWIDTH 2 0
BBX 1 6 1 -2
BITMAP
80
80
80
80
80
80
ENDCHAR
STARTCHAR 2552
ENCODING 9554
SWIDTH 500 0
DWIDTH 2 0
BBX 1 4 1 -1
BITMAP
80
80
80
80
ENDCHAR
STARTCHAR 2553
ENCODING 9555
SWIDTH 500 0
DWIDTH 2 0
BBX 1 4 1 -2
BITMAP
80
80
80
80
ENDCHAR
STARTCHAR 2554
ENCODING 9556
SWIDTH 500 0
DWIDTH 2 0
BBX 1 4 1 -1
BITMAP
80
80
80
80
ENDCHAR
STARTCHAR 2555
ENCODING 9557
SWIDTH 500 0
DWIDTH 2 0
BBX 1 4 0 -1
BITMAP
80
80
80
80
ENDCHAR
STARTCHAR 2556
ENCODING 9558
SWIDTH 500 0
DWIDTH 2 0
BBX 2 4 0 -2
BITMAP
C0
40
40
40
ENDCHAR
STARTCHAR 2557
ENCODING 9559
SWIDTH 500 0
DWIDTH 2 0
BBX 2 4 0 -1
BITMAP
C0
C0
40
40
ENDCHAR
STARTCHAR 2558
ENCODING 9560
SWIDTH 500 0
DWIDTH 2 0
BBX 1 4 1 1
BITMAP
80
80
80
80
ENDCHAR
STARTCHAR 2559
ENCODING 9561
SWIDTH 500 0
DWIDTH 2 0
BBX 1 3 1 1
BITMAP
80
80
80
ENDCHAR
STARTCHAR 255A
ENCODING 9562
SWIDTH 500 0
DWIDTH 2 0
BBX 1 4 1 1
BITMAP
80
80
80
80
ENDCHAR
STARTCHAR 255B
ENCODING 9563
SWIDTH 500 0
DWIDTH 2 0
BBX 1 4 0 1
BITMAP
80
80
80
80
ENDCHAR
STARTCHAR 255C
ENCODING 9564
SWIDTH 500 0
DWIDTH 2 0
BBX 2 3 0 1
BITMAP
40
40
C0
ENDCHAR
STARTCHAR 255D
ENCODING 9565
SWIDTH 500 0
DWIDTH 2 0
BBX 2 4 0 1
BITMAP
40
40
C0
C0
ENDCHAR
STARTCHAR 255E
ENCODING 9566
SWIDTH 500 0
DWIDTH 2 0
BBX 1 6 1 -1
BITMAP
80
80
80
80
80
80
ENDCHAR
STARTCHAR 255F
ENCODING 9567
SWIDTH 500 0
DWIDTH 2 0
BBX 1 6 1 -2
BITMAP
80
80
80
80
80
80
ENDCHAR
STARTCHAR 2560
ENCODING 9568
SWIDTH 500 0
DWIDTH 2 0
BBX 1 6 1 -1
BITMAP
80
80
80
80
80
80
ENDCHAR
STARTCHAR 2561
ENCODING 9569
SWIDTH 500 0
DWIDTH 2 0
BBX 1 6 0 -1
BITMAP
80
80
80
80
80
80
ENDCHAR
STARTCHAR 2562
ENCODING 9570
SWIDTH 500 0
DWIDTH 2 0
BBX 2 6 0 -2
BITMAP
40
40
C0
40
40
40
ENDCHAR
STARTCHAR 2563
ENCODING 9571
SWIDTH 500 0
DWIDTH 2 0
BBX 2 6 0 -1
BITMAP
40
40
C0
C0
40
40
ENDCHAR
STARTCHAR 2564
ENCODING 9572
SWIDTH 500 0
DWIDTH 2 0
BBX 2 4 0 -1
BITMAP
C0
C0
40
40
ENDCHAR
STARTCHAR 2565
ENCODING 9573
SWIDTH 500 0
DWIDTH 2 0
BBX 2 4 0 -2
BITMAP
C0
40
40
40
ENDCHAR
STARTCHAR 2566
ENCODING 9574
SWIDTH 500 0
DWIDTH 2 0
BBX 2 4 0 -1
BITMAP
C0
C0
40
40
ENDCHAR
STARTCHAR 2567
ENCODING 9575
SWIDTH 500 0
DWIDTH 2 0
BBX 2 4 0 1
BITMAP
40
40
C0
C0
ENDCHAR
STARTCHAR 2568
ENCODING 9576
SWIDTH 500 0
DWIDTH 2 0
BBX 2 3 0 1
BITMAP
40
40
C0
ENDCHAR
STARTCHAR 2569
ENCODING 9577
SWIDTH 500 0
DWIDTH 2 0
BBX 2 4 0 1
BITMAP
40
40
C0
C0
ENDCHAR
STARTCHAR 256A
ENCODING 9578
SWIDTH 500 0
DWIDTH 2 0
BBX 2 6 0 -1
BITMAP
40
40
C0
C0
40
40
ENDCHAR
STARTCHAR 256B
ENCODING 9579
SWIDTH 500 0
DWIDTH 2 0
BBX 2 6 0 -2
BITMAP
40
40
C0
40
40
40
ENDCHAR
STARTCHAR 256C
ENCODING 9580
SWIDTH 500 0
DWIDTH 2 0
BBX 2 6 0 -1
BITMAP
40
40
C0
C0
40
40
ENDCHAR
STARTCHAR 256D
ENCODING 9581
SWIDTH 500 0
DWIDTH 2 0
BBX 1 4 1 -2
BITMAP
80
80
80
80
ENDCHAR
STARTCHAR 256E
ENCODING 9582
SWIDTH 500 0
DWIDTH 2 0
BBX 1 4 0 -2
BITMAP
80
80
80
80
ENDCHAR
STARTCHAR 256F
ENCODING 9583
SWIDTH 500 0
DWIDTH 2 0
BBX 1 3 0 1
BITMAP
80
80
80
ENDCHAR
STARTCHAR 2570
ENCODING 9584
SWIDTH 500 0
DWIDTH 2 0
BBX 1 3 1 1
BITMAP
80
80
80
ENDCHAR
STARTCHAR 2571
ENCODING 9585
SWIDTH 500 0
DWIDTH 2 0
BBX 2 4 0 -1
BITMAP
40
40
80
80
ENDCHAR
STARTCHAR 2572
ENCODING 9586
SWIDTH 500 0
DWIDTH 2 0
BBX 2 4 0 -1
BITMAP
80
80
40
40
ENDCHAR
STARTCHAR 2573
ENCODING 9587
SWIDTH 500 0
DWIDTH 2 0
BBX 2 4 0 -1
BITMAP
C0
40
40
C0
ENDCHAR
STARTCHAR 2574
ENCODING 9588
SWIDTH 500 0
DWIDTH 2 0
BBX 1 1 0 1
BITMAP
80
ENDCHAR
STARTCHAR 2575
ENCODING 9589
SWIDTH 500 0
DWIDTH 2 0
BBX 1 3 1 1
BITMAP
80
80
80
ENDCHAR
STARTCHAR 2576
ENCODING 9590
SWIDTH 500 0
DWIDTH 2 0
BBX 1 1 1 1
BITMAP
80
ENDCHAR
STARTCHAR 2577
ENCODING 9591
SWIDTH 500 0
DWIDTH 2 0
BBX 1 4 1 -2
BITMAP
80
80
80
80
ENDCHAR
STARTCHAR 2578
ENCODING 9592
SWIDTH 500 0
DWIDTH 2 0
BBX 1 1 0 1
BITMAP
80
ENDCHAR
STARTCHAR 2579
ENCODING 9593
SWIDTH 500 0
DWIDTH 2 0
BBX 1 3 1 1
BITMAP
80
80
80
ENDCHAR
STARTCHAR 257A
ENCODING 9594
SWIDTH 500 0
DWIDTH 2 0
BBX 1 1 1 1
BITMAP
80
ENDCHAR
STARTCHAR 257B
ENCODING 9595
SWIDTH 500 0
DWIDTH 2 0
BBX 1 4 1 -2
BITMAP
80
80
80
80
ENDCHAR
STARTCHAR 257C
ENCODING 9596
SWIDTH 500 0
DWIDTH 2 0
BBX 2 1 0 1
BITMAP
C0
ENDCHAR
STARTCHAR 257D
ENCODING 9597
SWIDTH 500 0
DWIDTH 2 0
BBX 1 6 1 -2
BITMAP
80
80
80
80
80
80
ENDCHAR
STARTCHAR 257E
ENCODING 9598
SWIDTH 500 0
DWIDTH 2 0
BBX 2 1 0 1
BITMAP
C0
ENDCHAR
STARTCHAR 257F
ENCODING 9599
SWIDTH 500 0
DWIDTH 2 0
BBX 1 6 1 -2
BITMAP
80
80
80
80
80
80
ENDCHAR
STARTCHAR 2580
ENCODING 9600
SWIDTH 500 0
DWIDTH 2 0
BBX 2 3 0 1
BITMAP
C0
C0
C0
ENDCHAR
STARTCHAR 2581
ENCODING 9601
SWIDTH 500 0
DWIDTH 2 0
BBX 2 1 0 -1
BITMAP
C0
ENDCHAR
STARTCHAR 2582
ENCODING 9602
SWIDTH 500 0
DWIDTH 2 0
BBX 2 2 0 -1
BITMAP
C0
C0
ENDCHAR
STARTCHAR 2583
ENCODING 9603
SWIDTH 500 0
DWIDTH 2 0
BBX 2 2 0 -1
BITMAP
C0
C0
ENDCHAR
STARTCHAR 2584
ENCODING 9604
SWIDTH 500 0
DWIDTH 2 0
BBX 2 3 0 -1
BITMAP
C0
C0
C0
ENDCHAR
STARTCHAR 2585
ENCODING 9605
SWIDTH 500 0
DWIDTH 2 0
BBX 2 4 0 -1
BITMAP
C0
C0
C0
C0
ENDCHAR
STARTCHAR 2586
ENCODING 9606
SWIDTH 500 0
DWIDTH 2 0
BBX 2 4 0 -1
BITMAP
C0
C0
C0
C0
ENDCHAR
STARTCHAR 2587
ENCODING 9607
SWIDTH 500 0
DWIDTH 2 0
BBX 2 5 0 -1
BITMAP
C0
C0
C0
C0
C0
ENDCHAR
STARTCHAR 2588
ENCODING 9608
SWIDTH 500 0
DWIDTH 2 0
BBX 2 6 0 -1
BITMAP
C0
C0
C0
C0
C0
C0
ENDCHAR
STARTCHAR 2589
ENCODING 9609
SWIDTH 500 0
DWIDTH 2 0
BBX 2 6 0 -1
BITMAP
C0
C0
C0
C0
C0
C0
ENDCHAR
STARTCHAR 258A
ENCODING 9610
SWIDTH 500 0
DWIDTH 2 0
BBX 2 6 0 -1
BITMAP
C0
C0
C0
C0
C0
C0
ENDCHAR
STARTCHAR 258B
ENCODING 9611
SWIDTH 500 0
DWIDTH 2 0
BBX 2 6 0 -1
BITMAP
C0
C0
C0
C0
C0
C0
ENDCHAR
STARTCHAR 258C
ENCODING 9612
SWIDTH 500 0
DWIDTH 2 0
BBX 1 6 0 -1
BITMAP
80
80
80
80
80
80
ENDCHAR
STARTCHAR 258D
ENCODING 9613
SWIDTH 500 0
DWIDTH 2 0
BBX 1 6 0 -1
BITMAP
80
80
80
80
80
80
ENDCHAR
STARTCHAR 258E
ENCODING 9614
SWIDTH 500 0
DWIDTH 2 0
BBX 1 6 0 -1
BITMAP
80
80
80
80
80
80
ENDCHAR
STARTCHAR 258F
ENCODING 9615
SWIDTH 500 0
DWIDTH 2 0
BBX 1 6 0 -1
BITMAP
80
80
80
80
80
80
ENDCHAR
STARTCHAR 2590
ENCODING 9616
SWIDTH 500 0
DWIDTH 2 0
BBX 1 6 1 -1
BITMAP
80
80
80
80
80
80
ENDCHAR
STARTCHAR 2591
ENCODING 9617
SWIDTH 500 0
DWIDTH 2 0
BBX 2 4 0 -1
BITMAP
C0
C0
C0
C0
ENDCHAR
STARTCHAR 2592
ENCODING 9618
SWIDTH 500 0
DWIDTH 2 0
BBX 2 5 0 -1
BITMAP
C0
C0
C0
C0
C0
ENDCHAR
STARTCHAR 2593
ENCODING 9619
SWIDTH 500 0
DWIDTH 2 0
BBX 2 5 0 -1
BITMAP
C0
C0
C0
C0
C0
ENDCHAR
STARTCHAR 2594
ENCODING 9620
SWIDTH 500 0
DWIDTH 2 0
BBX 2 1 0 3
BITMAP
C0
ENDCHAR
STARTCHAR 2595
ENCODING 9621
SWIDTH 500 0
DWIDTH 2 0
BBX 1 6 2 -1
BITMAP
80
80
80
80
80
80
ENDCHAR
STARTCHAR 2596
ENCODING 9622
SWIDTH 500 0
DWIDTH 2 0
BBX 1 3 0 -1
BITMAP
80
80
80
ENDCHAR
STARTCHAR 2597
ENCODING 9623
SWIDTH 500 0
DWIDTH 2 0
BBX 1 3 1 -1
BITMAP
80
80
80
ENDCHAR
STARTCHAR 2598
ENCODING 9624
SWIDTH 500 0
DWIDTH 2 0
BBX 1 3 0 1
BITMAP
80
80
80
ENDCHAR
STARTCHAR 2599
ENCODING 9625
SWIDTH 500 0
DWIDTH 2 0
BBX 2 6 0 -1
BITMAP
80
80
80
C0
C0
C0
ENDCHAR
STARTCHAR 259A
ENCODING 9626
SWIDTH 500 0
DWIDTH 2 0
BBX 2 6 0 -1
BITMAP
80
80
80
C0
40
40
ENDCHAR
STARTCHAR 259B
ENCODING 9627
SWIDTH 500 0
DWIDTH 2 0
BBX 2 6 0 -1
BITMAP
C0
C0
C0
C0
80
80
ENDCHAR
STARTCHAR 259C
ENCODING 9628
SWIDTH 500 0
DWIDTH 2 0
BBX 2 6 0 -1
BITMAP
C0
C0
C0
C0
40
40
ENDCHAR
STARTCHAR 259D
ENCODING 9629
SWIDTH 500 0
DWIDTH 2 0
BBX 1 3 1 1
BITMAP
80
80
80
ENDCHAR
STARTCHAR 259E
ENCODING 9630
SWIDTH 500 0
DWIDTH 2 0
BBX 2 6 0 -1
BITMAP
40
40
40
C0
80
80
ENDCHAR
STARTCHAR 259F
ENCODING 9631
SWIDTH 500 0
DWIDTH 2 0
BBX 2 6 0 -1
BITMAP
40
40
40
C0
C0
C0
ENDCHAR
STARTCHAR 25A0
ENCODING 9632
SWIDTH 500 0
DWIDTH 2 0
BBX 2 3 0 0
BITMAP
C0
C0
C0
ENDCHAR
STARTCHAR 25A1
ENCODING 9633
SWIDTH 500 0
DWIDTH 2 0
BBX 2 3 0 0
BITMAP
C0
C0
C0
ENDCHAR
STARTCHAR 25AA
ENCODING 9642
SWIDTH 500 0
DWIDTH 2 0
BBX 1 1 1 1
BITMAP
80
ENDCHAR
STARTCHAR 25AB
ENCODING 9643
SWIDTH 500 0
DWIDTH 2 0
BBX 1 2 1 0
BITMAP
80
80
ENDCHAR
STARTCHAR 25B2
ENCODING 9650
SWIDTH 500 0
DWIDTH 2 0
BBX 2 2 0 0
BITMAP
40
C0
ENDCHAR
STARTCHAR 25B3
ENCODING 9651
SWIDTH 500 0
DWIDTH 2 0
BBX 2 3 0 0
BITMAP
40
C0
C0
ENDCHAR
STARTCHAR 25B4
ENCODING 9652
SWIDTH 500 0
DWIDTH 2 0
BBX 1 1 1 1
BITMAP
80
ENDCHAR
STARTCHAR 25B5
ENCODING 9653
SWIDTH 500 0
DWIDTH 2 0
BBX 1 2 1 0
BITMAP
80
80
ENDCHAR
STARTCHAR 25B6
ENCODING 9654
SWIDTH 500 0
DWIDTH 2 0
BBX 2 3 0 0
BITMAP
80
C0
80
ENDCHAR
STARTCHAR 25B7
ENCODING 9655
SWIDTH 500 0
DWIDTH 2 0
BBX 2 3 0 0
BITMAP
80
C0
80
ENDCHAR
STARTCHAR 25B8
ENCODING 9656
SWIDTH 500 0
DWIDTH 2 0
BBX 1 1 1 1
BITMAP
80
ENDCHAR
STARTCHAR 25B9
ENCODING 9657
SWIDTH 500 0
DWIDTH 2 0
BBX 1 1 1 1
BITMAP
80
ENDCHAR
STARTCHAR 25BA
ENCODING 9658
SWIDTH 500 0
DWIDTH 2 0
BBX 2 1 0 1
BITMAP
C0
ENDCHAR
STARTCHAR 25BB
ENCODING 9659
SWIDTH 500 0
DWIDTH 2 0
BBX 2 1 0 1
BITMAP
C0
ENDCHAR
STARTCHAR 25BC
ENCODING 9660
SWIDTH 500 0
DWIDTH 2 0
BBX 2 2 0 1
BITMAP
C0
40
ENDCHAR
STARTCHAR 25BD
ENCODING 9661
SWIDTH 500 0
DWIDTH 2 0
BBX 2 3 0 0
BITMAP
C0
C0
40
ENDCHAR
STARTCHAR 25BE
ENCODING 9662
SWIDTH 500 0
DWIDTH 2 0
BBX 1 1 1 1
BITMAP
80
ENDCHAR
STARTCHAR 25BF
ENCODING 9663
SWIDTH 500 0
DWIDTH 2 0
BBX 1 2 1 0
BITMAP
80
80
ENDCHAR
STARTCHAR 25C0
ENCODING 9664
SWIDTH 500 0
DWIDTH 2 0
BBX 2 3 0 0
BITMAP
40
C0
40
ENDCHAR
STARTCHAR 25C1
ENCODING 9665
SWIDTH 500 0
DWIDTH 2 0
BBX 2 3 0 0
BITMAP
40
C0
40
ENDCHAR
STARTCHAR 25C2
ENCODING 9666
SWIDTH 500 0
DWIDTH 2 0
BBX 1 1 1 1
BITMAP
80
ENDCHAR
STARTCHAR 25C3
ENCODING 9667
SWIDTH 500 0
DWIDTH 2 0
BBX 1 1 1 1
BITMAP
80
ENDCHAR
STARTCHAR 25C4
ENCODING 9668
SWIDTH 500 0
DWIDTH 2 0
BBX 2 1 0 1
BITMAP
C0
ENDCHAR
STARTCHAR 25C5
ENCODING 9669
SWIDTH 500 0
DWIDTH 2 0
BBX 2 1 0 1
BITMAP
C0
ENDCHAR
STARTCHAR 25C6
ENCODING 9670
SWIDTH 500 0
DWIDTH 2 0
BBX 2 3 0 0
BITMAP
40
C0
40
ENDCHAR
STARTCHAR 25C7
ENCODING 9671
SWIDTH 500 0
DWIDTH 2 0
BBX 2 3 0 0
BITMAP
40
C0
40
ENDCHAR
STARTCHAR 25C8
ENCODING 9672
SWIDTH 500 0
DWIDTH 2 0
BBX 2 3 0 0
BITMAP
40
C0
40
ENDCHAR
STARTCHAR 25C9
ENCODING 9673
SWIDTH 500 0
DWIDTH 2 0
BBX 2 3 0 0
BITMAP
C0
C0
C0
ENDCHAR
STARTCHAR 25CA
ENCODING 9674
SWIDTH 500 0
DWIDTH 2 0
BBX 2 3 0 0
BITMAP
40
C0
40
ENDCHAR
STARTCHAR 25CB
ENCODING 9675
SWIDTH 500 0
DWIDTH 2 0
BBX 2 3 0 0
BITMAP
40
C0
40
ENDCHAR
STARTCHAR 25CC
ENCODING 9676
SWIDTH 500 0
DWIDTH 2 0
BBX 2 3 0 0
BITMAP
40
C0
40
ENDCHAR
STARTCHAR 25CE
ENCODING 9678
SWIDTH 500 0
DWIDTH 2 0
BBX 2 3 0 0
BITMAP
C0
C0
C0
ENDCHAR
STARTCHAR 25CF
ENCODING 9679
SWIDTH 500 0
DWIDTH 2 0
BBX 2 3 0 0
BITMAP
40
C0
C0
ENDCHAR
STARTCHAR 25D4
ENCODING 9684
SWIDTH 500 0
DWIDTH 2 0
BBX 2 3 0 0
BITMAP
40
C0
40
ENDCHAR
STARTCHAR 25D5
ENCODING 9685
SWIDTH 500 0
DWIDTH 2 0
BBX 2 3 0 0
BITMAP
40
C0
C0
ENDCHAR
STARTCHAR 25E6
ENCODING 9702
SWIDTH 500 0
DWIDTH 2 0
BBX 1 1 1 1
BITMAP
80
ENDCHAR
STARTCHAR 25E7
ENCODING 9703
SWIDTH 500 0
DWIDTH 2 0
BBX 2 3 0 0
BITMAP
C0
C0
C0
ENDCHAR
STARTCHAR 25E8
ENCODING 9704
SWIDTH 500 0
DWIDTH 2 0
BBX 2 3 0 0
BITMAP
C0
C0
C0
ENDCHAR
STARTCHAR 25E9
ENCODING 9705
SWIDTH 500 0
DWIDTH 2 0
BBX 2 3 0 0
BITMAP
C0
C0
C0
ENDCHAR
STARTCHAR 25EA
ENCODING 9706
SWIDTH 500 0
DWIDTH 2 0
BBX 2 3 0 0
BITMAP
C0
C0
C0
ENDCHAR
STARTCHAR 25EB
ENCODING 9707
SWIDTH 500 0
DWIDTH 2 0
BBX 2 3 0 0
BITMAP
C0
C0
C0
ENDCHAR
STARTCHAR 25EF
ENCODING 9711
SWIDTH 500 0
DWIDTH 2 0
BBX 2 3 0 0
BITMAP
40
C0
40
ENDCHAR
STARTCHAR 25F6
ENCODING 9718
SWIDTH 500 0
DWIDTH 2 0
BBX 2 3 0 0
BITMAP
C0
C0
C0
ENDCHAR
STARTCHAR 2630
ENCODING 9776
SWIDTH 500 0
DWIDTH 2 0
BBX 2 2 0 0
BITMAP
C0
C0
ENDCHAR
STARTCHAR 2665
ENCODING 9829
SWIDTH 500 0
DWIDTH 2 0
BBX 4 3 0 0
BITMAP
F0
90
60
ENDCHAR
STARTCHAR 266D
ENCODING 9837
SWIDTH 500 0
DWIDTH 2 0
BBX 1 4 1 -1
BITMAP
80
80
80
80
ENDCHAR
STARTCHAR 266F
ENCODING 9839
SWIDTH 500 0
DWIDTH 2 0
BBX 2 3 0 0
BITMAP
40
C0
C0
ENDCHAR
STARTCHAR 2687
ENCODING 9863
SWIDTH 500 0
DWIDTH 2 0
BBX 2 3 0 0
BITMAP
C0
C0
C0
ENDCHAR
STARTCHAR 26A0
ENCODING 9888
SWIDTH 500 0
DWIDTH 2 0
BBX 2 3 0 0
BITMAP
40
C0
C0
ENDCHAR
STARTCHAR 26A1
ENCODING 9889
SWIDTH 500 0
DWIDTH 2 0
BBX 3 4 0 -1
BITMAP
60
A0
40
80
ENDCHAR
STARTCHAR 2713
ENCODING 10003
SWIDTH 500 0
DWIDTH 2 0
BBX 2 2 0 0
BITMAP
C0
80
ENDCHAR
STARTCHAR 2715
ENCODING 10005
SWIDTH 500 0
DWIDTH 2 0
BBX 2 2 0 0
BITMAP
C0
C0
ENDCHAR
STARTCHAR 2717
ENCODING 10007
SWIDTH 500 0
DWIDTH 2 0
BBX 2 3 0 0
BITMAP
C0
40
C0
ENDCHAR
STARTCHAR 2736
ENCODING 10038
SWIDTH 500 0
DWIDTH 2 0
BBX 2 3 0 0
BITMAP
40
C0
40
ENDCHAR
STARTCHAR 276C
ENCODING 10092
SWIDTH 500 0
DWIDTH 2 0
BBX 1 3 1 0
BITMAP
80
80
80
ENDCHAR
STARTCHAR 276D
ENCODING 10093
SWIDTH 500 0
DWIDTH 2 0
BBX 1 3 1 0
BITMAP
80
80
80
ENDCHAR
STARTCHAR 276E
ENCODING 10094
SWIDTH 500 0
DWIDTH 2 0
BBX 1 3 1 0
BITMAP
80
80
80
ENDCHAR
STARTCHAR 276F
ENCODING 10095
SWIDTH 500 0
DWIDTH 2 0
BBX 1 3 1 0
BITMAP
80
80
80
ENDCHAR
STARTCHAR 2770
ENCODING 10096
SWIDTH 500 0
DWIDTH 2 0
BBX 2 3 0 0
BITMAP
40
80
40
ENDCHAR
STARTCHAR 2771
ENCODING 10097
SWIDTH 500 0
DWIDTH 2 0
BBX 2 3 0 0
BITMAP
C0
40
C0
ENDCHAR
STARTCHAR 2794
ENCODING 10132
SWIDTH 500 0
DWIDTH 2 0
BBX 2 1 0 1
BITMAP
C0
ENDCHAR
STARTCHAR 279C
ENCODING 10140
SWIDTH 500 0
DWIDTH 2 0
BBX 2 1 0 1
BITMAP
C0
ENDCHAR
STARTCHAR 279D
ENCODING 10141
SWIDTH 500 0
DWIDTH 2 0
BBX 2 3 0 0
BITMAP
40
C0
40
ENDCHAR
STARTCHAR 279E
ENCODING 10142
SWIDTH 500 0
DWIDTH 2 0
BBX 2 3 0 0
BITMAP
40
C0
40
ENDCHAR
STARTCHAR 27C5
ENCODING 10181
SWIDTH 500 0
DWIDTH 2 0
BBX 1 4 1 -1
BITMAP
80
80
80
80
ENDCHAR
STARTCHAR 27C6
ENCODING 10182
SWIDTH 500 0
DWIDTH 2 0
BBX 2 4 0 -1
BITMAP
C0
40
40
40
ENDCHAR
STARTCHAR 27DC
ENCODING 10204
SWIDTH 500 0
DWIDTH 2 0
BBX 2 1 0 1
BITMAP
C0
ENDCHAR
STARTCHAR 27E6
ENCODING 10214
SWIDTH 500 0
DWIDTH 2 0
BBX 1 4 1 -1
BITMAP
80
80
80
80
ENDCHAR
STARTCHAR 27E7
ENCODING 10215
SWIDTH 500 0
DWIDTH 2 0
BBX 2 5 0 -1
BITMAP
C0
40
40
40
C0
ENDCHAR
STARTCHAR 27E8
ENCODING 10216
SWIDTH 500 0
DWIDTH 2 0
BBX 2 4 0 0
BITMAP
40
40
80
40
ENDCHAR
STARTCHAR 27E9
ENCODING 10217
SWIDTH 500 0
DWIDTH 2 0
BBX 2 4 0 0
BITMAP
80
40
40
C0
ENDCHAR
STARTCHAR 27EA
ENCODING 10218
SWIDTH 500 0
DWIDTH 2 0
BBX 2 4 0 0
BITMAP
40
40
80
40
ENDCHAR
STARTCHAR 27EB
ENCODING 10219
SWIDTH 500 0
DWIDTH 2 0
BBX 2 4 0 0
BITMAP
80
40
40
80
ENDCHAR
STARTCHAR 27F5
ENCODING 10229
SWIDTH 500 0
DWIDTH 2 0
BBX 3 2 0 0
BITMAP
E0
80
ENDCHAR
STARTCHAR 27F6
ENCODING 10230
SWIDTH 500 0
DWIDTH 2 0
BBX 3 2 0 0
BITMAP
E0
40
ENDCHAR
STARTCHAR 27F7
ENCODING 10231
SWIDTH 500 0
DWIDTH 2 0
BBX 3 2 0 0
BITMAP
E0
C0
ENDCHAR
STARTCHAR 2916
ENCODING 10518
SWIDTH 500 0
DWIDTH 2 0
BBX 3 1 0 1
BITMAP
E0
ENDCHAR
STARTCHAR 294A
ENCODING 10570
SWIDTH 500 0
DWIDTH 2 0
BBX 3 2 0 0
BITMAP
E0
40
ENDCHAR
STARTCHAR 2987
ENCODING 10631
SWIDTH 500 0
DWIDTH 2 0
BBX 1 3 1 0
BITMAP
80
80
80
ENDCHAR
STARTCHAR 2988
ENCODING 10632
SWIDTH 500 0
DWIDTH 2 0
BBX 2 3 0 0
BITMAP
C0
C0
C0
ENDCHAR
STARTCHAR 2A00
ENCODING 10752
SWIDTH 500 0
DWIDTH 2 0
BBX 2 3 0 0
BITMAP
C0
C0
C0
ENDCHAR
STARTCHAR 2A05
ENCODING 10757
SWIDTH 500 0
DWIDTH 2 0
BBX 2 3 0 0
BITMAP
C0
C0
C0
ENDCHAR
STARTCHAR 2A06
ENCODING 10758
SWIDTH 500 0
DWIDTH 2 0
BBX 2 3 0 0
BITMAP
C0
C0
C0
ENDCHAR
STARTCHAR 2B58
ENCODING 11096
SWIDTH 500 0
DWIDTH 2 0
BBX 4 3 0 0
BITMAP
E0
90
E0
ENDCHAR
STARTCHAR E000
ENCODING 57344
SWIDTH 500 0
DWIDTH 2 0
BBX 3 3 0 0
BITMAP
E0
A0
A0
ENDCHAR
STARTCHAR E001
ENCODING 57345
SWIDTH 500 0
DWIDTH 2 0
BBX 3 3 0 0
BITMAP
E0
E0
E0
ENDCHAR
STARTCHAR E002
ENCODING 57346
SWIDTH 500 0
DWIDTH 2 0
BBX 3 3 0 0
BITMAP
E0
A0
E0
ENDCHAR
STARTCHAR E003
ENCODING 57347
SWIDTH 500 0
DWIDTH 2 0
BBX 3 3 0 0
BITMAP
E0
E0
E0
ENDCHAR
STARTCHAR E004
ENCODING 57348
SWIDTH 500 0
DWIDTH 2 0
BBX 3 3 0 0
BITMAP
E0
A0
E0
ENDCHAR
STARTCHAR E005
ENCODING 57349
SWIDTH 500 0
DWIDTH 2 0
BBX 3 3 0 0
BITMAP
40
E0
C0
ENDCHAR
STARTCHAR E006
ENCODING 57350
SWIDTH 500 0
DWIDTH 2 0
BBX 3 3 0 0
BITMAP
E0
60
E0
ENDCHAR
STARTCHAR E007
ENCODING 57351
SWIDTH 500 0
DWIDTH 2 0
BBX 3 3 0 0
BITMAP
80
E0
40
ENDCHAR
STARTCHAR E008
ENCODING 57352
SWIDTH 500 0
DWIDTH 2 0
BBX 3 3 0 0
BITMAP
E0
A0
E0
ENDCHAR
STARTCHAR E009
ENCODING 57353
SWIDTH 500 0
DWIDTH 2 0
BBX 1 3 1 0
BITMAP
80
80
80
ENDCHAR
STARTCHAR E00A
ENCODING 57354
SWIDTH 500 0
DWIDTH 2 0
BBX 2 3 0 0
BITMAP
C0
C0
40
ENDCHAR
STARTCHAR E0A0
ENCODING 57504
SWIDTH 500 0
DWIDTH 2 0
BBX 2 5 0 -1
BITMAP
80
C0
C0
80
80
ENDCHAR
STARTCHAR E0A1
ENCODING 57505
SWIDTH 500 0
DWIDTH 2 0
BBX 1 3 1 0
BITMAP
80
00
80
ENDCHAR
STARTCHAR E0A2
ENCODING 57506
SWIDTH 500 0
DWIDTH 2 0
BBX 2 3 0 0
BITMAP
40
C0
C0
ENDCHAR
STARTCHAR E0A3
ENCODING 57507
SWIDTH 500 0
DWIDTH 2 0
BBX 2 4 0 -1
BITMAP
C0
40
C0
C0
ENDCHAR
STARTCHAR E0B0
ENCODING 57520
SWIDTH 500 0
DWIDTH 2 0
BBX 2 5 0 -1
BITMAP
80
80
C0
C0
80
ENDCHAR
STARTCHAR E0B1
ENCODING 57521
SWIDTH 500 0
DWIDTH 2 0
BBX 2 5 0 -1
BITMAP
80
40
40
40
80
ENDCHAR
STARTCHAR E0B2
ENCODING 57522
SWIDTH 500 0
DWIDTH 2 0
BBX 2 5 0 -1
BITMAP
40
40
C0
40
40
ENDCHAR
STARTCHAR E0B3
ENCODING 57523
SWIDTH 500 0
DWIDTH 2 0
BBX 2 5 0 -1
BITMAP
40
40
80
80
40
ENDCHAR
STARTCHAR E0B4
ENCODING 57524
SWIDTH 500 0
DWIDTH 2 0
BBX 2 5 0 -1
BITMAP
C0
C0
C0
C0
C0
ENDCHAR
STARTCHAR E0B5
ENCODING 57525
SWIDTH 500 0
DWIDTH 2 0
BBX 2 5 0 -1
BITMAP
C0
40
40
40
C0
ENDCHAR
STARTCHAR E0B6
ENCODING 57526
SWIDTH 500 0
DWIDTH 2 0
BBX 2 5 0 -1
BITMAP
40
C0
C0
C0
40
ENDCHAR
STARTCHAR E0B7
ENCODING 57527
SWIDTH 500 0
DWIDTH 2 0
BBX 2 5 0 -1
BITMAP
40
80
80
80
40
ENDCHAR
STARTCHAR E0B8
ENCODING 57528
SWIDTH 500 0
DWIDTH 2 0
BBX 2 5 0 -1
BITMAP
80
80
80
C0
C0
ENDCHAR
STARTCHAR E0B9
ENCODING 57529
SWIDTH 500 0
DWIDTH 2 0
BBX 2 5 0 -1
BITMAP
80
80
40
40
40
ENDCHAR
STARTCHAR E0BA
ENCODING 57530
SWIDTH 500 0
DWIDTH 2 0
BBX 2 5 0 -1
BITMAP
40
40
40
40
C0
ENDCHAR
STARTCHAR E0BB
ENCODING 57531
SWIDTH 500 0
DWIDTH 2 0
BBX 2 5 0 -1
BITMAP
40
40
40
80
80
ENDCHAR
STARTCHAR E0BC
ENCODING 57532
SWIDTH 500 0
DWIDTH 2 0
BBX 2 5 0 -1
BITMAP
C0
C0
80
80
80
ENDCHAR
STARTCHAR E0BD
ENCODING 57533
SWIDTH 500 0
DWIDTH 2 0
BBX 2 5 0 -1
BITMAP
40
40
40
80
80
ENDCHAR
STARTCHAR E0BE
ENCODING 57534
SWIDTH 500 0
DWIDTH 2 0
BBX 2 5 0 -1
BITMAP
C0
40
40
40
40
ENDCHAR
STARTCHAR E0BF
ENCODING 57535
SWIDTH 500 0
DWIDTH 2 0
BBX 2 5 0 -1
BITMAP
80
80
40
40
40
ENDCHAR
STARTCHAR E0C0
ENCODING 57536
SWIDTH 500 0
DWIDTH 2 0
BBX 5 5 0 -1
BITMAP
C0
F8
C0
F0
80
ENDCHAR
STARTCHAR E0C1
ENCODING 57537
SWIDTH 500 0
DWIDTH 2 0
BBX 5 5 0 -1
BITMAP
E0
38
20
30
C0
ENDCHAR
STARTCHAR E0C2
ENCODING 57538
SWIDTH 500 0
DWIDTH 2 0
BBX 5 5 0 -1
BITMAP
38
F8
38
58
38
ENDCHAR
STARTCHAR E0C3
ENCODING 57539
SWIDTH 500 0
DWIDTH 2 0
BBX 5 5 0 -1
BITMAP
38
E0
20
60
18
ENDCHAR
STARTCHAR E0C4
ENCODING 57540
SWIDTH 500 0
DWIDTH 2 0
BBX 4 5 0 -1
BITMAP
60
60
60
B0
C0
ENDCHAR
STARTCHAR E0C5
ENCODING 57541
SWIDTH 500 0
DWIDTH 2 0
BBX 5 5 0 -1
BITMAP
D8
38
78
48
18
ENDCHAR
STARTCHAR E0C6
ENCODING 57542
SWIDTH 500 0
DWIDTH 2 0
BBX 4 5 0 -1
BITMAP
E0
40
B0
E0
D0
ENDCHAR
STARTCHAR E0C7
ENCODING 57543
SWIDTH 500 0
DWIDTH 2 0
BBX 4 5 1 -1
BITMAP
F0
60
50
B0
F0
ENDCHAR
STARTCHAR E0C8
ENCODING 57544
SWIDTH 500 0
DWIDTH 2 0
BBX 5 5 0 -1
BITMAP
C0
E0
C0
F8
E0
ENDCHAR
STARTCHAR E0CA
ENCODING 57546
SWIDTH 500 0
DWIDTH 2 0
BBX 5 5 0 -1
BITMAP
58
38
18
F8
38
ENDCHAR
STARTCHAR E0CC
ENCODING 57548
SWIDTH 500 0
DWIDTH 2 0
BBX 4 5 0 -1
BITMAP
C0
C0
30
90
C0
ENDCHAR
STARTCHAR E0CD
ENCODING 57549
SWIDTH 500 0
DWIDTH 2 0
BBX 5 5 0 -1
BITMAP
C0
D0
28
F0
C0
ENDCHAR
STARTCHAR E0CE
ENCODING 57550
SWIDTH 500 0
DWIDTH 2 0
BBX 5 5 0 -1
BITMAP
70
D0
38
D0
70
ENDCHAR
STARTCHAR E0CF
ENCODING 57551
SWIDTH 500 0
DWIDTH 2 0
BBX 4 5 0 -1
BITMAP
20
F0
B0
F0
60
ENDCHAR
STARTCHAR E0D0
ENCODING 57552
SWIDTH 500 0
DWIDTH 2 0
BBX 3 3 0 0
BITMAP
E0
00
E0
ENDCHAR
STARTCHAR E0D1
ENCODING 57553
SWIDTH 500 0
DWIDTH 2 0
BBX 4 5 0 -1
BITMAP
E0
F0
E0
F0
E0
ENDCHAR
STARTCHAR E0D2
ENCODING 57554
SWIDTH 500 0
DWIDTH 2 0
BBX 2 5 0 -1
BITMAP
C0
80
00
80
C0
ENDCHAR
STARTCHAR E0D4
ENCODING 57556
SWIDTH 500 0
DWIDTH 2 0
BBX 2 5 0 -1
BITMAP
C0
40
00
40
C0
ENDCHAR
STARTCHAR E200
ENCODING 57856
SWIDTH 500 0
DWIDTH 2 0
BBX 2 3 0 0
BITMAP
40
80
40
ENDCHAR
STARTCHAR E201
ENCODING 57857
SWIDTH 500 0
DWIDTH 2 0
BBX 4 3 0 0
BITMAP
60
F0
20
ENDCHAR
STARTCHAR E202
ENCODING 57858
SWIDTH 500 0
DWIDTH 2 0
BBX 1 3 1 0
BITMAP
80
80
80
ENDCHAR
STARTCHAR E203
ENCODING 57859
SWIDTH 500 0
DWIDTH 2 0
BBX 4 2 0 0
BITMAP
F0
F0
ENDCHAR
STARTCHAR E204
ENCODING 57860
SWIDTH 500 0
DWIDTH 2 0
BBX 4 3 0 0
BITMAP
40
F0
F0
ENDCHAR
STARTCHAR E205
ENCODING 57861
SWIDTH 500 0
DWIDTH 2 0
BBX 3 3 0 0
BITMAP
80
40
20
ENDCHAR
STARTCHAR E206
ENCODING 57862
SWIDTH 500 0
DWIDTH 2 0
BBX 4 3 0 0
BITMAP
F0
90
F0
ENDCHAR
STARTCHAR E207
ENCODING 57863
SWIDTH 500 0
DWIDTH 2 0
BBX 3 3 0 0
BITMAP
E0
60
C0
ENDCHAR
STARTCHAR E208
ENCODING 57864
SWIDTH 500 0
DWIDTH 2 0
BBX 4 3 0 0
BITMAP
70
E0
40
ENDCHAR
STARTCHAR E209
ENCODING 57865
SWIDTH 500 0
DWIDTH 2 0
BBX 4 3 0 0
BITMAP
E0
50
60
ENDCHAR
STARTCHAR E20A
ENCODING 57866
SWIDTH 500 0
DWIDTH 2 0
BBX 1 3 1 0
BITMAP
80
80
80
ENDCHAR
STARTCHAR E20B
ENCODING 57867
SWIDTH 500 0
DWIDTH 2 0
BBX 1 3 1 0
BITMAP
80
80
80
ENDCHAR
STARTCHAR E20C
ENCODING 57868
SWIDTH 500 0
DWIDTH 2 0
BBX 1 3 1 0
BITMAP
80
80
80
ENDCHAR
STARTCHAR E20D
ENCODING 57869
SWIDTH 500 0
DWIDTH 2 0
BBX 4 3 0 0
BITMAP
B0
40
B0
ENDCHAR
STARTCHAR E20E
ENCODING 57870
SWIDTH 500 0
DWIDTH 2 0
BBX 3 3 0 0
BITMAP
40
E0
40
ENDCHAR
STARTCHAR E20F
ENCODING 57871
SWIDTH 500 0
DWIDTH 2 0
BBX 4 3 0 0
BITMAP
D0
60
F0
ENDCHAR
STARTCHAR E210
ENCODING 57872
SWIDTH 500 0
DWIDTH 2 0
BBX 3 3 0 -1
BITMAP
E0
E0
A0
ENDCHAR
STARTCHAR E211
ENCODING 57873
SWIDTH 500 0
DWIDTH 2 0
BBX 4 3 0 0
BITMAP
B0
40
40
ENDCHAR
STARTCHAR E212
ENCODING 57874
SWIDTH 500 0
DWIDTH 2 0
BBX 4 3 0 0
BITMAP
F0
F0
F0
ENDCHAR
STARTCHAR E213
ENCODING 57875
SWIDTH 500 0
DWIDTH 2 0
BBX 2 3 0 0
BITMAP
40
C0
C0
ENDCHAR
STARTCHAR E214
ENCODING 57876
SWIDTH 500 0
DWIDTH 2 0
BBX 4 3 0 -1
BITMAP
60
F0
60
ENDCHAR
STARTCHAR E215
ENCODING 57877
SWIDTH 500 0
DWIDTH 2 0
BBX 4 3 0 0
BITMAP
E0
D0
F0
ENDCHAR
STARTCHAR E216
ENCODING 57878
SWIDTH 500 0
DWIDTH 2 0
BBX 2 3 0 0
BITMAP
40
40
80
ENDCHAR
STARTCHAR E217
ENCODING 57879
SWIDTH 500 0
DWIDTH 2 0
BBX 4 3 0 0
BITMAP
30
F0
60
ENDCHAR
STARTCHAR E218
ENCODING 57880
SWIDTH 500 0
DWIDTH 2 0
BBX 4 3 0 0
BITMAP
F0
60
60
ENDCHAR
STARTCHAR E219
ENCODING 57881
SWIDTH 500 0
DWIDTH 2 0
BBX 4 3 0 0
BITMAP
40
F0
F0
ENDCHAR
STARTCHAR E21A
ENCODING 57882
SWIDTH 500 0
DWIDTH 2 0
BBX 4 3 0 0
BITMAP
C0
40
70
ENDCHAR
STARTCHAR E21B
ENCODING 57883
SWIDTH 500 0
DWIDTH 2 0
BBX 4 3 0 0
BITMAP
80
C0
F0
ENDCHAR
STARTCHAR E21C
ENCODING 57884
SWIDTH 500 0
DWIDTH 2 0
BBX 3 3 0 0
BITMAP
E0
E0
40
ENDCHAR
STARTCHAR E21D
ENCODING 57885
SWIDTH 500 0
DWIDTH 2 0
BBX 4 3 0 0
BITMAP
40
E0
F0
ENDCHAR
STARTCHAR E21E
ENCODING 57886
SWIDTH 500 0
DWIDTH 2 0
BBX 4 3 0 0
BITMAP
E0
B0
60
ENDCHAR
STARTCHAR E21F
ENCODING 57887
SWIDTH 500 0
DWIDTH 2 0
BBX 4 3 0 0
BITMAP
30
60
C0
ENDCHAR
STARTCHAR E220
ENCODING 57888
SWIDTH 500 0
DWIDTH 2 0
BBX 4 3 0 0
BITMAP
60
B0
40
ENDCHAR
STARTCHAR E221
ENCODING 57889
SWIDTH 500 0
DWIDTH 2 0
BBX 2 3 0 0
BITMAP
C0
C0
C0
ENDCHAR
STARTCHAR E222
ENCODING 57890
SWIDTH 500 0
DWIDTH 2 0
BBX 3 3 0 0
BITMAP
40
C0
E0
ENDCHAR
STARTCHAR E223
ENCODING 57891
SWIDTH 500 0
DWIDTH 2 0
BBX 2 3 0 0
BITMAP
40
C0
40
ENDCHAR
STARTCHAR E224
ENCODING 57892
SWIDTH 500 0
DWIDTH 2 0
BBX 4 1 0 1
BITMAP
F0
ENDCHAR
STARTCHAR E225
ENCODING 57893
SWIDTH 500 0
DWIDTH 2 0
BBX 4 3 0 0
BITMAP
40
60
D0
ENDCHAR
STARTCHAR E226
ENCODING 57894
SWIDTH 500 0
DWIDTH 2 0
BBX 4 3 0 0
BITMAP
80
E0
F0
ENDCHAR
STARTCHAR E227
ENCODING 57895
SWIDTH 500 0
DWIDTH 2 0
BBX 4 3 0 0
BITMAP
F0
E0
60
ENDCHAR
STARTCHAR E228
ENCODING 57896
SWIDTH 500 0
DWIDTH 2 0
BBX 4 1 0 1
BITMAP
F0
ENDCHAR
STARTCHAR E229
ENCODING 57897
SWIDTH 500 0
DWIDTH 2 0
BBX 4 3 0 0
BITMAP
20
90
60
ENDCHAR
STARTCHAR E22A
ENCODING 57898
SWIDTH 500 0
DWIDTH 2 0
BBX 4 1 0 1
BITMAP
F0
ENDCHAR
STARTCHAR E22B
ENCODING 57899
SWIDTH 500 0
DWIDTH 2 0
BBX 4 3 0 0
BITMAP
F0
F0
C0
ENDCHAR
STARTCHAR E22C
ENCODING 57900
SWIDTH 500 0
DWIDTH 2 0
BBX 4 3 0 0
BITMAP
F0
60
70
ENDCHAR
STARTCHAR E22D
ENCODING 57901
SWIDTH 500 0
DWIDTH 2 0
BBX 4 3 0 0
BITMAP
60
B0
F0
ENDCHAR
STARTCHAR E22E
ENCODING 57902
SWIDTH 500 0
DWIDTH 2 0
BBX 4 3 0 0
BITMAP
40
F0
60
ENDCHAR
STARTCHAR E22F
ENCODING 57903
SWIDTH 500 0
DWIDTH 2 0
BBX 4 3 0 0
BITMAP
D0
60
20
ENDCHAR
STARTCHAR E230
ENCODING 57904
SWIDTH 500 0
DWIDTH 2 0
BBX 4 3 0 0
BITMAP
60
60
F0
ENDCHAR
STARTCHAR E231
ENCODING 57905
SWIDTH 500 0
DWIDTH 2 0
BBX 3 4 0 -1
BITMAP
60
E0
60
80
ENDCHAR
STARTCHAR E232
ENCODING 57906
SWIDTH 500 0
DWIDTH 2 0
BBX 4 3 0 0
BITMAP
E0
70
F0
ENDCHAR
STARTCHAR E233
ENCODING 57907
SWIDTH 500 0
DWIDTH 2 0
BBX 2 3 0 0
BITMAP
C0
C0
40
ENDCHAR
STARTCHAR E234
ENCODING 57908
SWIDTH 500 0
DWIDTH 2 0
BBX 4 3 0 0
BITMAP
40
F0
60
ENDCHAR
STARTCHAR E235
ENCODING 57909
SWIDTH 500 0
DWIDTH 2 0
BBX 4 4 0 -1
BITMAP
60
90
60
20
ENDCHAR
STARTCHAR E236
ENCODING 57910
SWIDTH 500 0
DWIDTH 2 0
BBX 4 3 0 0
BITMAP
F0
F0
F0
ENDCHAR
STARTCHAR E237
ENCODING 57911
SWIDTH 500 0
DWIDTH 2 0
BBX 4 3 0 0
BITMAP
F0
D0
F0
ENDCHAR
STARTCHAR E238
ENCODING 57912
SWIDTH 500 0
DWIDTH 2 0
BBX 4 3 0 0
BITMAP
B0
40
60
ENDCHAR
STARTCHAR E239
ENCODING 57913
SWIDTH 500 0
DWIDTH 2 0
BBX 4 3 0 0
BITMAP
60
F0
E0
ENDCHAR
STARTCHAR E23A
ENCODING 57914
SWIDTH 500 0
DWIDTH 2 0
BBX 3 3 0 0
BITMAP
40
E0
C0
ENDCHAR
STARTCHAR E23B
ENCODING 57915
SWIDTH 500 0
DWIDTH 2 0
BBX 2 3 0 0
BITMAP
C0
C0
C0
ENDCHAR
STARTCHAR E23C
ENCODING 57916
SWIDTH 500 0
DWIDTH 2 0
BBX 4 3 0 0
BITMAP
F0
90
F0
ENDCHAR
STARTCHAR E23D
ENCODING 57917
SWIDTH 500 0
DWIDTH 2 0
BBX 3 3 0 0
BITMAP
40
A0
E0
ENDCHAR
STARTCHAR E23E
ENCODING 57918
SWIDTH 500 0
DWIDTH 2 0
BBX 4 3 0 0
BITMAP
E0
F0
60
ENDCHAR
STARTCHAR E23F
ENCODING 57919
SWIDTH 500 0
DWIDTH 2 0
BBX 3 3 0 1
BITMAP
E0
E0
E0
ENDCHAR
STARTCHAR E240
ENCODING 57920
SWIDTH 500 0
DWIDTH 2 0
BBX 4 3 0 0
BITMAP
F0
F0
F0
ENDCHAR
STARTCHAR E241
ENCODING 57921
SWIDTH 500 0
DWIDTH 2 0
BBX 4 3 0 0
BITMAP
B0
A0
60
ENDCHAR
STARTCHAR E242
ENCODING 57922
SWIDTH 500 0
DWIDTH 2 0
BBX 4 3 0 0
BITMAP
D0
F0
F0
ENDCHAR
STARTCHAR E243
ENCODING 57923
SWIDTH 500 0
DWIDTH 2 0
BBX 4 1 0 1
BITMAP
F0
ENDCHAR
STARTCHAR E244
ENCODING 57924
SWIDTH 500 0
DWIDTH 2 0
BBX 4 3 0 0
BITMAP
F0
B0
F0
ENDCHAR
STARTCHAR E245
ENCODING 57925
SWIDTH 500 0
DWIDTH 2 0
BBX 4 2 0 1
BITMAP
F0
A0
ENDCHAR
STARTCHAR E246
ENCODING 57926
SWIDTH 500 0
DWIDTH 2 0
BBX 4 3 0 0
BITMAP
60
E0
F0
ENDCHAR
STARTCHAR E247
ENCODING 57927
SWIDTH 500 0
DWIDTH 2 0
BBX 4 3 0 0
BITMAP
C0
F0
C0
ENDCHAR
STARTCHAR E248
ENCODING 57928
SWIDTH 500 0
DWIDTH 2 0
BBX 4 3 0 0
BITMAP
60
F0
60
ENDCHAR
STARTCHAR E249
ENCODING 57929
SWIDTH 500 0
DWIDTH 2 0
BBX 4 3 0 0
BITMAP
E0
B0
F0
ENDCHAR
STARTCHAR E24A
ENCODING 57930
SWIDTH 500 0
DWIDTH 2 0
BBX 2 3 0 0
BITMAP
40
40
C0
ENDCHAR
STARTCHAR E24B
ENCODING 57931
SWIDTH 500 0
DWIDTH 2 0
BBX 3 3 0 0
BITMAP
E0
A0
20
ENDCHAR
STARTCHAR E24C
ENCODING 57932
SWIDTH 500 0
DWIDTH 2 0
BBX 4 3 0 0
BITMAP
90
F0
90
ENDCHAR
STARTCHAR E24D
ENCODING 57933
SWIDTH 500 0
DWIDTH 2 0
BBX 4 3 0 0
BITMAP
60
90
F0
ENDCHAR
STARTCHAR E24E
ENCODING 57934
SWIDTH 500 0
DWIDTH 2 0
BBX 4 1 0 1
BITMAP
F0
ENDCHAR
STARTCHAR E24F
ENCODING 57935
SWIDTH 500 0
DWIDTH 2 0
BBX 3 4 0 -1
BITMAP
E0
E0
E0
40
ENDCHAR
STARTCHAR E250
ENCODING 57936
SWIDTH 500 0
DWIDTH 2 0
BBX 4 3 0 0
BITMAP
80
C0
B0
ENDCHAR
STARTCHAR E251
ENCODING 57937
SWIDTH 500 0
DWIDTH 2 0
BBX 4 3 0 0
BITMAP
C0
E0
70
ENDCHAR
STARTCHAR E252
ENCODING 57938
SWIDTH 500 0
DWIDTH 2 0
BBX 2 3 0 0
BITMAP
40
C0
40
ENDCHAR
STARTCHAR E253
ENCODING 57939
SWIDTH 500 0
DWIDTH 2 0
BBX 4 3 0 0
BITMAP
F0
D0
F0
ENDCHAR
STARTCHAR E254
ENCODING 57940
SWIDTH 500 0
DWIDTH 2 0
BBX 4 1 0 1
BITMAP
F0
ENDCHAR
STARTCHAR E255
ENCODING 57941
SWIDTH 500 0
DWIDTH 2 0
BBX 4 1 0 1
BITMAP
F0
ENDCHAR
STARTCHAR E256
ENCODING 57942
SWIDTH 500 0
DWIDTH 2 0
BBX 3 4 0 -1
BITMAP
40
C0
20
E0
ENDCHAR
STARTCHAR E257
ENCODING 57943
SWIDTH 500 0
DWIDTH 2 0
BBX 4 3 0 0
BITMAP
60
D0
E0
ENDCHAR
STARTCHAR E258
ENCODING 57944
SWIDTH 500 0
DWIDTH 2 0
BBX 4 3 0 0
BITMAP
60
90
60
ENDCHAR
STARTCHAR E259
ENCODING 57945
SWIDTH 500 0
DWIDTH 2 0
BBX 1 3 1 0
BITMAP
80
80
80
ENDCHAR
STARTCHAR E25A
ENCODING 57946
SWIDTH 500 0
DWIDTH 2 0
BBX 4 3 0 0
BITMAP
70
E0
80
ENDCHAR
STARTCHAR E25B
ENCODING 57947
SWIDTH 500 0
DWIDTH 2 0
BBX 4 3 0 0
BITMAP
60
F0
F0
ENDCHAR
STARTCHAR E25C
ENCODING 57948
SWIDTH 500 0
DWIDTH 2 0
BBX 2 3 0 0
BITMAP
C0
C0
C0
ENDCHAR
STARTCHAR E25D
ENCODING 57949
SWIDTH 500 0
DWIDTH 2 0
BBX 4 3 0 0
BITMAP
F0
90
F0
ENDCHAR
STARTCHAR E25E
ENCODING 57950
SWIDTH 500 0
DWIDTH 2 0
BBX 4 3 0 0
BITMAP
F0
F0
F0
ENDCHAR
STARTCHAR E25F
ENCODING 57951
SWIDTH 500 0
DWIDTH 2 0
BBX 2 3 0 0
BITMAP
C0
C0
C0
ENDCHAR
STARTCHAR E260
ENCODING 57952
SWIDTH 500 0
DWIDTH 2 0
BBX 1 3 1 0
BITMAP
80
80
80
ENDCHAR
STARTCHAR E261
ENCODING 57953
SWIDTH 500 0
DWIDTH 2 0
BBX 2 3 0 0
BITMAP
40
40
C0
ENDCHAR
STARTCHAR E262
ENCODING 57954
SWIDTH 500 0
DWIDTH 2 0
BBX 2 3 0 0
BITMAP
40
40
C0
ENDCHAR
STARTCHAR E263
ENCODING 57955
SWIDTH 500 0
DWIDTH 2 0
BBX 2 3 0 0
BITMAP
C0
40
C0
ENDCHAR
STARTCHAR E264
ENCODING 57956
SWIDTH 500 0
DWIDTH 2 0
BBX 4 3 0 0
BITMAP
20
F0
F0
ENDCHAR
STARTCHAR E265
ENCODING 57957
SWIDTH 500 0
DWIDTH 2 0
BBX 3 3 0 0
BITMAP
20
60
C0
ENDCHAR
STARTCHAR E266
ENCODING 57958
SWIDTH 500 0
DWIDTH 2 0
BBX 4 3 0 0
BITMAP
F0
60
F0
ENDCHAR
STARTCHAR E267
ENCODING 57959
SWIDTH 500 0
DWIDTH 2 0
BBX 4 3 0 0
BITMAP
60
60
F0
ENDCHAR
STARTCHAR E268
ENCODING 57960
SWIDTH 500 0
DWIDTH 2 0
BBX 4 3 0 0
BITMAP
40
70
E0
ENDCHAR
STARTCHAR E269
ENCODING 57961
SWIDTH 500 0
DWIDTH 2 0
BBX 3 4 0 -1
BITMAP
40
E0
60
E0
ENDCHAR
STARTCHAR E26A
ENCODING 57962
SWIDTH 500 0
DWIDTH 2 0
BBX 4 3 0 0
BITMAP
F0
F0
40
ENDCHAR
STARTCHAR E26B
ENCODING 57963
SWIDTH 500 0
DWIDTH 2 0
BBX 4 1 0 1
BITMAP
F0
ENDCHAR
STARTCHAR E26C
ENCODING 57964
SWIDTH 500 0
DWIDTH 2 0
BBX 4 3 0 0
BITMAP
30
60
80
ENDCHAR
STARTCHAR E26D
ENCODING 57965
SWIDTH 500 0
DWIDTH 2 0
BBX 3 3 0 0
BITMAP
80
60
60
ENDCHAR
STARTCHAR E26E
ENCODING 57966
SWIDTH 500 0
DWIDTH 2 0
BBX 4 3 0 0
BITMAP
40
F0
60
ENDCHAR
STARTCHAR E26F
ENCODING 57967
SWIDTH 500 0
DWIDTH 2 0
BBX 3 3 0 0
BITMAP
E0
00
E0
ENDCHAR
STARTCHAR E270
ENCODING 57968
SWIDTH 500 0
DWIDTH 2 0
BBX 4 3 0 0
BITMAP
F0
F0
F0
ENDCHAR
STARTCHAR E271
ENCODING 57969
SWIDTH 500 0
DWIDTH 2 0
BBX 4 3 0 0
BITMAP
F0
D0
F0
ENDCHAR
STARTCHAR E272
ENCODING 57970
SWIDTH 500 0
DWIDTH 2 0
BBX 2 3 0 0
BITMAP
C0
40
C0
ENDCHAR
STARTCHAR E273
ENCODING 57971
SWIDTH 500 0
DWIDTH 2 0
BBX 4 3 0 0
BITMAP
F0
F0
F0
ENDCHAR
STARTCHAR E274
ENCODING 57972
SWIDTH 500 0
DWIDTH 2 0
BBX 2 3 0 0
BITMAP
40
40
C0
ENDCHAR
STARTCHAR E275
ENCODING 57973
SWIDTH 500 0
DWIDTH 2 0
BBX 3 3 0 -1
BITMAP
40
C0
E0
ENDCHAR
STARTCHAR E276
ENCODING 57974
SWIDTH 500 0
DWIDTH 2 0
BBX 4 3 0 0
BITMAP
F0
F0
F0
ENDCHAR
STARTCHAR E277
ENCODING 57975
SWIDTH 500 0
DWIDTH 2 0
BBX 4 3 0 0
BITMAP
E0
F0
F0
ENDCHAR
STARTCHAR E278
ENCODING 57976
SWIDTH 500 0
DWIDTH 2 0
BBX 3 3 0 0
BITMAP
E0
A0
E0
ENDCHAR
STARTCHAR E279
ENCODING 57977
SWIDTH 500 0
DWIDTH 2 0
BBX 4 3 0 0
BITMAP
F0
00
F0
ENDCHAR
STARTCHAR E27A
ENCODING 57978
SWIDTH 500 0
DWIDTH 2 0
BBX 4 3 0 0
BITMAP
20
D0
E0
ENDCHAR
STARTCHAR E27B
ENCODING 57979
SWIDTH 500 0
DWIDTH 2 0
BBX 4 3 0 0
BITMAP
60
B0
60
ENDCHAR
STARTCHAR E27C
ENCODING 57980
SWIDTH 500 0
DWIDTH 2 0
BBX 4 4 0 -1
BITMAP
E0
E0
D0
E0
ENDCHAR
STARTCHAR E27D
ENCODING 57981
SWIDTH 500 0
DWIDTH 2 0
BBX 4 3 0 0
BITMAP
E0
E0
F0
ENDCHAR
STARTCHAR E27E
ENCODING 57982
SWIDTH 500 0
DWIDTH 2 0
BBX 4 3 0 0
BITMAP
60
E0
10
ENDCHAR
STARTCHAR E27F
ENCODING 57983
SWIDTH 500 0
DWIDTH 2 0
BBX 4 3 0 0
BITMAP
F0
F0
F0
ENDCHAR
STARTCHAR E280
ENCODING 57984
SWIDTH 500 0
DWIDTH 2 0
BBX 3 3 0 0
BITMAP
C0
E0
60
ENDCHAR
STARTCHAR E281
ENCODING 57985
SWIDTH 500 0
DWIDTH 2 0
BBX 4 3 0 0
BITMAP
10
F0
60
ENDCHAR
STARTCHAR E282
ENCODING 57986
SWIDTH 500 0
DWIDTH 2 0
BBX 4 3 0 0
BITMAP
20
F0
E0
ENDCHAR
STARTCHAR E283
ENCODING 57987
SWIDTH 500 0
DWIDTH 2 0
BBX 4 3 0 0
BITMAP
F0
F0
F0
ENDCHAR
STARTCHAR E284
ENCODING 57988
SWIDTH 500 0
DWIDTH 2 0
BBX 4 4 0 -1
BITMAP
E0
90
A0
40
ENDCHAR
STARTCHAR E285
ENCODING 57989
SWIDTH 500 0
DWIDTH 2 0
BBX 2 3 0 0
BITMAP
80
40
C0
ENDCHAR
STARTCHAR E286
ENCODING 57990
SWIDTH 500 0
DWIDTH 2 0
BBX 4 3 0 0
BITMAP
E0
F0
E0
ENDCHAR
STARTCHAR E287
ENCODING 57991
SWIDTH 500 0
DWIDTH 2 0
BBX 4 3 0 0
BITMAP
E0
D0
F0
ENDCHAR
STARTCHAR E288
ENCODING 57992
SWIDTH 500 0
DWIDTH 2 0
BBX 4 3 0 0
BITMAP
F0
90
F0
ENDCHAR
STARTCHAR E289
ENCODING 57993
SWIDTH 500 0
DWIDTH 2 0
BBX 4 3 0 0
BITMAP
40
F0
E0
ENDCHAR
STARTCHAR E28A
ENCODING 57994
SWIDTH 500 0
DWIDTH 2 0
BBX 4 3 0 0
BITMAP
F0
F0
F0
ENDCHAR
STARTCHAR E28B
ENCODING 57995
SWIDTH 500 0
DWIDTH 2 0
BBX 4 3 0 0
BITMAP
F0
D0
F0
ENDCHAR
STARTCHAR E28C
ENCODING 57996
SWIDTH 500 0
DWIDTH 2 0
BBX 4 3 0 0
BITMAP
E0
F0
20
ENDCHAR
STARTCHAR E28D
ENCODING 57997
SWIDTH 500 0
DWIDTH 2 0
BBX 4 3 0 0
BITMAP
60
90
60
ENDCHAR
STARTCHAR E28E
ENCODING 57998
SWIDTH 500 0
DWIDTH 2 0
BBX 4 3 0 0
BITMAP
F0
F0
E0
ENDCHAR
STARTCHAR E28F
ENCODING 57999
SWIDTH 500 0
DWIDTH 2 0
BBX 4 3 0 -1
BITMAP
30
40
80
ENDCHAR
STARTCHAR E290
ENCODING 58000
SWIDTH 500 0
DWIDTH 2 0
BBX 4 3 0 0
BITMAP
F0
D0
F0
ENDCHAR
STARTCHAR E291
ENCODING 58001
SWIDTH 500 0
DWIDTH 2 0
BBX 4 3 0 0
BITMAP
F0
F0
F0
ENDCHAR
STARTCHAR E292
ENCODING 58002
SWIDTH 500 0
DWIDTH 2 0
BBX 4 3 0 0
BITMAP
F0
D0
F0
ENDCHAR
STARTCHAR E293
ENCODING 58003
SWIDTH 500 0
DWIDTH 2 0
BBX 4 3 0 0
BITMAP
F0
D0
F0
ENDCHAR
STARTCHAR E294
ENCODING 58004
SWIDTH 500 0
DWIDTH 2 0
BBX 4 3 0 0
BITMAP
F0
D0
F0
ENDCHAR
STARTCHAR E295
ENCODING 58005
SWIDTH 500 0
DWIDTH 2 0
BBX 4 3 0 0
BITMAP
F0
F0
F0
ENDCHAR
STARTCHAR E296
ENCODING 58006
SWIDTH 500 0
DWIDTH 2 0
BBX 4 3 0 0
BITMAP
F0
F0
F0
ENDCHAR
STARTCHAR E297
ENCODING 58007
SWIDTH 500 0
DWIDTH 2 0
BBX 4 3 0 0
BITMAP
F0
F0
F0
ENDCHAR
STARTCHAR E298
ENCODING 58008
SWIDTH 500 0
DWIDTH 2 0
BBX 4 3 0 0
BITMAP
F0
F0
F0
ENDCHAR
STARTCHAR E299
ENCODING 58009
SWIDTH 500 0
DWIDTH 2 0
BBX 4 3 0 0
BITMAP
F0
F0
F0
ENDCHAR
STARTCHAR E29A
ENCODING 58010
SWIDTH 500 0
DWIDTH 2 0
BBX 3 3 0 0
BITMAP
E0
A0
E0
ENDCHAR
STARTCHAR E29B
ENCODING 58011
SWIDTH 500 0
DWIDTH 2 0
BBX 3 3 0 0
BITMAP
60
40
E0
ENDCHAR
STARTCHAR E29C
ENCODING 58012
SWIDTH 500 0
DWIDTH 2 0
BBX 2 3 0 0
BITMAP
40
40
C0
ENDCHAR
STARTCHAR E29D
ENCODING 58013
SWIDTH 500 0
DWIDTH 2 0
BBX 4 3 0 0
BITMAP
E0
D0
F0
ENDCHAR
STARTCHAR E29E
ENCODING 58014
SWIDTH 500 0
DWIDTH 2 0
BBX 3 3 0 -1
BITMAP
60
E0
E0
ENDCHAR
STARTCHAR E29F
ENCODING 58015
SWIDTH 500 0
DWIDTH 2 0
BBX 4 3 0 0
BITMAP
30
60
80
ENDCHAR
STARTCHAR E2A0
ENCODING 58016
SWIDTH 500 0
DWIDTH 2 0
BBX 4 3 0 0
BITMAP
F0
D0
F0
ENDCHAR
STARTCHAR E2A1
ENCODING 58017
SWIDTH 500 0
DWIDTH 2 0
BBX 1 3 1 0
BITMAP
80
80
80
ENDCHAR
STARTCHAR E2A2
ENCODING 58018
SWIDTH 500 0
DWIDTH 2 0
BBX 3 3 0 0
BITMAP
E0
60
E0
ENDCHAR
STARTCHAR E2A3
ENCODING 58019
SWIDTH 500 0
DWIDTH 2 0
BBX 2 3 0 0
BITMAP
C0
C0
40
ENDCHAR
STARTCHAR E2A4
ENCODING 58020
SWIDTH 500 0
DWIDTH 2 0
BBX 4 3 0 0
BITMAP
F0
D0
F0
ENDCHAR
STARTCHAR E2A5
ENCODING 58021
SWIDTH 500 0
DWIDTH 2 0
BBX 4 3 0 0
BITMAP
70
A0
C0
ENDCHAR
STARTCHAR E2A6
ENCODING 58022
SWIDTH 500 0
DWIDTH 2 0
BBX 4 2 0 0
BITMAP
60
F0
ENDCHAR
STARTCHAR E2A7
ENCODING 58023
SWIDTH 500 0
DWIDTH 2 0
BBX 2 3 0 0
BITMAP
C0
C0
C0
ENDCHAR
STARTCHAR E2A8
ENCODING 58024
SWIDTH 500 0
DWIDTH 2 0
BBX 3 3 0 0
BITMAP
C0
E0
E0
ENDCHAR
STARTCHAR E2A9
ENCODING 58025
SWIDTH 500 0
DWIDTH 2 0
BBX 2 3 0 0
BITMAP
C0
40
C0
ENDCHAR
STARTCHAR E300
ENCODING 58112
SWIDTH 500 0
DWIDTH 2 0
BBX 5 4 0 0
BITMAP
10
30
D8
F0
ENDCHAR
STARTCHAR E301
ENCODING 58113
SWIDTH 500 0
DWIDTH 2 0
BBX 5 4 0 0
BITMAP
10
70
98
F0
ENDCHAR
STARTCHAR E302
ENCODING 58114
SWIDTH 500 0
DWIDTH 2 0
BBX 4 4 0 0
BITMAP
20
70
90
E0
ENDCHAR
STARTCHAR E303
ENCODING 58115
SWIDTH 500 0
DWIDTH 2 0
BBX 5 4 0 0
BITMAP
10
70
98
F0
ENDCHAR
STARTCHAR E304
ENCODING 58116
SWIDTH 500 0
DWIDTH 2 0
BBX 4 5 0 -1
BITMAP
20
70
90
E0
40
ENDCHAR
STARTCHAR E305
ENCODING 58117
SWIDTH 500 0
DWIDTH 2 0
BBX 4 5 0 -1
BITMAP
20
70
90
E0
40
ENDCHAR
STARTCHAR E306
ENCODING 58118
SWIDTH 500 0
DWIDTH 2 0
BBX 4 5 0 -1
BITMAP
20
70
90
E0
40
ENDCHAR
STARTCHAR E307
ENCODING 58119
SWIDTH 500 0
DWIDTH 2 0
BBX 4 5 0 -1
BITMAP
20
70
90
E0
40
ENDCHAR
STARTCHAR E308
ENCODING 58120
SWIDTH 500 0
DWIDTH 2 0
BBX 4 5 0 -1
BITMAP
20
70
90
E0
40
ENDCHAR
STARTCHAR E309
ENCODING 58121
SWIDTH 500 0
DWIDTH 2 0
BBX 4 5 0 -1
BITMAP
20
70
90
E0
40
ENDCHAR
STARTCHAR E30A
ENCODING 58122
SWIDTH 500 0
DWIDTH 2 0
BBX 4 5 0 -1
BITMAP
20
70
90
A0
40
ENDCHAR
STARTCHAR E30B
ENCODING 58123
SWIDTH 500 0
DWIDTH 2 0
BBX 4 4 0 0
BITMAP
20
70
D0
E0
ENDCHAR
STARTCHAR E30C
ENCODING 58124
SWIDTH 500 0
DWIDTH 2 0
BBX 4 4 0 0
BITMAP
40
F0
D0
E0
ENDCHAR
STARTCHAR E30D
ENCODING 58125
SWIDTH 500 0
DWIDTH 2 0
BBX 3 3 0 0
BITMAP
E0
A0
E0
ENDCHAR
STARTCHAR E30E
ENCODING 58126
SWIDTH 500 0
DWIDTH 2 0
BBX 4 5 0 -1
BITMAP
20
70
90
E0
40
ENDCHAR
STARTCHAR E30F
ENCODING 58127
SWIDTH 500 0
DWIDTH 2 0
BBX 4 5 0 -1
BITMAP
20
70
90
E0
40
ENDCHAR
STARTCHAR E310
ENCODING 58128
SWIDTH 500 0
DWIDTH 2 0
BBX 4 3 0 0
BITMAP
60
D0
A0
ENDCHAR
STARTCHAR E311
ENCODING 58129
SWIDTH 500 0
DWIDTH 2 0
BBX 4 3 0 0
BITMAP
60
90
F0
ENDCHAR
STARTCHAR E312
ENCODING 58130
SWIDTH 500 0
DWIDTH 2 0
BBX 4 3 0 0
BITMAP
60
B0
E0
ENDCHAR
STARTCHAR E313
ENCODING 58131
SWIDTH 500 0
DWIDTH 2 0
BBX 4 3 0 0
BITMAP
60
90
F0
ENDCHAR
STARTCHAR E314
ENCODING 58132
SWIDTH 500 0
DWIDTH 2 0
BBX 3 4 0 -1
BITMAP
40
A0
E0
40
ENDCHAR
STARTCHAR E315
ENCODING 58133
SWIDTH 500 0
DWIDTH 2 0
BBX 2 3 0 0
BITMAP
40
C0
80
ENDCHAR
STARTCHAR E316
ENCODING 58134
SWIDTH 500 0
DWIDTH 2 0
BBX 3 4 0 -1
BITMAP
40
A0
E0
40
ENDCHAR
STARTCHAR E317
ENCODING 58135
SWIDTH 500 0
DWIDTH 2 0
BBX 3 4 0 -1
BITMAP
40
A0
E0
40
ENDCHAR
STARTCHAR E318
ENCODING 58136
SWIDTH 500 0
DWIDTH 2 0
BBX 3 4 0 -1
BITMAP
40
A0
E0
40
ENDCHAR
STARTCHAR E319
ENCODING 58137
SWIDTH 500 0
DWIDTH 2 0
BBX 3 4 0 -1
BITMAP
40
A0
E0
40
ENDCHAR
STARTCHAR E31A
ENCODING 58138
SWIDTH 500 0
DWIDTH 2 0
BBX 3 4 0 -1
BITMAP
40
A0
A0
40
ENDCHAR
STARTCHAR E31B
ENCODING 58139
SWIDTH 500 0
DWIDTH 2 0
BBX 3 3 0 0
BITMAP
40
E0
E0
ENDCHAR
STARTCHAR E31C
ENCODING 58140
SWIDTH 500 0
DWIDTH 2 0
BBX 3 4 0 -1
BITMAP
40
A0
E0
40
ENDCHAR
STARTCHAR E31D
ENCODING 58141
SWIDTH 500 0
DWIDTH 2 0
BBX 3 4 0 -1
BITMAP
40
A0
E0
40
ENDCHAR
STARTCHAR E31E
ENCODING 58142
SWIDTH 500 0
DWIDTH 2 0
BBX 3 1 0 1
BITMAP
E0
ENDCHAR
STARTCHAR E31F
ENCODING 58143
SWIDTH 500 0
DWIDTH 2 0
BBX 4 3 0 0
BITMAP
20
D0
F0
ENDCHAR
STARTCHAR E320
ENCODING 58144
SWIDTH 500 0
DWIDTH 2 0
BBX 4 3 0 0
BITMAP
70
90
F0
ENDCHAR
STARTCHAR E321
ENCODING 58145
SWIDTH 500 0
DWIDTH 2 0
BBX 4 4 0 -1
BITMAP
60
90
E0
40
ENDCHAR
STARTCHAR E322
ENCODING 58146
SWIDTH 500 0
DWIDTH 2 0
BBX 4 3 0 0
BITMAP
60
90
E0
ENDCHAR
STARTCHAR E323
ENCODING 58147
SWIDTH 500 0
DWIDTH 2 0
BBX 4 4 0 -1
BITMAP
60
90
E0
40
ENDCHAR
STARTCHAR E324
ENCODING 58148
SWIDTH 500 0
DWIDTH 2 0
BBX 4 4 0 -1
BITMAP
60
90
E0
40
ENDCHAR
STARTCHAR E325
ENCODING 58149
SWIDTH 500 0
DWIDTH 2 0
BBX 4 4 0 -1
BITMAP
60
90
E0
40
ENDCHAR
STARTCHAR E326
ENCODING 58150
SWIDTH 500 0
DWIDTH 2 0
BBX 4 4 0 -1
BITMAP
60
90
E0
40
ENDCHAR
STARTCHAR E327
ENCODING 58151
SWIDTH 500 0
DWIDTH 2 0
BBX 4 4 0 -1
BITMAP
60
90
A0
40
ENDCHAR
STARTCHAR E328
ENCODING 58152
SWIDTH 500 0
DWIDTH 2 0
BBX 4 3 0 0
BITMAP
60
D0
E0
ENDCHAR
STARTCHAR E329
ENCODING 58153
SWIDTH 500 0
DWIDTH 2 0
BBX 4 4 0 -1
BITMAP
60
90
E0
40
ENDCHAR
STARTCHAR E32A
ENCODING 58154
SWIDTH 500 0
DWIDTH 2 0
BBX 4 4 0 -1
BITMAP
60
90
E0
40
ENDCHAR
STARTCHAR E32B
ENCODING 58155
SWIDTH 500 0
DWIDTH 2 0
BBX 2 3 0 0
BITMAP
40
C0
40
ENDCHAR
STARTCHAR E32C
ENCODING 58156
SWIDTH 500 0
DWIDTH 2 0
BBX 4 3 0 0
BITMAP
30
D0
F0
ENDCHAR
STARTCHAR E32D
ENCODING 58157
SWIDTH 500 0
DWIDTH 2 0
BBX 4 3 0 0
BITMAP
70
90
F0
ENDCHAR
STARTCHAR E32E
ENCODING 58158
SWIDTH 500 0
DWIDTH 2 0
BBX 3 3 0 0
BITMAP
60
A0
E0
ENDCHAR
STARTCHAR E32F
ENCODING 58159
SWIDTH 500 0
DWIDTH 2 0
BBX 4 4 0 -1
BITMAP
60
90
E0
40
ENDCHAR
STARTCHAR E330
ENCODING 58160
SWIDTH 500 0
DWIDTH 2 0
BBX 3 3 0 0
BITMAP
60
A0
E0
ENDCHAR
STARTCHAR E331
ENCODING 58161
SWIDTH 500 0
DWIDTH 2 0
BBX 4 4 0 -1
BITMAP
60
90
E0
40
ENDCHAR
STARTCHAR E332
ENCODING 58162
SWIDTH 500 0
DWIDTH 2 0
BBX 4 4 0 -1
BITMAP
60
90
E0
40
ENDCHAR
STARTCHAR E333
ENCODING 58163
SWIDTH 500 0
DWIDTH 2 0
BBX 4 4 0 -1
BITMAP
60
90
E0
40
ENDCHAR
STARTCHAR E334
ENCODING 58164
SWIDTH 500 0
DWIDTH 2 0
BBX 4 4 0 -1
BITMAP
60
90
E0
40
ENDCHAR
STARTCHAR E335
ENCODING 58165
SWIDTH 500 0
DWIDTH 2 0
BBX 4 4 0 -1
BITMAP
60
90
A0
40
ENDCHAR
STARTCHAR E336
ENCODING 58166
SWIDTH 500 0
DWIDTH 2 0
BBX 4 3 0 0
BITMAP
60
D0
E0
ENDCHAR
STARTCHAR E337
ENCODING 58167
SWIDTH 500 0
DWIDTH 2 0
BBX 4 4 0 -1
BITMAP
60
90
E0
40
ENDCHAR
STARTCHAR E338
ENCODING 58168
SWIDTH 500 0
DWIDTH 2 0
BBX 3 4 0 -1
BITMAP
60
A0
E0
40
ENDCHAR
STARTCHAR E339
ENCODING 58169
SWIDTH 500 0
DWIDTH 2 0
BBX 2 2 0 0
BITMAP
C0
40
ENDCHAR
STARTCHAR E33A
ENCODING 58170
SWIDTH 500 0
DWIDTH 2 0
BBX 3 3 0 0
BITMAP
40
E0
E0
ENDCHAR
STARTCHAR E33B
ENCODING 58171
SWIDTH 500 0
DWIDTH 2 0
BBX 3 3 0 0
BITMAP
40
E0
E0
ENDCHAR
STARTCHAR E33C
ENCODING 58172
SWIDTH 500 0
DWIDTH 2 0
BBX 3 3 0 0
BITMAP
40
E0
E0
ENDCHAR
STARTCHAR E33D
ENCODING 58173
SWIDTH 500 0
DWIDTH 2 0
BBX 3 3 0 0
BITMAP
40
A0
E0
ENDCHAR
STARTCHAR E33E
ENCODING 58174
SWIDTH 500 0
DWIDTH 2 0
BBX 1 1 1 2
BITMAP
80
ENDCHAR
STARTCHAR E33F
ENCODING 58175
SWIDTH 500 0
DWIDTH 2 0
BBX 1 1 1 1
BITMAP
80
ENDCHAR
STARTCHAR E340
ENCODING 58176
SWIDTH 500 0
DWIDTH 2 0
BBX 1 3 1 0
BITMAP
80
80
80
ENDCHAR
STARTCHAR E341
ENCODING 58177
SWIDTH 500 0
DWIDTH 2 0
BBX 2 2 0 0
BITMAP
C0
40
ENDCHAR
STARTCHAR E342
ENCODING 58178
SWIDTH 500 0
DWIDTH 2 0
BBX 4 3 0 0
BITMAP
E0
70
E0
ENDCHAR
STARTCHAR E343
ENCODING 58179
SWIDTH 500 0
DWIDTH 2 0
BBX 3 2 0 0
BITMAP
E0
E0
ENDCHAR
STARTCHAR E344
ENCODING 58180
SWIDTH 500 0
DWIDTH 2 0
BBX 2 1 0 1
BITMAP
C0
ENDCHAR
STARTCHAR E345
ENCODING 58181
SWIDTH 500 0
DWIDTH 2 0
BBX 2 2 0 0
BITMAP
C0
40
ENDCHAR
STARTCHAR E346
ENCODING 58182
SWIDTH 500 0
DWIDTH 2 0
BBX 4 3 0 0
BITMAP
60
90
F0
ENDCHAR
STARTCHAR E347
ENCODING 58183
SWIDTH 500 0
DWIDTH 2 0
BBX 1 3 1 0
BITMAP
80
80
80
ENDCHAR
STARTCHAR E348
ENCODING 58184
SWIDTH 500 0
DWIDTH 2 0
BBX 2 3 0 0
BITMAP
40
80
C0
ENDCHAR
STARTCHAR E349
ENCODING 58185
SWIDTH 500 0
DWIDTH 2 0
BBX 2 1 0 1
BITMAP
C0
ENDCHAR
STARTCHAR E34A
ENCODING 58186
SWIDTH 500 0
DWIDTH 2 0
BBX 1 2 1 1
BITMAP
80
80
ENDCHAR
STARTCHAR E34B
ENCODING 58187
SWIDTH 500 0
DWIDTH 2 0
BBX 4 2 0 0
BITMAP
F0
20
ENDCHAR
STARTCHAR E34C
ENCODING 58188
SWIDTH 500 0
DWIDTH 2 0
BBX 4 3 0 0
BITMAP
90
F0
60
ENDCHAR
STARTCHAR E34D
ENCODING 58189
SWIDTH 500 0
DWIDTH 2 0
BBX 4 3 0 0
BITMAP
90
F0
60
ENDCHAR
STARTCHAR E34E
ENCODING 58190
SWIDTH 500 0
DWIDTH 2 0
BBX 2 5 0 -1
BITMAP
40
40
40
C0
C0
ENDCHAR
STARTCHAR E34F
ENCODING 58191
SWIDTH 500 0
DWIDTH 2 0
BBX 1 2 1 0
BITMAP
80
80
ENDCHAR
STARTCHAR E350
ENCODING 58192
SWIDTH 500 0
DWIDTH 2 0
BBX 2 5 0 -1
BITMAP
40
40
40
C0
C0
ENDCHAR
STARTCHAR E351
ENCODING 58193
SWIDTH 500 0
DWIDTH 2 0
BBX 2 3 0 0
BITMAP
40
C0
80
ENDCHAR
STARTCHAR E352
ENCODING 58194
SWIDTH 500 0
DWIDTH 2 0
BBX 1 1 1 1
BITMAP
80
ENDCHAR
STARTCHAR E353
ENCODING 58195
SWIDTH 500 0
DWIDTH 2 0
BBX 1 3 1 0
BITMAP
80
80
80
ENDCHAR
STARTCHAR E354
ENCODING 58196
SWIDTH 500 0
DWIDTH 2 0
BBX 3 3 0 0
BITMAP
E0
E0
E0
ENDCHAR
STARTCHAR E355
ENCODING 58197
SWIDTH 500 0
DWIDTH 2 0
BBX 3 3 0 0
BITMAP
E0
E0
E0
ENDCHAR
STARTCHAR E356
ENCODING 58198
SWIDTH 500 0
DWIDTH 2 0
BBX 3 3 0 0
BITMAP
E0
E0
E0
ENDCHAR
STARTCHAR E357
ENCODING 58199
SWIDTH 500 0
DWIDTH 2 0
BBX 3 3 0 0
BITMAP
E0
E0
E0
ENDCHAR
STARTCHAR E358
ENCODING 58200
SWIDTH 500 0
DWIDTH 2 0
BBX 3 3 0 0
BITMAP
E0
E0
E0
ENDCHAR
STARTCHAR E359
ENCODING 58201
SWIDTH 500 0
DWIDTH 2 0
BBX 3 3 0 0
BITMAP
E0
E0
E0
ENDCHAR
STARTCHAR E35A
ENCODING 58202
SWIDTH 500 0
DWIDTH 2 0
BBX 3 3 0 0
BITMAP
E0
E0
E0
ENDCHAR
STARTCHAR E35B
ENCODING 58203
SWIDTH 500 0
DWIDTH 2 0
BBX 3 3 0 0
BITMAP
E0
E0
E0
ENDCHAR
STARTCHAR E35C
ENCODING 58204
SWIDTH 500 0
DWIDTH 2 0
BBX 3 3 0 0
BITMAP
C0
A0
40
ENDCHAR
STARTCHAR E35D
ENCODING 58205
SWIDTH 500 0
DWIDTH 2 0
BBX 3 2 0 0
BITMAP
E0
C0
ENDCHAR
STARTCHAR E35E
ENCODING 58206
SWIDTH 500 0
DWIDTH 2 0
BBX 3 4 0 -1
BITMAP
40
A0
A0
40
ENDCHAR
STARTCHAR E35F
ENCODING 58207
SWIDTH 500 0
DWIDTH 2 0
BBX 4 5 0 -1
BITMAP
20
70
90
A0
40
ENDCHAR
STARTCHAR E360
ENCODING 58208
SWIDTH 500 0
DWIDTH 2 0
BBX 4 4 0 -1
BITMAP
60
90
A0
40
ENDCHAR
STARTCHAR E361
ENCODING 58209
SWIDTH 500 0
DWIDTH 2 0
BBX 4 4 0 -1
BITMAP
60
90
A0
40
ENDCHAR
STARTCHAR E362
ENCODING 58210
SWIDTH 500 0
DWIDTH 2 0
BBX 4 5 0 -1
BITMAP
20
70
90
E0
40
ENDCHAR
STARTCHAR E363
ENCODING 58211
SWIDTH 500 0
DWIDTH 2 0
BBX 4 4 0 -1
BITMAP
60
90
E0
40
ENDCHAR
STARTCHAR E364
ENCODING 58212
SWIDTH 500 0
DWIDTH 2 0
BBX 4 4 0 -1
BITMAP
60
90
E0
40
ENDCHAR
STARTCHAR E365
ENCODING 58213
SWIDTH 500 0
DWIDTH 2 0
BBX 4 5 0 -1
BITMAP
20
70
90
A0
C0
ENDCHAR
STARTCHAR E366
ENCODING 58214
SWIDTH 500 0
DWIDTH 2 0
BBX 4 4 0 -1
BITMAP
60
90
A0
C0
ENDCHAR
STARTCHAR E367
ENCODING 58215
SWIDTH 500 0
DWIDTH 2 0
BBX 4 4 0 -1
BITMAP
60
90
A0
C0
ENDCHAR
STARTCHAR E368
ENCODING 58216
SWIDTH 500 0
DWIDTH 2 0
BBX 4 5 0 -1
BITMAP
20
50
F0
30
20
ENDCHAR
STARTCHAR E369
ENCODING 58217
SWIDTH 500 0
DWIDTH 2 0
BBX 2 3 0 0
BITMAP
40
C0
40
ENDCHAR
STARTCHAR E36A
ENCODING 58218
SWIDTH 500 0
DWIDTH 2 0
BBX 3 3 0 0
BITMAP
60
40
C0
ENDCHAR
STARTCHAR E36B
ENCODING 58219
SWIDTH 500 0
DWIDTH 2 0
BBX 4 3 0 0
BITMAP
E0
B0
60
ENDCHAR
STARTCHAR E36C
ENCODING 58220
SWIDTH 500 0
DWIDTH 2 0
BBX 1 3 1 0
BITMAP
80
80
80
ENDCHAR
STARTCHAR E36D
ENCODING 58221
SWIDTH 500 0
DWIDTH 2 0
BBX 3 3 0 0
BITMAP
40
E0
40
ENDCHAR
STARTCHAR E36E
ENCODING 58222
SWIDTH 500 0
DWIDTH 2 0
BBX 2 3 0 0
BITMAP
C0
C0
40
ENDCHAR
STARTCHAR E36F
ENCODING 58223
SWIDTH 500 0
DWIDTH 2 0
BBX 2 2 0 0
BITMAP
40
C0
ENDCHAR
STARTCHAR E370
ENCODING 58224
SWIDTH 500 0
DWIDTH 2 0
BBX 3 3 0 0
BITMAP
40
A0
40
ENDCHAR
STARTCHAR E371
ENCODING 58225
SWIDTH 500 0
DWIDTH 2 0
BBX 2 3 0 0
BITMAP
40
C0
40
ENDCHAR
STARTCHAR E372
ENCODING 58226
SWIDTH 500 0
DWIDTH 2 0
BBX 2 3 0 0
BITMAP
C0
C0
40
ENDCHAR
STARTCHAR E373
ENCODING 58227
SWIDTH 500 0
DWIDTH 2 0
BBX 2 3 0 0
BITMAP
40
C0
C0
ENDCHAR
STARTCHAR E374
ENCODING 58228
SWIDTH 500 0
DWIDTH 2 0
BBX 3 1 0 1
BITMAP
E0
ENDCHAR
STARTCHAR E375
ENCODING 58229
SWIDTH 500 0
DWIDTH 2 0
BBX 3 3 0 0
BITMAP
40
40
E0
ENDCHAR
STARTCHAR E376
ENCODING 58230
SWIDTH 500 0
DWIDTH 2 0
BBX 4 3 0 0
BITMAP
C0
B0
60
ENDCHAR
STARTCHAR E377
ENCODING 58231
SWIDTH 500 0
DWIDTH 2 0
BBX 4 3 0 0
BITMAP
E0
90
70
ENDCHAR
STARTCHAR E378
ENCODING 58232
SWIDTH 500 0
DWIDTH 2 0
BBX 4 3 0 0
BITMAP
E0
90
70
ENDCHAR
STARTCHAR E379
ENCODING 58233
SWIDTH 500 0
DWIDTH 2 0
BBX 3 3 0 0
BITMAP
40
60
E0
ENDCHAR
STARTCHAR E37A
ENCODING 58234
SWIDTH 500 0
DWIDTH 2 0
BBX 4 3 0 0
BITMAP
40
F0
A0
ENDCHAR
STARTCHAR E37B
ENCODING 58235
SWIDTH 500 0
DWIDTH 2 0
BBX 3 3 0 0
BITMAP
40
60
E0
ENDCHAR
STARTCHAR E37C
ENCODING 58236
SWIDTH 500 0
DWIDTH 2 0
BBX 3 3 0 0
BITMAP
60
E0
40
ENDCHAR
STARTCHAR E37D
ENCODING 58237
SWIDTH 500 0
DWIDTH 2 0
BBX 4 4 0 0
BITMAP
60
30
50
E0
ENDCHAR
STARTCHAR E37E
ENCODING 58238
SWIDTH 500 0
DWIDTH 2 0
BBX 4 3 0 0
BITMAP
60
90
E0
ENDCHAR
STARTCHAR E37F
ENCODING 58239
SWIDTH 500 0
DWIDTH 2 0
BBX 1 1 1 1
BITMAP
80
ENDCHAR
STARTCHAR E380
ENCODING 58240
SWIDTH 500 0
DWIDTH 2 0
BBX 1 1 1 1
BITMAP
80
ENDCHAR
STARTCHAR E381
ENCODING 58241
SWIDTH 500 0
DWIDTH 2 0
BBX 3 3 0 0
BITMAP
E0
E0
E0
ENDCHAR
STARTCHAR E382
ENCODING 58242
SWIDTH 500 0
DWIDTH 2 0
BBX 3 3 0 0
BITMAP
E0
E0
E0
ENDCHAR
STARTCHAR E383
ENCODING 58243
SWIDTH 500 0
DWIDTH 2 0
BBX 3 3 0 0
BITMAP
E0
E0
E0
ENDCHAR
STARTCHAR E384
ENCODING 58244
SWIDTH 500 0
DWIDTH 2 0
BBX 3 3 0 0
BITMAP
E0
E0
E0
ENDCHAR
STARTCHAR E385
ENCODING 58245
SWIDTH 500 0
DWIDTH 2 0
BBX 3 3 0 0
BITMAP
E0
E0
E0
ENDCHAR
STARTCHAR E386
ENCODING 58246
SWIDTH 500 0
DWIDTH 2 0
BBX 3 3 0 0
BITMAP
E0
E0
E0
ENDCHAR
STARTCHAR E387
ENCODING 58247
SWIDTH 500 0
DWIDTH 2 0
BBX 3 3 0 0
BITMAP
E0
E0
E0
ENDCHAR
STARTCHAR E388
ENCODING 58248
SWIDTH 500 0
DWIDTH 2 0
BBX 3 3 0 0
BITMAP
E0
E0
E0
ENDCHAR
STARTCHAR E389
ENCODING 58249
SWIDTH 500 0
DWIDTH 2 0
BBX 3 3 0 0
BITMAP
E0
E0
E0
ENDCHAR
STARTCHAR E38A
ENCODING 58250
SWIDTH 500 0
DWIDTH 2 0
BBX 3 3 0 0
BITMAP
E0
E0
E0
ENDCHAR
STARTCHAR E38B
ENCODING 58251
SWIDTH 500 0
DWIDTH 2 0
BBX 3 3 0 0
BITMAP
E0
E0
E0
ENDCHAR
STARTCHAR E38C
ENCODING 58252
SWIDTH 500 0
DWIDTH 2 0
BBX 3 3 0 0
BITMAP
E0
E0
E0
ENDCHAR
STARTCHAR E38D
ENCODING 58253
SWIDTH 500 0
DWIDTH 2 0
BBX 3 3 0 0
BITMAP
E0
A0
E0
ENDCHAR
STARTCHAR E38E
ENCODING 58254
SWIDTH 500 0
DWIDTH 2 0
BBX 2 3 1 0
BITMAP
C0
40
C0
ENDCHAR
STARTCHAR E38F
ENCODING 58255
SWIDTH 500 0
DWIDTH 2 0
BBX 2 3 1 0
BITMAP
C0
40
C0
ENDCHAR
STARTCHAR E390
ENCODING 58256
SWIDTH 500 0
DWIDTH 2 0
BBX 2 3 1 0
BITMAP
C0
40
C0
ENDCHAR
STARTCHAR E391
ENCODING 58257
SWIDTH 500 0
DWIDTH 2 0
BBX 2 3 1 0
BITMAP
C0
40
C0
ENDCHAR
STARTCHAR E392
ENCODING 58258
SWIDTH 500 0
DWIDTH 2 0
BBX 2 3 1 0
BITMAP
C0
40
C0
ENDCHAR
STARTCHAR E393
ENCODING 58259
SWIDTH 500 0
DWIDTH 2 0
BBX 2 3 1 0
BITMAP
C0
40
C0
ENDCHAR
STARTCHAR E394
ENCODING 58260
SWIDTH 500 0
DWIDTH 2 0
BBX 2 3 1 0
BITMAP
C0
C0
C0
ENDCHAR
STARTCHAR E395
ENCODING 58261
SWIDTH 500 0
DWIDTH 2 0
BBX 2 3 1 0
BITMAP
C0
C0
C0
ENDCHAR
STARTCHAR E396
ENCODING 58262
SWIDTH 500 0
DWIDTH 2 0
BBX 2 3 1 0
BITMAP
C0
C0
C0
ENDCHAR
STARTCHAR E397
ENCODING 58263
SWIDTH 500 0
DWIDTH 2 0
BBX 2 3 1 0
BITMAP
C0
C0
C0
ENDCHAR
STARTCHAR E398
ENCODING 58264
SWIDTH 500 0
DWIDTH 2 0
BBX 2 3 1 0
BITMAP
C0
C0
C0
ENDCHAR
STARTCHAR E399
ENCODING 58265
SWIDTH 500 0
DWIDTH 2 0
BBX 2 3 1 0
BITMAP
C0
C0
C0
ENDCHAR
STARTCHAR E39A
ENCODING 58266
SWIDTH 500 0
DWIDTH 2 0
BBX 2 3 1 0
BITMAP
C0
C0
C0
ENDCHAR
STARTCHAR E39B
ENCODING 58267
SWIDTH 500 0
DWIDTH 2 0
BBX 3 3 0 0
BITMAP
E0
E0
E0
ENDCHAR
STARTCHAR E39C
ENCODING 58268
SWIDTH 500 0
DWIDTH 2 0
BBX 3 3 0 0
BITMAP
C0
E0
C0
ENDCHAR
STARTCHAR E39D
ENCODING 58269
SWIDTH 500 0
DWIDTH 2 0
BBX 2 3 0 0
BITMAP
C0
C0
C0
ENDCHAR
STARTCHAR E39E
ENCODING 58270
SWIDTH 500 0
DWIDTH 2 0
BBX 2 3 0 0
BITMAP
C0
C0
C0
ENDCHAR
STARTCHAR E39F
ENCODING 58271
SWIDTH 500 0
DWIDTH 2 0
BBX 2 3 0 0
BITMAP
C0
C0
C0
ENDCHAR
STARTCHAR E3A0
ENCODING 58272
SWIDTH 500 0
DWIDTH 2 0
BBX 2 3 0 0
BITMAP
C0
C0
C0
ENDCHAR
STARTCHAR E3A1
ENCODING 58273
SWIDTH 500 0
DWIDTH 2 0
BBX 2 3 0 0
BITMAP
C0
C0
C0
ENDCHAR
STARTCHAR E3A2
ENCODING 58274
SWIDTH 500 0
DWIDTH 2 0
BBX 2 3 0 0
BITMAP
C0
C0
C0
ENDCHAR
STARTCHAR E3A3
ENCODING 58275
SWIDTH 500 0
DWIDTH 2 0
BBX 2 3 0 0
BITMAP
C0
80
C0
ENDCHAR
STARTCHAR E3A4
ENCODING 58276
SWIDTH 500 0
DWIDTH 2 0
BBX 2 3 0 0
BITMAP
C0
80
C0
ENDCHAR
STARTCHAR E3A5
ENCODING 58277
SWIDTH 500 0
DWIDTH 2 0
BBX 2 3 0 0
BITMAP
C0
80
C0
ENDCHAR
STARTCHAR E3A6
ENCODING 58278
SWIDTH 500 0
DWIDTH 2 0
BBX 2 3 0 0
BITMAP
C0
80
C0
ENDCHAR
STARTCHAR E3A7
ENCODING 58279
SWIDTH 500 0
DWIDTH 2 0
BBX 2 3 0 0
BITMAP
C0
80
C0
ENDCHAR
STARTCHAR E3A8
ENCODING 58280
SWIDTH 500 0
DWIDTH 2 0
BBX 2 3 0 0
BITMAP
C0
80
C0
ENDCHAR
STARTCHAR E3A9
ENCODING 58281
SWIDTH 500 0
DWIDTH 2 0
BBX 3 3 0 0
BITMAP
E0
E0
E0
ENDCHAR
STARTCHAR E3AA
ENCODING 58282
SWIDTH 500 0
DWIDTH 2 0
BBX 4 5 0 -1
BITMAP
20
70
90
E0
40
ENDCHAR
STARTCHAR E3AB
ENCODING 58283
SWIDTH 500 0
DWIDTH 2 0
BBX 4 4 0 -1
BITMAP
60
90
E0
40
ENDCHAR
STARTCHAR E3AC
ENCODING 58284
SWIDTH 500 0
DWIDTH 2 0
BBX 4 4 0 -1
BITMAP
60
90
E0
40
ENDCHAR
STARTCHAR E3AD
ENCODING 58285
SWIDTH 500 0
DWIDTH 2 0
BBX 3 4 0 -1
BITMAP
40
A0
E0
40
ENDCHAR
STARTCHAR E3AE
ENCODING 58286
SWIDTH 500 0
DWIDTH 2 0
BBX 3 3 0 0
BITMAP
E0
60
E0
ENDCHAR
STARTCHAR E3AF
ENCODING 58287
SWIDTH 500 0
DWIDTH 2 0
BBX 4 3 0 0
BITMAP
20
F0
10
ENDCHAR
STARTCHAR E3B0
ENCODING 58288
SWIDTH 500 0
DWIDTH 2 0
BBX 3 3 0 0
BITMAP
20
E0
20
ENDCHAR
STARTCHAR E3B1
ENCODING 58289
SWIDTH 500 0
DWIDTH 2 0
BBX 4 3 0 0
BITMAP
20
F0
30
ENDCHAR
STARTCHAR E3B2
ENCODING 58290
SWIDTH 500 0
DWIDTH 2 0
BBX 4 3 0 0
BITMAP
20
F0
10
ENDCHAR
STARTCHAR E3B3
ENCODING 58291
SWIDTH 500 0
DWIDTH 2 0
BBX 4 3 0 0
BITMAP
20
F0
10
ENDCHAR
STARTCHAR E3B4
ENCODING 58292
SWIDTH 500 0
DWIDTH 2 0
BBX 4 3 0 0
BITMAP
20
F0
10
ENDCHAR
STARTCHAR E3B5
ENCODING 58293
SWIDTH 500 0
DWIDTH 2 0
BBX 4 3 0 0
BITMAP
20
F0
10
ENDCHAR
STARTCHAR E3B6
ENCODING 58294
SWIDTH 500 0
DWIDTH 2 0
BBX 4 3 0 0
BITMAP
20
F0
10
ENDCHAR
STARTCHAR E3B7
ENCODING 58295
SWIDTH 500 0
DWIDTH 2 0
BBX 4 3 0 0
BITMAP
20
F0
30
ENDCHAR
STARTCHAR E3B8
ENCODING 58296
SWIDTH 500 0
DWIDTH 2 0
BBX 4 3 0 0
BITMAP
20
F0
10
ENDCHAR
STARTCHAR E3B9
ENCODING 58297
SWIDTH 500 0
DWIDTH 2 0
BBX 5 3 0 0
BITMAP
20
E8
18
ENDCHAR
STARTCHAR E3BA
ENCODING 58298
SWIDTH 500 0
DWIDTH 2 0
BBX 4 3 0 0
BITMAP
20
F0
10
ENDCHAR
STARTCHAR E3BB
ENCODING 58299
SWIDTH 500 0
DWIDTH 2 0
BBX 5 3 0 0
BITMAP
20
E8
18
ENDCHAR
STARTCHAR E3BC
ENCODING 58300
SWIDTH 500 0
DWIDTH 2 0
BBX 4 4 0 0
BITMAP
20
70
E0
F0
ENDCHAR
STARTCHAR E3BD
ENCODING 58301
SWIDTH 500 0
DWIDTH 2 0
BBX 3 3 0 0
BITMAP
E0
80
E0
ENDCHAR
STARTCHAR E3BE
ENCODING 58302
SWIDTH 500 0
DWIDTH 2 0
BBX 3 3 0 0
BITMAP
A0
E0
40
ENDCHAR
STARTCHAR E3BF
ENCODING 58303
SWIDTH 500 0
DWIDTH 2 0
BBX 2 3 0 0
BITMAP
80
C0
C0
ENDCHAR
STARTCHAR E3C0
ENCODING 58304
SWIDTH 500 0
DWIDTH 2 0
BBX 3 3 0 0
BITMAP
C0
40
E0
ENDCHAR
STARTCHAR E3C1
ENCODING 58305
SWIDTH 500 0
DWIDTH 2 0
BBX 2 3 0 0
BITMAP
40
C0
C0
ENDCHAR
STARTCHAR E3C2
ENCODING 58306
SWIDTH 500 0
DWIDTH 2 0
BBX 2 3 0 0
BITMAP
40
C0
C0
ENDCHAR
STARTCHAR E3C3
ENCODING 58307
SWIDTH 500 0
DWIDTH 2 0
BBX 4 3 0 0
BITMAP
20
C0
F0
ENDCHAR
STARTCHAR E3C4
ENCODING 58308
SWIDTH 500 0
DWIDTH 2 0
BBX 2 3 0 0
BITMAP
C0
80
80
ENDCHAR
STARTCHAR E3C5
ENCODING 58309
SWIDTH 500 0
DWIDTH 2 0
BBX 2 3 0 0
BITMAP
C0
80
C0
ENDCHAR
STARTCHAR E3C6
ENCODING 58310
SWIDTH 500 0
DWIDTH 2 0
BBX 2 3 0 0
BITMAP
C0
80
80
ENDCHAR
STARTCHAR E3C7
ENCODING 58311
SWIDTH 500 0
DWIDTH 2 0
BBX 2 3 0 0
BITMAP
C0
C0
C0
ENDCHAR
STARTCHAR E3C8
ENCODING 58312
SWIDTH 500 0
DWIDTH 2 0
BBX 3 3 0 0
BITMAP
E0
E0
E0
ENDCHAR
STARTCHAR E3C9
ENCODING 58313
SWIDTH 500 0
DWIDTH 2 0
BBX 3 3 0 0
BITMAP
E0
E0
E0
ENDCHAR
STARTCHAR E3CA
ENCODING 58314
SWIDTH 500 0
DWIDTH 2 0
BBX 3 3 0 0
BITMAP
E0
E0
E0
ENDCHAR
STARTCHAR E3CB
ENCODING 58315
SWIDTH 500 0
DWIDTH 2 0
BBX 3 3 0 0
BITMAP
E0
E0
E0
ENDCHAR
STARTCHAR E3CC
ENCODING 58316
SWIDTH 500 0
DWIDTH 2 0
BBX 3 3 0 0
BITMAP
E0
E0
E0
ENDCHAR
STARTCHAR E3CD
ENCODING 58317
SWIDTH 500 0
DWIDTH 2 0
BBX 3 3 0 0
BITMAP
E0
E0
E0
ENDCHAR
STARTCHAR E3CE
ENCODING 58318
SWIDTH 500 0
DWIDTH 2 0
BBX 3 3 0 0
BITMAP
E0
A0
E0
ENDCHAR
STARTCHAR E3CF
ENCODING 58319
SWIDTH 500 0
DWIDTH 2 0
BBX 3 3 0 0
BITMAP
E0
A0
E0
ENDCHAR
STARTCHAR E3D0
ENCODING 58320
SWIDTH 500 0
DWIDTH 2 0
BBX 3 3 0 0
BITMAP
E0
A0
E0
ENDCHAR
STARTCHAR E3D1
ENCODING 58321
SWIDTH 500 0
DWIDTH 2 0
BBX 3 3 0 0
BITMAP
E0
A0
E0
ENDCHAR
STARTCHAR E3D2
ENCODING 58322
SWIDTH 500 0
DWIDTH 2 0
BBX 3 3 0 0
BITMAP
E0
A0
E0
ENDCHAR
STARTCHAR E3D3
ENCODING 58323
SWIDTH 500 0
DWIDTH 2 0
BBX 3 3 0 0
BITMAP
E0
A0
E0
ENDCHAR
STARTCHAR E3D4
ENCODING 58324
SWIDTH 500 0
DWIDTH 2 0
BBX 3 3 0 0
BITMAP
E0
A0
E0
ENDCHAR
STARTCHAR E3D5
ENCODING 58325
SWIDTH 500 0
DWIDTH 2 0
BBX 3 3 0 0
BITMAP
E0
A0
E0
ENDCHAR
STARTCHAR E3D6
ENCODING 58326
SWIDTH 500 0
DWIDTH 2 0
BBX 3 3 0 0
BITMAP
E0
A0
E0
ENDCHAR
STARTCHAR E3D7
ENCODING 58327
SWIDTH 500 0
DWIDTH 2 0
BBX 3 3 0 0
BITMAP
E0
A0
E0
ENDCHAR
STARTCHAR E3D8
ENCODING 58328
SWIDTH 500 0
DWIDTH 2 0
BBX 3 3 0 0
BITMAP
E0
A0
E0
ENDCHAR
STARTCHAR E3D9
ENCODING 58329
SWIDTH 500 0
DWIDTH 2 0
BBX 3 3 0 0
BITMAP
E0
A0
E0
ENDCHAR
STARTCHAR E3DA
ENCODING 58330
SWIDTH 500 0
DWIDTH 2 0
BBX 3 3 0 0
BITMAP
E0
A0
E0
ENDCHAR
STARTCHAR E3DB
ENCODING 58331
SWIDTH 500 0
DWIDTH 2 0
BBX 3 3 0 0
BITMAP
E0
A0
E0
ENDCHAR
STARTCHAR E3DC
ENCODING 58332
SWIDTH 500 0
DWIDTH 2 0
BBX 3 3 0 0
BITMAP
E0
A0
E0
ENDCHAR
STARTCHAR E3DD
ENCODING 58333
SWIDTH 500 0
DWIDTH 2 0
BBX 3 3 0 0
BITMAP
E0
E0
E0
ENDCHAR
STARTCHAR E3DE
ENCODING 58334
SWIDTH 500 0
DWIDTH 2 0
BBX 3 3 0 0
BITMAP
E0
E0
E0
ENDCHAR
STARTCHAR E3DF
ENCODING 58335
SWIDTH 500 0
DWIDTH 2 0
BBX 3 3 0 0
BITMAP
E0
E0
E0
ENDCHAR
STARTCHAR E3E0
ENCODING 58336
SWIDTH 500 0
DWIDTH 2 0
BBX 3 3 0 0
BITMAP
E0
E0
E0
ENDCHAR
STARTCHAR E3E1
ENCODING 58337
SWIDTH 500 0
DWIDTH 2 0
BBX 3 3 0 0
BITMAP
E0
E0
E0
ENDCHAR
STARTCHAR E3E2
ENCODING 58338
SWIDTH 500 0
DWIDTH 2 0
BBX 3 3 0 0
BITMAP
E0
E0
E0
ENDCHAR
STARTCHAR E3E3
ENCODING 58339
SWIDTH 500 0
DWIDTH 2 0
BBX 3 3 0 0
BITMAP
E0
E0
E0
ENDCHAR
STARTCHAR E5FA
ENCODING 58874
SWIDTH 500 0
DWIDTH 2 0
BBX 3 3 0 0
BITMAP
C0
E0
E0
ENDCHAR
STARTCHAR E5FB
ENCODING 58875
SWIDTH 500 0
DWIDTH 2 0
BBX 3 3 0 0
BITMAP
C0
E0
E0
ENDCHAR
STARTCHAR E5FC
ENCODING 58876
SWIDTH 500 0
DWIDTH 2 0
BBX 3 3 0 0
BITMAP
C0
E0
E0
ENDCHAR
STARTCHAR E5FD
ENCODING 58877
SWIDTH 500 0
DWIDTH 2 0
BBX 3 3 0 0
BITMAP
C0
A0
E0
ENDCHAR
STARTCHAR E5FE
ENCODING 58878
SWIDTH 500 0
DWIDTH 2 0
BBX 3 3 0 0
BITMAP
80
E0
E0
ENDCHAR
STARTCHAR E5FF
ENCODING 58879
SWIDTH 500 0
DWIDTH 2 0
BBX 3 3 0 0
BITMAP
C0
E0
E0
ENDCHAR
STARTCHAR E600
ENCODING 58880
SWIDTH 500 0
DWIDTH 2 0
BBX 3 3 0 0
BITMAP
60
40
80
ENDCHAR
STARTCHAR E601
ENCODING 58881
SWIDTH 500 0
DWIDTH 2 0
BBX 3 3 0 0
BITMAP
80
60
E0
ENDCHAR
STARTCHAR E602
ENCODING 58882
SWIDTH 500 0
DWIDTH 2 0
BBX 2 3 0 0
BITMAP
80
C0
80
ENDCHAR
STARTCHAR E603
ENCODING 58883
SWIDTH 500 0
DWIDTH 2 0
BBX 3 3 0 0
BITMAP
E0
C0
80
ENDCHAR
STARTCHAR E604
ENCODING 58884
SWIDTH 500 0
DWIDTH 2 0
BBX 3 3 0 0
BITMAP
60
C0
C0
ENDCHAR
STARTCHAR E605
ENCODING 58885
SWIDTH 500 0
DWIDTH 2 0
BBX 3 3 0 0
BITMAP
60
E0
E0
ENDCHAR
STARTCHAR E606
ENCODING 58886
SWIDTH 500 0
DWIDTH 2 0
BBX 3 3 0 0
BITMAP
40
A0
60
ENDCHAR
STARTCHAR E607
ENCODING 58887
SWIDTH 500 0
DWIDTH 2 0
BBX 2 3 0 0
BITMAP
C0
C0
C0
ENDCHAR
STARTCHAR E608
ENCODING 58888
SWIDTH 500 0
DWIDTH 2 0
BBX 4 3 0 0
BITMAP
E0
F0
60
ENDCHAR
STARTCHAR E609
ENCODING 58889
SWIDTH 500 0
DWIDTH 2 0
BBX 3 3 0 0
BITMAP
40
C0
60
ENDCHAR
STARTCHAR E60A
ENCODING 58890
SWIDTH 500 0
DWIDTH 2 0
BBX 2 3 0 0
BITMAP
C0
C0
C0
ENDCHAR
STARTCHAR E60B
ENCODING 58891
SWIDTH 500 0
DWIDTH 2 0
BBX 3 3 0 0
BITMAP
A0
A0
A0
ENDCHAR
STARTCHAR E60C
ENCODING 58892
SWIDTH 500 0
DWIDTH 2 0
BBX 3 3 0 0
BITMAP
60
60
A0
ENDCHAR
STARTCHAR E60D
ENCODING 58893
SWIDTH 500 0
DWIDTH 2 0
BBX 3 3 0 0
BITMAP
E0
A0
60
ENDCHAR
STARTCHAR E60E
ENCODING 58894
SWIDTH 500 0
DWIDTH 2 0
BBX 3 3 0 0
BITMAP
60
A0
60
ENDCHAR
STARTCHAR E60F
ENCODING 58895
SWIDTH 500 0
DWIDTH 2 0
BBX 3 1 0 1
BITMAP
E0
ENDCHAR
STARTCHAR E610
ENCODING 58896
SWIDTH 500 0
DWIDTH 2 0
BBX 2 3 0 0
BITMAP
80
C0
40
ENDCHAR
STARTCHAR E611
ENCODING 58897
SWIDTH 500 0
DWIDTH 2 0
BBX 3 3 0 0
BITMAP
E0
E0
E0
ENDCHAR
STARTCHAR E612
ENCODING 58898
SWIDTH 500 0
DWIDTH 2 0
BBX 3 3 0 0
BITMAP
E0
E0
E0
ENDCHAR
STARTCHAR E613
ENCODING 58899
SWIDTH 500 0
DWIDTH 2 0
BBX 3 3 0 0
BITMAP
C0
E0
E0
ENDCHAR
STARTCHAR E614
ENCODING 58900
SWIDTH 500 0
DWIDTH 2 0
BBX 3 3 0 0
BITMAP
60
E0
A0
ENDCHAR
STARTCHAR E615
ENCODING 58901
SWIDTH 500 0
DWIDTH 2 0
BBX 3 3 0 0
BITMAP
60
A0
E0
ENDCHAR
STARTCHAR E616
ENCODING 58902
SWIDTH 500 0
DWIDTH 2 0
BBX 3 1 0 1
BITMAP
E0
ENDCHAR
STARTCHAR E617
ENCODING 58903
SWIDTH 500 0
DWIDTH 2 0
BBX 3 3 0 0
BITMAP
60
A0
A0
ENDCHAR
STARTCHAR E618
ENCODING 58904
SWIDTH 500 0
DWIDTH 2 0
BBX 3 3 0 0
BITMAP
60
A0
60
ENDCHAR
STARTCHAR E619
ENCODING 58905
SWIDTH 500 0
DWIDTH 2 0
BBX 4 3 0 0
BITMAP
C0
E0
D0
ENDCHAR
STARTCHAR E61A
ENCODING 58906
SWIDTH 500 0
DWIDTH 2 0
BBX 3 3 0 0
BITMAP
E0
E0
C0
ENDCHAR
STARTCHAR E61B
ENCODING 58907
SWIDTH 500 0
DWIDTH 2 0
BBX 3 3 0 0
BITMAP
E0
E0
E0
ENDCHAR
STARTCHAR E61C
ENCODING 58908
SWIDTH 500 0
DWIDTH 2 0
BBX 2 3 0 0
BITMAP
40
40
C0
ENDCHAR
STARTCHAR E61D
ENCODING 58909
SWIDTH 500 0
DWIDTH 2 0
BBX 3 3 0 0
BITMAP
E0
E0
E0
ENDCHAR
STARTCHAR E61E
ENCODING 58910
SWIDTH 500 0
DWIDTH 2 0
BBX 3 3 0 0
BITMAP
E0
E0
E0
ENDCHAR
STARTCHAR E61F
ENCODING 58911
SWIDTH 500 0
DWIDTH 2 0
BBX 3 3 0 0
BITMAP
C0
60
E0
ENDCHAR
STARTCHAR E620
ENCODING 58912
SWIDTH 500 0
DWIDTH 2 0
BBX 3 3 0 0
BITMAP
60
E0
E0
ENDCHAR
STARTCHAR E621
ENCODING 58913
SWIDTH 500 0
DWIDTH 2 0
BBX 1 1 1 0
BITMAP
80
ENDCHAR
STARTCHAR E622
ENCODING 58914
SWIDTH 500 0
DWIDTH 2 0
BBX 3 3 0 0
BITMAP
E0
C0
E0
ENDCHAR
STARTCHAR E623
ENCODING 58915
SWIDTH 500 0
DWIDTH 2 0
BBX 3 3 0 0
BITMAP
40
E0
60
ENDCHAR
STARTCHAR E624
ENCODING 58916
SWIDTH 500 0
DWIDTH 2 0
BBX 3 3 0 0
BITMAP
60
00
E0
ENDCHAR
STARTCHAR E625
ENCODING 58917
SWIDTH 500 0
DWIDTH 2 0
BBX 3 3 0 0
BITMAP
E0
E0
E0
ENDCHAR
STARTCHAR E626
ENCODING 58918
SWIDTH 500 0
DWIDTH 2 0
BBX 3 3 0 0
BITMAP
C0
A0
E0
ENDCHAR
STARTCHAR E627
ENCODING 58919
SWIDTH 500 0
DWIDTH 2 0
BBX 3 3 0 0
BITMAP
C0
E0
C0
ENDCHAR
STARTCHAR E628
ENCODING 58920
SWIDTH 500 0
DWIDTH 2 0
BBX 3 3 0 0
BITMAP
E0
A0
A0
ENDCHAR
STARTCHAR E629
ENCODING 58921
SWIDTH 500 0
DWIDTH 2 0
BBX 3 3 0 0
BITMAP
E0
E0
E0
ENDCHAR
STARTCHAR E62A
ENCODING 58922
SWIDTH 500 0
DWIDTH 2 0
BBX 3 3 0 0
BITMAP
A0
80
A0
ENDCHAR
STARTCHAR E62B
ENCODING 58923
SWIDTH 500 0
DWIDTH 2 0
BBX 3 3 0 0
BITMAP
A0
C0
80
ENDCHAR
STARTCHAR E62C
ENCODING 58924
SWIDTH 500 0
DWIDTH 2 0
BBX 3 3 0 0
BITMAP
E0
E0
E0
ENDCHAR
STARTCHAR E62D
ENCODING 58925
SWIDTH 500 0
DWIDTH 2 0
BBX 2 3 0 0
BITMAP
80
C0
C0
ENDCHAR
STARTCHAR E62E
ENCODING 58926
SWIDTH 500 0
DWIDTH 2 0
BBX 3 3 0 0
BITMAP
60
A0
E0
ENDCHAR
STARTCHAR E62F
ENCODING 58927
SWIDTH 500 0
DWIDTH 2 0
BBX 3 3 0 0
BITMAP
60
A0
E0
ENDCHAR
STARTCHAR E630
ENCODING 58928
SWIDTH 500 0
DWIDTH 2 0
BBX 4 3 0 0
BITMAP
20
D0
80
ENDCHAR
STARTCHAR E631
ENCODING 58929
SWIDTH 500 0
DWIDTH 2 0
BBX 2 3 0 0
BITMAP
80
40
80
ENDCHAR
STARTCHAR E632
ENCODING 58930
SWIDTH 500 0
DWIDTH 2 0
BBX 4 3 0 0
BITMAP
E0
B0
E0
ENDCHAR
STARTCHAR E633
ENCODING 58931
SWIDTH 500 0
DWIDTH 2 0
BBX 3 3 0 0
BITMAP
40
E0
E0
ENDCHAR
STARTCHAR E634
ENCODING 58932
SWIDTH 500 0
DWIDTH 2 0
BBX 3 3 0 0
BITMAP
E0
C0
E0
ENDCHAR
STARTCHAR E635
ENCODING 58933
SWIDTH 500 0
DWIDTH 2 0
BBX 3 3 0 0
BITMAP
40
E0
E0
ENDCHAR
STARTCHAR E636
ENCODING 58934
SWIDTH 500 0
DWIDTH 2 0
BBX 3 3 0 0
BITMAP
C0
E0
40
ENDCHAR
STARTCHAR E637
ENCODING 58935
SWIDTH 500 0
DWIDTH 2 0
BBX 3 1 0 1
BITMAP
E0
ENDCHAR
STARTCHAR E638
ENCODING 58936
SWIDTH 500 0
DWIDTH 2 0
BBX 3 3 0 0
BITMAP
60
E0
60
ENDCHAR
STARTCHAR E639
ENCODING 58937
SWIDTH 500 0
DWIDTH 2 0
BBX 3 3 0 0
BITMAP
E0
60
C0
ENDCHAR
STARTCHAR E63A
ENCODING 58938
SWIDTH 500 0
DWIDTH 2 0
BBX 3 3 0 0
BITMAP
E0
E0
60
ENDCHAR
STARTCHAR E63B
ENCODING 58939
SWIDTH 500 0
DWIDTH 2 0
BBX 3 3 0 0
BITMAP
40
80
E0
ENDCHAR
STARTCHAR E63C
ENCODING 58940
SWIDTH 500 0
DWIDTH 2 0
BBX 3 2 0 0
BITMAP
E0
E0
ENDCHAR
STARTCHAR E63D
ENCODING 58941
SWIDTH 500 0
DWIDTH 2 0
BBX 3 3 0 0
BITMAP
E0
E0
E0
ENDCHAR
STARTCHAR E63E
ENCODING 58942
SWIDTH 500 0
DWIDTH 2 0
BBX 3 3 0 0
BITMAP
60
C0
E0
ENDCHAR
STARTCHAR E63F
ENCODING 58943
SWIDTH 500 0
DWIDTH 2 0
BBX 3 3 0 0
BITMAP
20
A0
40
ENDCHAR
STARTCHAR E640
ENCODING 58944
SWIDTH 500 0
DWIDTH 2 0
BBX 3 3 0 0
BITMAP
E0
A0
E0
ENDCHAR
STARTCHAR E641
ENCODING 58945
SWIDTH 500 0
DWIDTH 2 0
BBX 3 3 0 0
BITMAP
E0
E0
E0
ENDCHAR
STARTCHAR E642
ENCODING 58946
SWIDTH 500 0
DWIDTH 2 0
BBX 3 3 0 0
BITMAP
E0
E0
E0
ENDCHAR
STARTCHAR E643
ENCODING 58947
SWIDTH 500 0
DWIDTH 2 0
BBX 3 2 0 0
BITMAP
60
80
ENDCHAR
STARTCHAR E644
ENCODING 58948
SWIDTH 500 0
DWIDTH 2 0
BBX 3 3 0 0
BITMAP
60
60
80
ENDCHAR
STARTCHAR E645
ENCODING 58949
SWIDTH 500 0
DWIDTH 2 0
BBX 4 3 0 0
BITMAP
10
A0
C0
ENDCHAR
STARTCHAR E646
ENCODING 58950
SWIDTH 500 0
DWIDTH 2 0
BBX 3 3 0 0
BITMAP
C0
E0
C0
ENDCHAR
STARTCHAR E647
ENCODING 58951
SWIDTH 500 0
DWIDTH 2 0
BBX 3 3 0 0
BITMAP
E0
E0
E0
ENDCHAR
STARTCHAR E648
ENCODING 58952
SWIDTH 500 0
DWIDTH 2 0
BBX 3 3 0 0
BITMAP
C0
A0
C0
ENDCHAR
STARTCHAR E649
ENCODING 58953
SWIDTH 500 0
DWIDTH 2 0
BBX 3 3 0 0
BITMAP
E0
80
E0
ENDCHAR
STARTCHAR E64A
ENCODING 58954
SWIDTH 500 0
DWIDTH 2 0
BBX 3 3 0 0
BITMAP
E0
E0
E0
ENDCHAR
STARTCHAR E64B
ENCODING 58955
SWIDTH 500 0
DWIDTH 2 0
BBX 3 3 0 0
BITMAP
C0
E0
C0
ENDCHAR
STARTCHAR E64C
ENCODING 58956
SWIDTH 500 0
DWIDTH 2 0
BBX 3 3 0 0
BITMAP
60
A0
E0
ENDCHAR
STARTCHAR E64D
ENCODING 58957
SWIDTH 500 0
DWIDTH 2 0
BBX 3 3 0 0
BITMAP
E0
E0
E0
ENDCHAR
STARTCHAR E64E
ENCODING 58958
SWIDTH 500 0
DWIDTH 2 0
BBX 3 3 0 0
BITMAP
E0
C0
E0
ENDCHAR
STARTCHAR E64F
ENCODING 58959
SWIDTH 500 0
DWIDTH 2 0
BBX 3 3 0 0
BITMAP
40
E0
60
ENDCHAR
STARTCHAR E650
ENCODING 58960
SWIDTH 500 0
DWIDTH 2 0
BBX 3 3 0 0
BITMAP
40
A0
C0
ENDCHAR
STARTCHAR E651
ENCODING 58961
SWIDTH 500 0
DWIDTH 2 0
BBX 3 3 0 0
BITMAP
E0
A0
E0
ENDCHAR
STARTCHAR E652
ENCODING 58962
SWIDTH 500 0
DWIDTH 2 0
BBX 3 3 0 0
BITMAP
40
E0
C0
ENDCHAR
STARTCHAR E653
ENCODING 58963
SWIDTH 500 0
DWIDTH 2 0
BBX 2 3 0 0
BITMAP
80
C0
C0
ENDCHAR
STARTCHAR E654
ENCODING 58964
SWIDTH 500 0
DWIDTH 2 0
BBX 3 3 0 0
BITMAP
40
60
E0
ENDCHAR
STARTCHAR E655
ENCODING 58965
SWIDTH 500 0
DWIDTH 2 0
BBX 3 3 0 0
BITMAP
60
E0
E0
ENDCHAR
STARTCHAR E656
ENCODING 58966
SWIDTH 500 0
DWIDTH 2 0
BBX 2 3 0 0
BITMAP
40
C0
40
ENDCHAR
STARTCHAR E657
ENCODING 58967
SWIDTH 500 0
DWIDTH 2 0
BBX 3 3 0 0
BITMAP
80
C0
E0
ENDCHAR
STARTCHAR E658
ENCODING 58968
SWIDTH 500 0
DWIDTH 2 0
BBX 4 3 0 0
BITMAP
E0
90
E0
ENDCHAR
STARTCHAR E659
ENCODING 58969
SWIDTH 500 0
DWIDTH 2 0
BBX 3 3 0 0
BITMAP
40
60
E0
ENDCHAR
STARTCHAR E65A
ENCODING 58970
SWIDTH 500 0
DWIDTH 2 0
BBX 3 3 0 0
BITMAP
40
E0
60
ENDCHAR
STARTCHAR E65B
ENCODING 58971
SWIDTH 500 0
DWIDTH 2 0
BBX 4 3 0 0
BITMAP
E0
90
A0
ENDCHAR
STARTCHAR E65C
ENCODING 58972
SWIDTH 500 0
DWIDTH 2 0
BBX 3 3 0 0
BITMAP
A0
E0
60
ENDCHAR
STARTCHAR E65D
ENCODING 58973
SWIDTH 500 0
DWIDTH 2 0
BBX 4 3 0 0
BITMAP
60
D0
60
ENDCHAR
STARTCHAR E65E
ENCODING 58974
SWIDTH 500 0
DWIDTH 2 0
BBX 3 1 0 1
BITMAP
E0
ENDCHAR
STARTCHAR E65F
ENCODING 58975
SWIDTH 500 0
DWIDTH 2 0
BBX 3 3 0 0
BITMAP
60
E0
E0
ENDCHAR
STARTCHAR E660
ENCODING 58976
SWIDTH 500 0
DWIDTH 2 0
BBX 3 3 0 0
BITMAP
20
E0
E0
ENDCHAR
STARTCHAR E661
ENCODING 58977
SWIDTH 500 0
DWIDTH 2 0
BBX 3 2 0 0
BITMAP
E0
40
ENDCHAR
STARTCHAR E662
ENCODING 58978
SWIDTH 500 0
DWIDTH 2 0
BBX 3 3 0 0
BITMAP
C0
A0
E0
ENDCHAR
STARTCHAR E663
ENCODING 58979
SWIDTH 500 0
DWIDTH 2 0
BBX 2 3 0 0
BITMAP
80
C0
C0
ENDCHAR
STARTCHAR E664
ENCODING 58980
SWIDTH 500 0
DWIDTH 2 0
BBX 3 3 0 0
BITMAP
A0
40
A0
ENDCHAR
STARTCHAR E665
ENCODING 58981
SWIDTH 500 0
DWIDTH 2 0
BBX 3 3 0 0
BITMAP
E0
E0
E0
ENDCHAR
STARTCHAR E666
ENCODING 58982
SWIDTH 500 0
DWIDTH 2 0
BBX 3 3 0 0
BITMAP
E0
E0
E0
ENDCHAR
STARTCHAR E667
ENCODING 58983
SWIDTH 500 0
DWIDTH 2 0
BBX 3 3 0 0
BITMAP
60
A0
60
ENDCHAR
STARTCHAR E668
ENCODING 58984
SWIDTH 500 0
DWIDTH 2 0
BBX 4 3 0 0
BITMAP
20
D0
E0
ENDCHAR
STARTCHAR E669
ENCODING 58985
SWIDTH 500 0
DWIDTH 2 0
BBX 3 3 0 0
BITMAP
E0
E0
E0
ENDCHAR
STARTCHAR E66A
ENCODING 58986
SWIDTH 500 0
DWIDTH 2 0
BBX 3 3 0 0
BITMAP
E0
E0
E0
ENDCHAR
STARTCHAR E66B
ENCODING 58987
SWIDTH 500 0
DWIDTH 2 0
BBX 3 3 0 0
BITMAP
E0
E0
E0
ENDCHAR
STARTCHAR E66C
ENCODING 58988
SWIDTH 500 0
DWIDTH 2 0
BBX 3 3 0 0
BITMAP
20
E0
E0
ENDCHAR
STARTCHAR E66D
ENCODING 58989
SWIDTH 500 0
DWIDTH 2 0
BBX 2 3 0 0
BITMAP
40
40
C0
ENDCHAR
STARTCHAR E66E
ENCODING 58990
SWIDTH 500 0
DWIDTH 2 0
BBX 2 3 0 0
BITMAP
C0
C0
C0
ENDCHAR
STARTCHAR E66F
ENCODING 58991
SWIDTH 500 0
DWIDTH 2 0
BBX 3 3 0 0
BITMAP
E0
A0
E0
ENDCHAR
STARTCHAR E670
ENCODING 58992
SWIDTH 500 0
DWIDTH 2 0
BBX 3 3 0 0
BITMAP
60
E0
E0
ENDCHAR
STARTCHAR E671
ENCODING 58993
SWIDTH 500 0
DWIDTH 2 0
BBX 3 3 0 0
BITMAP
E0
A0
E0
ENDCHAR
STARTCHAR E672
ENCODING 58994
SWIDTH 500 0
DWIDTH 2 0
BBX 3 3 0 0
BITMAP
E0
E0
E0
ENDCHAR
STARTCHAR E673
ENCODING 58995
SWIDTH 500 0
DWIDTH 2 0
BBX 3 3 0 0
BITMAP
A0
E0
A0
ENDCHAR
STARTCHAR E674
ENCODING 58996
SWIDTH 500 0
DWIDTH 2 0
BBX 2 3 0 0
BITMAP
40
C0
40
ENDCHAR
STARTCHAR E675
ENCODING 58997
SWIDTH 500 0
DWIDTH 2 0
BBX 3 3 0 0
BITMAP
60
E0
E0
ENDCHAR
STARTCHAR E676
ENCODING 58998
SWIDTH 500 0
DWIDTH 2 0
BBX 3 3 0 0
BITMAP
C0
A0
E0
ENDCHAR
STARTCHAR E677
ENCODING 58999
SWIDTH 500 0
DWIDTH 2 0
BBX 3 3 0 0
BITMAP
E0
A0
60
ENDCHAR
STARTCHAR E678
ENCODING 59000
SWIDTH 500 0
DWIDTH 2 0
BBX 3 3 0 0
BITMAP
E0
E0
E0
ENDCHAR
STARTCHAR E679
ENCODING 59001
SWIDTH 500 0
DWIDTH 2 0
BBX 3 3 0 0
BITMAP
40
A0
A0
ENDCHAR
STARTCHAR E67A
ENCODING 59002
SWIDTH 500 0
DWIDTH 2 0
BBX 4 3 0 0
BITMAP
E0
50
E0
ENDCHAR
STARTCHAR E67B
ENCODING 59003
SWIDTH 500 0
DWIDTH 2 0
BBX 4 3 0 0
BITMAP
F0
F0
E0
ENDCHAR
STARTCHAR E67C
ENCODING 59004
SWIDTH 500 0
DWIDTH 2 0
BBX 3 3 0 0
BITMAP
A0
E0
A0
ENDCHAR
STARTCHAR E67D
ENCODING 59005
SWIDTH 500 0
DWIDTH 2 0
BBX 3 3 0 0
BITMAP
40
40
A0
ENDCHAR
STARTCHAR E67E
ENCODING 59006
SWIDTH 500 0
DWIDTH 2 0
BBX 3 3 0 0
BITMAP
E0
E0
60
ENDCHAR
STARTCHAR E67F
ENCODING 59007
SWIDTH 500 0
DWIDTH 2 0
BBX 3 3 0 0
BITMAP
E0
A0
E0
ENDCHAR
STARTCHAR E680
ENCODING 59008
SWIDTH 500 0
DWIDTH 2 0
BBX 3 3 0 0
BITMAP
E0
40
E0
ENDCHAR
STARTCHAR E681
ENCODING 59009
SWIDTH 500 0
DWIDTH 2 0
BBX 3 3 0 0
BITMAP
C0
60
20
ENDCHAR
STARTCHAR E682
ENCODING 59010
SWIDTH 500 0
DWIDTH 2 0
BBX 3 3 0 0
BITMAP
40
E0
E0
ENDCHAR
STARTCHAR E683
ENCODING 59011
SWIDTH 500 0
DWIDTH 2 0
BBX 3 3 0 0
BITMAP
80
40
E0
ENDCHAR
STARTCHAR E684
ENCODING 59012
SWIDTH 500 0
DWIDTH 2 0
BBX 3 3 0 0
BITMAP
40
A0
E0
ENDCHAR
STARTCHAR E685
ENCODING 59013
SWIDTH 500 0
DWIDTH 2 0
BBX 3 3 0 0
BITMAP
E0
E0
E0
ENDCHAR
STARTCHAR E686
ENCODING 59014
SWIDTH 500 0
DWIDTH 2 0
BBX 3 2 0 0
BITMAP
E0
40
ENDCHAR
STARTCHAR E687
ENCODING 59015
SWIDTH 500 0
DWIDTH 2 0
BBX 3 3 0 0
BITMAP
E0
E0
E0
ENDCHAR
STARTCHAR E688
ENCODING 59016
SWIDTH 500 0
DWIDTH 2 0
BBX 3 3 0 0
BITMAP
A0
80
80
ENDCHAR
STARTCHAR E689
ENCODING 59017
SWIDTH 500 0
DWIDTH 2 0
BBX 3 3 0 0
BITMAP
E0
A0
E0
ENDCHAR
STARTCHAR E68A
ENCODING 59018
SWIDTH 500 0
DWIDTH 2 0
BBX 3 3 0 0
BITMAP
60
E0
60
ENDCHAR
STARTCHAR E68B
ENCODING 59019
SWIDTH 500 0
DWIDTH 2 0
BBX 4 3 0 0
BITMAP
E0
D0
E0
ENDCHAR
STARTCHAR E68C
ENCODING 59020
SWIDTH 500 0
DWIDTH 2 0
BBX 3 3 0 0
BITMAP
C0
E0
40
ENDCHAR
STARTCHAR E68D
ENCODING 59021
SWIDTH 500 0
DWIDTH 2 0
BBX 4 3 0 0
BITMAP
E0
90
E0
ENDCHAR
STARTCHAR E68E
ENCODING 59022
SWIDTH 500 0
DWIDTH 2 0
BBX 2 3 0 0
BITMAP
C0
C0
C0
ENDCHAR
STARTCHAR E68F
ENCODING 59023
SWIDTH 500 0
DWIDTH 2 0
BBX 3 3 0 0
BITMAP
E0
A0
60
ENDCHAR
STARTCHAR E690
ENCODING 59024
SWIDTH 500 0
DWIDTH 2 0
BBX 3 3 0 0
BITMAP
E0
E0
E0
ENDCHAR
STARTCHAR E691
ENCODING 59025
SWIDTH 500 0
DWIDTH 2 0
BBX 2 3 0 0
BITMAP
C0
40
C0
ENDCHAR
STARTCHAR E692
ENCODING 59026
SWIDTH 500 0
DWIDTH 2 0
BBX 3 3 0 0
BITMAP
E0
E0
E0
ENDCHAR
STARTCHAR E693
ENCODING 59027
SWIDTH 500 0
DWIDTH 2 0
BBX 2 3 0 0
BITMAP
C0
40
40
ENDCHAR
STARTCHAR E694
ENCODING 59028
SWIDTH 500 0
DWIDTH 2 0
BBX 4 3 0 0
BITMAP
E0
A0
F0
ENDCHAR
STARTCHAR E695
ENCODING 59029
SWIDTH 500 0
DWIDTH 2 0
BBX 3 3 0 0
BITMAP
E0
A0
40
ENDCHAR
STARTCHAR E696
ENCODING 59030
SWIDTH 500 0
DWIDTH 2 0
BBX 3 3 0 0
BITMAP
E0
A0
E0
ENDCHAR
STARTCHAR E697
ENCODING 59031
SWIDTH 500 0
DWIDTH 2 0
BBX 3 3 0 0
BITMAP
E0
E0
E0
ENDCHAR
STARTCHAR E698
ENCODING 59032
SWIDTH 500 0
DWIDTH 2 0
BBX 3 3 0 0
BITMAP
C0
E0
60
ENDCHAR
STARTCHAR E699
ENCODING 59033
SWIDTH 500 0
DWIDTH 2 0
BBX 3 3 0 0
BITMAP
A0
60
E0
ENDCHAR
STARTCHAR E69A
ENCODING 59034
SWIDTH 500 0
DWIDTH 2 0
BBX 3 3 0 0
BITMAP
A0
60
40
ENDCHAR
STARTCHAR E69B
ENCODING 59035
SWIDTH 500 0
DWIDTH 2 0
BBX 3 2 0 0
BITMAP
E0
40
ENDCHAR
STARTCHAR E69C
ENCODING 59036
SWIDTH 500 0
DWIDTH 2 0
BBX 3 3 0 0
BITMAP
E0
E0
E0
ENDCHAR
STARTCHAR E69D
ENCODING 59037
SWIDTH 500 0
DWIDTH 2 0
BBX 3 3 0 0
BITMAP
E0
A0
E0
ENDCHAR
STARTCHAR E69E
ENCODING 59038
SWIDTH 500 0
DWIDTH 2 0
BBX 3 3 0 0
BITMAP
E0
C0
E0
ENDCHAR
STARTCHAR E69F
ENCODING 59039
SWIDTH 500 0
DWIDTH 2 0
BBX 4 3 0 0
BITMAP
E0
90
E0
ENDCHAR
STARTCHAR E6A0
ENCODING 59040
SWIDTH 500 0
DWIDTH 2 0
BBX 3 3 0 0
BITMAP
E0
60
40
ENDCHAR
STARTCHAR E6A1
ENCODING 59041
SWIDTH 500 0
DWIDTH 2 0
BBX 3 3 0 0
BITMAP
E0
E0
E0
ENDCHAR
STARTCHAR E6A2
ENCODING 59042
SWIDTH 500 0
DWIDTH 2 0
BBX 3 2 0 0
BITMAP
A0
E0
ENDCHAR
STARTCHAR E6A3
ENCODING 59043
SWIDTH 500 0
DWIDTH 2 0
BBX 3 3 0 0
BITMAP
E0
E0
E0
ENDCHAR
STARTCHAR E6A4
ENCODING 59044
SWIDTH 500 0
DWIDTH 2 0
BBX 3 3 0 0
BITMAP
40
E0
60
ENDCHAR
STARTCHAR E6A5
ENCODING 59045
SWIDTH 500 0
DWIDTH 2 0
BBX 3 3 0 0
BITMAP
E0
E0
E0
ENDCHAR
STARTCHAR E6A6
ENCODING 59046
SWIDTH 500 0
DWIDTH 2 0
BBX 3 3 0 0
BITMAP
E0
E0
E0
ENDCHAR
STARTCHAR E6A7
ENCODING 59047
SWIDTH 500 0
DWIDTH 2 0
BBX 3 3 0 0
BITMAP
40
C0
E0
ENDCHAR
STARTCHAR E6A8
ENCODING 59048
SWIDTH 500 0
DWIDTH 2 0
BBX 1 2 1 0
BITMAP
80
80
ENDCHAR
STARTCHAR E6A9
ENCODING 59049
SWIDTH 500 0
DWIDTH 2 0
BBX 3 3 0 0
BITMAP
E0
E0
E0
ENDCHAR
STARTCHAR E6AA
ENCODING 59050
SWIDTH 500 0
DWIDTH 2 0
BBX 3 3 0 0
BITMAP
A0
A0
E0
ENDCHAR
STARTCHAR E6AB
ENCODING 59051
SWIDTH 500 0
DWIDTH 2 0
BBX 3 3 0 0
BITMAP
60
A0
60
ENDCHAR
STARTCHAR E6AC
ENCODING 59052
SWIDTH 500 0
DWIDTH 2 0
BBX 3 3 0 0
BITMAP
A0
60
60
ENDCHAR
STARTCHAR E6AD
ENCODING 59053
SWIDTH 500 0
DWIDTH 2 0
BBX 3 3 0 0
BITMAP
C0
E0
E0
ENDCHAR
STARTCHAR E700
ENCODING 59136
SWIDTH 500 0
DWIDTH 2 0
BBX 2 3 0 0
BITMAP
80
C0
80
ENDCHAR
STARTCHAR E701
ENCODING 59137
SWIDTH 500 0
DWIDTH 2 0
BBX 3 3 0 0
BITMAP
60
C0
E0
ENDCHAR
STARTCHAR E702
ENCODING 59138
SWIDTH 500 0
DWIDTH 2 0
BBX 3 3 0 0
BITMAP
40
A0
40
ENDCHAR
STARTCHAR E703
ENCODING 59139
SWIDTH 500 0
DWIDTH 2 0
BBX 3 3 0 0
BITMAP
E0
E0
C0
ENDCHAR
STARTCHAR E704
ENCODING 59140
SWIDTH 500 0
DWIDTH 2 0
BBX 3 3 0 0
BITMAP
80
C0
20
ENDCHAR
STARTCHAR E705
ENCODING 59141
SWIDTH 500 0
DWIDTH 2 0
BBX 3 3 0 0
BITMAP
E0
E0
E0
ENDCHAR
STARTCHAR E706
ENCODING 59142
SWIDTH 500 0
DWIDTH 2 0
BBX 2 3 0 0
BITMAP
C0
C0
C0
ENDCHAR
STARTCHAR E707
ENCODING 59143
SWIDTH 500 0
DWIDTH 2 0
BBX 3 3 0 0
BITMAP
E0
A0
40
ENDCHAR
STARTCHAR E708
ENCODING 59144
SWIDTH 500 0
DWIDTH 2 0
BBX 3 3 0 0
BITMAP
A0
E0
E0
ENDCHAR
STARTCHAR E709
ENCODING 59145
SWIDTH 500 0
DWIDTH 2 0
BBX 3 3 0 0
BITMAP
40
A0
A0
ENDCHAR
STARTCHAR E70A
ENCODING 59146
SWIDTH 500 0
DWIDTH 2 0
BBX 3 3 0 0
BITMAP
C0
E0
E0
ENDCHAR
STARTCHAR E70B
ENCODING 59147
SWIDTH 500 0
DWIDTH 2 0
BBX 3 3 0 0
BITMAP
C0
A0
C0
ENDCHAR
STARTCHAR E70C
ENCODING 59148
SWIDTH 500 0
DWIDTH 2 0
BBX 3 3 0 0
BITMAP
20
E0
20
ENDCHAR
STARTCHAR E70D
ENCODING 59149
SWIDTH 500 0
DWIDTH 2 0
BBX 1 3 1 0
BITMAP
80
80
80
ENDCHAR
STARTCHAR E70E
ENCODING 59150
SWIDTH 500 0
DWIDTH 2 0
BBX 3 3 0 0
BITMAP
60
E0
60
ENDCHAR
STARTCHAR E70F
ENCODING 59151
SWIDTH 500 0
DWIDTH 2 0
BBX 3 3 0 0
BITMAP
E0
E0
E0
ENDCHAR
STARTCHAR E710
ENCODING 59152
SWIDTH 500 0
DWIDTH 2 0
BBX 3 3 0 0
BITMAP
40
E0
C0
ENDCHAR
STARTCHAR E711
ENCODING 59153
SWIDTH 500 0
DWIDTH 2 0
BBX 3 3 0 0
BITMAP
40
E0
E0
ENDCHAR
STARTCHAR E712
ENCODING 59154
SWIDTH 500 0
DWIDTH 2 0
BBX 3 3 0 0
BITMAP
40
A0
E0
ENDCHAR
STARTCHAR E713
ENCODING 59155
SWIDTH 500 0
DWIDTH 2 0
BBX 3 3 0 0
BITMAP
40
E0
A0
ENDCHAR
STARTCHAR E714
ENCODING 59156
SWIDTH 500 0
DWIDTH 2 0
BBX 3 3 0 0
BITMAP
E0
E0
A0
ENDCHAR
STARTCHAR E715
ENCODING 59157
SWIDTH 500 0
DWIDTH 2 0
BBX 4 1 0 1
BITMAP
F0
ENDCHAR
STARTCHAR E716
ENCODING 59158
SWIDTH 500 0
DWIDTH 2 0
BBX 3 3 0 0
BITMAP
40
A0
40
ENDCHAR
STARTCHAR E717
ENCODING 59159
SWIDTH 500 0
DWIDTH 2 0
BBX 4 1 0 1
BITMAP
D0
ENDCHAR
STARTCHAR E718
ENCODING 59160
SWIDTH 500 0
DWIDTH 2 0
BBX 3 3 0 0
BITMAP
E0
E0
E0
ENDCHAR
STARTCHAR E719
ENCODING 59161
SWIDTH 500 0
DWIDTH 2 0
BBX 4 1 0 1
BITMAP
B0
ENDCHAR
STARTCHAR E71A
ENCODING 59162
SWIDTH 500 0
DWIDTH 2 0
BBX 3 3 0 0
BITMAP
E0
E0
E0
ENDCHAR
STARTCHAR E71B
ENCODING 59163
SWIDTH 500 0
DWIDTH 2 0
BBX 4 1 0 1
BITMAP
F0
ENDCHAR
STARTCHAR E71C
ENCODING 59164
SWIDTH 500 0
DWIDTH 2 0
BBX 4 1 0 1
BITMAP
F0
ENDCHAR
STARTCHAR E71D
ENCODING 59165
SWIDTH 500 0
DWIDTH 2 0
BBX 4 1 0 1
BITMAP
F0
ENDCHAR
STARTCHAR E71E
ENCODING 59166
SWIDTH 500 0
DWIDTH 2 0
BBX 4 1 0 1
BITMAP
F0
ENDCHAR
STARTCHAR E71F
ENCODING 59167
SWIDTH 500 0
DWIDTH 2 0
BBX 4 1 0 1
BITMAP
F0
ENDCHAR
STARTCHAR E720
ENCODING 59168
SWIDTH 500 0
DWIDTH 2 0
BBX 4 2 0 0
BITMAP
70
F0
ENDCHAR
STARTCHAR E721
ENCODING 59169
SWIDTH 500 0
DWIDTH 2 0
BBX 3 3 0 0
BITMAP
60
E0
60
ENDCHAR
STARTCHAR E722
ENCODING 59170
SWIDTH 500 0
DWIDTH 2 0
BBX 3 3 0 0
BITMAP
C0
A0
C0
ENDCHAR
STARTCHAR E723
ENCODING 59171
SWIDTH 500 0
DWIDTH 2 0
BBX 3 2 0 0
BITMAP
E0
40
ENDCHAR
STARTCHAR E724
ENCODING 59172
SWIDTH 500 0
DWIDTH 2 0
BBX 2 3 0 0
BITMAP
C0
C0
C0
ENDCHAR
STARTCHAR E725
ENCODING 59173
SWIDTH 500 0
DWIDTH 2 0
BBX 2 3 0 0
BITMAP
C0
C0
80
ENDCHAR
STARTCHAR E726
ENCODING 59174
SWIDTH 500 0
DWIDTH 2 0
BBX 3 3 0 0
BITMAP
C0
A0
A0
ENDCHAR
STARTCHAR E727
ENCODING 59175
SWIDTH 500 0
DWIDTH 2 0
BBX 3 3 0 0
BITMAP
80
E0
80
ENDCHAR
STARTCHAR E728
ENCODING 59176
SWIDTH 500 0
DWIDTH 2 0
BBX 3 3 0 0
BITMAP
C0
A0
E0
ENDCHAR
STARTCHAR E729
ENCODING 59177
SWIDTH 500 0
DWIDTH 2 0
BBX 3 1 0 1
BITMAP
E0
ENDCHAR
STARTCHAR E72A
ENCODING 59178
SWIDTH 500 0
DWIDTH 2 0
BBX 3 3 0 0
BITMAP
80
C0
E0
ENDCHAR
STARTCHAR E72B
ENCODING 59179
SWIDTH 500 0
DWIDTH 2 0
BBX 3 1 0 1
BITMAP
E0
ENDCHAR
STARTCHAR E72C
ENCODING 59180
SWIDTH 500 0
DWIDTH 2 0
BBX 3 1 0 1
BITMAP
E0
ENDCHAR
STARTCHAR E72D
ENCODING 59181
SWIDTH 500 0
DWIDTH 2 0
BBX 3 3 0 0
BITMAP
E0
A0
E0
ENDCHAR
STARTCHAR E72E
ENCODING 59182
SWIDTH 500 0
DWIDTH 2 0
BBX 3 1 0 1
BITMAP
E0
ENDCHAR
STARTCHAR E72F
ENCODING 59183
SWIDTH 500 0
DWIDTH 2 0
BBX 3 3 0 0
BITMAP
C0
A0
C0
ENDCHAR
STARTCHAR E730
ENCODING 59184
SWIDTH 500 0
DWIDTH 2 0
BBX 3 3 0 0
BITMAP
60
E0
60
ENDCHAR
STARTCHAR E731
ENCODING 59185
SWIDTH 500 0
DWIDTH 2 0
BBX 3 3 0 0
BITMAP
40
A0
E0
ENDCHAR
STARTCHAR E732
ENCODING 59186
SWIDTH 500 0
DWIDTH 2 0
BBX 3 3 0 0
BITMAP
E0
A0
E0
ENDCHAR
STARTCHAR E733
ENCODING 59187
SWIDTH 500 0
DWIDTH 2 0
BBX 3 3 0 0
BITMAP
E0
A0
E0
ENDCHAR
STARTCHAR E734
ENCODING 59188
SWIDTH 500 0
DWIDTH 2 0
BBX 3 3 0 0
BITMAP
80
C0
60
ENDCHAR
STARTCHAR E735
ENCODING 59189
SWIDTH 500 0
DWIDTH 2 0
BBX 3 3 0 0
BITMAP
40
A0
C0
ENDCHAR
STARTCHAR E736
ENCODING 59190
SWIDTH 500 0
DWIDTH 2 0
BBX 3 3 0 0
BITMAP
E0
A0
E0
ENDCHAR
STARTCHAR E737
ENCODING 59191
SWIDTH 500 0
DWIDTH 2 0
BBX 2 3 0 0
BITMAP
C0
C0
C0
ENDCHAR
STARTCHAR E738
ENCODING 59192
SWIDTH 500 0
DWIDTH 2 0
BBX 2 3 0 0
BITMAP
40
40
C0
ENDCHAR
STARTCHAR E739
ENCODING 59193
SWIDTH 500 0
DWIDTH 2 0
BBX 4 3 0 0
BITMAP
70
A0
E0
ENDCHAR
STARTCHAR E73A
ENCODING 59194
SWIDTH 500 0
DWIDTH 2 0
BBX 3 3 0 0
BITMAP
C0
E0
C0
ENDCHAR
STARTCHAR E73B
ENCODING 59195
SWIDTH 500 0
DWIDTH 2 0
BBX 3 3 0 0
BITMAP
60
C0
C0
ENDCHAR
STARTCHAR E73C
ENCODING 59196
SWIDTH 500 0
DWIDTH 2 0
BBX 3 3 0 0
BITMAP
40
E0
40
ENDCHAR
STARTCHAR E73D
ENCODING 59197
SWIDTH 500 0
DWIDTH 2 0
BBX 3 1 0 1
BITMAP
E0
ENDCHAR
STARTCHAR E73E
ENCODING 59198
SWIDTH 500 0
DWIDTH 2 0
BBX 3 1 0 1
BITMAP
E0
ENDCHAR
STARTCHAR E73F
ENCODING 59199
SWIDTH 500 0
DWIDTH 2 0
BBX 3 2 0 0
BITMAP
A0
40
ENDCHAR
STARTCHAR E740
ENCODING 59200
SWIDTH 500 0
DWIDTH 2 0
BBX 3 3 0 0
BITMAP
C0
A0
C0
ENDCHAR
STARTCHAR E741
ENCODING 59201
SWIDTH 500 0
DWIDTH 2 0
BBX 3 3 0 0
BITMAP
A0
C0
E0
ENDCHAR
STARTCHAR E742
ENCODING 59202
SWIDTH 500 0
DWIDTH 2 0
BBX 3 3 0 0
BITMAP
40
E0
E0
ENDCHAR
STARTCHAR E743
ENCODING 59203
SWIDTH 500 0
DWIDTH 2 0
BBX 3 3 0 0
BITMAP
C0
E0
E0
ENDCHAR
STARTCHAR E744
ENCODING 59204
SWIDTH 500 0
DWIDTH 2 0
BBX 3 3 0 0
BITMAP
60
E0
C0
ENDCHAR
STARTCHAR E745
ENCODING 59205
SWIDTH 500 0
DWIDTH 2 0
BBX 3 3 0 0
BITMAP
E0
A0
C0
ENDCHAR
STARTCHAR E746
ENCODING 59206
SWIDTH 500 0
DWIDTH 2 0
BBX 3 3 0 0
BITMAP
C0
A0
E0
ENDCHAR
STARTCHAR E747
ENCODING 59207
SWIDTH 500 0
DWIDTH 2 0
BBX 3 3 0 0
BITMAP
E0
A0
E0
ENDCHAR
STARTCHAR E748
ENCODING 59208
SWIDTH 500 0
DWIDTH 2 0
BBX 3 3 0 0
BITMAP
40
A0
E0
ENDCHAR
STARTCHAR E749
ENCODING 59209
SWIDTH 500 0
DWIDTH 2 0
BBX 3 3 0 0
BITMAP
E0
A0
E0
ENDCHAR
STARTCHAR E74A
ENCODING 59210
SWIDTH 500 0
DWIDTH 2 0
BBX 3 3 0 0
BITMAP
E0
E0
C0
ENDCHAR
STARTCHAR E74B
ENCODING 59211
SWIDTH 500 0
DWIDTH 2 0
BBX 4 3 0 0
BITMAP
E0
F0
C0
ENDCHAR
STARTCHAR E74C
ENCODING 59212
SWIDTH 500 0
DWIDTH 2 0
BBX 2 3 0 0
BITMAP
C0
C0
C0
ENDCHAR
STARTCHAR E74D
ENCODING 59213
SWIDTH 500 0
DWIDTH 2 0
BBX 3 3 0 0
BITMAP
E0
A0
C0
ENDCHAR
STARTCHAR E74E
ENCODING 59214
SWIDTH 500 0
DWIDTH 2 0
BBX 3 3 0 0
BITMAP
20
E0
E0
ENDCHAR
STARTCHAR E74F
ENCODING 59215
SWIDTH 500 0
DWIDTH 2 0
BBX 3 3 0 0
BITMAP
E0
A0
E0
ENDCHAR
STARTCHAR E750
ENCODING 59216
SWIDTH 500 0
DWIDTH 2 0
BBX 3 3 0 0
BITMAP
C0
A0
E0
ENDCHAR
STARTCHAR E751
ENCODING 59217
SWIDTH 500 0
DWIDTH 2 0
BBX 3 3 0 0
BITMAP
40
E0
40
ENDCHAR
STARTCHAR E752
ENCODING 59218
SWIDTH 500 0
DWIDTH 2 0
BBX 2 3 0 0
BITMAP
C0
C0
C0
ENDCHAR
STARTCHAR E753
ENCODING 59219
SWIDTH 500 0
DWIDTH 2 0
BBX 3 3 0 0
BITMAP
E0
E0
C0
ENDCHAR
STARTCHAR E754
ENCODING 59220
SWIDTH 500 0
DWIDTH 2 0
BBX 3 3 0 0
BITMAP
E0
E0
C0
ENDCHAR
STARTCHAR E755
ENCODING 59221
SWIDTH 500 0
DWIDTH 2 0
BBX 3 3 0 0
BITMAP
C0
60
E0
ENDCHAR
STARTCHAR E756
ENCODING 59222
SWIDTH 500 0
DWIDTH 2 0
BBX 2 2 0 0
BITMAP
C0
80
ENDCHAR
STARTCHAR E757
ENCODING 59223
SWIDTH 500 0
DWIDTH 2 0
BBX 3 3 0 0
BITMAP
C0
A0
C0
ENDCHAR
STARTCHAR E758
ENCODING 59224
SWIDTH 500 0
DWIDTH 2 0
BBX 3 1 0 1
BITMAP
E0
ENDCHAR
STARTCHAR E759
ENCODING 59225
SWIDTH 500 0
DWIDTH 2 0
BBX 3 3 0 0
BITMAP
20
E0
80
ENDCHAR
STARTCHAR E75A
ENCODING 59226
SWIDTH 500 0
DWIDTH 2 0
BBX 3 3 0 0
BITMAP
E0
E0
E0
ENDCHAR
STARTCHAR E75B
ENCODING 59227
SWIDTH 500 0
DWIDTH 2 0
BBX 3 3 0 0
BITMAP
E0
40
40
ENDCHAR
STARTCHAR E75C
ENCODING 59228
SWIDTH 500 0
DWIDTH 2 0
BBX 3 3 0 0
BITMAP
E0
C0
C0
ENDCHAR
STARTCHAR E75D
ENCODING 59229
SWIDTH 500 0
DWIDTH 2 0
BBX 2 3 0 0
BITMAP
40
C0
C0
ENDCHAR
STARTCHAR E75E
ENCODING 59230
SWIDTH 500 0
DWIDTH 2 0
BBX 2 3 0 0
BITMAP
C0
C0
C0
ENDCHAR
STARTCHAR E75F
ENCODING 59231
SWIDTH 500 0
DWIDTH 2 0
BBX 3 3 0 0
BITMAP
C0
A0
C0
ENDCHAR
STARTCHAR E760
ENCODING 59232
SWIDTH 500 0
DWIDTH 2 0
BBX 3 3 0 0
BITMAP
E0
E0
E0
ENDCHAR
STARTCHAR E761
ENCODING 59233
SWIDTH 500 0
DWIDTH 2 0
BBX 3 3 0 0
BITMAP
60
A0
C0
ENDCHAR
STARTCHAR E762
ENCODING 59234
SWIDTH 500 0
DWIDTH 2 0
BBX 3 1 0 1
BITMAP
E0
ENDCHAR
STARTCHAR E763
ENCODING 59235
SWIDTH 500 0
DWIDTH 2 0
BBX 2 4 0 -1
BITMAP
40
C0
40
40
ENDCHAR
STARTCHAR E764
ENCODING 59236
SWIDTH 500 0
DWIDTH 2 0
BBX 3 3 0 0
BITMAP
A0
E0
60
ENDCHAR
STARTCHAR E765
ENCODING 59237
SWIDTH 500 0
DWIDTH 2 0
BBX 3 1 0 1
BITMAP
E0
ENDCHAR
STARTCHAR E766
ENCODING 59238
SWIDTH 500 0
DWIDTH 2 0
BBX 2 3 0 0
BITMAP
80
C0
C0
ENDCHAR
STARTCHAR E767
ENCODING 59239
SWIDTH 500 0
DWIDTH 2 0
BBX 2 3 0 0
BITMAP
C0
C0
C0
ENDCHAR
STARTCHAR E768
ENCODING 59240
SWIDTH 500 0
DWIDTH 2 0
BBX 3 3 0 0
BITMAP
E0
A0
E0
ENDCHAR
STARTCHAR E769
ENCODING 59241
SWIDTH 500 0
DWIDTH 2 0
BBX 3 3 0 0
BITMAP
C0
A0
E0
ENDCHAR
STARTCHAR E76A
ENCODING 59242
SWIDTH 500 0
DWIDTH 2 0
BBX 2 3 0 0
BITMAP
40
C0
C0
ENDCHAR
STARTCHAR E76B
ENCODING 59243
SWIDTH 500 0
DWIDTH 2 0
BBX 2 2 0 1
BITMAP
C0
40
ENDCHAR
STARTCHAR E76C
ENCODING 59244
SWIDTH 500 0
DWIDTH 2 0
BBX 3 1 0 1
BITMAP
E0
ENDCHAR
STARTCHAR E76D
ENCODING 59245
SWIDTH 500 0
DWIDTH 2 0
BBX 3 3 0 0
BITMAP
40
E0
40
ENDCHAR
STARTCHAR E76E
ENCODING 59246
SWIDTH 500 0
DWIDTH 2 0
BBX 3 3 0 0
BITMAP
E0
A0
40
ENDCHAR
STARTCHAR E76F
ENCODING 59247
SWIDTH 500 0
DWIDTH 2 0
BBX 3 3 0 0
BITMAP
A0
E0
A0
ENDCHAR
STARTCHAR E770
ENCODING 59248
SWIDTH 500 0
DWIDTH 2 0
BBX 2 3 0 0
BITMAP
C0
C0
C0
ENDCHAR
STARTCHAR E771
ENCODING 59249
SWIDTH 500 0
DWIDTH 2 0
BBX 3 3 0 0
BITMAP
40
A0
A0
ENDCHAR
STARTCHAR E772
ENCODING 59250
SWIDTH 500 0
DWIDTH 2 0
BBX 3 3 0 0
BITMAP
E0
A0
40
ENDCHAR
STARTCHAR E773
ENCODING 59251
SWIDTH 500 0
DWIDTH 2 0
BBX 3 3 0 0
BITMAP
40
A0
C0
ENDCHAR
STARTCHAR E774
ENCODING 59252
SWIDTH 500 0
DWIDTH 2 0
BBX 2 3 0 0
BITMAP
40
C0
C0
ENDCHAR
STARTCHAR E775
ENCODING 59253
SWIDTH 500 0
DWIDTH 2 0
BBX 3 1 0 1
BITMAP
E0
ENDCHAR
STARTCHAR E776
ENCODING 59254
SWIDTH 500 0
DWIDTH 2 0
BBX 3 1 0 1
BITMAP
A0
ENDCHAR
STARTCHAR E777
ENCODING 59255
SWIDTH 500 0
DWIDTH 2 0
BBX 3 2 0 0
BITMAP
E0
A0
ENDCHAR
STARTCHAR E778
ENCODING 59256
SWIDTH 500 0
DWIDTH 2 0
BBX 3 1 0 1
BITMAP
E0
ENDCHAR
STARTCHAR E779
ENCODING 59257
SWIDTH 500 0
DWIDTH 2 0
BBX 3 3 0 0
BITMAP
A0
C0
C0
ENDCHAR
STARTCHAR E77A
ENCODING 59258
SWIDTH 500 0
DWIDTH 2 0
BBX 3 3 0 0
BITMAP
E0
A0
E0
ENDCHAR
STARTCHAR E77B
ENCODING 59259
SWIDTH 500 0
DWIDTH 2 0
BBX 2 3 0 0
BITMAP
C0
C0
C0
ENDCHAR
STARTCHAR E77C
ENCODING 59260
SWIDTH 500 0
DWIDTH 2 0
BBX 3 3 0 0
BITMAP
80
60
C0
ENDCHAR
STARTCHAR E77D
ENCODING 59261
SWIDTH 500 0
DWIDTH 2 0
BBX 3 3 0 0
BITMAP
E0
A0
C0
ENDCHAR
STARTCHAR E77E
ENCODING 59262
SWIDTH 500 0
DWIDTH 2 0
BBX 3 3 0 0
BITMAP
E0
E0
E0
ENDCHAR
STARTCHAR E77F
ENCODING 59263
SWIDTH 500 0
DWIDTH 2 0
BBX 4 1 0 1
BITMAP
F0
ENDCHAR
STARTCHAR E780
ENCODING 59264
SWIDTH 500 0
DWIDTH 2 0
BBX 3 4 0 -1
BITMAP
40
E0
A0
40
ENDCHAR
STARTCHAR E781
ENCODING 59265
SWIDTH 500 0
DWIDTH 2 0
BBX 4 4 0 -1
BITMAP
F0
F0
F0
F0
ENDCHAR
STARTCHAR E782
ENCODING 59266
SWIDTH 500 0
DWIDTH 2 0
BBX 4 4 0 -1
BITMAP
F0
20
20
40
ENDCHAR
STARTCHAR E783
ENCODING 59267
SWIDTH 500 0
DWIDTH 2 0
BBX 3 3 0 0
BITMAP
C0
E0
E0
ENDCHAR
STARTCHAR E784
ENCODING 59268
SWIDTH 500 0
DWIDTH 2 0
BBX 2 3 0 0
BITMAP
40
C0
40
ENDCHAR
STARTCHAR E785
ENCODING 59269
SWIDTH 500 0
DWIDTH 2 0
BBX 2 2 0 0
BITMAP
C0
40
ENDCHAR
STARTCHAR E786
ENCODING 59270
SWIDTH 500 0
DWIDTH 2 0
BBX 3 3 0 0
BITMAP
40
A0
40
ENDCHAR
STARTCHAR E787
ENCODING 59271
SWIDTH 500 0
DWIDTH 2 0
BBX 2 3 0 0
BITMAP
C0
C0
C0
ENDCHAR
STARTCHAR E788
ENCODING 59272
SWIDTH 500 0
DWIDTH 2 0
BBX 3 3 0 0
BITMAP
40
A0
C0
ENDCHAR
STARTCHAR E789
ENCODING 59273
SWIDTH 500 0
DWIDTH 2 0
BBX 3 3 0 0
BITMAP
E0
E0
E0
ENDCHAR
STARTCHAR E78A
ENCODING 59274
SWIDTH 500 0
DWIDTH 2 0
BBX 3 1 0 1
BITMAP
E0
ENDCHAR
STARTCHAR E78B
ENCODING 59275
SWIDTH 500 0
DWIDTH 2 0
BBX 3 3 0 0
BITMAP
E0
E0
E0
ENDCHAR
STARTCHAR E78C
ENCODING 59276
SWIDTH 500 0
DWIDTH 2 0
BBX 2 3 0 0
BITMAP
80
C0
40
ENDCHAR
STARTCHAR E78D
ENCODING 59277
SWIDTH 500 0
DWIDTH 2 0
BBX 3 1 0 1
BITMAP
E0
ENDCHAR
STARTCHAR E78E
ENCODING 59278
SWIDTH 500 0
DWIDTH 2 0
BBX 2 3 0 0
BITMAP
40
C0
C0
ENDCHAR
STARTCHAR E78F
ENCODING 59279
SWIDTH 500 0
DWIDTH 2 0
BBX 1 3 1 0
BITMAP
80
80
80
ENDCHAR
STARTCHAR E790
ENCODING 59280
SWIDTH 500 0
DWIDTH 2 0
BBX 3 1 0 1
BITMAP
E0
ENDCHAR
STARTCHAR E791
ENCODING 59281
SWIDTH 500 0
DWIDTH 2 0
BBX 3 3 0 0
BITMAP
60
A0
E0
ENDCHAR
STARTCHAR E792
ENCODING 59282
SWIDTH 500 0
DWIDTH 2 0
BBX 3 1 0 1
BITMAP
E0
ENDCHAR
STARTCHAR E793
ENCODING 59283
SWIDTH 500 0
DWIDTH 2 0
BBX 3 3 0 0
BITMAP
20
E0
C0
ENDCHAR
STARTCHAR E794
ENCODING 59284
SWIDTH 500 0
DWIDTH 2 0
BBX 3 3 0 0
BITMAP
40
80
E0
ENDCHAR
STARTCHAR E795
ENCODING 59285
SWIDTH 500 0
DWIDTH 2 0
BBX 3 3 0 0
BITMAP
E0
E0
E0
ENDCHAR
STARTCHAR E796
ENCODING 59286
SWIDTH 500 0
DWIDTH 2 0
BBX 2 1 0 1
BITMAP
C0
ENDCHAR
STARTCHAR E797
ENCODING 59287
SWIDTH 500 0
DWIDTH 2 0
BBX 3 1 0 1
BITMAP
E0
ENDCHAR
STARTCHAR E798
ENCODING 59288
SWIDTH 500 0
DWIDTH 2 0
BBX 3 3 0 0
BITMAP
40
E0
60
ENDCHAR
STARTCHAR E799
ENCODING 59289
SWIDTH 500 0
DWIDTH 2 0
BBX 3 3 0 0
BITMAP
E0
A0
E0
ENDCHAR
STARTCHAR E79A
ENCODING 59290
SWIDTH 500 0
DWIDTH 2 0
BBX 3 1 0 1
BITMAP
E0
ENDCHAR
STARTCHAR E79B
ENCODING 59291
SWIDTH 500 0
DWIDTH 2 0
BBX 3 3 0 0
BITMAP
E0
E0
E0
ENDCHAR
STARTCHAR E79C
ENCODING 59292
SWIDTH 500 0
DWIDTH 2 0
BBX 3 3 0 0
BITMAP
E0
E0
E0
ENDCHAR
STARTCHAR E79D
ENCODING 59293
SWIDTH 500 0
DWIDTH 2 0
BBX 3 3 0 0
BITMAP
E0
A0
E0
ENDCHAR
STARTCHAR E79E
ENCODING 59294
SWIDTH 500 0
DWIDTH 2 0
BBX 3 3 0 0
BITMAP
40
A0
E0
ENDCHAR
STARTCHAR E79F
ENCODING 59295
SWIDTH 500 0
DWIDTH 2 0
BBX 3 1 0 1
BITMAP
E0
ENDCHAR
STARTCHAR E7A0
ENCODING 59296
SWIDTH 500 0
DWIDTH 2 0
BBX 3 3 0 0
BITMAP
C0
A0
E0
ENDCHAR
STARTCHAR E7A1
ENCODING 59297
SWIDTH 500 0
DWIDTH 2 0
BBX 3 3 0 0
BITMAP
E0
E0
E0
ENDCHAR
STARTCHAR E7A2
ENCODING 59298
SWIDTH 500 0
DWIDTH 2 0
BBX 2 1 0 1
BITMAP
C0
ENDCHAR
STARTCHAR E7A3
ENCODING 59299
SWIDTH 500 0
DWIDTH 2 0
BBX 3 3 0 0
BITMAP
E0
E0
E0
ENDCHAR
STARTCHAR E7A4
ENCODING 59300
SWIDTH 500 0
DWIDTH 2 0
BBX 2 3 0 0
BITMAP
40
C0
40
ENDCHAR
STARTCHAR E7A5
ENCODING 59301
SWIDTH 500 0
DWIDTH 2 0
BBX 2 3 0 0
BITMAP
80
C0
40
ENDCHAR
STARTCHAR E7A6
ENCODING 59302
SWIDTH 500 0
DWIDTH 2 0
BBX 3 1 0 1
BITMAP
E0
ENDCHAR
STARTCHAR E7A7
ENCODING 59303
SWIDTH 500 0
DWIDTH 2 0
BBX 3 3 0 0
BITMAP
40
E0
40
ENDCHAR
STARTCHAR E7A8
ENCODING 59304
SWIDTH 500 0
DWIDTH 2 0
BBX 3 3 0 0
BITMAP
40
E0
40
ENDCHAR
STARTCHAR E7A9
ENCODING 59305
SWIDTH 500 0
DWIDTH 2 0
BBX 2 3 0 0
BITMAP
C0
C0
C0
ENDCHAR
STARTCHAR E7AA
ENCODING 59306
SWIDTH 500 0
DWIDTH 2 0
BBX 3 3 0 0
BITMAP
E0
A0
E0
ENDCHAR
STARTCHAR E7AB
ENCODING 59307
SWIDTH 500 0
DWIDTH 2 0
BBX 3 3 0 0
BITMAP
40
40
E0
ENDCHAR
STARTCHAR E7AC
ENCODING 59308
SWIDTH 500 0
DWIDTH 2 0
BBX 3 3 0 0
BITMAP
60
E0
E0
ENDCHAR
STARTCHAR E7AD
ENCODING 59309
SWIDTH 500 0
DWIDTH 2 0
BBX 3 3 0 0
BITMAP
60
C0
80
ENDCHAR
STARTCHAR E7AE
ENCODING 59310
SWIDTH 500 0
DWIDTH 2 0
BBX 3 1 0 1
BITMAP
E0
ENDCHAR
STARTCHAR E7AF
ENCODING 59311
SWIDTH 500 0
DWIDTH 2 0
BBX 3 2 0 0
BITMAP
E0
E0
ENDCHAR
STARTCHAR E7B0
ENCODING 59312
SWIDTH 500 0
DWIDTH 2 0
BBX 4 3 0 0
BITMAP
40
F0
40
ENDCHAR
STARTCHAR E7B1
ENCODING 59313
SWIDTH 500 0
DWIDTH 2 0
BBX 4 3 0 0
BITMAP
D0
F0
B0
ENDCHAR
STARTCHAR E7B2
ENCODING 59314
SWIDTH 500 0
DWIDTH 2 0
BBX 3 3 0 0
BITMAP
60
E0
E0
ENDCHAR
STARTCHAR E7B3
ENCODING 59315
SWIDTH 500 0
DWIDTH 2 0
BBX 4 3 0 0
BITMAP
E0
B0
E0
ENDCHAR
STARTCHAR E7B4
ENCODING 59316
SWIDTH 500 0
DWIDTH 2 0
BBX 3 3 0 0
BITMAP
E0
E0
E0
ENDCHAR
STARTCHAR E7B5
ENCODING 59317
SWIDTH 500 0
DWIDTH 2 0
BBX 3 3 0 0
BITMAP
E0
E0
A0
ENDCHAR
STARTCHAR E7B6
ENCODING 59318
SWIDTH 500 0
DWIDTH 2 0
BBX 4 1 0 1
BITMAP
F0
ENDCHAR
STARTCHAR E7B7
ENCODING 59319
SWIDTH 500 0
DWIDTH 2 0
BBX 3 3 0 0
BITMAP
40
A0
60
ENDCHAR
STARTCHAR E7B8
ENCODING 59320
SWIDTH 500 0
DWIDTH 2 0
BBX 3 3 0 0
BITMAP
E0
E0
E0
ENDCHAR
STARTCHAR E7B9
ENCODING 59321
SWIDTH 500 0
DWIDTH 2 0
BBX 3 3 0 0
BITMAP
40
40
E0
ENDCHAR
STARTCHAR E7BA
ENCODING 59322
SWIDTH 500 0
DWIDTH 2 0
BBX 3 3 0 0
BITMAP
60
E0
60
ENDCHAR
STARTCHAR E7BB
ENCODING 59323
SWIDTH 500 0
DWIDTH 2 0
BBX 3 3 0 0
BITMAP
60
E0
20
ENDCHAR
STARTCHAR E7BC
ENCODING 59324
SWIDTH 500 0
DWIDTH 2 0
BBX 3 3 0 0
BITMAP
C0
E0
C0
ENDCHAR
STARTCHAR E7BD
ENCODING 59325
SWIDTH 500 0
DWIDTH 2 0
BBX 1 1 1 1
BITMAP
80
ENDCHAR
STARTCHAR E7BE
ENCODING 59326
SWIDTH 500 0
DWIDTH 2 0
BBX 1 1 1 1
BITMAP
80
ENDCHAR
STARTCHAR E7BF
ENCODING 59327
SWIDTH 500 0
DWIDTH 2 0
BBX 1 1 1 1
BITMAP
80
ENDCHAR
STARTCHAR E7C0
ENCODING 59328
SWIDTH 500 0
DWIDTH 2 0
BBX 1 1 1 1
BITMAP
80
ENDCHAR
STARTCHAR E7C1
ENCODING 59329
SWIDTH 500 0
DWIDTH 2 0
BBX 1 1 1 1
BITMAP
80
ENDCHAR
STARTCHAR E7C2
ENCODING 59330
SWIDTH 500 0
DWIDTH 2 0
BBX 1 1 1 1
BITMAP
80
ENDCHAR
STARTCHAR E7C3
ENCODING 59331
SWIDTH 500 0
DWIDTH 2 0
BBX 1 1 1 1
BITMAP
80
ENDCHAR
STARTCHAR E7C4
ENCODING 59332
SWIDTH 500 0
DWIDTH 2 0
BBX 2 3 0 0
BITMAP
40
80
80
ENDCHAR
STARTCHAR E7C5
ENCODING 59333
SWIDTH 500 0
DWIDTH 2 0
BBX 3 3 0 0
BITMAP
E0
E0
E0
ENDCHAR
STARTCHAR EA60
ENCODING 60000
SWIDTH 500 0
DWIDTH 2 0
BBX 3 3 0 0
BITMAP
40
E0
40
ENDCHAR
STARTCHAR EA61
ENCODING 60001
SWIDTH 500 0
DWIDTH 2 0
BBX 2 3 0 0
BITMAP
C0
C0
40
ENDCHAR
STARTCHAR EA62
ENCODING 60002
SWIDTH 500 0
DWIDTH 2 0
BBX 3 3 0 0
BITMAP
E0
A0
E0
ENDCHAR
STARTCHAR EA63
ENCODING 60003
SWIDTH 500 0
DWIDTH 2 0
BBX 3 3 0 0
BITMAP
E0
C0
40
ENDCHAR
STARTCHAR EA64
ENCODING 60004
SWIDTH 500 0
DWIDTH 2 0
BBX 4 3 0 0
BITMAP
E0
A0
B0
ENDCHAR
STARTCHAR EA65
ENCODING 60005
SWIDTH 500 0
DWIDTH 2 0
BBX 3 3 0 0
BITMAP
E0
A0
E0
ENDCHAR
STARTCHAR EA66
ENCODING 60006
SWIDTH 500 0
DWIDTH 2 0
BBX 4 3 0 0
BITMAP
60
90
E0
ENDCHAR
STARTCHAR EA67
ENCODING 60007
SWIDTH 500 0
DWIDTH 2 0
BBX 2 3 0 0
BITMAP
40
C0
40
ENDCHAR
STARTCHAR EA68
ENCODING 60008
SWIDTH 500 0
DWIDTH 2 0
BBX 3 4 0 -1
BITMAP
A0
E0
80
80
ENDCHAR
STARTCHAR EA69
ENCODING 60009
SWIDTH 500 0
DWIDTH 2 0
BBX 4 3 0 0
BITMAP
E0
F0
B0
ENDCHAR
STARTCHAR EA6A
ENCODING 60010
SWIDTH 500 0
DWIDTH 2 0
BBX 4 3 0 0
BITMAP
40
B0
60
ENDCHAR
STARTCHAR EA6B
ENCODING 60011
SWIDTH 500 0
DWIDTH 2 0
BBX 4 3 0 0
BITMAP
F0
90
60
ENDCHAR
STARTCHAR EA6C
ENCODING 60012
SWIDTH 500 0
DWIDTH 2 0
BBX 4 3 0 0
BITMAP
40
A0
F0
ENDCHAR
STARTCHAR EA6D
ENCODING 60013
SWIDTH 500 0
DWIDTH 2 0
BBX 4 4 0 -1
BITMAP
70
50
A0
80
ENDCHAR
STARTCHAR EA6E
ENCODING 60014
SWIDTH 500 0
DWIDTH 2 0
BBX 3 3 0 0
BITMAP
E0
A0
E0
ENDCHAR
STARTCHAR EA6F
ENCODING 60015
SWIDTH 500 0
DWIDTH 2 0
BBX 3 3 0 0
BITMAP
E0
A0
E0
ENDCHAR
STARTCHAR EA70
ENCODING 60016
SWIDTH 500 0
DWIDTH 2 0
BBX 4 3 0 0
BITMAP
60
D0
60
ENDCHAR
STARTCHAR EA71
ENCODING 60017
SWIDTH 500 0
DWIDTH 2 0
BBX 2 2 0 0
BITMAP
C0
40
ENDCHAR
STARTCHAR EA72
ENCODING 60018
SWIDTH 500 0
DWIDTH 2 0
BBX 2 3 0 0
BITMAP
C0
C0
C0
ENDCHAR
STARTCHAR EA73
ENCODING 60019
SWIDTH 500 0
DWIDTH 2 0
BBX 4 3 0 0
BITMAP
30
60
C0
ENDCHAR
STARTCHAR EA74
ENCODING 60020
SWIDTH 500 0
DWIDTH 2 0
BBX 4 3 0 0
BITMAP
E0
D0
F0
ENDCHAR
STARTCHAR EA75
ENCODING 60021
SWIDTH 500 0
DWIDTH 2 0
BBX 3 3 0 0
BITMAP
E0
E0
E0
ENDCHAR
STARTCHAR EA76
ENCODING 60022
SWIDTH 500 0
DWIDTH 2 0
BBX 2 3 0 0
BITMAP
C0
40
C0
ENDCHAR
STARTCHAR EA77
ENCODING 60023
SWIDTH 500 0
DWIDTH 2 0
BBX 4 3 0 0
BITMAP
60
90
E0
ENDCHAR
STARTCHAR EA78
ENCODING 60024
SWIDTH 500 0
DWIDTH 2 0
BBX 4 3 0 0
BITMAP
F0
B0
E0
ENDCHAR
STARTCHAR EA79
ENCODING 60025
SWIDTH 500 0
DWIDTH 2 0
BBX 3 3 0 0
BITMAP
40
A0
E0
ENDCHAR
STARTCHAR EA7A
ENCODING 60026
SWIDTH 500 0
DWIDTH 2 0
BBX 4 3 0 0
BITMAP
F0
90
F0
ENDCHAR
STARTCHAR EA7B
ENCODING 60027
SWIDTH 500 0
DWIDTH 2 0
BBX 3 3 0 0
BITMAP
E0
A0
E0
ENDCHAR
STARTCHAR EA7C
ENCODING 60028
SWIDTH 500 0
DWIDTH 2 0
BBX 3 1 0 1
BITMAP
E0
ENDCHAR
STARTCHAR EA7D
ENCODING 60029
SWIDTH 500 0
DWIDTH 2 0
BBX 3 3 0 0
BITMAP
80
E0
20
ENDCHAR
STARTCHAR EA7E
ENCODING 60030
SWIDTH 500 0
DWIDTH 2 0
BBX 4 3 0 0
BITMAP
E0
B0
F0
ENDCHAR
STARTCHAR EA7F
ENCODING 60031
SWIDTH 500 0
DWIDTH 2 0
BBX 3 3 0 0
BITMAP
E0
80
A0
ENDCHAR
STARTCHAR EA80
ENCODING 60032
SWIDTH 500 0
DWIDTH 2 0
BBX 4 3 0 0
BITMAP
F0
80
F0
ENDCHAR
STARTCHAR EA81
ENCODING 60033
SWIDTH 500 0
DWIDTH 2 0
BBX 3 3 0 0
BITMAP
E0
C0
C0
ENDCHAR
STARTCHAR EA82
ENCODING 60034
SWIDTH 500 0
DWIDTH 2 0
BBX 4 3 0 0
BITMAP
E0
50
F0
ENDCHAR
STARTCHAR EA83
ENCODING 60035
SWIDTH 500 0
DWIDTH 2 0
BBX 4 3 0 0
BITMAP
F0
90
F0
ENDCHAR
STARTCHAR EA84
ENCODING 60036
SWIDTH 500 0
DWIDTH 2 0
BBX 4 4 0 -1
BITMAP
F0
F0
D0
60
ENDCHAR
STARTCHAR EA85
ENCODING 60037
SWIDTH 500 0
DWIDTH 2 0
BBX 4 3 0 0
BITMAP
F0
B0
F0
ENDCHAR
STARTCHAR EA86
ENCODING 60038
SWIDTH 500 0
DWIDTH 2 0
BBX 2 3 0 0
BITMAP
C0
C0
80
ENDCHAR
STARTCHAR EA87
ENCODING 60039
SWIDTH 500 0
DWIDTH 2 0
BBX 3 3 0 0
BITMAP
E0
E0
E0
ENDCHAR
STARTCHAR EA88
ENCODING 60040
SWIDTH 500 0
DWIDTH 2 0
BBX 4 3 0 0
BITMAP
90
F0
90
ENDCHAR
STARTCHAR EA8A
ENCODING 60042
SWIDTH 500 0
DWIDTH 2 0
BBX 4 3 0 0
BITMAP
90
90
90
ENDCHAR
STARTCHAR EA8B
ENCODING 60043
SWIDTH 500 0
DWIDTH 2 0
BBX 3 3 0 0
BITMAP
A0
A0
A0
ENDCHAR
STARTCHAR EA8C
ENCODING 60044
SWIDTH 500 0
DWIDTH 2 0
BBX 3 3 0 0
BITMAP
E0
E0
E0
ENDCHAR
STARTCHAR EA8F
ENCODING 60047
SWIDTH 500 0
DWIDTH 2 0
BBX 4 3 0 0
BITMAP
F0
B0
F0
ENDCHAR
STARTCHAR EA90
ENCODING 60048
SWIDTH 500 0
DWIDTH 2 0
BBX 4 3 0 0
BITMAP
F0
60
F0
ENDCHAR
STARTCHAR EA91
ENCODING 60049
SWIDTH 500 0
DWIDTH 2 0
BBX 4 3 0 0
BITMAP
F0
60
B0
ENDCHAR
STARTCHAR EA92
ENCODING 60050
SWIDTH 500 0
DWIDTH 2 0
BBX 4 2 0 0
BITMAP
F0
40
ENDCHAR
STARTCHAR EA93
ENCODING 60051
SWIDTH 500 0
DWIDTH 2 0
BBX 4 2 0 0
BITMAP
F0
D0
ENDCHAR
STARTCHAR EA94
ENCODING 60052
SWIDTH 500 0
DWIDTH 2 0
BBX 4 3 0 0
BITMAP
F0
90
70
ENDCHAR
STARTCHAR EA95
ENCODING 60053
SWIDTH 500 0
DWIDTH 2 0
BBX 4 3 0 0
BITMAP
70
F0
C0
ENDCHAR
STARTCHAR EA96
ENCODING 60054
SWIDTH 500 0
DWIDTH 2 0
BBX 3 3 0 0
BITMAP
E0
A0
E0
ENDCHAR
STARTCHAR EA97
ENCODING 60055
SWIDTH 500 0
DWIDTH 2 0
BBX 4 3 0 0
BITMAP
70
F0
C0
ENDCHAR
STARTCHAR EA98
ENCODING 60056
SWIDTH 500 0
DWIDTH 2 0
BBX 4 3 0 0
BITMAP
F0
E0
F0
ENDCHAR
STARTCHAR EA99
ENCODING 60057
SWIDTH 500 0
DWIDTH 2 0
BBX 3 1 0 1
BITMAP
E0
ENDCHAR
STARTCHAR EA9A
ENCODING 60058
SWIDTH 500 0
DWIDTH 2 0
BBX 3 3 0 0
BITMAP
40
60
C0
ENDCHAR
STARTCHAR EA9B
ENCODING 60059
SWIDTH 500 0
DWIDTH 2 0
BBX 3 3 0 0
BITMAP
40
E0
40
ENDCHAR
STARTCHAR EA9C
ENCODING 60060
SWIDTH 500 0
DWIDTH 2 0
BBX 3 3 0 0
BITMAP
40
E0
40
ENDCHAR
STARTCHAR EA9D
ENCODING 60061
SWIDTH 500 0
DWIDTH 2 0
BBX 2 1 0 1
BITMAP
C0
ENDCHAR
STARTCHAR EA9E
ENCODING 60062
SWIDTH 500 0
DWIDTH 2 0
BBX 2 1 0 1
BITMAP
C0
ENDCHAR
STARTCHAR EA9F
ENCODING 60063
SWIDTH 500 0
DWIDTH 2 0
BBX 2 1 0 1
BITMAP
C0
ENDCHAR
STARTCHAR EAA0
ENCODING 60064
SWIDTH 500 0
DWIDTH 2 0
BBX 2 1 0 1
BITMAP
C0
ENDCHAR
STARTCHAR EAA1
ENCODING 60065
SWIDTH 500 0
DWIDTH 2 0
BBX 3 3 0 0
BITMAP
C0
A0
40
ENDCHAR
STARTCHAR EAA2
ENCODING 60066
SWIDTH 500 0
DWIDTH 2 0
BBX 3 3 0 0
BITMAP
E0
A0
E0
ENDCHAR
STARTCHAR EAA3
ENCODING 60067
SWIDTH 500 0
DWIDTH 2 0
BBX 2 3 0 0
BITMAP
C0
C0
C0
ENDCHAR
STARTCHAR EAA4
ENCODING 60068
SWIDTH 500 0
DWIDTH 2 0
BBX 4 3 0 0
BITMAP
F0
B0
F0
ENDCHAR
STARTCHAR EAA5
ENCODING 60069
SWIDTH 500 0
DWIDTH 2 0
BBX 3 3 0 0
BITMAP
E0
A0
E0
ENDCHAR
STARTCHAR EAA6
ENCODING 60070
SWIDTH 500 0
DWIDTH 2 0
BBX 2 2 0 0
BITMAP
C0
40
ENDCHAR
STARTCHAR EAA7
ENCODING 60071
SWIDTH 500 0
DWIDTH 2 0
BBX 2 2 0 0
BITMAP
C0
40
ENDCHAR
STARTCHAR EAA8
ENCODING 60072
SWIDTH 500 0
DWIDTH 2 0
BBX 2 2 0 0
BITMAP
C0
40
ENDCHAR
STARTCHAR EAA9
ENCODING 60073
SWIDTH 500 0
DWIDTH 2 0
BBX 2 2 0 0
BITMAP
C0
40
ENDCHAR
STARTCHAR EAAA
ENCODING 60074
SWIDTH 500 0
DWIDTH 2 0
BBX 2 3 0 0
BITMAP
40
C0
40
ENDCHAR
STARTCHAR EAAB
ENCODING 60075
SWIDTH 500 0
DWIDTH 2 0
BBX 3 3 0 0
BITMAP
40
E0
40
ENDCHAR
STARTCHAR EAAC
ENCODING 60076
SWIDTH 500 0
DWIDTH 2 0
BBX 4 3 0 0
BITMAP
60
D0
F0
ENDCHAR
STARTCHAR EAAD
ENCODING 60077
SWIDTH 500 0
DWIDTH 2 0
BBX 3 3 0 0
BITMAP
E0
E0
40
ENDCHAR
STARTCHAR EAAE
ENCODING 60078
SWIDTH 500 0
DWIDTH 2 0
BBX 4 3 0 0
BITMAP
F0
90
F0
ENDCHAR
STARTCHAR EAAF
ENCODING 60079
SWIDTH 500 0
DWIDTH 2 0
BBX 3 3 0 0
BITMAP
E0
A0
E0
ENDCHAR
STARTCHAR EAB0
ENCODING 60080
SWIDTH 500 0
DWIDTH 2 0
BBX 4 3 0 0
BITMAP
F0
D0
F0
ENDCHAR
STARTCHAR EAB1
ENCODING 60081
SWIDTH 500 0
DWIDTH 2 0
BBX 3 2 0 0
BITMAP
A0
E0
ENDCHAR
STARTCHAR EAB2
ENCODING 60082
SWIDTH 500 0
DWIDTH 2 0
BBX 3 3 0 0
BITMAP
20
20
C0
ENDCHAR
STARTCHAR EAB3
ENCODING 60083
SWIDTH 500 0
DWIDTH 2 0
BBX 3 3 0 0
BITMAP
E0
80
E0
ENDCHAR
STARTCHAR EAB4
ENCODING 60084
SWIDTH 500 0
DWIDTH 2 0
BBX 2 1 0 1
BITMAP
C0
ENDCHAR
STARTCHAR EAB5
ENCODING 60085
SWIDTH 500 0
DWIDTH 2 0
BBX 2 3 0 0
BITMAP
40
80
40
ENDCHAR
STARTCHAR EAB6
ENCODING 60086
SWIDTH 500 0
DWIDTH 2 0
BBX 1 3 1 0
BITMAP
80
80
80
ENDCHAR
STARTCHAR EAB7
ENCODING 60087
SWIDTH 500 0
DWIDTH 2 0
BBX 3 1 0 1
BITMAP
E0
ENDCHAR
STARTCHAR EAB8
ENCODING 60088
SWIDTH 500 0
DWIDTH 2 0
BBX 3 3 0 0
BITMAP
A0
40
A0
ENDCHAR
STARTCHAR EAB9
ENCODING 60089
SWIDTH 500 0
DWIDTH 2 0
BBX 3 3 0 0
BITMAP
E0
A0
E0
ENDCHAR
STARTCHAR EABA
ENCODING 60090
SWIDTH 500 0
DWIDTH 2 0
BBX 3 1 0 1
BITMAP
E0
ENDCHAR
STARTCHAR EABB
ENCODING 60091
SWIDTH 500 0
DWIDTH 2 0
BBX 3 3 0 0
BITMAP
E0
A0
E0
ENDCHAR
STARTCHAR EABC
ENCODING 60092
SWIDTH 500 0
DWIDTH 2 0
BBX 2 2 0 0
BITMAP
C0
40
ENDCHAR
ENDFONT
